%TF.GenerationSoftware,KiCad,Pcbnew,9.0.7*%
%TF.CreationDate,2026-03-10T23:21:33-07:00*%
%TF.ProjectId,Main Board,4d61696e-2042-46f6-9172-642e6b696361,rev?*%
%TF.SameCoordinates,Original*%
%TF.FileFunction,Drillmap*%
%TF.FilePolarity,Positive*%
%FSLAX45Y45*%
G04 Gerber Fmt 4.5, Leading zero omitted, Abs format (unit mm)*
G04 Created by KiCad (PCBNEW 9.0.7) date 2026-03-10 23:21:33*
%MOMM*%
%LPD*%
G01*
G04 APERTURE LIST*
%ADD10C,0.050000*%
%ADD11C,0.200000*%
%ADD12C,0.100000*%
%ADD13C,0.210000*%
G04 APERTURE END LIST*
D10*
X7350000Y-4250000D02*
X14450000Y-4250000D01*
X14450000Y-10000000D01*
X7350000Y-10000000D01*
X7350000Y-4250000D01*
D11*
D12*
X8127500Y-6678500D02*
X8192500Y-6743500D01*
X8192500Y-6678500D02*
X8127500Y-6743500D01*
X8127500Y-7256500D02*
X8192500Y-7321500D01*
X8192500Y-7256500D02*
X8127500Y-7321500D01*
X9236671Y-9247835D02*
G75*
G02*
X9146671Y-9247835I-45000J0D01*
G01*
X9146671Y-9247835D02*
G75*
G02*
X9236671Y-9247835I45000J0D01*
G01*
X9536671Y-9247835D02*
G75*
G02*
X9446671Y-9247835I-45000J0D01*
G01*
X9446671Y-9247835D02*
G75*
G02*
X9536671Y-9247835I45000J0D01*
G01*
D13*
X7650000Y-4445000D02*
X7650000Y-4655000D01*
X7545000Y-4550000D02*
X7755000Y-4550000D01*
X7650000Y-9595000D02*
X7650000Y-9805000D01*
X7545000Y-9700000D02*
X7755000Y-9700000D01*
X14150000Y-4445000D02*
X14150000Y-4655000D01*
X14045000Y-4550000D02*
X14255000Y-4550000D01*
X14150000Y-9595000D02*
X14150000Y-9805000D01*
X14045000Y-9700000D02*
X14255000Y-9700000D01*
D11*
X7608277Y-10313984D02*
X7608277Y-10113984D01*
X7608277Y-10113984D02*
X7655896Y-10113984D01*
X7655896Y-10113984D02*
X7684467Y-10123508D01*
X7684467Y-10123508D02*
X7703515Y-10142555D01*
X7703515Y-10142555D02*
X7713039Y-10161603D01*
X7713039Y-10161603D02*
X7722562Y-10199698D01*
X7722562Y-10199698D02*
X7722562Y-10228270D01*
X7722562Y-10228270D02*
X7713039Y-10266365D01*
X7713039Y-10266365D02*
X7703515Y-10285412D01*
X7703515Y-10285412D02*
X7684467Y-10304460D01*
X7684467Y-10304460D02*
X7655896Y-10313984D01*
X7655896Y-10313984D02*
X7608277Y-10313984D01*
X7808277Y-10313984D02*
X7808277Y-10180650D01*
X7808277Y-10218746D02*
X7817801Y-10199698D01*
X7817801Y-10199698D02*
X7827324Y-10190174D01*
X7827324Y-10190174D02*
X7846372Y-10180650D01*
X7846372Y-10180650D02*
X7865420Y-10180650D01*
X7932086Y-10313984D02*
X7932086Y-10180650D01*
X7932086Y-10113984D02*
X7922562Y-10123508D01*
X7922562Y-10123508D02*
X7932086Y-10133031D01*
X7932086Y-10133031D02*
X7941610Y-10123508D01*
X7941610Y-10123508D02*
X7932086Y-10113984D01*
X7932086Y-10113984D02*
X7932086Y-10133031D01*
X8055896Y-10313984D02*
X8036848Y-10304460D01*
X8036848Y-10304460D02*
X8027324Y-10285412D01*
X8027324Y-10285412D02*
X8027324Y-10113984D01*
X8160658Y-10313984D02*
X8141610Y-10304460D01*
X8141610Y-10304460D02*
X8132086Y-10285412D01*
X8132086Y-10285412D02*
X8132086Y-10113984D01*
X8389229Y-10313984D02*
X8389229Y-10113984D01*
X8389229Y-10113984D02*
X8455896Y-10256841D01*
X8455896Y-10256841D02*
X8522563Y-10113984D01*
X8522563Y-10113984D02*
X8522563Y-10313984D01*
X8703515Y-10313984D02*
X8703515Y-10209222D01*
X8703515Y-10209222D02*
X8693991Y-10190174D01*
X8693991Y-10190174D02*
X8674944Y-10180650D01*
X8674944Y-10180650D02*
X8636848Y-10180650D01*
X8636848Y-10180650D02*
X8617801Y-10190174D01*
X8703515Y-10304460D02*
X8684467Y-10313984D01*
X8684467Y-10313984D02*
X8636848Y-10313984D01*
X8636848Y-10313984D02*
X8617801Y-10304460D01*
X8617801Y-10304460D02*
X8608277Y-10285412D01*
X8608277Y-10285412D02*
X8608277Y-10266365D01*
X8608277Y-10266365D02*
X8617801Y-10247317D01*
X8617801Y-10247317D02*
X8636848Y-10237793D01*
X8636848Y-10237793D02*
X8684467Y-10237793D01*
X8684467Y-10237793D02*
X8703515Y-10228270D01*
X8798753Y-10180650D02*
X8798753Y-10380650D01*
X8798753Y-10190174D02*
X8817801Y-10180650D01*
X8817801Y-10180650D02*
X8855896Y-10180650D01*
X8855896Y-10180650D02*
X8874944Y-10190174D01*
X8874944Y-10190174D02*
X8884467Y-10199698D01*
X8884467Y-10199698D02*
X8893991Y-10218746D01*
X8893991Y-10218746D02*
X8893991Y-10275889D01*
X8893991Y-10275889D02*
X8884467Y-10294936D01*
X8884467Y-10294936D02*
X8874944Y-10304460D01*
X8874944Y-10304460D02*
X8855896Y-10313984D01*
X8855896Y-10313984D02*
X8817801Y-10313984D01*
X8817801Y-10313984D02*
X8798753Y-10304460D01*
X8979705Y-10294936D02*
X8989229Y-10304460D01*
X8989229Y-10304460D02*
X8979705Y-10313984D01*
X8979705Y-10313984D02*
X8970182Y-10304460D01*
X8970182Y-10304460D02*
X8979705Y-10294936D01*
X8979705Y-10294936D02*
X8979705Y-10313984D01*
X8979705Y-10190174D02*
X8989229Y-10199698D01*
X8989229Y-10199698D02*
X8979705Y-10209222D01*
X8979705Y-10209222D02*
X8970182Y-10199698D01*
X8970182Y-10199698D02*
X8979705Y-10190174D01*
X8979705Y-10190174D02*
X8979705Y-10209222D01*
D12*
X7282500Y-10610000D02*
X7347500Y-10675000D01*
X7347500Y-10610000D02*
X7282500Y-10675000D01*
D11*
X7646372Y-10533984D02*
X7665420Y-10533984D01*
X7665420Y-10533984D02*
X7684467Y-10543508D01*
X7684467Y-10543508D02*
X7693991Y-10553031D01*
X7693991Y-10553031D02*
X7703515Y-10572079D01*
X7703515Y-10572079D02*
X7713039Y-10610174D01*
X7713039Y-10610174D02*
X7713039Y-10657793D01*
X7713039Y-10657793D02*
X7703515Y-10695889D01*
X7703515Y-10695889D02*
X7693991Y-10714936D01*
X7693991Y-10714936D02*
X7684467Y-10724460D01*
X7684467Y-10724460D02*
X7665420Y-10733984D01*
X7665420Y-10733984D02*
X7646372Y-10733984D01*
X7646372Y-10733984D02*
X7627324Y-10724460D01*
X7627324Y-10724460D02*
X7617801Y-10714936D01*
X7617801Y-10714936D02*
X7608277Y-10695889D01*
X7608277Y-10695889D02*
X7598753Y-10657793D01*
X7598753Y-10657793D02*
X7598753Y-10610174D01*
X7598753Y-10610174D02*
X7608277Y-10572079D01*
X7608277Y-10572079D02*
X7617801Y-10553031D01*
X7617801Y-10553031D02*
X7627324Y-10543508D01*
X7627324Y-10543508D02*
X7646372Y-10533984D01*
X7798753Y-10714936D02*
X7808277Y-10724460D01*
X7808277Y-10724460D02*
X7798753Y-10733984D01*
X7798753Y-10733984D02*
X7789229Y-10724460D01*
X7789229Y-10724460D02*
X7798753Y-10714936D01*
X7798753Y-10714936D02*
X7798753Y-10733984D01*
X7979705Y-10533984D02*
X7941610Y-10533984D01*
X7941610Y-10533984D02*
X7922562Y-10543508D01*
X7922562Y-10543508D02*
X7913039Y-10553031D01*
X7913039Y-10553031D02*
X7893991Y-10581603D01*
X7893991Y-10581603D02*
X7884467Y-10619698D01*
X7884467Y-10619698D02*
X7884467Y-10695889D01*
X7884467Y-10695889D02*
X7893991Y-10714936D01*
X7893991Y-10714936D02*
X7903515Y-10724460D01*
X7903515Y-10724460D02*
X7922562Y-10733984D01*
X7922562Y-10733984D02*
X7960658Y-10733984D01*
X7960658Y-10733984D02*
X7979705Y-10724460D01*
X7979705Y-10724460D02*
X7989229Y-10714936D01*
X7989229Y-10714936D02*
X7998753Y-10695889D01*
X7998753Y-10695889D02*
X7998753Y-10648270D01*
X7998753Y-10648270D02*
X7989229Y-10629222D01*
X7989229Y-10629222D02*
X7979705Y-10619698D01*
X7979705Y-10619698D02*
X7960658Y-10610174D01*
X7960658Y-10610174D02*
X7922562Y-10610174D01*
X7922562Y-10610174D02*
X7903515Y-10619698D01*
X7903515Y-10619698D02*
X7893991Y-10629222D01*
X7893991Y-10629222D02*
X7884467Y-10648270D01*
X8179705Y-10533984D02*
X8084467Y-10533984D01*
X8084467Y-10533984D02*
X8074943Y-10629222D01*
X8074943Y-10629222D02*
X8084467Y-10619698D01*
X8084467Y-10619698D02*
X8103515Y-10610174D01*
X8103515Y-10610174D02*
X8151134Y-10610174D01*
X8151134Y-10610174D02*
X8170182Y-10619698D01*
X8170182Y-10619698D02*
X8179705Y-10629222D01*
X8179705Y-10629222D02*
X8189229Y-10648270D01*
X8189229Y-10648270D02*
X8189229Y-10695889D01*
X8189229Y-10695889D02*
X8179705Y-10714936D01*
X8179705Y-10714936D02*
X8170182Y-10724460D01*
X8170182Y-10724460D02*
X8151134Y-10733984D01*
X8151134Y-10733984D02*
X8103515Y-10733984D01*
X8103515Y-10733984D02*
X8084467Y-10724460D01*
X8084467Y-10724460D02*
X8074943Y-10714936D01*
X8313039Y-10533984D02*
X8332086Y-10533984D01*
X8332086Y-10533984D02*
X8351134Y-10543508D01*
X8351134Y-10543508D02*
X8360658Y-10553031D01*
X8360658Y-10553031D02*
X8370182Y-10572079D01*
X8370182Y-10572079D02*
X8379705Y-10610174D01*
X8379705Y-10610174D02*
X8379705Y-10657793D01*
X8379705Y-10657793D02*
X8370182Y-10695889D01*
X8370182Y-10695889D02*
X8360658Y-10714936D01*
X8360658Y-10714936D02*
X8351134Y-10724460D01*
X8351134Y-10724460D02*
X8332086Y-10733984D01*
X8332086Y-10733984D02*
X8313039Y-10733984D01*
X8313039Y-10733984D02*
X8293991Y-10724460D01*
X8293991Y-10724460D02*
X8284467Y-10714936D01*
X8284467Y-10714936D02*
X8274943Y-10695889D01*
X8274943Y-10695889D02*
X8265420Y-10657793D01*
X8265420Y-10657793D02*
X8265420Y-10610174D01*
X8265420Y-10610174D02*
X8274943Y-10572079D01*
X8274943Y-10572079D02*
X8284467Y-10553031D01*
X8284467Y-10553031D02*
X8293991Y-10543508D01*
X8293991Y-10543508D02*
X8313039Y-10533984D01*
X8465420Y-10733984D02*
X8465420Y-10600650D01*
X8465420Y-10619698D02*
X8474944Y-10610174D01*
X8474944Y-10610174D02*
X8493991Y-10600650D01*
X8493991Y-10600650D02*
X8522563Y-10600650D01*
X8522563Y-10600650D02*
X8541610Y-10610174D01*
X8541610Y-10610174D02*
X8551134Y-10629222D01*
X8551134Y-10629222D02*
X8551134Y-10733984D01*
X8551134Y-10629222D02*
X8560658Y-10610174D01*
X8560658Y-10610174D02*
X8579705Y-10600650D01*
X8579705Y-10600650D02*
X8608277Y-10600650D01*
X8608277Y-10600650D02*
X8627325Y-10610174D01*
X8627325Y-10610174D02*
X8636848Y-10629222D01*
X8636848Y-10629222D02*
X8636848Y-10733984D01*
X8732086Y-10733984D02*
X8732086Y-10600650D01*
X8732086Y-10619698D02*
X8741610Y-10610174D01*
X8741610Y-10610174D02*
X8760658Y-10600650D01*
X8760658Y-10600650D02*
X8789229Y-10600650D01*
X8789229Y-10600650D02*
X8808277Y-10610174D01*
X8808277Y-10610174D02*
X8817801Y-10629222D01*
X8817801Y-10629222D02*
X8817801Y-10733984D01*
X8817801Y-10629222D02*
X8827325Y-10610174D01*
X8827325Y-10610174D02*
X8846372Y-10600650D01*
X8846372Y-10600650D02*
X8874944Y-10600650D01*
X8874944Y-10600650D02*
X8893991Y-10610174D01*
X8893991Y-10610174D02*
X8903515Y-10629222D01*
X8903515Y-10629222D02*
X8903515Y-10733984D01*
X9293991Y-10524460D02*
X9122563Y-10781603D01*
X9551134Y-10533984D02*
X9570182Y-10533984D01*
X9570182Y-10533984D02*
X9589229Y-10543508D01*
X9589229Y-10543508D02*
X9598753Y-10553031D01*
X9598753Y-10553031D02*
X9608277Y-10572079D01*
X9608277Y-10572079D02*
X9617801Y-10610174D01*
X9617801Y-10610174D02*
X9617801Y-10657793D01*
X9617801Y-10657793D02*
X9608277Y-10695889D01*
X9608277Y-10695889D02*
X9598753Y-10714936D01*
X9598753Y-10714936D02*
X9589229Y-10724460D01*
X9589229Y-10724460D02*
X9570182Y-10733984D01*
X9570182Y-10733984D02*
X9551134Y-10733984D01*
X9551134Y-10733984D02*
X9532087Y-10724460D01*
X9532087Y-10724460D02*
X9522563Y-10714936D01*
X9522563Y-10714936D02*
X9513039Y-10695889D01*
X9513039Y-10695889D02*
X9503515Y-10657793D01*
X9503515Y-10657793D02*
X9503515Y-10610174D01*
X9503515Y-10610174D02*
X9513039Y-10572079D01*
X9513039Y-10572079D02*
X9522563Y-10553031D01*
X9522563Y-10553031D02*
X9532087Y-10543508D01*
X9532087Y-10543508D02*
X9551134Y-10533984D01*
X9703515Y-10714936D02*
X9713039Y-10724460D01*
X9713039Y-10724460D02*
X9703515Y-10733984D01*
X9703515Y-10733984D02*
X9693991Y-10724460D01*
X9693991Y-10724460D02*
X9703515Y-10714936D01*
X9703515Y-10714936D02*
X9703515Y-10733984D01*
X9836848Y-10533984D02*
X9855896Y-10533984D01*
X9855896Y-10533984D02*
X9874944Y-10543508D01*
X9874944Y-10543508D02*
X9884468Y-10553031D01*
X9884468Y-10553031D02*
X9893991Y-10572079D01*
X9893991Y-10572079D02*
X9903515Y-10610174D01*
X9903515Y-10610174D02*
X9903515Y-10657793D01*
X9903515Y-10657793D02*
X9893991Y-10695889D01*
X9893991Y-10695889D02*
X9884468Y-10714936D01*
X9884468Y-10714936D02*
X9874944Y-10724460D01*
X9874944Y-10724460D02*
X9855896Y-10733984D01*
X9855896Y-10733984D02*
X9836848Y-10733984D01*
X9836848Y-10733984D02*
X9817801Y-10724460D01*
X9817801Y-10724460D02*
X9808277Y-10714936D01*
X9808277Y-10714936D02*
X9798753Y-10695889D01*
X9798753Y-10695889D02*
X9789229Y-10657793D01*
X9789229Y-10657793D02*
X9789229Y-10610174D01*
X9789229Y-10610174D02*
X9798753Y-10572079D01*
X9798753Y-10572079D02*
X9808277Y-10553031D01*
X9808277Y-10553031D02*
X9817801Y-10543508D01*
X9817801Y-10543508D02*
X9836848Y-10533984D01*
X9979706Y-10553031D02*
X9989229Y-10543508D01*
X9989229Y-10543508D02*
X10008277Y-10533984D01*
X10008277Y-10533984D02*
X10055896Y-10533984D01*
X10055896Y-10533984D02*
X10074944Y-10543508D01*
X10074944Y-10543508D02*
X10084468Y-10553031D01*
X10084468Y-10553031D02*
X10093991Y-10572079D01*
X10093991Y-10572079D02*
X10093991Y-10591127D01*
X10093991Y-10591127D02*
X10084468Y-10619698D01*
X10084468Y-10619698D02*
X9970182Y-10733984D01*
X9970182Y-10733984D02*
X10093991Y-10733984D01*
X10274944Y-10533984D02*
X10179706Y-10533984D01*
X10179706Y-10533984D02*
X10170182Y-10629222D01*
X10170182Y-10629222D02*
X10179706Y-10619698D01*
X10179706Y-10619698D02*
X10198753Y-10610174D01*
X10198753Y-10610174D02*
X10246372Y-10610174D01*
X10246372Y-10610174D02*
X10265420Y-10619698D01*
X10265420Y-10619698D02*
X10274944Y-10629222D01*
X10274944Y-10629222D02*
X10284468Y-10648270D01*
X10284468Y-10648270D02*
X10284468Y-10695889D01*
X10284468Y-10695889D02*
X10274944Y-10714936D01*
X10274944Y-10714936D02*
X10265420Y-10724460D01*
X10265420Y-10724460D02*
X10246372Y-10733984D01*
X10246372Y-10733984D02*
X10198753Y-10733984D01*
X10198753Y-10733984D02*
X10179706Y-10724460D01*
X10179706Y-10724460D02*
X10170182Y-10714936D01*
X10455896Y-10533984D02*
X10417801Y-10533984D01*
X10417801Y-10533984D02*
X10398753Y-10543508D01*
X10398753Y-10543508D02*
X10389229Y-10553031D01*
X10389229Y-10553031D02*
X10370182Y-10581603D01*
X10370182Y-10581603D02*
X10360658Y-10619698D01*
X10360658Y-10619698D02*
X10360658Y-10695889D01*
X10360658Y-10695889D02*
X10370182Y-10714936D01*
X10370182Y-10714936D02*
X10379706Y-10724460D01*
X10379706Y-10724460D02*
X10398753Y-10733984D01*
X10398753Y-10733984D02*
X10436849Y-10733984D01*
X10436849Y-10733984D02*
X10455896Y-10724460D01*
X10455896Y-10724460D02*
X10465420Y-10714936D01*
X10465420Y-10714936D02*
X10474944Y-10695889D01*
X10474944Y-10695889D02*
X10474944Y-10648270D01*
X10474944Y-10648270D02*
X10465420Y-10629222D01*
X10465420Y-10629222D02*
X10455896Y-10619698D01*
X10455896Y-10619698D02*
X10436849Y-10610174D01*
X10436849Y-10610174D02*
X10398753Y-10610174D01*
X10398753Y-10610174D02*
X10379706Y-10619698D01*
X10379706Y-10619698D02*
X10370182Y-10629222D01*
X10370182Y-10629222D02*
X10360658Y-10648270D01*
X10551134Y-10533984D02*
X10551134Y-10572079D01*
X10627325Y-10533984D02*
X10627325Y-10572079D01*
X10922563Y-10810174D02*
X10913039Y-10800650D01*
X10913039Y-10800650D02*
X10893991Y-10772079D01*
X10893991Y-10772079D02*
X10884468Y-10753031D01*
X10884468Y-10753031D02*
X10874944Y-10724460D01*
X10874944Y-10724460D02*
X10865420Y-10676841D01*
X10865420Y-10676841D02*
X10865420Y-10638746D01*
X10865420Y-10638746D02*
X10874944Y-10591127D01*
X10874944Y-10591127D02*
X10884468Y-10562555D01*
X10884468Y-10562555D02*
X10893991Y-10543508D01*
X10893991Y-10543508D02*
X10913039Y-10514936D01*
X10913039Y-10514936D02*
X10922563Y-10505412D01*
X10989230Y-10553031D02*
X10998753Y-10543508D01*
X10998753Y-10543508D02*
X11017801Y-10533984D01*
X11017801Y-10533984D02*
X11065420Y-10533984D01*
X11065420Y-10533984D02*
X11084468Y-10543508D01*
X11084468Y-10543508D02*
X11093991Y-10553031D01*
X11093991Y-10553031D02*
X11103515Y-10572079D01*
X11103515Y-10572079D02*
X11103515Y-10591127D01*
X11103515Y-10591127D02*
X11093991Y-10619698D01*
X11093991Y-10619698D02*
X10979706Y-10733984D01*
X10979706Y-10733984D02*
X11103515Y-10733984D01*
X11341610Y-10733984D02*
X11341610Y-10533984D01*
X11427325Y-10733984D02*
X11427325Y-10629222D01*
X11427325Y-10629222D02*
X11417801Y-10610174D01*
X11417801Y-10610174D02*
X11398753Y-10600650D01*
X11398753Y-10600650D02*
X11370182Y-10600650D01*
X11370182Y-10600650D02*
X11351134Y-10610174D01*
X11351134Y-10610174D02*
X11341610Y-10619698D01*
X11551134Y-10733984D02*
X11532087Y-10724460D01*
X11532087Y-10724460D02*
X11522563Y-10714936D01*
X11522563Y-10714936D02*
X11513039Y-10695889D01*
X11513039Y-10695889D02*
X11513039Y-10638746D01*
X11513039Y-10638746D02*
X11522563Y-10619698D01*
X11522563Y-10619698D02*
X11532087Y-10610174D01*
X11532087Y-10610174D02*
X11551134Y-10600650D01*
X11551134Y-10600650D02*
X11579706Y-10600650D01*
X11579706Y-10600650D02*
X11598753Y-10610174D01*
X11598753Y-10610174D02*
X11608277Y-10619698D01*
X11608277Y-10619698D02*
X11617801Y-10638746D01*
X11617801Y-10638746D02*
X11617801Y-10695889D01*
X11617801Y-10695889D02*
X11608277Y-10714936D01*
X11608277Y-10714936D02*
X11598753Y-10724460D01*
X11598753Y-10724460D02*
X11579706Y-10733984D01*
X11579706Y-10733984D02*
X11551134Y-10733984D01*
X11732087Y-10733984D02*
X11713039Y-10724460D01*
X11713039Y-10724460D02*
X11703515Y-10705412D01*
X11703515Y-10705412D02*
X11703515Y-10533984D01*
X11884468Y-10724460D02*
X11865420Y-10733984D01*
X11865420Y-10733984D02*
X11827325Y-10733984D01*
X11827325Y-10733984D02*
X11808277Y-10724460D01*
X11808277Y-10724460D02*
X11798753Y-10705412D01*
X11798753Y-10705412D02*
X11798753Y-10629222D01*
X11798753Y-10629222D02*
X11808277Y-10610174D01*
X11808277Y-10610174D02*
X11827325Y-10600650D01*
X11827325Y-10600650D02*
X11865420Y-10600650D01*
X11865420Y-10600650D02*
X11884468Y-10610174D01*
X11884468Y-10610174D02*
X11893991Y-10629222D01*
X11893991Y-10629222D02*
X11893991Y-10648270D01*
X11893991Y-10648270D02*
X11798753Y-10667317D01*
X11970182Y-10724460D02*
X11989230Y-10733984D01*
X11989230Y-10733984D02*
X12027325Y-10733984D01*
X12027325Y-10733984D02*
X12046372Y-10724460D01*
X12046372Y-10724460D02*
X12055896Y-10705412D01*
X12055896Y-10705412D02*
X12055896Y-10695889D01*
X12055896Y-10695889D02*
X12046372Y-10676841D01*
X12046372Y-10676841D02*
X12027325Y-10667317D01*
X12027325Y-10667317D02*
X11998753Y-10667317D01*
X11998753Y-10667317D02*
X11979706Y-10657793D01*
X11979706Y-10657793D02*
X11970182Y-10638746D01*
X11970182Y-10638746D02*
X11970182Y-10629222D01*
X11970182Y-10629222D02*
X11979706Y-10610174D01*
X11979706Y-10610174D02*
X11998753Y-10600650D01*
X11998753Y-10600650D02*
X12027325Y-10600650D01*
X12027325Y-10600650D02*
X12046372Y-10610174D01*
X12122563Y-10810174D02*
X12132087Y-10800650D01*
X12132087Y-10800650D02*
X12151134Y-10772079D01*
X12151134Y-10772079D02*
X12160658Y-10753031D01*
X12160658Y-10753031D02*
X12170182Y-10724460D01*
X12170182Y-10724460D02*
X12179706Y-10676841D01*
X12179706Y-10676841D02*
X12179706Y-10638746D01*
X12179706Y-10638746D02*
X12170182Y-10591127D01*
X12170182Y-10591127D02*
X12160658Y-10562555D01*
X12160658Y-10562555D02*
X12151134Y-10543508D01*
X12151134Y-10543508D02*
X12132087Y-10514936D01*
X12132087Y-10514936D02*
X12122563Y-10505412D01*
X12484468Y-10810174D02*
X12474944Y-10800650D01*
X12474944Y-10800650D02*
X12455896Y-10772079D01*
X12455896Y-10772079D02*
X12446372Y-10753031D01*
X12446372Y-10753031D02*
X12436849Y-10724460D01*
X12436849Y-10724460D02*
X12427325Y-10676841D01*
X12427325Y-10676841D02*
X12427325Y-10638746D01*
X12427325Y-10638746D02*
X12436849Y-10591127D01*
X12436849Y-10591127D02*
X12446372Y-10562555D01*
X12446372Y-10562555D02*
X12455896Y-10543508D01*
X12455896Y-10543508D02*
X12474944Y-10514936D01*
X12474944Y-10514936D02*
X12484468Y-10505412D01*
X12560658Y-10600650D02*
X12560658Y-10733984D01*
X12560658Y-10619698D02*
X12570182Y-10610174D01*
X12570182Y-10610174D02*
X12589230Y-10600650D01*
X12589230Y-10600650D02*
X12617801Y-10600650D01*
X12617801Y-10600650D02*
X12636849Y-10610174D01*
X12636849Y-10610174D02*
X12646372Y-10629222D01*
X12646372Y-10629222D02*
X12646372Y-10733984D01*
X12770182Y-10733984D02*
X12751134Y-10724460D01*
X12751134Y-10724460D02*
X12741611Y-10714936D01*
X12741611Y-10714936D02*
X12732087Y-10695889D01*
X12732087Y-10695889D02*
X12732087Y-10638746D01*
X12732087Y-10638746D02*
X12741611Y-10619698D01*
X12741611Y-10619698D02*
X12751134Y-10610174D01*
X12751134Y-10610174D02*
X12770182Y-10600650D01*
X12770182Y-10600650D02*
X12798753Y-10600650D01*
X12798753Y-10600650D02*
X12817801Y-10610174D01*
X12817801Y-10610174D02*
X12827325Y-10619698D01*
X12827325Y-10619698D02*
X12836849Y-10638746D01*
X12836849Y-10638746D02*
X12836849Y-10695889D01*
X12836849Y-10695889D02*
X12827325Y-10714936D01*
X12827325Y-10714936D02*
X12817801Y-10724460D01*
X12817801Y-10724460D02*
X12798753Y-10733984D01*
X12798753Y-10733984D02*
X12770182Y-10733984D01*
X12893992Y-10600650D02*
X12970182Y-10600650D01*
X12922563Y-10533984D02*
X12922563Y-10705412D01*
X12922563Y-10705412D02*
X12932087Y-10724460D01*
X12932087Y-10724460D02*
X12951134Y-10733984D01*
X12951134Y-10733984D02*
X12970182Y-10733984D01*
X13189230Y-10600650D02*
X13189230Y-10800650D01*
X13189230Y-10610174D02*
X13208277Y-10600650D01*
X13208277Y-10600650D02*
X13246373Y-10600650D01*
X13246373Y-10600650D02*
X13265420Y-10610174D01*
X13265420Y-10610174D02*
X13274944Y-10619698D01*
X13274944Y-10619698D02*
X13284468Y-10638746D01*
X13284468Y-10638746D02*
X13284468Y-10695889D01*
X13284468Y-10695889D02*
X13274944Y-10714936D01*
X13274944Y-10714936D02*
X13265420Y-10724460D01*
X13265420Y-10724460D02*
X13246373Y-10733984D01*
X13246373Y-10733984D02*
X13208277Y-10733984D01*
X13208277Y-10733984D02*
X13189230Y-10724460D01*
X13398753Y-10733984D02*
X13379706Y-10724460D01*
X13379706Y-10724460D02*
X13370182Y-10705412D01*
X13370182Y-10705412D02*
X13370182Y-10533984D01*
X13560658Y-10733984D02*
X13560658Y-10629222D01*
X13560658Y-10629222D02*
X13551134Y-10610174D01*
X13551134Y-10610174D02*
X13532087Y-10600650D01*
X13532087Y-10600650D02*
X13493992Y-10600650D01*
X13493992Y-10600650D02*
X13474944Y-10610174D01*
X13560658Y-10724460D02*
X13541611Y-10733984D01*
X13541611Y-10733984D02*
X13493992Y-10733984D01*
X13493992Y-10733984D02*
X13474944Y-10724460D01*
X13474944Y-10724460D02*
X13465420Y-10705412D01*
X13465420Y-10705412D02*
X13465420Y-10686365D01*
X13465420Y-10686365D02*
X13474944Y-10667317D01*
X13474944Y-10667317D02*
X13493992Y-10657793D01*
X13493992Y-10657793D02*
X13541611Y-10657793D01*
X13541611Y-10657793D02*
X13560658Y-10648270D01*
X13627325Y-10600650D02*
X13703515Y-10600650D01*
X13655896Y-10533984D02*
X13655896Y-10705412D01*
X13655896Y-10705412D02*
X13665420Y-10724460D01*
X13665420Y-10724460D02*
X13684468Y-10733984D01*
X13684468Y-10733984D02*
X13703515Y-10733984D01*
X13846373Y-10724460D02*
X13827325Y-10733984D01*
X13827325Y-10733984D02*
X13789230Y-10733984D01*
X13789230Y-10733984D02*
X13770182Y-10724460D01*
X13770182Y-10724460D02*
X13760658Y-10705412D01*
X13760658Y-10705412D02*
X13760658Y-10629222D01*
X13760658Y-10629222D02*
X13770182Y-10610174D01*
X13770182Y-10610174D02*
X13789230Y-10600650D01*
X13789230Y-10600650D02*
X13827325Y-10600650D01*
X13827325Y-10600650D02*
X13846373Y-10610174D01*
X13846373Y-10610174D02*
X13855896Y-10629222D01*
X13855896Y-10629222D02*
X13855896Y-10648270D01*
X13855896Y-10648270D02*
X13760658Y-10667317D01*
X14027325Y-10733984D02*
X14027325Y-10533984D01*
X14027325Y-10724460D02*
X14008277Y-10733984D01*
X14008277Y-10733984D02*
X13970182Y-10733984D01*
X13970182Y-10733984D02*
X13951134Y-10724460D01*
X13951134Y-10724460D02*
X13941611Y-10714936D01*
X13941611Y-10714936D02*
X13932087Y-10695889D01*
X13932087Y-10695889D02*
X13932087Y-10638746D01*
X13932087Y-10638746D02*
X13941611Y-10619698D01*
X13941611Y-10619698D02*
X13951134Y-10610174D01*
X13951134Y-10610174D02*
X13970182Y-10600650D01*
X13970182Y-10600650D02*
X14008277Y-10600650D01*
X14008277Y-10600650D02*
X14027325Y-10610174D01*
X14103515Y-10810174D02*
X14113039Y-10800650D01*
X14113039Y-10800650D02*
X14132087Y-10772079D01*
X14132087Y-10772079D02*
X14141611Y-10753031D01*
X14141611Y-10753031D02*
X14151134Y-10724460D01*
X14151134Y-10724460D02*
X14160658Y-10676841D01*
X14160658Y-10676841D02*
X14160658Y-10638746D01*
X14160658Y-10638746D02*
X14151134Y-10591127D01*
X14151134Y-10591127D02*
X14141611Y-10562555D01*
X14141611Y-10562555D02*
X14132087Y-10543508D01*
X14132087Y-10543508D02*
X14113039Y-10514936D01*
X14113039Y-10514936D02*
X14103515Y-10505412D01*
D12*
X7347500Y-10906500D02*
G75*
G02*
X7257500Y-10906500I-45000J0D01*
G01*
X7257500Y-10906500D02*
G75*
G02*
X7347500Y-10906500I45000J0D01*
G01*
D11*
X7646372Y-10797984D02*
X7665420Y-10797984D01*
X7665420Y-10797984D02*
X7684467Y-10807508D01*
X7684467Y-10807508D02*
X7693991Y-10817031D01*
X7693991Y-10817031D02*
X7703515Y-10836079D01*
X7703515Y-10836079D02*
X7713039Y-10874174D01*
X7713039Y-10874174D02*
X7713039Y-10921793D01*
X7713039Y-10921793D02*
X7703515Y-10959889D01*
X7703515Y-10959889D02*
X7693991Y-10978936D01*
X7693991Y-10978936D02*
X7684467Y-10988460D01*
X7684467Y-10988460D02*
X7665420Y-10997984D01*
X7665420Y-10997984D02*
X7646372Y-10997984D01*
X7646372Y-10997984D02*
X7627324Y-10988460D01*
X7627324Y-10988460D02*
X7617801Y-10978936D01*
X7617801Y-10978936D02*
X7608277Y-10959889D01*
X7608277Y-10959889D02*
X7598753Y-10921793D01*
X7598753Y-10921793D02*
X7598753Y-10874174D01*
X7598753Y-10874174D02*
X7608277Y-10836079D01*
X7608277Y-10836079D02*
X7617801Y-10817031D01*
X7617801Y-10817031D02*
X7627324Y-10807508D01*
X7627324Y-10807508D02*
X7646372Y-10797984D01*
X7798753Y-10978936D02*
X7808277Y-10988460D01*
X7808277Y-10988460D02*
X7798753Y-10997984D01*
X7798753Y-10997984D02*
X7789229Y-10988460D01*
X7789229Y-10988460D02*
X7798753Y-10978936D01*
X7798753Y-10978936D02*
X7798753Y-10997984D01*
X7903515Y-10997984D02*
X7941610Y-10997984D01*
X7941610Y-10997984D02*
X7960658Y-10988460D01*
X7960658Y-10988460D02*
X7970182Y-10978936D01*
X7970182Y-10978936D02*
X7989229Y-10950365D01*
X7989229Y-10950365D02*
X7998753Y-10912270D01*
X7998753Y-10912270D02*
X7998753Y-10836079D01*
X7998753Y-10836079D02*
X7989229Y-10817031D01*
X7989229Y-10817031D02*
X7979705Y-10807508D01*
X7979705Y-10807508D02*
X7960658Y-10797984D01*
X7960658Y-10797984D02*
X7922562Y-10797984D01*
X7922562Y-10797984D02*
X7903515Y-10807508D01*
X7903515Y-10807508D02*
X7893991Y-10817031D01*
X7893991Y-10817031D02*
X7884467Y-10836079D01*
X7884467Y-10836079D02*
X7884467Y-10883698D01*
X7884467Y-10883698D02*
X7893991Y-10902746D01*
X7893991Y-10902746D02*
X7903515Y-10912270D01*
X7903515Y-10912270D02*
X7922562Y-10921793D01*
X7922562Y-10921793D02*
X7960658Y-10921793D01*
X7960658Y-10921793D02*
X7979705Y-10912270D01*
X7979705Y-10912270D02*
X7989229Y-10902746D01*
X7989229Y-10902746D02*
X7998753Y-10883698D01*
X8122562Y-10797984D02*
X8141610Y-10797984D01*
X8141610Y-10797984D02*
X8160658Y-10807508D01*
X8160658Y-10807508D02*
X8170182Y-10817031D01*
X8170182Y-10817031D02*
X8179705Y-10836079D01*
X8179705Y-10836079D02*
X8189229Y-10874174D01*
X8189229Y-10874174D02*
X8189229Y-10921793D01*
X8189229Y-10921793D02*
X8179705Y-10959889D01*
X8179705Y-10959889D02*
X8170182Y-10978936D01*
X8170182Y-10978936D02*
X8160658Y-10988460D01*
X8160658Y-10988460D02*
X8141610Y-10997984D01*
X8141610Y-10997984D02*
X8122562Y-10997984D01*
X8122562Y-10997984D02*
X8103515Y-10988460D01*
X8103515Y-10988460D02*
X8093991Y-10978936D01*
X8093991Y-10978936D02*
X8084467Y-10959889D01*
X8084467Y-10959889D02*
X8074943Y-10921793D01*
X8074943Y-10921793D02*
X8074943Y-10874174D01*
X8074943Y-10874174D02*
X8084467Y-10836079D01*
X8084467Y-10836079D02*
X8093991Y-10817031D01*
X8093991Y-10817031D02*
X8103515Y-10807508D01*
X8103515Y-10807508D02*
X8122562Y-10797984D01*
X8313039Y-10797984D02*
X8332086Y-10797984D01*
X8332086Y-10797984D02*
X8351134Y-10807508D01*
X8351134Y-10807508D02*
X8360658Y-10817031D01*
X8360658Y-10817031D02*
X8370182Y-10836079D01*
X8370182Y-10836079D02*
X8379705Y-10874174D01*
X8379705Y-10874174D02*
X8379705Y-10921793D01*
X8379705Y-10921793D02*
X8370182Y-10959889D01*
X8370182Y-10959889D02*
X8360658Y-10978936D01*
X8360658Y-10978936D02*
X8351134Y-10988460D01*
X8351134Y-10988460D02*
X8332086Y-10997984D01*
X8332086Y-10997984D02*
X8313039Y-10997984D01*
X8313039Y-10997984D02*
X8293991Y-10988460D01*
X8293991Y-10988460D02*
X8284467Y-10978936D01*
X8284467Y-10978936D02*
X8274943Y-10959889D01*
X8274943Y-10959889D02*
X8265420Y-10921793D01*
X8265420Y-10921793D02*
X8265420Y-10874174D01*
X8265420Y-10874174D02*
X8274943Y-10836079D01*
X8274943Y-10836079D02*
X8284467Y-10817031D01*
X8284467Y-10817031D02*
X8293991Y-10807508D01*
X8293991Y-10807508D02*
X8313039Y-10797984D01*
X8465420Y-10997984D02*
X8465420Y-10864650D01*
X8465420Y-10883698D02*
X8474944Y-10874174D01*
X8474944Y-10874174D02*
X8493991Y-10864650D01*
X8493991Y-10864650D02*
X8522563Y-10864650D01*
X8522563Y-10864650D02*
X8541610Y-10874174D01*
X8541610Y-10874174D02*
X8551134Y-10893222D01*
X8551134Y-10893222D02*
X8551134Y-10997984D01*
X8551134Y-10893222D02*
X8560658Y-10874174D01*
X8560658Y-10874174D02*
X8579705Y-10864650D01*
X8579705Y-10864650D02*
X8608277Y-10864650D01*
X8608277Y-10864650D02*
X8627325Y-10874174D01*
X8627325Y-10874174D02*
X8636848Y-10893222D01*
X8636848Y-10893222D02*
X8636848Y-10997984D01*
X8732086Y-10997984D02*
X8732086Y-10864650D01*
X8732086Y-10883698D02*
X8741610Y-10874174D01*
X8741610Y-10874174D02*
X8760658Y-10864650D01*
X8760658Y-10864650D02*
X8789229Y-10864650D01*
X8789229Y-10864650D02*
X8808277Y-10874174D01*
X8808277Y-10874174D02*
X8817801Y-10893222D01*
X8817801Y-10893222D02*
X8817801Y-10997984D01*
X8817801Y-10893222D02*
X8827325Y-10874174D01*
X8827325Y-10874174D02*
X8846372Y-10864650D01*
X8846372Y-10864650D02*
X8874944Y-10864650D01*
X8874944Y-10864650D02*
X8893991Y-10874174D01*
X8893991Y-10874174D02*
X8903515Y-10893222D01*
X8903515Y-10893222D02*
X8903515Y-10997984D01*
X9293991Y-10788460D02*
X9122563Y-11045603D01*
X9551134Y-10797984D02*
X9570182Y-10797984D01*
X9570182Y-10797984D02*
X9589229Y-10807508D01*
X9589229Y-10807508D02*
X9598753Y-10817031D01*
X9598753Y-10817031D02*
X9608277Y-10836079D01*
X9608277Y-10836079D02*
X9617801Y-10874174D01*
X9617801Y-10874174D02*
X9617801Y-10921793D01*
X9617801Y-10921793D02*
X9608277Y-10959889D01*
X9608277Y-10959889D02*
X9598753Y-10978936D01*
X9598753Y-10978936D02*
X9589229Y-10988460D01*
X9589229Y-10988460D02*
X9570182Y-10997984D01*
X9570182Y-10997984D02*
X9551134Y-10997984D01*
X9551134Y-10997984D02*
X9532087Y-10988460D01*
X9532087Y-10988460D02*
X9522563Y-10978936D01*
X9522563Y-10978936D02*
X9513039Y-10959889D01*
X9513039Y-10959889D02*
X9503515Y-10921793D01*
X9503515Y-10921793D02*
X9503515Y-10874174D01*
X9503515Y-10874174D02*
X9513039Y-10836079D01*
X9513039Y-10836079D02*
X9522563Y-10817031D01*
X9522563Y-10817031D02*
X9532087Y-10807508D01*
X9532087Y-10807508D02*
X9551134Y-10797984D01*
X9703515Y-10978936D02*
X9713039Y-10988460D01*
X9713039Y-10988460D02*
X9703515Y-10997984D01*
X9703515Y-10997984D02*
X9693991Y-10988460D01*
X9693991Y-10988460D02*
X9703515Y-10978936D01*
X9703515Y-10978936D02*
X9703515Y-10997984D01*
X9836848Y-10797984D02*
X9855896Y-10797984D01*
X9855896Y-10797984D02*
X9874944Y-10807508D01*
X9874944Y-10807508D02*
X9884468Y-10817031D01*
X9884468Y-10817031D02*
X9893991Y-10836079D01*
X9893991Y-10836079D02*
X9903515Y-10874174D01*
X9903515Y-10874174D02*
X9903515Y-10921793D01*
X9903515Y-10921793D02*
X9893991Y-10959889D01*
X9893991Y-10959889D02*
X9884468Y-10978936D01*
X9884468Y-10978936D02*
X9874944Y-10988460D01*
X9874944Y-10988460D02*
X9855896Y-10997984D01*
X9855896Y-10997984D02*
X9836848Y-10997984D01*
X9836848Y-10997984D02*
X9817801Y-10988460D01*
X9817801Y-10988460D02*
X9808277Y-10978936D01*
X9808277Y-10978936D02*
X9798753Y-10959889D01*
X9798753Y-10959889D02*
X9789229Y-10921793D01*
X9789229Y-10921793D02*
X9789229Y-10874174D01*
X9789229Y-10874174D02*
X9798753Y-10836079D01*
X9798753Y-10836079D02*
X9808277Y-10817031D01*
X9808277Y-10817031D02*
X9817801Y-10807508D01*
X9817801Y-10807508D02*
X9836848Y-10797984D01*
X9970182Y-10797984D02*
X10093991Y-10797984D01*
X10093991Y-10797984D02*
X10027325Y-10874174D01*
X10027325Y-10874174D02*
X10055896Y-10874174D01*
X10055896Y-10874174D02*
X10074944Y-10883698D01*
X10074944Y-10883698D02*
X10084468Y-10893222D01*
X10084468Y-10893222D02*
X10093991Y-10912270D01*
X10093991Y-10912270D02*
X10093991Y-10959889D01*
X10093991Y-10959889D02*
X10084468Y-10978936D01*
X10084468Y-10978936D02*
X10074944Y-10988460D01*
X10074944Y-10988460D02*
X10055896Y-10997984D01*
X10055896Y-10997984D02*
X9998753Y-10997984D01*
X9998753Y-10997984D02*
X9979706Y-10988460D01*
X9979706Y-10988460D02*
X9970182Y-10978936D01*
X10274944Y-10797984D02*
X10179706Y-10797984D01*
X10179706Y-10797984D02*
X10170182Y-10893222D01*
X10170182Y-10893222D02*
X10179706Y-10883698D01*
X10179706Y-10883698D02*
X10198753Y-10874174D01*
X10198753Y-10874174D02*
X10246372Y-10874174D01*
X10246372Y-10874174D02*
X10265420Y-10883698D01*
X10265420Y-10883698D02*
X10274944Y-10893222D01*
X10274944Y-10893222D02*
X10284468Y-10912270D01*
X10284468Y-10912270D02*
X10284468Y-10959889D01*
X10284468Y-10959889D02*
X10274944Y-10978936D01*
X10274944Y-10978936D02*
X10265420Y-10988460D01*
X10265420Y-10988460D02*
X10246372Y-10997984D01*
X10246372Y-10997984D02*
X10198753Y-10997984D01*
X10198753Y-10997984D02*
X10179706Y-10988460D01*
X10179706Y-10988460D02*
X10170182Y-10978936D01*
X10455896Y-10864650D02*
X10455896Y-10997984D01*
X10408277Y-10788460D02*
X10360658Y-10931317D01*
X10360658Y-10931317D02*
X10484468Y-10931317D01*
X10551134Y-10797984D02*
X10551134Y-10836079D01*
X10627325Y-10797984D02*
X10627325Y-10836079D01*
X10922563Y-11074174D02*
X10913039Y-11064650D01*
X10913039Y-11064650D02*
X10893991Y-11036079D01*
X10893991Y-11036079D02*
X10884468Y-11017031D01*
X10884468Y-11017031D02*
X10874944Y-10988460D01*
X10874944Y-10988460D02*
X10865420Y-10940841D01*
X10865420Y-10940841D02*
X10865420Y-10902746D01*
X10865420Y-10902746D02*
X10874944Y-10855127D01*
X10874944Y-10855127D02*
X10884468Y-10826555D01*
X10884468Y-10826555D02*
X10893991Y-10807508D01*
X10893991Y-10807508D02*
X10913039Y-10778936D01*
X10913039Y-10778936D02*
X10922563Y-10769412D01*
X10989230Y-10817031D02*
X10998753Y-10807508D01*
X10998753Y-10807508D02*
X11017801Y-10797984D01*
X11017801Y-10797984D02*
X11065420Y-10797984D01*
X11065420Y-10797984D02*
X11084468Y-10807508D01*
X11084468Y-10807508D02*
X11093991Y-10817031D01*
X11093991Y-10817031D02*
X11103515Y-10836079D01*
X11103515Y-10836079D02*
X11103515Y-10855127D01*
X11103515Y-10855127D02*
X11093991Y-10883698D01*
X11093991Y-10883698D02*
X10979706Y-10997984D01*
X10979706Y-10997984D02*
X11103515Y-10997984D01*
X11341610Y-10997984D02*
X11341610Y-10797984D01*
X11427325Y-10997984D02*
X11427325Y-10893222D01*
X11427325Y-10893222D02*
X11417801Y-10874174D01*
X11417801Y-10874174D02*
X11398753Y-10864650D01*
X11398753Y-10864650D02*
X11370182Y-10864650D01*
X11370182Y-10864650D02*
X11351134Y-10874174D01*
X11351134Y-10874174D02*
X11341610Y-10883698D01*
X11551134Y-10997984D02*
X11532087Y-10988460D01*
X11532087Y-10988460D02*
X11522563Y-10978936D01*
X11522563Y-10978936D02*
X11513039Y-10959889D01*
X11513039Y-10959889D02*
X11513039Y-10902746D01*
X11513039Y-10902746D02*
X11522563Y-10883698D01*
X11522563Y-10883698D02*
X11532087Y-10874174D01*
X11532087Y-10874174D02*
X11551134Y-10864650D01*
X11551134Y-10864650D02*
X11579706Y-10864650D01*
X11579706Y-10864650D02*
X11598753Y-10874174D01*
X11598753Y-10874174D02*
X11608277Y-10883698D01*
X11608277Y-10883698D02*
X11617801Y-10902746D01*
X11617801Y-10902746D02*
X11617801Y-10959889D01*
X11617801Y-10959889D02*
X11608277Y-10978936D01*
X11608277Y-10978936D02*
X11598753Y-10988460D01*
X11598753Y-10988460D02*
X11579706Y-10997984D01*
X11579706Y-10997984D02*
X11551134Y-10997984D01*
X11732087Y-10997984D02*
X11713039Y-10988460D01*
X11713039Y-10988460D02*
X11703515Y-10969412D01*
X11703515Y-10969412D02*
X11703515Y-10797984D01*
X11884468Y-10988460D02*
X11865420Y-10997984D01*
X11865420Y-10997984D02*
X11827325Y-10997984D01*
X11827325Y-10997984D02*
X11808277Y-10988460D01*
X11808277Y-10988460D02*
X11798753Y-10969412D01*
X11798753Y-10969412D02*
X11798753Y-10893222D01*
X11798753Y-10893222D02*
X11808277Y-10874174D01*
X11808277Y-10874174D02*
X11827325Y-10864650D01*
X11827325Y-10864650D02*
X11865420Y-10864650D01*
X11865420Y-10864650D02*
X11884468Y-10874174D01*
X11884468Y-10874174D02*
X11893991Y-10893222D01*
X11893991Y-10893222D02*
X11893991Y-10912270D01*
X11893991Y-10912270D02*
X11798753Y-10931317D01*
X11970182Y-10988460D02*
X11989230Y-10997984D01*
X11989230Y-10997984D02*
X12027325Y-10997984D01*
X12027325Y-10997984D02*
X12046372Y-10988460D01*
X12046372Y-10988460D02*
X12055896Y-10969412D01*
X12055896Y-10969412D02*
X12055896Y-10959889D01*
X12055896Y-10959889D02*
X12046372Y-10940841D01*
X12046372Y-10940841D02*
X12027325Y-10931317D01*
X12027325Y-10931317D02*
X11998753Y-10931317D01*
X11998753Y-10931317D02*
X11979706Y-10921793D01*
X11979706Y-10921793D02*
X11970182Y-10902746D01*
X11970182Y-10902746D02*
X11970182Y-10893222D01*
X11970182Y-10893222D02*
X11979706Y-10874174D01*
X11979706Y-10874174D02*
X11998753Y-10864650D01*
X11998753Y-10864650D02*
X12027325Y-10864650D01*
X12027325Y-10864650D02*
X12046372Y-10874174D01*
X12122563Y-11074174D02*
X12132087Y-11064650D01*
X12132087Y-11064650D02*
X12151134Y-11036079D01*
X12151134Y-11036079D02*
X12160658Y-11017031D01*
X12160658Y-11017031D02*
X12170182Y-10988460D01*
X12170182Y-10988460D02*
X12179706Y-10940841D01*
X12179706Y-10940841D02*
X12179706Y-10902746D01*
X12179706Y-10902746D02*
X12170182Y-10855127D01*
X12170182Y-10855127D02*
X12160658Y-10826555D01*
X12160658Y-10826555D02*
X12151134Y-10807508D01*
X12151134Y-10807508D02*
X12132087Y-10778936D01*
X12132087Y-10778936D02*
X12122563Y-10769412D01*
X12484468Y-11074174D02*
X12474944Y-11064650D01*
X12474944Y-11064650D02*
X12455896Y-11036079D01*
X12455896Y-11036079D02*
X12446372Y-11017031D01*
X12446372Y-11017031D02*
X12436849Y-10988460D01*
X12436849Y-10988460D02*
X12427325Y-10940841D01*
X12427325Y-10940841D02*
X12427325Y-10902746D01*
X12427325Y-10902746D02*
X12436849Y-10855127D01*
X12436849Y-10855127D02*
X12446372Y-10826555D01*
X12446372Y-10826555D02*
X12455896Y-10807508D01*
X12455896Y-10807508D02*
X12474944Y-10778936D01*
X12474944Y-10778936D02*
X12484468Y-10769412D01*
X12560658Y-10864650D02*
X12560658Y-10997984D01*
X12560658Y-10883698D02*
X12570182Y-10874174D01*
X12570182Y-10874174D02*
X12589230Y-10864650D01*
X12589230Y-10864650D02*
X12617801Y-10864650D01*
X12617801Y-10864650D02*
X12636849Y-10874174D01*
X12636849Y-10874174D02*
X12646372Y-10893222D01*
X12646372Y-10893222D02*
X12646372Y-10997984D01*
X12770182Y-10997984D02*
X12751134Y-10988460D01*
X12751134Y-10988460D02*
X12741611Y-10978936D01*
X12741611Y-10978936D02*
X12732087Y-10959889D01*
X12732087Y-10959889D02*
X12732087Y-10902746D01*
X12732087Y-10902746D02*
X12741611Y-10883698D01*
X12741611Y-10883698D02*
X12751134Y-10874174D01*
X12751134Y-10874174D02*
X12770182Y-10864650D01*
X12770182Y-10864650D02*
X12798753Y-10864650D01*
X12798753Y-10864650D02*
X12817801Y-10874174D01*
X12817801Y-10874174D02*
X12827325Y-10883698D01*
X12827325Y-10883698D02*
X12836849Y-10902746D01*
X12836849Y-10902746D02*
X12836849Y-10959889D01*
X12836849Y-10959889D02*
X12827325Y-10978936D01*
X12827325Y-10978936D02*
X12817801Y-10988460D01*
X12817801Y-10988460D02*
X12798753Y-10997984D01*
X12798753Y-10997984D02*
X12770182Y-10997984D01*
X12893992Y-10864650D02*
X12970182Y-10864650D01*
X12922563Y-10797984D02*
X12922563Y-10969412D01*
X12922563Y-10969412D02*
X12932087Y-10988460D01*
X12932087Y-10988460D02*
X12951134Y-10997984D01*
X12951134Y-10997984D02*
X12970182Y-10997984D01*
X13189230Y-10864650D02*
X13189230Y-11064650D01*
X13189230Y-10874174D02*
X13208277Y-10864650D01*
X13208277Y-10864650D02*
X13246373Y-10864650D01*
X13246373Y-10864650D02*
X13265420Y-10874174D01*
X13265420Y-10874174D02*
X13274944Y-10883698D01*
X13274944Y-10883698D02*
X13284468Y-10902746D01*
X13284468Y-10902746D02*
X13284468Y-10959889D01*
X13284468Y-10959889D02*
X13274944Y-10978936D01*
X13274944Y-10978936D02*
X13265420Y-10988460D01*
X13265420Y-10988460D02*
X13246373Y-10997984D01*
X13246373Y-10997984D02*
X13208277Y-10997984D01*
X13208277Y-10997984D02*
X13189230Y-10988460D01*
X13398753Y-10997984D02*
X13379706Y-10988460D01*
X13379706Y-10988460D02*
X13370182Y-10969412D01*
X13370182Y-10969412D02*
X13370182Y-10797984D01*
X13560658Y-10997984D02*
X13560658Y-10893222D01*
X13560658Y-10893222D02*
X13551134Y-10874174D01*
X13551134Y-10874174D02*
X13532087Y-10864650D01*
X13532087Y-10864650D02*
X13493992Y-10864650D01*
X13493992Y-10864650D02*
X13474944Y-10874174D01*
X13560658Y-10988460D02*
X13541611Y-10997984D01*
X13541611Y-10997984D02*
X13493992Y-10997984D01*
X13493992Y-10997984D02*
X13474944Y-10988460D01*
X13474944Y-10988460D02*
X13465420Y-10969412D01*
X13465420Y-10969412D02*
X13465420Y-10950365D01*
X13465420Y-10950365D02*
X13474944Y-10931317D01*
X13474944Y-10931317D02*
X13493992Y-10921793D01*
X13493992Y-10921793D02*
X13541611Y-10921793D01*
X13541611Y-10921793D02*
X13560658Y-10912270D01*
X13627325Y-10864650D02*
X13703515Y-10864650D01*
X13655896Y-10797984D02*
X13655896Y-10969412D01*
X13655896Y-10969412D02*
X13665420Y-10988460D01*
X13665420Y-10988460D02*
X13684468Y-10997984D01*
X13684468Y-10997984D02*
X13703515Y-10997984D01*
X13846373Y-10988460D02*
X13827325Y-10997984D01*
X13827325Y-10997984D02*
X13789230Y-10997984D01*
X13789230Y-10997984D02*
X13770182Y-10988460D01*
X13770182Y-10988460D02*
X13760658Y-10969412D01*
X13760658Y-10969412D02*
X13760658Y-10893222D01*
X13760658Y-10893222D02*
X13770182Y-10874174D01*
X13770182Y-10874174D02*
X13789230Y-10864650D01*
X13789230Y-10864650D02*
X13827325Y-10864650D01*
X13827325Y-10864650D02*
X13846373Y-10874174D01*
X13846373Y-10874174D02*
X13855896Y-10893222D01*
X13855896Y-10893222D02*
X13855896Y-10912270D01*
X13855896Y-10912270D02*
X13760658Y-10931317D01*
X14027325Y-10997984D02*
X14027325Y-10797984D01*
X14027325Y-10988460D02*
X14008277Y-10997984D01*
X14008277Y-10997984D02*
X13970182Y-10997984D01*
X13970182Y-10997984D02*
X13951134Y-10988460D01*
X13951134Y-10988460D02*
X13941611Y-10978936D01*
X13941611Y-10978936D02*
X13932087Y-10959889D01*
X13932087Y-10959889D02*
X13932087Y-10902746D01*
X13932087Y-10902746D02*
X13941611Y-10883698D01*
X13941611Y-10883698D02*
X13951134Y-10874174D01*
X13951134Y-10874174D02*
X13970182Y-10864650D01*
X13970182Y-10864650D02*
X14008277Y-10864650D01*
X14008277Y-10864650D02*
X14027325Y-10874174D01*
X14103515Y-11074174D02*
X14113039Y-11064650D01*
X14113039Y-11064650D02*
X14132087Y-11036079D01*
X14132087Y-11036079D02*
X14141611Y-11017031D01*
X14141611Y-11017031D02*
X14151134Y-10988460D01*
X14151134Y-10988460D02*
X14160658Y-10940841D01*
X14160658Y-10940841D02*
X14160658Y-10902746D01*
X14160658Y-10902746D02*
X14151134Y-10855127D01*
X14151134Y-10855127D02*
X14141611Y-10826555D01*
X14141611Y-10826555D02*
X14132087Y-10807508D01*
X14132087Y-10807508D02*
X14113039Y-10778936D01*
X14113039Y-10778936D02*
X14103515Y-10769412D01*
X7247500Y-11070500D02*
X7247500Y-11270500D01*
X7147500Y-11170500D02*
X7347500Y-11170500D01*
X7598753Y-11081031D02*
X7608277Y-11071508D01*
X7608277Y-11071508D02*
X7627324Y-11061984D01*
X7627324Y-11061984D02*
X7674943Y-11061984D01*
X7674943Y-11061984D02*
X7693991Y-11071508D01*
X7693991Y-11071508D02*
X7703515Y-11081031D01*
X7703515Y-11081031D02*
X7713039Y-11100079D01*
X7713039Y-11100079D02*
X7713039Y-11119127D01*
X7713039Y-11119127D02*
X7703515Y-11147698D01*
X7703515Y-11147698D02*
X7589229Y-11261984D01*
X7589229Y-11261984D02*
X7713039Y-11261984D01*
X7798753Y-11242936D02*
X7808277Y-11252460D01*
X7808277Y-11252460D02*
X7798753Y-11261984D01*
X7798753Y-11261984D02*
X7789229Y-11252460D01*
X7789229Y-11252460D02*
X7798753Y-11242936D01*
X7798753Y-11242936D02*
X7798753Y-11261984D01*
X7998753Y-11261984D02*
X7884467Y-11261984D01*
X7941610Y-11261984D02*
X7941610Y-11061984D01*
X7941610Y-11061984D02*
X7922562Y-11090555D01*
X7922562Y-11090555D02*
X7903515Y-11109603D01*
X7903515Y-11109603D02*
X7884467Y-11119127D01*
X8122562Y-11061984D02*
X8141610Y-11061984D01*
X8141610Y-11061984D02*
X8160658Y-11071508D01*
X8160658Y-11071508D02*
X8170182Y-11081031D01*
X8170182Y-11081031D02*
X8179705Y-11100079D01*
X8179705Y-11100079D02*
X8189229Y-11138174D01*
X8189229Y-11138174D02*
X8189229Y-11185793D01*
X8189229Y-11185793D02*
X8179705Y-11223888D01*
X8179705Y-11223888D02*
X8170182Y-11242936D01*
X8170182Y-11242936D02*
X8160658Y-11252460D01*
X8160658Y-11252460D02*
X8141610Y-11261984D01*
X8141610Y-11261984D02*
X8122562Y-11261984D01*
X8122562Y-11261984D02*
X8103515Y-11252460D01*
X8103515Y-11252460D02*
X8093991Y-11242936D01*
X8093991Y-11242936D02*
X8084467Y-11223888D01*
X8084467Y-11223888D02*
X8074943Y-11185793D01*
X8074943Y-11185793D02*
X8074943Y-11138174D01*
X8074943Y-11138174D02*
X8084467Y-11100079D01*
X8084467Y-11100079D02*
X8093991Y-11081031D01*
X8093991Y-11081031D02*
X8103515Y-11071508D01*
X8103515Y-11071508D02*
X8122562Y-11061984D01*
X8313039Y-11061984D02*
X8332086Y-11061984D01*
X8332086Y-11061984D02*
X8351134Y-11071508D01*
X8351134Y-11071508D02*
X8360658Y-11081031D01*
X8360658Y-11081031D02*
X8370182Y-11100079D01*
X8370182Y-11100079D02*
X8379705Y-11138174D01*
X8379705Y-11138174D02*
X8379705Y-11185793D01*
X8379705Y-11185793D02*
X8370182Y-11223888D01*
X8370182Y-11223888D02*
X8360658Y-11242936D01*
X8360658Y-11242936D02*
X8351134Y-11252460D01*
X8351134Y-11252460D02*
X8332086Y-11261984D01*
X8332086Y-11261984D02*
X8313039Y-11261984D01*
X8313039Y-11261984D02*
X8293991Y-11252460D01*
X8293991Y-11252460D02*
X8284467Y-11242936D01*
X8284467Y-11242936D02*
X8274943Y-11223888D01*
X8274943Y-11223888D02*
X8265420Y-11185793D01*
X8265420Y-11185793D02*
X8265420Y-11138174D01*
X8265420Y-11138174D02*
X8274943Y-11100079D01*
X8274943Y-11100079D02*
X8284467Y-11081031D01*
X8284467Y-11081031D02*
X8293991Y-11071508D01*
X8293991Y-11071508D02*
X8313039Y-11061984D01*
X8465420Y-11261984D02*
X8465420Y-11128650D01*
X8465420Y-11147698D02*
X8474944Y-11138174D01*
X8474944Y-11138174D02*
X8493991Y-11128650D01*
X8493991Y-11128650D02*
X8522563Y-11128650D01*
X8522563Y-11128650D02*
X8541610Y-11138174D01*
X8541610Y-11138174D02*
X8551134Y-11157222D01*
X8551134Y-11157222D02*
X8551134Y-11261984D01*
X8551134Y-11157222D02*
X8560658Y-11138174D01*
X8560658Y-11138174D02*
X8579705Y-11128650D01*
X8579705Y-11128650D02*
X8608277Y-11128650D01*
X8608277Y-11128650D02*
X8627325Y-11138174D01*
X8627325Y-11138174D02*
X8636848Y-11157222D01*
X8636848Y-11157222D02*
X8636848Y-11261984D01*
X8732086Y-11261984D02*
X8732086Y-11128650D01*
X8732086Y-11147698D02*
X8741610Y-11138174D01*
X8741610Y-11138174D02*
X8760658Y-11128650D01*
X8760658Y-11128650D02*
X8789229Y-11128650D01*
X8789229Y-11128650D02*
X8808277Y-11138174D01*
X8808277Y-11138174D02*
X8817801Y-11157222D01*
X8817801Y-11157222D02*
X8817801Y-11261984D01*
X8817801Y-11157222D02*
X8827325Y-11138174D01*
X8827325Y-11138174D02*
X8846372Y-11128650D01*
X8846372Y-11128650D02*
X8874944Y-11128650D01*
X8874944Y-11128650D02*
X8893991Y-11138174D01*
X8893991Y-11138174D02*
X8903515Y-11157222D01*
X8903515Y-11157222D02*
X8903515Y-11261984D01*
X9293991Y-11052460D02*
X9122563Y-11309603D01*
X9551134Y-11061984D02*
X9570182Y-11061984D01*
X9570182Y-11061984D02*
X9589229Y-11071508D01*
X9589229Y-11071508D02*
X9598753Y-11081031D01*
X9598753Y-11081031D02*
X9608277Y-11100079D01*
X9608277Y-11100079D02*
X9617801Y-11138174D01*
X9617801Y-11138174D02*
X9617801Y-11185793D01*
X9617801Y-11185793D02*
X9608277Y-11223888D01*
X9608277Y-11223888D02*
X9598753Y-11242936D01*
X9598753Y-11242936D02*
X9589229Y-11252460D01*
X9589229Y-11252460D02*
X9570182Y-11261984D01*
X9570182Y-11261984D02*
X9551134Y-11261984D01*
X9551134Y-11261984D02*
X9532087Y-11252460D01*
X9532087Y-11252460D02*
X9522563Y-11242936D01*
X9522563Y-11242936D02*
X9513039Y-11223888D01*
X9513039Y-11223888D02*
X9503515Y-11185793D01*
X9503515Y-11185793D02*
X9503515Y-11138174D01*
X9503515Y-11138174D02*
X9513039Y-11100079D01*
X9513039Y-11100079D02*
X9522563Y-11081031D01*
X9522563Y-11081031D02*
X9532087Y-11071508D01*
X9532087Y-11071508D02*
X9551134Y-11061984D01*
X9703515Y-11242936D02*
X9713039Y-11252460D01*
X9713039Y-11252460D02*
X9703515Y-11261984D01*
X9703515Y-11261984D02*
X9693991Y-11252460D01*
X9693991Y-11252460D02*
X9703515Y-11242936D01*
X9703515Y-11242936D02*
X9703515Y-11261984D01*
X9836848Y-11061984D02*
X9855896Y-11061984D01*
X9855896Y-11061984D02*
X9874944Y-11071508D01*
X9874944Y-11071508D02*
X9884468Y-11081031D01*
X9884468Y-11081031D02*
X9893991Y-11100079D01*
X9893991Y-11100079D02*
X9903515Y-11138174D01*
X9903515Y-11138174D02*
X9903515Y-11185793D01*
X9903515Y-11185793D02*
X9893991Y-11223888D01*
X9893991Y-11223888D02*
X9884468Y-11242936D01*
X9884468Y-11242936D02*
X9874944Y-11252460D01*
X9874944Y-11252460D02*
X9855896Y-11261984D01*
X9855896Y-11261984D02*
X9836848Y-11261984D01*
X9836848Y-11261984D02*
X9817801Y-11252460D01*
X9817801Y-11252460D02*
X9808277Y-11242936D01*
X9808277Y-11242936D02*
X9798753Y-11223888D01*
X9798753Y-11223888D02*
X9789229Y-11185793D01*
X9789229Y-11185793D02*
X9789229Y-11138174D01*
X9789229Y-11138174D02*
X9798753Y-11100079D01*
X9798753Y-11100079D02*
X9808277Y-11081031D01*
X9808277Y-11081031D02*
X9817801Y-11071508D01*
X9817801Y-11071508D02*
X9836848Y-11061984D01*
X10017801Y-11147698D02*
X9998753Y-11138174D01*
X9998753Y-11138174D02*
X9989229Y-11128650D01*
X9989229Y-11128650D02*
X9979706Y-11109603D01*
X9979706Y-11109603D02*
X9979706Y-11100079D01*
X9979706Y-11100079D02*
X9989229Y-11081031D01*
X9989229Y-11081031D02*
X9998753Y-11071508D01*
X9998753Y-11071508D02*
X10017801Y-11061984D01*
X10017801Y-11061984D02*
X10055896Y-11061984D01*
X10055896Y-11061984D02*
X10074944Y-11071508D01*
X10074944Y-11071508D02*
X10084468Y-11081031D01*
X10084468Y-11081031D02*
X10093991Y-11100079D01*
X10093991Y-11100079D02*
X10093991Y-11109603D01*
X10093991Y-11109603D02*
X10084468Y-11128650D01*
X10084468Y-11128650D02*
X10074944Y-11138174D01*
X10074944Y-11138174D02*
X10055896Y-11147698D01*
X10055896Y-11147698D02*
X10017801Y-11147698D01*
X10017801Y-11147698D02*
X9998753Y-11157222D01*
X9998753Y-11157222D02*
X9989229Y-11166746D01*
X9989229Y-11166746D02*
X9979706Y-11185793D01*
X9979706Y-11185793D02*
X9979706Y-11223888D01*
X9979706Y-11223888D02*
X9989229Y-11242936D01*
X9989229Y-11242936D02*
X9998753Y-11252460D01*
X9998753Y-11252460D02*
X10017801Y-11261984D01*
X10017801Y-11261984D02*
X10055896Y-11261984D01*
X10055896Y-11261984D02*
X10074944Y-11252460D01*
X10074944Y-11252460D02*
X10084468Y-11242936D01*
X10084468Y-11242936D02*
X10093991Y-11223888D01*
X10093991Y-11223888D02*
X10093991Y-11185793D01*
X10093991Y-11185793D02*
X10084468Y-11166746D01*
X10084468Y-11166746D02*
X10074944Y-11157222D01*
X10074944Y-11157222D02*
X10055896Y-11147698D01*
X10170182Y-11081031D02*
X10179706Y-11071508D01*
X10179706Y-11071508D02*
X10198753Y-11061984D01*
X10198753Y-11061984D02*
X10246372Y-11061984D01*
X10246372Y-11061984D02*
X10265420Y-11071508D01*
X10265420Y-11071508D02*
X10274944Y-11081031D01*
X10274944Y-11081031D02*
X10284468Y-11100079D01*
X10284468Y-11100079D02*
X10284468Y-11119127D01*
X10284468Y-11119127D02*
X10274944Y-11147698D01*
X10274944Y-11147698D02*
X10160658Y-11261984D01*
X10160658Y-11261984D02*
X10284468Y-11261984D01*
X10351134Y-11061984D02*
X10484468Y-11061984D01*
X10484468Y-11061984D02*
X10398753Y-11261984D01*
X10551134Y-11061984D02*
X10551134Y-11100079D01*
X10627325Y-11061984D02*
X10627325Y-11100079D01*
X10922563Y-11338174D02*
X10913039Y-11328650D01*
X10913039Y-11328650D02*
X10893991Y-11300079D01*
X10893991Y-11300079D02*
X10884468Y-11281031D01*
X10884468Y-11281031D02*
X10874944Y-11252460D01*
X10874944Y-11252460D02*
X10865420Y-11204841D01*
X10865420Y-11204841D02*
X10865420Y-11166746D01*
X10865420Y-11166746D02*
X10874944Y-11119127D01*
X10874944Y-11119127D02*
X10884468Y-11090555D01*
X10884468Y-11090555D02*
X10893991Y-11071508D01*
X10893991Y-11071508D02*
X10913039Y-11042936D01*
X10913039Y-11042936D02*
X10922563Y-11033412D01*
X11084468Y-11128650D02*
X11084468Y-11261984D01*
X11036849Y-11052460D02*
X10989230Y-11195317D01*
X10989230Y-11195317D02*
X11113039Y-11195317D01*
X11341610Y-11261984D02*
X11341610Y-11061984D01*
X11427325Y-11261984D02*
X11427325Y-11157222D01*
X11427325Y-11157222D02*
X11417801Y-11138174D01*
X11417801Y-11138174D02*
X11398753Y-11128650D01*
X11398753Y-11128650D02*
X11370182Y-11128650D01*
X11370182Y-11128650D02*
X11351134Y-11138174D01*
X11351134Y-11138174D02*
X11341610Y-11147698D01*
X11551134Y-11261984D02*
X11532087Y-11252460D01*
X11532087Y-11252460D02*
X11522563Y-11242936D01*
X11522563Y-11242936D02*
X11513039Y-11223888D01*
X11513039Y-11223888D02*
X11513039Y-11166746D01*
X11513039Y-11166746D02*
X11522563Y-11147698D01*
X11522563Y-11147698D02*
X11532087Y-11138174D01*
X11532087Y-11138174D02*
X11551134Y-11128650D01*
X11551134Y-11128650D02*
X11579706Y-11128650D01*
X11579706Y-11128650D02*
X11598753Y-11138174D01*
X11598753Y-11138174D02*
X11608277Y-11147698D01*
X11608277Y-11147698D02*
X11617801Y-11166746D01*
X11617801Y-11166746D02*
X11617801Y-11223888D01*
X11617801Y-11223888D02*
X11608277Y-11242936D01*
X11608277Y-11242936D02*
X11598753Y-11252460D01*
X11598753Y-11252460D02*
X11579706Y-11261984D01*
X11579706Y-11261984D02*
X11551134Y-11261984D01*
X11732087Y-11261984D02*
X11713039Y-11252460D01*
X11713039Y-11252460D02*
X11703515Y-11233412D01*
X11703515Y-11233412D02*
X11703515Y-11061984D01*
X11884468Y-11252460D02*
X11865420Y-11261984D01*
X11865420Y-11261984D02*
X11827325Y-11261984D01*
X11827325Y-11261984D02*
X11808277Y-11252460D01*
X11808277Y-11252460D02*
X11798753Y-11233412D01*
X11798753Y-11233412D02*
X11798753Y-11157222D01*
X11798753Y-11157222D02*
X11808277Y-11138174D01*
X11808277Y-11138174D02*
X11827325Y-11128650D01*
X11827325Y-11128650D02*
X11865420Y-11128650D01*
X11865420Y-11128650D02*
X11884468Y-11138174D01*
X11884468Y-11138174D02*
X11893991Y-11157222D01*
X11893991Y-11157222D02*
X11893991Y-11176270D01*
X11893991Y-11176270D02*
X11798753Y-11195317D01*
X11970182Y-11252460D02*
X11989230Y-11261984D01*
X11989230Y-11261984D02*
X12027325Y-11261984D01*
X12027325Y-11261984D02*
X12046372Y-11252460D01*
X12046372Y-11252460D02*
X12055896Y-11233412D01*
X12055896Y-11233412D02*
X12055896Y-11223888D01*
X12055896Y-11223888D02*
X12046372Y-11204841D01*
X12046372Y-11204841D02*
X12027325Y-11195317D01*
X12027325Y-11195317D02*
X11998753Y-11195317D01*
X11998753Y-11195317D02*
X11979706Y-11185793D01*
X11979706Y-11185793D02*
X11970182Y-11166746D01*
X11970182Y-11166746D02*
X11970182Y-11157222D01*
X11970182Y-11157222D02*
X11979706Y-11138174D01*
X11979706Y-11138174D02*
X11998753Y-11128650D01*
X11998753Y-11128650D02*
X12027325Y-11128650D01*
X12027325Y-11128650D02*
X12046372Y-11138174D01*
X12122563Y-11338174D02*
X12132087Y-11328650D01*
X12132087Y-11328650D02*
X12151134Y-11300079D01*
X12151134Y-11300079D02*
X12160658Y-11281031D01*
X12160658Y-11281031D02*
X12170182Y-11252460D01*
X12170182Y-11252460D02*
X12179706Y-11204841D01*
X12179706Y-11204841D02*
X12179706Y-11166746D01*
X12179706Y-11166746D02*
X12170182Y-11119127D01*
X12170182Y-11119127D02*
X12160658Y-11090555D01*
X12160658Y-11090555D02*
X12151134Y-11071508D01*
X12151134Y-11071508D02*
X12132087Y-11042936D01*
X12132087Y-11042936D02*
X12122563Y-11033412D01*
X12484468Y-11338174D02*
X12474944Y-11328650D01*
X12474944Y-11328650D02*
X12455896Y-11300079D01*
X12455896Y-11300079D02*
X12446372Y-11281031D01*
X12446372Y-11281031D02*
X12436849Y-11252460D01*
X12436849Y-11252460D02*
X12427325Y-11204841D01*
X12427325Y-11204841D02*
X12427325Y-11166746D01*
X12427325Y-11166746D02*
X12436849Y-11119127D01*
X12436849Y-11119127D02*
X12446372Y-11090555D01*
X12446372Y-11090555D02*
X12455896Y-11071508D01*
X12455896Y-11071508D02*
X12474944Y-11042936D01*
X12474944Y-11042936D02*
X12484468Y-11033412D01*
X12560658Y-11128650D02*
X12560658Y-11261984D01*
X12560658Y-11147698D02*
X12570182Y-11138174D01*
X12570182Y-11138174D02*
X12589230Y-11128650D01*
X12589230Y-11128650D02*
X12617801Y-11128650D01*
X12617801Y-11128650D02*
X12636849Y-11138174D01*
X12636849Y-11138174D02*
X12646372Y-11157222D01*
X12646372Y-11157222D02*
X12646372Y-11261984D01*
X12770182Y-11261984D02*
X12751134Y-11252460D01*
X12751134Y-11252460D02*
X12741611Y-11242936D01*
X12741611Y-11242936D02*
X12732087Y-11223888D01*
X12732087Y-11223888D02*
X12732087Y-11166746D01*
X12732087Y-11166746D02*
X12741611Y-11147698D01*
X12741611Y-11147698D02*
X12751134Y-11138174D01*
X12751134Y-11138174D02*
X12770182Y-11128650D01*
X12770182Y-11128650D02*
X12798753Y-11128650D01*
X12798753Y-11128650D02*
X12817801Y-11138174D01*
X12817801Y-11138174D02*
X12827325Y-11147698D01*
X12827325Y-11147698D02*
X12836849Y-11166746D01*
X12836849Y-11166746D02*
X12836849Y-11223888D01*
X12836849Y-11223888D02*
X12827325Y-11242936D01*
X12827325Y-11242936D02*
X12817801Y-11252460D01*
X12817801Y-11252460D02*
X12798753Y-11261984D01*
X12798753Y-11261984D02*
X12770182Y-11261984D01*
X12893992Y-11128650D02*
X12970182Y-11128650D01*
X12922563Y-11061984D02*
X12922563Y-11233412D01*
X12922563Y-11233412D02*
X12932087Y-11252460D01*
X12932087Y-11252460D02*
X12951134Y-11261984D01*
X12951134Y-11261984D02*
X12970182Y-11261984D01*
X13189230Y-11128650D02*
X13189230Y-11328650D01*
X13189230Y-11138174D02*
X13208277Y-11128650D01*
X13208277Y-11128650D02*
X13246373Y-11128650D01*
X13246373Y-11128650D02*
X13265420Y-11138174D01*
X13265420Y-11138174D02*
X13274944Y-11147698D01*
X13274944Y-11147698D02*
X13284468Y-11166746D01*
X13284468Y-11166746D02*
X13284468Y-11223888D01*
X13284468Y-11223888D02*
X13274944Y-11242936D01*
X13274944Y-11242936D02*
X13265420Y-11252460D01*
X13265420Y-11252460D02*
X13246373Y-11261984D01*
X13246373Y-11261984D02*
X13208277Y-11261984D01*
X13208277Y-11261984D02*
X13189230Y-11252460D01*
X13398753Y-11261984D02*
X13379706Y-11252460D01*
X13379706Y-11252460D02*
X13370182Y-11233412D01*
X13370182Y-11233412D02*
X13370182Y-11061984D01*
X13560658Y-11261984D02*
X13560658Y-11157222D01*
X13560658Y-11157222D02*
X13551134Y-11138174D01*
X13551134Y-11138174D02*
X13532087Y-11128650D01*
X13532087Y-11128650D02*
X13493992Y-11128650D01*
X13493992Y-11128650D02*
X13474944Y-11138174D01*
X13560658Y-11252460D02*
X13541611Y-11261984D01*
X13541611Y-11261984D02*
X13493992Y-11261984D01*
X13493992Y-11261984D02*
X13474944Y-11252460D01*
X13474944Y-11252460D02*
X13465420Y-11233412D01*
X13465420Y-11233412D02*
X13465420Y-11214365D01*
X13465420Y-11214365D02*
X13474944Y-11195317D01*
X13474944Y-11195317D02*
X13493992Y-11185793D01*
X13493992Y-11185793D02*
X13541611Y-11185793D01*
X13541611Y-11185793D02*
X13560658Y-11176270D01*
X13627325Y-11128650D02*
X13703515Y-11128650D01*
X13655896Y-11061984D02*
X13655896Y-11233412D01*
X13655896Y-11233412D02*
X13665420Y-11252460D01*
X13665420Y-11252460D02*
X13684468Y-11261984D01*
X13684468Y-11261984D02*
X13703515Y-11261984D01*
X13846373Y-11252460D02*
X13827325Y-11261984D01*
X13827325Y-11261984D02*
X13789230Y-11261984D01*
X13789230Y-11261984D02*
X13770182Y-11252460D01*
X13770182Y-11252460D02*
X13760658Y-11233412D01*
X13760658Y-11233412D02*
X13760658Y-11157222D01*
X13760658Y-11157222D02*
X13770182Y-11138174D01*
X13770182Y-11138174D02*
X13789230Y-11128650D01*
X13789230Y-11128650D02*
X13827325Y-11128650D01*
X13827325Y-11128650D02*
X13846373Y-11138174D01*
X13846373Y-11138174D02*
X13855896Y-11157222D01*
X13855896Y-11157222D02*
X13855896Y-11176270D01*
X13855896Y-11176270D02*
X13760658Y-11195317D01*
X14027325Y-11261984D02*
X14027325Y-11061984D01*
X14027325Y-11252460D02*
X14008277Y-11261984D01*
X14008277Y-11261984D02*
X13970182Y-11261984D01*
X13970182Y-11261984D02*
X13951134Y-11252460D01*
X13951134Y-11252460D02*
X13941611Y-11242936D01*
X13941611Y-11242936D02*
X13932087Y-11223888D01*
X13932087Y-11223888D02*
X13932087Y-11166746D01*
X13932087Y-11166746D02*
X13941611Y-11147698D01*
X13941611Y-11147698D02*
X13951134Y-11138174D01*
X13951134Y-11138174D02*
X13970182Y-11128650D01*
X13970182Y-11128650D02*
X14008277Y-11128650D01*
X14008277Y-11128650D02*
X14027325Y-11138174D01*
X14103515Y-11338174D02*
X14113039Y-11328650D01*
X14113039Y-11328650D02*
X14132087Y-11300079D01*
X14132087Y-11300079D02*
X14141611Y-11281031D01*
X14141611Y-11281031D02*
X14151134Y-11252460D01*
X14151134Y-11252460D02*
X14160658Y-11204841D01*
X14160658Y-11204841D02*
X14160658Y-11166746D01*
X14160658Y-11166746D02*
X14151134Y-11119127D01*
X14151134Y-11119127D02*
X14141611Y-11090555D01*
X14141611Y-11090555D02*
X14132087Y-11071508D01*
X14132087Y-11071508D02*
X14113039Y-11042936D01*
X14113039Y-11042936D02*
X14103515Y-11033412D01*
M02*
