G04 #@! TF.GenerationSoftware,KiCad,Pcbnew,9.0.7*
G04 #@! TF.CreationDate,2026-03-10T23:21:33-07:00*
G04 #@! TF.ProjectId,Main Board,4d61696e-2042-46f6-9172-642e6b696361,rev?*
G04 #@! TF.SameCoordinates,Original*
G04 #@! TF.FileFunction,Legend,Top*
G04 #@! TF.FilePolarity,Positive*
%FSLAX46Y46*%
G04 Gerber Fmt 4.6, Leading zero omitted, Abs format (unit mm)*
G04 Created by KiCad (PCBNEW 9.0.7) date 2026-03-10 23:21:33*
%MOMM*%
%LPD*%
G01*
G04 APERTURE LIST*
G04 Aperture macros list*
%AMRoundRect*
0 Rectangle with rounded corners*
0 $1 Rounding radius*
0 $2 $3 $4 $5 $6 $7 $8 $9 X,Y pos of 4 corners*
0 Add a 4 corners polygon primitive as box body*
4,1,4,$2,$3,$4,$5,$6,$7,$8,$9,$2,$3,0*
0 Add four circle primitives for the rounded corners*
1,1,$1+$1,$2,$3*
1,1,$1+$1,$4,$5*
1,1,$1+$1,$6,$7*
1,1,$1+$1,$8,$9*
0 Add four rect primitives between the rounded corners*
20,1,$1+$1,$2,$3,$4,$5,0*
20,1,$1+$1,$4,$5,$6,$7,0*
20,1,$1+$1,$6,$7,$8,$9,0*
20,1,$1+$1,$8,$9,$2,$3,0*%
G04 Aperture macros list end*
%ADD10C,0.100000*%
%ADD11C,0.125000*%
%ADD12C,0.150000*%
%ADD13C,0.120000*%
%ADD14R,1.000000X1.000000*%
%ADD15RoundRect,0.135000X0.185000X-0.135000X0.185000X0.135000X-0.185000X0.135000X-0.185000X-0.135000X0*%
%ADD16R,1.500000X3.600000*%
%ADD17RoundRect,0.135000X-0.135000X-0.185000X0.135000X-0.185000X0.135000X0.185000X-0.135000X0.185000X0*%
%ADD18RoundRect,0.225000X0.250000X-0.225000X0.250000X0.225000X-0.250000X0.225000X-0.250000X-0.225000X0*%
%ADD19R,1.700000X1.700000*%
%ADD20R,1.100000X0.850000*%
%ADD21R,1.100000X0.750000*%
%ADD22R,1.000000X1.200000*%
%ADD23R,1.350000X1.550000*%
%ADD24R,1.350000X1.900000*%
%ADD25R,1.800000X1.170000*%
%ADD26RoundRect,0.135000X-0.185000X0.135000X-0.185000X-0.135000X0.185000X-0.135000X0.185000X0.135000X0*%
%ADD27RoundRect,0.135000X0.135000X0.185000X-0.135000X0.185000X-0.135000X-0.185000X0.135000X-0.185000X0*%
%ADD28RoundRect,0.250000X-0.625000X0.375000X-0.625000X-0.375000X0.625000X-0.375000X0.625000X0.375000X0*%
%ADD29RoundRect,0.140000X0.140000X0.170000X-0.140000X0.170000X-0.140000X-0.170000X0.140000X-0.170000X0*%
%ADD30RoundRect,0.150000X-0.150000X-0.700000X0.150000X-0.700000X0.150000X0.700000X-0.150000X0.700000X0*%
%ADD31RoundRect,0.250000X-0.250000X-1.100000X0.250000X-1.100000X0.250000X1.100000X-0.250000X1.100000X0*%
%ADD32C,1.700000*%
%ADD33R,1.350000X1.350000*%
%ADD34C,1.350000*%
%ADD35RoundRect,0.140000X0.170000X-0.140000X0.170000X0.140000X-0.170000X0.140000X-0.170000X-0.140000X0*%
%ADD36RoundRect,0.140000X-0.170000X0.140000X-0.170000X-0.140000X0.170000X-0.140000X0.170000X0.140000X0*%
%ADD37RoundRect,0.250000X-0.475000X0.250000X-0.475000X-0.250000X0.475000X-0.250000X0.475000X0.250000X0*%
%ADD38RoundRect,0.150000X0.150000X0.700000X-0.150000X0.700000X-0.150000X-0.700000X0.150000X-0.700000X0*%
%ADD39RoundRect,0.250000X0.250000X1.100000X-0.250000X1.100000X-0.250000X-1.100000X0.250000X-1.100000X0*%
%ADD40C,2.100000*%
%ADD41R,1.000000X1.700000*%
%ADD42R,1.500000X0.900000*%
%ADD43R,0.900000X1.500000*%
%ADD44C,0.600000*%
%ADD45RoundRect,0.218750X0.218750X0.256250X-0.218750X0.256250X-0.218750X-0.256250X0.218750X-0.256250X0*%
%ADD46RoundRect,0.250000X0.450000X0.275000X-0.450000X0.275000X-0.450000X-0.275000X0.450000X-0.275000X0*%
%ADD47C,0.650000*%
%ADD48R,1.450000X0.600000*%
%ADD49R,1.450000X0.300000*%
%ADD50O,2.100000X1.000000*%
%ADD51O,1.600000X1.000000*%
%ADD52R,1.000000X0.800000*%
%ADD53C,0.900000*%
%ADD54R,0.700000X1.500000*%
%ADD55RoundRect,0.250000X-0.350000X-0.625000X0.350000X-0.625000X0.350000X0.625000X-0.350000X0.625000X0*%
%ADD56O,1.200000X1.750000*%
%ADD57RoundRect,0.250000X1.000000X0.650000X-1.000000X0.650000X-1.000000X-0.650000X1.000000X-0.650000X0*%
%ADD58RoundRect,0.150000X-0.825000X-0.150000X0.825000X-0.150000X0.825000X0.150000X-0.825000X0.150000X0*%
%ADD59R,2.410000X3.300000*%
%ADD60R,0.280000X0.280000*%
%ADD61O,0.850000X0.280000*%
%ADD62R,0.230000X0.600000*%
%ADD63R,0.250000X0.700000*%
%ADD64R,0.650000X0.900000*%
%ADD65R,1.700000X2.150000*%
%ADD66RoundRect,0.150000X0.700000X-0.150000X0.700000X0.150000X-0.700000X0.150000X-0.700000X-0.150000X0*%
%ADD67RoundRect,0.250000X1.100000X-0.250000X1.100000X0.250000X-1.100000X0.250000X-1.100000X-0.250000X0*%
%ADD68RoundRect,0.150000X-0.587500X-0.150000X0.587500X-0.150000X0.587500X0.150000X-0.587500X0.150000X0*%
G04 APERTURE END LIST*
D10*
X91338972Y-62872419D02*
X90862782Y-62872419D01*
X90862782Y-62872419D02*
X90815163Y-63348609D01*
X90815163Y-63348609D02*
X90862782Y-63300990D01*
X90862782Y-63300990D02*
X90958020Y-63253371D01*
X90958020Y-63253371D02*
X91196115Y-63253371D01*
X91196115Y-63253371D02*
X91291353Y-63300990D01*
X91291353Y-63300990D02*
X91338972Y-63348609D01*
X91338972Y-63348609D02*
X91386591Y-63443847D01*
X91386591Y-63443847D02*
X91386591Y-63681942D01*
X91386591Y-63681942D02*
X91338972Y-63777180D01*
X91338972Y-63777180D02*
X91291353Y-63824800D01*
X91291353Y-63824800D02*
X91196115Y-63872419D01*
X91196115Y-63872419D02*
X90958020Y-63872419D01*
X90958020Y-63872419D02*
X90862782Y-63824800D01*
X90862782Y-63824800D02*
X90815163Y-63777180D01*
X91672306Y-62872419D02*
X92005639Y-63872419D01*
X92005639Y-63872419D02*
X92338972Y-62872419D01*
X84803884Y-93348609D02*
X85137217Y-93348609D01*
X85280074Y-93872419D02*
X84803884Y-93872419D01*
X84803884Y-93872419D02*
X84803884Y-92872419D01*
X84803884Y-92872419D02*
X85280074Y-92872419D01*
X85708646Y-93872419D02*
X85708646Y-92872419D01*
X85708646Y-92872419D02*
X86280074Y-93872419D01*
X86280074Y-93872419D02*
X86280074Y-92872419D01*
X90827693Y-84420038D02*
X90732455Y-84372419D01*
X90732455Y-84372419D02*
X90589598Y-84372419D01*
X90589598Y-84372419D02*
X90446741Y-84420038D01*
X90446741Y-84420038D02*
X90351503Y-84515276D01*
X90351503Y-84515276D02*
X90303884Y-84610514D01*
X90303884Y-84610514D02*
X90256265Y-84800990D01*
X90256265Y-84800990D02*
X90256265Y-84943847D01*
X90256265Y-84943847D02*
X90303884Y-85134323D01*
X90303884Y-85134323D02*
X90351503Y-85229561D01*
X90351503Y-85229561D02*
X90446741Y-85324800D01*
X90446741Y-85324800D02*
X90589598Y-85372419D01*
X90589598Y-85372419D02*
X90684836Y-85372419D01*
X90684836Y-85372419D02*
X90827693Y-85324800D01*
X90827693Y-85324800D02*
X90875312Y-85277180D01*
X90875312Y-85277180D02*
X90875312Y-84943847D01*
X90875312Y-84943847D02*
X90684836Y-84943847D01*
X91303884Y-85372419D02*
X91303884Y-84372419D01*
X91303884Y-84372419D02*
X91875312Y-85372419D01*
X91875312Y-85372419D02*
X91875312Y-84372419D01*
X92351503Y-85372419D02*
X92351503Y-84372419D01*
X92351503Y-84372419D02*
X92589598Y-84372419D01*
X92589598Y-84372419D02*
X92732455Y-84420038D01*
X92732455Y-84420038D02*
X92827693Y-84515276D01*
X92827693Y-84515276D02*
X92875312Y-84610514D01*
X92875312Y-84610514D02*
X92922931Y-84800990D01*
X92922931Y-84800990D02*
X92922931Y-84943847D01*
X92922931Y-84943847D02*
X92875312Y-85134323D01*
X92875312Y-85134323D02*
X92827693Y-85229561D01*
X92827693Y-85229561D02*
X92732455Y-85324800D01*
X92732455Y-85324800D02*
X92589598Y-85372419D01*
X92589598Y-85372419D02*
X92351503Y-85372419D01*
X95208646Y-87372419D02*
X95827693Y-87372419D01*
X95827693Y-87372419D02*
X95494360Y-87753371D01*
X95494360Y-87753371D02*
X95637217Y-87753371D01*
X95637217Y-87753371D02*
X95732455Y-87800990D01*
X95732455Y-87800990D02*
X95780074Y-87848609D01*
X95780074Y-87848609D02*
X95827693Y-87943847D01*
X95827693Y-87943847D02*
X95827693Y-88181942D01*
X95827693Y-88181942D02*
X95780074Y-88277180D01*
X95780074Y-88277180D02*
X95732455Y-88324800D01*
X95732455Y-88324800D02*
X95637217Y-88372419D01*
X95637217Y-88372419D02*
X95351503Y-88372419D01*
X95351503Y-88372419D02*
X95256265Y-88324800D01*
X95256265Y-88324800D02*
X95208646Y-88277180D01*
X96256265Y-88277180D02*
X96303884Y-88324800D01*
X96303884Y-88324800D02*
X96256265Y-88372419D01*
X96256265Y-88372419D02*
X96208646Y-88324800D01*
X96208646Y-88324800D02*
X96256265Y-88277180D01*
X96256265Y-88277180D02*
X96256265Y-88372419D01*
X96637217Y-87372419D02*
X97256264Y-87372419D01*
X97256264Y-87372419D02*
X96922931Y-87753371D01*
X96922931Y-87753371D02*
X97065788Y-87753371D01*
X97065788Y-87753371D02*
X97161026Y-87800990D01*
X97161026Y-87800990D02*
X97208645Y-87848609D01*
X97208645Y-87848609D02*
X97256264Y-87943847D01*
X97256264Y-87943847D02*
X97256264Y-88181942D01*
X97256264Y-88181942D02*
X97208645Y-88277180D01*
X97208645Y-88277180D02*
X97161026Y-88324800D01*
X97161026Y-88324800D02*
X97065788Y-88372419D01*
X97065788Y-88372419D02*
X96780074Y-88372419D01*
X96780074Y-88372419D02*
X96684836Y-88324800D01*
X96684836Y-88324800D02*
X96637217Y-88277180D01*
X118375312Y-95277180D02*
X118327693Y-95324800D01*
X118327693Y-95324800D02*
X118184836Y-95372419D01*
X118184836Y-95372419D02*
X118089598Y-95372419D01*
X118089598Y-95372419D02*
X117946741Y-95324800D01*
X117946741Y-95324800D02*
X117851503Y-95229561D01*
X117851503Y-95229561D02*
X117803884Y-95134323D01*
X117803884Y-95134323D02*
X117756265Y-94943847D01*
X117756265Y-94943847D02*
X117756265Y-94800990D01*
X117756265Y-94800990D02*
X117803884Y-94610514D01*
X117803884Y-94610514D02*
X117851503Y-94515276D01*
X117851503Y-94515276D02*
X117946741Y-94420038D01*
X117946741Y-94420038D02*
X118089598Y-94372419D01*
X118089598Y-94372419D02*
X118184836Y-94372419D01*
X118184836Y-94372419D02*
X118327693Y-94420038D01*
X118327693Y-94420038D02*
X118375312Y-94467657D01*
X119232455Y-95372419D02*
X119232455Y-94848609D01*
X119232455Y-94848609D02*
X119184836Y-94753371D01*
X119184836Y-94753371D02*
X119089598Y-94705752D01*
X119089598Y-94705752D02*
X118899122Y-94705752D01*
X118899122Y-94705752D02*
X118803884Y-94753371D01*
X119232455Y-95324800D02*
X119137217Y-95372419D01*
X119137217Y-95372419D02*
X118899122Y-95372419D01*
X118899122Y-95372419D02*
X118803884Y-95324800D01*
X118803884Y-95324800D02*
X118756265Y-95229561D01*
X118756265Y-95229561D02*
X118756265Y-95134323D01*
X118756265Y-95134323D02*
X118803884Y-95039085D01*
X118803884Y-95039085D02*
X118899122Y-94991466D01*
X118899122Y-94991466D02*
X119137217Y-94991466D01*
X119137217Y-94991466D02*
X119232455Y-94943847D01*
X119708646Y-95372419D02*
X119708646Y-94705752D01*
X119708646Y-94800990D02*
X119756265Y-94753371D01*
X119756265Y-94753371D02*
X119851503Y-94705752D01*
X119851503Y-94705752D02*
X119994360Y-94705752D01*
X119994360Y-94705752D02*
X120089598Y-94753371D01*
X120089598Y-94753371D02*
X120137217Y-94848609D01*
X120137217Y-94848609D02*
X120137217Y-95372419D01*
X120137217Y-94848609D02*
X120184836Y-94753371D01*
X120184836Y-94753371D02*
X120280074Y-94705752D01*
X120280074Y-94705752D02*
X120422931Y-94705752D01*
X120422931Y-94705752D02*
X120518170Y-94753371D01*
X120518170Y-94753371D02*
X120565789Y-94848609D01*
X120565789Y-94848609D02*
X120565789Y-95372419D01*
X121422931Y-95324800D02*
X121327693Y-95372419D01*
X121327693Y-95372419D02*
X121137217Y-95372419D01*
X121137217Y-95372419D02*
X121041979Y-95324800D01*
X121041979Y-95324800D02*
X120994360Y-95229561D01*
X120994360Y-95229561D02*
X120994360Y-94848609D01*
X120994360Y-94848609D02*
X121041979Y-94753371D01*
X121041979Y-94753371D02*
X121137217Y-94705752D01*
X121137217Y-94705752D02*
X121327693Y-94705752D01*
X121327693Y-94705752D02*
X121422931Y-94753371D01*
X121422931Y-94753371D02*
X121470550Y-94848609D01*
X121470550Y-94848609D02*
X121470550Y-94943847D01*
X121470550Y-94943847D02*
X120994360Y-95039085D01*
X121899122Y-95372419D02*
X121899122Y-94705752D01*
X121899122Y-94896228D02*
X121946741Y-94800990D01*
X121946741Y-94800990D02*
X121994360Y-94753371D01*
X121994360Y-94753371D02*
X122089598Y-94705752D01*
X122089598Y-94705752D02*
X122184836Y-94705752D01*
X122946741Y-95372419D02*
X122946741Y-94848609D01*
X122946741Y-94848609D02*
X122899122Y-94753371D01*
X122899122Y-94753371D02*
X122803884Y-94705752D01*
X122803884Y-94705752D02*
X122613408Y-94705752D01*
X122613408Y-94705752D02*
X122518170Y-94753371D01*
X122946741Y-95324800D02*
X122851503Y-95372419D01*
X122851503Y-95372419D02*
X122613408Y-95372419D01*
X122613408Y-95372419D02*
X122518170Y-95324800D01*
X122518170Y-95324800D02*
X122470551Y-95229561D01*
X122470551Y-95229561D02*
X122470551Y-95134323D01*
X122470551Y-95134323D02*
X122518170Y-95039085D01*
X122518170Y-95039085D02*
X122613408Y-94991466D01*
X122613408Y-94991466D02*
X122851503Y-94991466D01*
X122851503Y-94991466D02*
X122946741Y-94943847D01*
D11*
X124272712Y-96585404D02*
X124748902Y-96585404D01*
X124177474Y-96871119D02*
X124510807Y-95871119D01*
X124510807Y-95871119D02*
X124844140Y-96871119D01*
X125606045Y-96204452D02*
X125606045Y-96871119D01*
X125177474Y-96204452D02*
X125177474Y-96728261D01*
X125177474Y-96728261D02*
X125225093Y-96823500D01*
X125225093Y-96823500D02*
X125320331Y-96871119D01*
X125320331Y-96871119D02*
X125463188Y-96871119D01*
X125463188Y-96871119D02*
X125558426Y-96823500D01*
X125558426Y-96823500D02*
X125606045Y-96775880D01*
X125939379Y-96204452D02*
X126320331Y-96204452D01*
X126082236Y-95871119D02*
X126082236Y-96728261D01*
X126082236Y-96728261D02*
X126129855Y-96823500D01*
X126129855Y-96823500D02*
X126225093Y-96871119D01*
X126225093Y-96871119D02*
X126320331Y-96871119D01*
X126653665Y-96871119D02*
X126653665Y-95871119D01*
X127082236Y-96871119D02*
X127082236Y-96347309D01*
X127082236Y-96347309D02*
X127034617Y-96252071D01*
X127034617Y-96252071D02*
X126939379Y-96204452D01*
X126939379Y-96204452D02*
X126796522Y-96204452D01*
X126796522Y-96204452D02*
X126701284Y-96252071D01*
X126701284Y-96252071D02*
X126653665Y-96299690D01*
X127701284Y-96871119D02*
X127606046Y-96823500D01*
X127606046Y-96823500D02*
X127558427Y-96775880D01*
X127558427Y-96775880D02*
X127510808Y-96680642D01*
X127510808Y-96680642D02*
X127510808Y-96394928D01*
X127510808Y-96394928D02*
X127558427Y-96299690D01*
X127558427Y-96299690D02*
X127606046Y-96252071D01*
X127606046Y-96252071D02*
X127701284Y-96204452D01*
X127701284Y-96204452D02*
X127844141Y-96204452D01*
X127844141Y-96204452D02*
X127939379Y-96252071D01*
X127939379Y-96252071D02*
X127986998Y-96299690D01*
X127986998Y-96299690D02*
X128034617Y-96394928D01*
X128034617Y-96394928D02*
X128034617Y-96680642D01*
X128034617Y-96680642D02*
X127986998Y-96775880D01*
X127986998Y-96775880D02*
X127939379Y-96823500D01*
X127939379Y-96823500D02*
X127844141Y-96871119D01*
X127844141Y-96871119D02*
X127701284Y-96871119D01*
X128463189Y-96871119D02*
X128463189Y-96204452D01*
X128463189Y-96394928D02*
X128510808Y-96299690D01*
X128510808Y-96299690D02*
X128558427Y-96252071D01*
X128558427Y-96252071D02*
X128653665Y-96204452D01*
X128653665Y-96204452D02*
X128748903Y-96204452D01*
X129082237Y-96775880D02*
X129129856Y-96823500D01*
X129129856Y-96823500D02*
X129082237Y-96871119D01*
X129082237Y-96871119D02*
X129034618Y-96823500D01*
X129034618Y-96823500D02*
X129082237Y-96775880D01*
X129082237Y-96775880D02*
X129082237Y-96871119D01*
X129082237Y-96252071D02*
X129129856Y-96299690D01*
X129129856Y-96299690D02*
X129082237Y-96347309D01*
X129082237Y-96347309D02*
X129034618Y-96299690D01*
X129034618Y-96299690D02*
X129082237Y-96252071D01*
X129082237Y-96252071D02*
X129082237Y-96347309D01*
X130606046Y-95871119D02*
X130606046Y-96585404D01*
X130606046Y-96585404D02*
X130558427Y-96728261D01*
X130558427Y-96728261D02*
X130463189Y-96823500D01*
X130463189Y-96823500D02*
X130320332Y-96871119D01*
X130320332Y-96871119D02*
X130225094Y-96871119D01*
X131510808Y-96871119D02*
X131510808Y-96347309D01*
X131510808Y-96347309D02*
X131463189Y-96252071D01*
X131463189Y-96252071D02*
X131367951Y-96204452D01*
X131367951Y-96204452D02*
X131177475Y-96204452D01*
X131177475Y-96204452D02*
X131082237Y-96252071D01*
X131510808Y-96823500D02*
X131415570Y-96871119D01*
X131415570Y-96871119D02*
X131177475Y-96871119D01*
X131177475Y-96871119D02*
X131082237Y-96823500D01*
X131082237Y-96823500D02*
X131034618Y-96728261D01*
X131034618Y-96728261D02*
X131034618Y-96633023D01*
X131034618Y-96633023D02*
X131082237Y-96537785D01*
X131082237Y-96537785D02*
X131177475Y-96490166D01*
X131177475Y-96490166D02*
X131415570Y-96490166D01*
X131415570Y-96490166D02*
X131510808Y-96442547D01*
X132415570Y-96823500D02*
X132320332Y-96871119D01*
X132320332Y-96871119D02*
X132129856Y-96871119D01*
X132129856Y-96871119D02*
X132034618Y-96823500D01*
X132034618Y-96823500D02*
X131986999Y-96775880D01*
X131986999Y-96775880D02*
X131939380Y-96680642D01*
X131939380Y-96680642D02*
X131939380Y-96394928D01*
X131939380Y-96394928D02*
X131986999Y-96299690D01*
X131986999Y-96299690D02*
X132034618Y-96252071D01*
X132034618Y-96252071D02*
X132129856Y-96204452D01*
X132129856Y-96204452D02*
X132320332Y-96204452D01*
X132320332Y-96204452D02*
X132415570Y-96252071D01*
X132844142Y-96871119D02*
X132844142Y-95871119D01*
X132939380Y-96490166D02*
X133225094Y-96871119D01*
X133225094Y-96204452D02*
X132844142Y-96585404D01*
X134367952Y-96823500D02*
X134510809Y-96871119D01*
X134510809Y-96871119D02*
X134748904Y-96871119D01*
X134748904Y-96871119D02*
X134844142Y-96823500D01*
X134844142Y-96823500D02*
X134891761Y-96775880D01*
X134891761Y-96775880D02*
X134939380Y-96680642D01*
X134939380Y-96680642D02*
X134939380Y-96585404D01*
X134939380Y-96585404D02*
X134891761Y-96490166D01*
X134891761Y-96490166D02*
X134844142Y-96442547D01*
X134844142Y-96442547D02*
X134748904Y-96394928D01*
X134748904Y-96394928D02*
X134558428Y-96347309D01*
X134558428Y-96347309D02*
X134463190Y-96299690D01*
X134463190Y-96299690D02*
X134415571Y-96252071D01*
X134415571Y-96252071D02*
X134367952Y-96156833D01*
X134367952Y-96156833D02*
X134367952Y-96061595D01*
X134367952Y-96061595D02*
X134415571Y-95966357D01*
X134415571Y-95966357D02*
X134463190Y-95918738D01*
X134463190Y-95918738D02*
X134558428Y-95871119D01*
X134558428Y-95871119D02*
X134796523Y-95871119D01*
X134796523Y-95871119D02*
X134939380Y-95918738D01*
X135367952Y-96871119D02*
X135367952Y-95871119D01*
X135796523Y-96871119D02*
X135796523Y-96347309D01*
X135796523Y-96347309D02*
X135748904Y-96252071D01*
X135748904Y-96252071D02*
X135653666Y-96204452D01*
X135653666Y-96204452D02*
X135510809Y-96204452D01*
X135510809Y-96204452D02*
X135415571Y-96252071D01*
X135415571Y-96252071D02*
X135367952Y-96299690D01*
X136272714Y-96871119D02*
X136272714Y-96204452D01*
X136272714Y-95871119D02*
X136225095Y-95918738D01*
X136225095Y-95918738D02*
X136272714Y-95966357D01*
X136272714Y-95966357D02*
X136320333Y-95918738D01*
X136320333Y-95918738D02*
X136272714Y-95871119D01*
X136272714Y-95871119D02*
X136272714Y-95966357D01*
D10*
X142280074Y-58872419D02*
X141803884Y-58872419D01*
X141803884Y-58872419D02*
X141803884Y-57872419D01*
X142613408Y-58348609D02*
X142946741Y-58348609D01*
X143089598Y-58872419D02*
X142613408Y-58872419D01*
X142613408Y-58872419D02*
X142613408Y-57872419D01*
X142613408Y-57872419D02*
X143089598Y-57872419D01*
X143518170Y-58872419D02*
X143518170Y-57872419D01*
X143518170Y-57872419D02*
X143756265Y-57872419D01*
X143756265Y-57872419D02*
X143899122Y-57920038D01*
X143899122Y-57920038D02*
X143994360Y-58015276D01*
X143994360Y-58015276D02*
X144041979Y-58110514D01*
X144041979Y-58110514D02*
X144089598Y-58300990D01*
X144089598Y-58300990D02*
X144089598Y-58443847D01*
X144089598Y-58443847D02*
X144041979Y-58634323D01*
X144041979Y-58634323D02*
X143994360Y-58729561D01*
X143994360Y-58729561D02*
X143899122Y-58824800D01*
X143899122Y-58824800D02*
X143756265Y-58872419D01*
X143756265Y-58872419D02*
X143518170Y-58872419D01*
X142277180Y-75124687D02*
X142324800Y-75172306D01*
X142324800Y-75172306D02*
X142372419Y-75315163D01*
X142372419Y-75315163D02*
X142372419Y-75410401D01*
X142372419Y-75410401D02*
X142324800Y-75553258D01*
X142324800Y-75553258D02*
X142229561Y-75648496D01*
X142229561Y-75648496D02*
X142134323Y-75696115D01*
X142134323Y-75696115D02*
X141943847Y-75743734D01*
X141943847Y-75743734D02*
X141800990Y-75743734D01*
X141800990Y-75743734D02*
X141610514Y-75696115D01*
X141610514Y-75696115D02*
X141515276Y-75648496D01*
X141515276Y-75648496D02*
X141420038Y-75553258D01*
X141420038Y-75553258D02*
X141372419Y-75410401D01*
X141372419Y-75410401D02*
X141372419Y-75315163D01*
X141372419Y-75315163D02*
X141420038Y-75172306D01*
X141420038Y-75172306D02*
X141467657Y-75124687D01*
X142372419Y-74553258D02*
X142324800Y-74648496D01*
X142324800Y-74648496D02*
X142277180Y-74696115D01*
X142277180Y-74696115D02*
X142181942Y-74743734D01*
X142181942Y-74743734D02*
X141896228Y-74743734D01*
X141896228Y-74743734D02*
X141800990Y-74696115D01*
X141800990Y-74696115D02*
X141753371Y-74648496D01*
X141753371Y-74648496D02*
X141705752Y-74553258D01*
X141705752Y-74553258D02*
X141705752Y-74410401D01*
X141705752Y-74410401D02*
X141753371Y-74315163D01*
X141753371Y-74315163D02*
X141800990Y-74267544D01*
X141800990Y-74267544D02*
X141896228Y-74219925D01*
X141896228Y-74219925D02*
X142181942Y-74219925D01*
X142181942Y-74219925D02*
X142277180Y-74267544D01*
X142277180Y-74267544D02*
X142324800Y-74315163D01*
X142324800Y-74315163D02*
X142372419Y-74410401D01*
X142372419Y-74410401D02*
X142372419Y-74553258D01*
X141705752Y-73791353D02*
X142372419Y-73791353D01*
X141800990Y-73791353D02*
X141753371Y-73743734D01*
X141753371Y-73743734D02*
X141705752Y-73648496D01*
X141705752Y-73648496D02*
X141705752Y-73505639D01*
X141705752Y-73505639D02*
X141753371Y-73410401D01*
X141753371Y-73410401D02*
X141848609Y-73362782D01*
X141848609Y-73362782D02*
X142372419Y-73362782D01*
X141705752Y-73029448D02*
X141705752Y-72648496D01*
X141372419Y-72886591D02*
X142229561Y-72886591D01*
X142229561Y-72886591D02*
X142324800Y-72838972D01*
X142324800Y-72838972D02*
X142372419Y-72743734D01*
X142372419Y-72743734D02*
X142372419Y-72648496D01*
X142372419Y-71886591D02*
X141848609Y-71886591D01*
X141848609Y-71886591D02*
X141753371Y-71934210D01*
X141753371Y-71934210D02*
X141705752Y-72029448D01*
X141705752Y-72029448D02*
X141705752Y-72219924D01*
X141705752Y-72219924D02*
X141753371Y-72315162D01*
X142324800Y-71886591D02*
X142372419Y-71981829D01*
X142372419Y-71981829D02*
X142372419Y-72219924D01*
X142372419Y-72219924D02*
X142324800Y-72315162D01*
X142324800Y-72315162D02*
X142229561Y-72362781D01*
X142229561Y-72362781D02*
X142134323Y-72362781D01*
X142134323Y-72362781D02*
X142039085Y-72315162D01*
X142039085Y-72315162D02*
X141991466Y-72219924D01*
X141991466Y-72219924D02*
X141991466Y-71981829D01*
X141991466Y-71981829D02*
X141943847Y-71886591D01*
X142324800Y-70981829D02*
X142372419Y-71077067D01*
X142372419Y-71077067D02*
X142372419Y-71267543D01*
X142372419Y-71267543D02*
X142324800Y-71362781D01*
X142324800Y-71362781D02*
X142277180Y-71410400D01*
X142277180Y-71410400D02*
X142181942Y-71458019D01*
X142181942Y-71458019D02*
X141896228Y-71458019D01*
X141896228Y-71458019D02*
X141800990Y-71410400D01*
X141800990Y-71410400D02*
X141753371Y-71362781D01*
X141753371Y-71362781D02*
X141705752Y-71267543D01*
X141705752Y-71267543D02*
X141705752Y-71077067D01*
X141705752Y-71077067D02*
X141753371Y-70981829D01*
X141705752Y-70696114D02*
X141705752Y-70315162D01*
X141372419Y-70553257D02*
X142229561Y-70553257D01*
X142229561Y-70553257D02*
X142324800Y-70505638D01*
X142324800Y-70505638D02*
X142372419Y-70410400D01*
X142372419Y-70410400D02*
X142372419Y-70315162D01*
X142372419Y-69219923D02*
X141372419Y-69219923D01*
X141372419Y-69219923D02*
X142086704Y-68886590D01*
X142086704Y-68886590D02*
X141372419Y-68553257D01*
X141372419Y-68553257D02*
X142372419Y-68553257D01*
X142372419Y-68077066D02*
X141705752Y-68077066D01*
X141372419Y-68077066D02*
X141420038Y-68124685D01*
X141420038Y-68124685D02*
X141467657Y-68077066D01*
X141467657Y-68077066D02*
X141420038Y-68029447D01*
X141420038Y-68029447D02*
X141372419Y-68077066D01*
X141372419Y-68077066D02*
X141467657Y-68077066D01*
X142324800Y-67172305D02*
X142372419Y-67267543D01*
X142372419Y-67267543D02*
X142372419Y-67458019D01*
X142372419Y-67458019D02*
X142324800Y-67553257D01*
X142324800Y-67553257D02*
X142277180Y-67600876D01*
X142277180Y-67600876D02*
X142181942Y-67648495D01*
X142181942Y-67648495D02*
X141896228Y-67648495D01*
X141896228Y-67648495D02*
X141800990Y-67600876D01*
X141800990Y-67600876D02*
X141753371Y-67553257D01*
X141753371Y-67553257D02*
X141705752Y-67458019D01*
X141705752Y-67458019D02*
X141705752Y-67267543D01*
X141705752Y-67267543D02*
X141753371Y-67172305D01*
X97137217Y-80348609D02*
X97280074Y-80396228D01*
X97280074Y-80396228D02*
X97327693Y-80443847D01*
X97327693Y-80443847D02*
X97375312Y-80539085D01*
X97375312Y-80539085D02*
X97375312Y-80681942D01*
X97375312Y-80681942D02*
X97327693Y-80777180D01*
X97327693Y-80777180D02*
X97280074Y-80824800D01*
X97280074Y-80824800D02*
X97184836Y-80872419D01*
X97184836Y-80872419D02*
X96803884Y-80872419D01*
X96803884Y-80872419D02*
X96803884Y-79872419D01*
X96803884Y-79872419D02*
X97137217Y-79872419D01*
X97137217Y-79872419D02*
X97232455Y-79920038D01*
X97232455Y-79920038D02*
X97280074Y-79967657D01*
X97280074Y-79967657D02*
X97327693Y-80062895D01*
X97327693Y-80062895D02*
X97327693Y-80158133D01*
X97327693Y-80158133D02*
X97280074Y-80253371D01*
X97280074Y-80253371D02*
X97232455Y-80300990D01*
X97232455Y-80300990D02*
X97137217Y-80348609D01*
X97137217Y-80348609D02*
X96803884Y-80348609D01*
X97756265Y-80586704D02*
X98232455Y-80586704D01*
X97661027Y-80872419D02*
X97994360Y-79872419D01*
X97994360Y-79872419D02*
X98327693Y-80872419D01*
X98518170Y-79872419D02*
X99089598Y-79872419D01*
X98803884Y-80872419D02*
X98803884Y-79872419D01*
X99280075Y-79872419D02*
X99851503Y-79872419D01*
X99565789Y-80872419D02*
X99565789Y-79872419D01*
X133303884Y-48372419D02*
X133303884Y-47372419D01*
X133303884Y-47372419D02*
X133637217Y-48086704D01*
X133637217Y-48086704D02*
X133970550Y-47372419D01*
X133970550Y-47372419D02*
X133970550Y-48372419D01*
X134446741Y-48372419D02*
X134446741Y-47705752D01*
X134446741Y-47372419D02*
X134399122Y-47420038D01*
X134399122Y-47420038D02*
X134446741Y-47467657D01*
X134446741Y-47467657D02*
X134494360Y-47420038D01*
X134494360Y-47420038D02*
X134446741Y-47372419D01*
X134446741Y-47372419D02*
X134446741Y-47467657D01*
X135351502Y-48324800D02*
X135256264Y-48372419D01*
X135256264Y-48372419D02*
X135065788Y-48372419D01*
X135065788Y-48372419D02*
X134970550Y-48324800D01*
X134970550Y-48324800D02*
X134922931Y-48277180D01*
X134922931Y-48277180D02*
X134875312Y-48181942D01*
X134875312Y-48181942D02*
X134875312Y-47896228D01*
X134875312Y-47896228D02*
X134922931Y-47800990D01*
X134922931Y-47800990D02*
X134970550Y-47753371D01*
X134970550Y-47753371D02*
X135065788Y-47705752D01*
X135065788Y-47705752D02*
X135256264Y-47705752D01*
X135256264Y-47705752D02*
X135351502Y-47753371D01*
X136494360Y-47467657D02*
X136541979Y-47420038D01*
X136541979Y-47420038D02*
X136637217Y-47372419D01*
X136637217Y-47372419D02*
X136875312Y-47372419D01*
X136875312Y-47372419D02*
X136970550Y-47420038D01*
X136970550Y-47420038D02*
X137018169Y-47467657D01*
X137018169Y-47467657D02*
X137065788Y-47562895D01*
X137065788Y-47562895D02*
X137065788Y-47658133D01*
X137065788Y-47658133D02*
X137018169Y-47800990D01*
X137018169Y-47800990D02*
X136446741Y-48372419D01*
X136446741Y-48372419D02*
X137065788Y-48372419D01*
X91303884Y-67991466D02*
X92065789Y-67991466D01*
X93256264Y-67324800D02*
X92399122Y-68610514D01*
X93589598Y-67991466D02*
X94351503Y-67991466D01*
X93970550Y-68372419D02*
X93970550Y-67610514D01*
X81803884Y-46372419D02*
X81803884Y-45372419D01*
X82375312Y-46372419D02*
X81946741Y-45800990D01*
X82375312Y-45372419D02*
X81803884Y-45943847D01*
X82803884Y-45848609D02*
X83137217Y-45848609D01*
X83280074Y-46372419D02*
X82803884Y-46372419D01*
X82803884Y-46372419D02*
X82803884Y-45372419D01*
X82803884Y-45372419D02*
X83280074Y-45372419D01*
X83708646Y-45848609D02*
X84041979Y-45848609D01*
X84184836Y-46372419D02*
X83708646Y-46372419D01*
X83708646Y-46372419D02*
X83708646Y-45372419D01*
X83708646Y-45372419D02*
X84184836Y-45372419D01*
X84613408Y-46372419D02*
X84613408Y-45372419D01*
X84613408Y-45372419D02*
X84994360Y-45372419D01*
X84994360Y-45372419D02*
X85089598Y-45420038D01*
X85089598Y-45420038D02*
X85137217Y-45467657D01*
X85137217Y-45467657D02*
X85184836Y-45562895D01*
X85184836Y-45562895D02*
X85184836Y-45705752D01*
X85184836Y-45705752D02*
X85137217Y-45800990D01*
X85137217Y-45800990D02*
X85089598Y-45848609D01*
X85089598Y-45848609D02*
X84994360Y-45896228D01*
X84994360Y-45896228D02*
X84613408Y-45896228D01*
X86565789Y-45372419D02*
X86756265Y-45372419D01*
X86756265Y-45372419D02*
X86851503Y-45420038D01*
X86851503Y-45420038D02*
X86946741Y-45515276D01*
X86946741Y-45515276D02*
X86994360Y-45705752D01*
X86994360Y-45705752D02*
X86994360Y-46039085D01*
X86994360Y-46039085D02*
X86946741Y-46229561D01*
X86946741Y-46229561D02*
X86851503Y-46324800D01*
X86851503Y-46324800D02*
X86756265Y-46372419D01*
X86756265Y-46372419D02*
X86565789Y-46372419D01*
X86565789Y-46372419D02*
X86470551Y-46324800D01*
X86470551Y-46324800D02*
X86375313Y-46229561D01*
X86375313Y-46229561D02*
X86327694Y-46039085D01*
X86327694Y-46039085D02*
X86327694Y-45705752D01*
X86327694Y-45705752D02*
X86375313Y-45515276D01*
X86375313Y-45515276D02*
X86470551Y-45420038D01*
X86470551Y-45420038D02*
X86565789Y-45372419D01*
X87422932Y-45372419D02*
X87422932Y-46181942D01*
X87422932Y-46181942D02*
X87470551Y-46277180D01*
X87470551Y-46277180D02*
X87518170Y-46324800D01*
X87518170Y-46324800D02*
X87613408Y-46372419D01*
X87613408Y-46372419D02*
X87803884Y-46372419D01*
X87803884Y-46372419D02*
X87899122Y-46324800D01*
X87899122Y-46324800D02*
X87946741Y-46277180D01*
X87946741Y-46277180D02*
X87994360Y-46181942D01*
X87994360Y-46181942D02*
X87994360Y-45372419D01*
X88327694Y-45372419D02*
X88899122Y-45372419D01*
X88613408Y-46372419D02*
X88613408Y-45372419D01*
X89899123Y-45372419D02*
X90565789Y-45372419D01*
X90565789Y-45372419D02*
X89899123Y-46372419D01*
X89899123Y-46372419D02*
X90565789Y-46372419D01*
X91137218Y-45372419D02*
X91327694Y-45372419D01*
X91327694Y-45372419D02*
X91422932Y-45420038D01*
X91422932Y-45420038D02*
X91518170Y-45515276D01*
X91518170Y-45515276D02*
X91565789Y-45705752D01*
X91565789Y-45705752D02*
X91565789Y-46039085D01*
X91565789Y-46039085D02*
X91518170Y-46229561D01*
X91518170Y-46229561D02*
X91422932Y-46324800D01*
X91422932Y-46324800D02*
X91327694Y-46372419D01*
X91327694Y-46372419D02*
X91137218Y-46372419D01*
X91137218Y-46372419D02*
X91041980Y-46324800D01*
X91041980Y-46324800D02*
X90946742Y-46229561D01*
X90946742Y-46229561D02*
X90899123Y-46039085D01*
X90899123Y-46039085D02*
X90899123Y-45705752D01*
X90899123Y-45705752D02*
X90946742Y-45515276D01*
X90946742Y-45515276D02*
X91041980Y-45420038D01*
X91041980Y-45420038D02*
X91137218Y-45372419D01*
X91994361Y-46372419D02*
X91994361Y-45372419D01*
X91994361Y-45372419D02*
X92565789Y-46372419D01*
X92565789Y-46372419D02*
X92565789Y-45372419D01*
X93041980Y-45848609D02*
X93375313Y-45848609D01*
X93518170Y-46372419D02*
X93041980Y-46372419D01*
X93041980Y-46372419D02*
X93041980Y-45372419D01*
X93041980Y-45372419D02*
X93518170Y-45372419D01*
X129803884Y-86372419D02*
X129803884Y-85372419D01*
X129803884Y-85372419D02*
X130137217Y-86086704D01*
X130137217Y-86086704D02*
X130470550Y-85372419D01*
X130470550Y-85372419D02*
X130470550Y-86372419D01*
X130946741Y-86372419D02*
X130946741Y-85705752D01*
X130946741Y-85372419D02*
X130899122Y-85420038D01*
X130899122Y-85420038D02*
X130946741Y-85467657D01*
X130946741Y-85467657D02*
X130994360Y-85420038D01*
X130994360Y-85420038D02*
X130946741Y-85372419D01*
X130946741Y-85372419D02*
X130946741Y-85467657D01*
X131851502Y-86324800D02*
X131756264Y-86372419D01*
X131756264Y-86372419D02*
X131565788Y-86372419D01*
X131565788Y-86372419D02*
X131470550Y-86324800D01*
X131470550Y-86324800D02*
X131422931Y-86277180D01*
X131422931Y-86277180D02*
X131375312Y-86181942D01*
X131375312Y-86181942D02*
X131375312Y-85896228D01*
X131375312Y-85896228D02*
X131422931Y-85800990D01*
X131422931Y-85800990D02*
X131470550Y-85753371D01*
X131470550Y-85753371D02*
X131565788Y-85705752D01*
X131565788Y-85705752D02*
X131756264Y-85705752D01*
X131756264Y-85705752D02*
X131851502Y-85753371D01*
X133565788Y-86372419D02*
X132994360Y-86372419D01*
X133280074Y-86372419D02*
X133280074Y-85372419D01*
X133280074Y-85372419D02*
X133184836Y-85515276D01*
X133184836Y-85515276D02*
X133089598Y-85610514D01*
X133089598Y-85610514D02*
X132994360Y-85658133D01*
X141523646Y-87742475D02*
X142142693Y-87742475D01*
X142142693Y-87742475D02*
X141809360Y-88123427D01*
X141809360Y-88123427D02*
X141952217Y-88123427D01*
X141952217Y-88123427D02*
X142047455Y-88171046D01*
X142047455Y-88171046D02*
X142095074Y-88218665D01*
X142095074Y-88218665D02*
X142142693Y-88313903D01*
X142142693Y-88313903D02*
X142142693Y-88551998D01*
X142142693Y-88551998D02*
X142095074Y-88647236D01*
X142095074Y-88647236D02*
X142047455Y-88694856D01*
X142047455Y-88694856D02*
X141952217Y-88742475D01*
X141952217Y-88742475D02*
X141666503Y-88742475D01*
X141666503Y-88742475D02*
X141571265Y-88694856D01*
X141571265Y-88694856D02*
X141523646Y-88647236D01*
X142571265Y-88647236D02*
X142618884Y-88694856D01*
X142618884Y-88694856D02*
X142571265Y-88742475D01*
X142571265Y-88742475D02*
X142523646Y-88694856D01*
X142523646Y-88694856D02*
X142571265Y-88647236D01*
X142571265Y-88647236D02*
X142571265Y-88742475D01*
X142952217Y-87742475D02*
X143571264Y-87742475D01*
X143571264Y-87742475D02*
X143237931Y-88123427D01*
X143237931Y-88123427D02*
X143380788Y-88123427D01*
X143380788Y-88123427D02*
X143476026Y-88171046D01*
X143476026Y-88171046D02*
X143523645Y-88218665D01*
X143523645Y-88218665D02*
X143571264Y-88313903D01*
X143571264Y-88313903D02*
X143571264Y-88551998D01*
X143571264Y-88551998D02*
X143523645Y-88647236D01*
X143523645Y-88647236D02*
X143476026Y-88694856D01*
X143476026Y-88694856D02*
X143380788Y-88742475D01*
X143380788Y-88742475D02*
X143095074Y-88742475D01*
X143095074Y-88742475D02*
X142999836Y-88694856D01*
X142999836Y-88694856D02*
X142952217Y-88647236D01*
X142142693Y-89400038D02*
X142047455Y-89352419D01*
X142047455Y-89352419D02*
X141904598Y-89352419D01*
X141904598Y-89352419D02*
X141761741Y-89400038D01*
X141761741Y-89400038D02*
X141666503Y-89495276D01*
X141666503Y-89495276D02*
X141618884Y-89590514D01*
X141618884Y-89590514D02*
X141571265Y-89780990D01*
X141571265Y-89780990D02*
X141571265Y-89923847D01*
X141571265Y-89923847D02*
X141618884Y-90114323D01*
X141618884Y-90114323D02*
X141666503Y-90209561D01*
X141666503Y-90209561D02*
X141761741Y-90304800D01*
X141761741Y-90304800D02*
X141904598Y-90352419D01*
X141904598Y-90352419D02*
X141999836Y-90352419D01*
X141999836Y-90352419D02*
X142142693Y-90304800D01*
X142142693Y-90304800D02*
X142190312Y-90257180D01*
X142190312Y-90257180D02*
X142190312Y-89923847D01*
X142190312Y-89923847D02*
X141999836Y-89923847D01*
X142618884Y-90352419D02*
X142618884Y-89352419D01*
X142618884Y-89352419D02*
X143190312Y-90352419D01*
X143190312Y-90352419D02*
X143190312Y-89352419D01*
X143666503Y-90352419D02*
X143666503Y-89352419D01*
X143666503Y-89352419D02*
X143904598Y-89352419D01*
X143904598Y-89352419D02*
X144047455Y-89400038D01*
X144047455Y-89400038D02*
X144142693Y-89495276D01*
X144142693Y-89495276D02*
X144190312Y-89590514D01*
X144190312Y-89590514D02*
X144237931Y-89780990D01*
X144237931Y-89780990D02*
X144237931Y-89923847D01*
X144237931Y-89923847D02*
X144190312Y-90114323D01*
X144190312Y-90114323D02*
X144142693Y-90209561D01*
X144142693Y-90209561D02*
X144047455Y-90304800D01*
X144047455Y-90304800D02*
X143904598Y-90352419D01*
X143904598Y-90352419D02*
X143666503Y-90352419D01*
X123232455Y-97705752D02*
X123232455Y-98515276D01*
X123232455Y-98515276D02*
X123184836Y-98610514D01*
X123184836Y-98610514D02*
X123137217Y-98658133D01*
X123137217Y-98658133D02*
X123041979Y-98705752D01*
X123041979Y-98705752D02*
X122899122Y-98705752D01*
X122899122Y-98705752D02*
X122803884Y-98658133D01*
X123232455Y-98324800D02*
X123137217Y-98372419D01*
X123137217Y-98372419D02*
X122946741Y-98372419D01*
X122946741Y-98372419D02*
X122851503Y-98324800D01*
X122851503Y-98324800D02*
X122803884Y-98277180D01*
X122803884Y-98277180D02*
X122756265Y-98181942D01*
X122756265Y-98181942D02*
X122756265Y-97896228D01*
X122756265Y-97896228D02*
X122803884Y-97800990D01*
X122803884Y-97800990D02*
X122851503Y-97753371D01*
X122851503Y-97753371D02*
X122946741Y-97705752D01*
X122946741Y-97705752D02*
X123137217Y-97705752D01*
X123137217Y-97705752D02*
X123232455Y-97753371D01*
X123708646Y-98372419D02*
X123708646Y-97705752D01*
X123708646Y-97372419D02*
X123661027Y-97420038D01*
X123661027Y-97420038D02*
X123708646Y-97467657D01*
X123708646Y-97467657D02*
X123756265Y-97420038D01*
X123756265Y-97420038D02*
X123708646Y-97372419D01*
X123708646Y-97372419D02*
X123708646Y-97467657D01*
X124041979Y-97705752D02*
X124422931Y-97705752D01*
X124184836Y-97372419D02*
X124184836Y-98229561D01*
X124184836Y-98229561D02*
X124232455Y-98324800D01*
X124232455Y-98324800D02*
X124327693Y-98372419D01*
X124327693Y-98372419D02*
X124422931Y-98372419D01*
X124756265Y-98372419D02*
X124756265Y-97372419D01*
X125184836Y-98372419D02*
X125184836Y-97848609D01*
X125184836Y-97848609D02*
X125137217Y-97753371D01*
X125137217Y-97753371D02*
X125041979Y-97705752D01*
X125041979Y-97705752D02*
X124899122Y-97705752D01*
X124899122Y-97705752D02*
X124803884Y-97753371D01*
X124803884Y-97753371D02*
X124756265Y-97800990D01*
X126089598Y-97705752D02*
X126089598Y-98372419D01*
X125661027Y-97705752D02*
X125661027Y-98229561D01*
X125661027Y-98229561D02*
X125708646Y-98324800D01*
X125708646Y-98324800D02*
X125803884Y-98372419D01*
X125803884Y-98372419D02*
X125946741Y-98372419D01*
X125946741Y-98372419D02*
X126041979Y-98324800D01*
X126041979Y-98324800D02*
X126089598Y-98277180D01*
X126565789Y-98372419D02*
X126565789Y-97372419D01*
X126565789Y-97753371D02*
X126661027Y-97705752D01*
X126661027Y-97705752D02*
X126851503Y-97705752D01*
X126851503Y-97705752D02*
X126946741Y-97753371D01*
X126946741Y-97753371D02*
X126994360Y-97800990D01*
X126994360Y-97800990D02*
X127041979Y-97896228D01*
X127041979Y-97896228D02*
X127041979Y-98181942D01*
X127041979Y-98181942D02*
X126994360Y-98277180D01*
X126994360Y-98277180D02*
X126946741Y-98324800D01*
X126946741Y-98324800D02*
X126851503Y-98372419D01*
X126851503Y-98372419D02*
X126661027Y-98372419D01*
X126661027Y-98372419D02*
X126565789Y-98324800D01*
X127470551Y-98277180D02*
X127518170Y-98324800D01*
X127518170Y-98324800D02*
X127470551Y-98372419D01*
X127470551Y-98372419D02*
X127422932Y-98324800D01*
X127422932Y-98324800D02*
X127470551Y-98277180D01*
X127470551Y-98277180D02*
X127470551Y-98372419D01*
X128375312Y-98324800D02*
X128280074Y-98372419D01*
X128280074Y-98372419D02*
X128089598Y-98372419D01*
X128089598Y-98372419D02*
X127994360Y-98324800D01*
X127994360Y-98324800D02*
X127946741Y-98277180D01*
X127946741Y-98277180D02*
X127899122Y-98181942D01*
X127899122Y-98181942D02*
X127899122Y-97896228D01*
X127899122Y-97896228D02*
X127946741Y-97800990D01*
X127946741Y-97800990D02*
X127994360Y-97753371D01*
X127994360Y-97753371D02*
X128089598Y-97705752D01*
X128089598Y-97705752D02*
X128280074Y-97705752D01*
X128280074Y-97705752D02*
X128375312Y-97753371D01*
X128946741Y-98372419D02*
X128851503Y-98324800D01*
X128851503Y-98324800D02*
X128803884Y-98277180D01*
X128803884Y-98277180D02*
X128756265Y-98181942D01*
X128756265Y-98181942D02*
X128756265Y-97896228D01*
X128756265Y-97896228D02*
X128803884Y-97800990D01*
X128803884Y-97800990D02*
X128851503Y-97753371D01*
X128851503Y-97753371D02*
X128946741Y-97705752D01*
X128946741Y-97705752D02*
X129089598Y-97705752D01*
X129089598Y-97705752D02*
X129184836Y-97753371D01*
X129184836Y-97753371D02*
X129232455Y-97800990D01*
X129232455Y-97800990D02*
X129280074Y-97896228D01*
X129280074Y-97896228D02*
X129280074Y-98181942D01*
X129280074Y-98181942D02*
X129232455Y-98277180D01*
X129232455Y-98277180D02*
X129184836Y-98324800D01*
X129184836Y-98324800D02*
X129089598Y-98372419D01*
X129089598Y-98372419D02*
X128946741Y-98372419D01*
X129708646Y-98372419D02*
X129708646Y-97705752D01*
X129708646Y-97800990D02*
X129756265Y-97753371D01*
X129756265Y-97753371D02*
X129851503Y-97705752D01*
X129851503Y-97705752D02*
X129994360Y-97705752D01*
X129994360Y-97705752D02*
X130089598Y-97753371D01*
X130089598Y-97753371D02*
X130137217Y-97848609D01*
X130137217Y-97848609D02*
X130137217Y-98372419D01*
X130137217Y-97848609D02*
X130184836Y-97753371D01*
X130184836Y-97753371D02*
X130280074Y-97705752D01*
X130280074Y-97705752D02*
X130422931Y-97705752D01*
X130422931Y-97705752D02*
X130518170Y-97753371D01*
X130518170Y-97753371D02*
X130565789Y-97848609D01*
X130565789Y-97848609D02*
X130565789Y-98372419D01*
X131756264Y-97324800D02*
X130899122Y-98610514D01*
X132089598Y-97705752D02*
X132089598Y-98562895D01*
X132089598Y-98562895D02*
X132041979Y-98658133D01*
X132041979Y-98658133D02*
X131946741Y-98705752D01*
X131946741Y-98705752D02*
X131899122Y-98705752D01*
X132089598Y-97372419D02*
X132041979Y-97420038D01*
X132041979Y-97420038D02*
X132089598Y-97467657D01*
X132089598Y-97467657D02*
X132137217Y-97420038D01*
X132137217Y-97420038D02*
X132089598Y-97372419D01*
X132089598Y-97372419D02*
X132089598Y-97467657D01*
X132994359Y-98372419D02*
X132994359Y-97848609D01*
X132994359Y-97848609D02*
X132946740Y-97753371D01*
X132946740Y-97753371D02*
X132851502Y-97705752D01*
X132851502Y-97705752D02*
X132661026Y-97705752D01*
X132661026Y-97705752D02*
X132565788Y-97753371D01*
X132994359Y-98324800D02*
X132899121Y-98372419D01*
X132899121Y-98372419D02*
X132661026Y-98372419D01*
X132661026Y-98372419D02*
X132565788Y-98324800D01*
X132565788Y-98324800D02*
X132518169Y-98229561D01*
X132518169Y-98229561D02*
X132518169Y-98134323D01*
X132518169Y-98134323D02*
X132565788Y-98039085D01*
X132565788Y-98039085D02*
X132661026Y-97991466D01*
X132661026Y-97991466D02*
X132899121Y-97991466D01*
X132899121Y-97991466D02*
X132994359Y-97943847D01*
X133899121Y-98324800D02*
X133803883Y-98372419D01*
X133803883Y-98372419D02*
X133613407Y-98372419D01*
X133613407Y-98372419D02*
X133518169Y-98324800D01*
X133518169Y-98324800D02*
X133470550Y-98277180D01*
X133470550Y-98277180D02*
X133422931Y-98181942D01*
X133422931Y-98181942D02*
X133422931Y-97896228D01*
X133422931Y-97896228D02*
X133470550Y-97800990D01*
X133470550Y-97800990D02*
X133518169Y-97753371D01*
X133518169Y-97753371D02*
X133613407Y-97705752D01*
X133613407Y-97705752D02*
X133803883Y-97705752D01*
X133803883Y-97705752D02*
X133899121Y-97753371D01*
X134327693Y-98372419D02*
X134327693Y-97372419D01*
X134422931Y-97991466D02*
X134708645Y-98372419D01*
X134708645Y-97705752D02*
X134327693Y-98086704D01*
X135089598Y-98324800D02*
X135184836Y-98372419D01*
X135184836Y-98372419D02*
X135375312Y-98372419D01*
X135375312Y-98372419D02*
X135470550Y-98324800D01*
X135470550Y-98324800D02*
X135518169Y-98229561D01*
X135518169Y-98229561D02*
X135518169Y-98181942D01*
X135518169Y-98181942D02*
X135470550Y-98086704D01*
X135470550Y-98086704D02*
X135375312Y-98039085D01*
X135375312Y-98039085D02*
X135232455Y-98039085D01*
X135232455Y-98039085D02*
X135137217Y-97991466D01*
X135137217Y-97991466D02*
X135089598Y-97896228D01*
X135089598Y-97896228D02*
X135089598Y-97848609D01*
X135089598Y-97848609D02*
X135137217Y-97753371D01*
X135137217Y-97753371D02*
X135232455Y-97705752D01*
X135232455Y-97705752D02*
X135375312Y-97705752D01*
X135375312Y-97705752D02*
X135470550Y-97753371D01*
X135946741Y-98372419D02*
X135946741Y-97372419D01*
X136375312Y-98372419D02*
X136375312Y-97848609D01*
X136375312Y-97848609D02*
X136327693Y-97753371D01*
X136327693Y-97753371D02*
X136232455Y-97705752D01*
X136232455Y-97705752D02*
X136089598Y-97705752D01*
X136089598Y-97705752D02*
X135994360Y-97753371D01*
X135994360Y-97753371D02*
X135946741Y-97800990D01*
X136851503Y-98372419D02*
X136851503Y-97705752D01*
X136851503Y-97372419D02*
X136803884Y-97420038D01*
X136803884Y-97420038D02*
X136851503Y-97467657D01*
X136851503Y-97467657D02*
X136899122Y-97420038D01*
X136899122Y-97420038D02*
X136851503Y-97372419D01*
X136851503Y-97372419D02*
X136851503Y-97467657D01*
X137280074Y-98324800D02*
X137375312Y-98372419D01*
X137375312Y-98372419D02*
X137565788Y-98372419D01*
X137565788Y-98372419D02*
X137661026Y-98324800D01*
X137661026Y-98324800D02*
X137708645Y-98229561D01*
X137708645Y-98229561D02*
X137708645Y-98181942D01*
X137708645Y-98181942D02*
X137661026Y-98086704D01*
X137661026Y-98086704D02*
X137565788Y-98039085D01*
X137565788Y-98039085D02*
X137422931Y-98039085D01*
X137422931Y-98039085D02*
X137327693Y-97991466D01*
X137327693Y-97991466D02*
X137280074Y-97896228D01*
X137280074Y-97896228D02*
X137280074Y-97848609D01*
X137280074Y-97848609D02*
X137327693Y-97753371D01*
X137327693Y-97753371D02*
X137422931Y-97705752D01*
X137422931Y-97705752D02*
X137565788Y-97705752D01*
X137565788Y-97705752D02*
X137661026Y-97753371D01*
X138565788Y-98372419D02*
X138565788Y-97372419D01*
X138565788Y-98324800D02*
X138470550Y-98372419D01*
X138470550Y-98372419D02*
X138280074Y-98372419D01*
X138280074Y-98372419D02*
X138184836Y-98324800D01*
X138184836Y-98324800D02*
X138137217Y-98277180D01*
X138137217Y-98277180D02*
X138089598Y-98181942D01*
X138089598Y-98181942D02*
X138089598Y-97896228D01*
X138089598Y-97896228D02*
X138137217Y-97800990D01*
X138137217Y-97800990D02*
X138184836Y-97753371D01*
X138184836Y-97753371D02*
X138280074Y-97705752D01*
X138280074Y-97705752D02*
X138470550Y-97705752D01*
X138470550Y-97705752D02*
X138565788Y-97753371D01*
X131494360Y-61872419D02*
X131684836Y-61872419D01*
X131684836Y-61872419D02*
X131780074Y-61920038D01*
X131780074Y-61920038D02*
X131875312Y-62015276D01*
X131875312Y-62015276D02*
X131922931Y-62205752D01*
X131922931Y-62205752D02*
X131922931Y-62539085D01*
X131922931Y-62539085D02*
X131875312Y-62729561D01*
X131875312Y-62729561D02*
X131780074Y-62824800D01*
X131780074Y-62824800D02*
X131684836Y-62872419D01*
X131684836Y-62872419D02*
X131494360Y-62872419D01*
X131494360Y-62872419D02*
X131399122Y-62824800D01*
X131399122Y-62824800D02*
X131303884Y-62729561D01*
X131303884Y-62729561D02*
X131256265Y-62539085D01*
X131256265Y-62539085D02*
X131256265Y-62205752D01*
X131256265Y-62205752D02*
X131303884Y-62015276D01*
X131303884Y-62015276D02*
X131399122Y-61920038D01*
X131399122Y-61920038D02*
X131494360Y-61872419D01*
X132827693Y-62872419D02*
X132351503Y-62872419D01*
X132351503Y-62872419D02*
X132351503Y-61872419D01*
X133161027Y-62348609D02*
X133494360Y-62348609D01*
X133637217Y-62872419D02*
X133161027Y-62872419D01*
X133161027Y-62872419D02*
X133161027Y-61872419D01*
X133161027Y-61872419D02*
X133637217Y-61872419D01*
X134065789Y-62872419D02*
X134065789Y-61872419D01*
X134065789Y-61872419D02*
X134303884Y-61872419D01*
X134303884Y-61872419D02*
X134446741Y-61920038D01*
X134446741Y-61920038D02*
X134541979Y-62015276D01*
X134541979Y-62015276D02*
X134589598Y-62110514D01*
X134589598Y-62110514D02*
X134637217Y-62300990D01*
X134637217Y-62300990D02*
X134637217Y-62443847D01*
X134637217Y-62443847D02*
X134589598Y-62634323D01*
X134589598Y-62634323D02*
X134541979Y-62729561D01*
X134541979Y-62729561D02*
X134446741Y-62824800D01*
X134446741Y-62824800D02*
X134303884Y-62872419D01*
X134303884Y-62872419D02*
X134065789Y-62872419D01*
X79803884Y-96238665D02*
X80137217Y-96238665D01*
X80280074Y-96762475D02*
X79803884Y-96762475D01*
X79803884Y-96762475D02*
X79803884Y-95762475D01*
X79803884Y-95762475D02*
X80280074Y-95762475D01*
X80708646Y-96762475D02*
X80708646Y-96095808D01*
X80708646Y-96191046D02*
X80756265Y-96143427D01*
X80756265Y-96143427D02*
X80851503Y-96095808D01*
X80851503Y-96095808D02*
X80994360Y-96095808D01*
X80994360Y-96095808D02*
X81089598Y-96143427D01*
X81089598Y-96143427D02*
X81137217Y-96238665D01*
X81137217Y-96238665D02*
X81137217Y-96762475D01*
X81137217Y-96238665D02*
X81184836Y-96143427D01*
X81184836Y-96143427D02*
X81280074Y-96095808D01*
X81280074Y-96095808D02*
X81422931Y-96095808D01*
X81422931Y-96095808D02*
X81518170Y-96143427D01*
X81518170Y-96143427D02*
X81565789Y-96238665D01*
X81565789Y-96238665D02*
X81565789Y-96762475D01*
X82422931Y-96714856D02*
X82327693Y-96762475D01*
X82327693Y-96762475D02*
X82137217Y-96762475D01*
X82137217Y-96762475D02*
X82041979Y-96714856D01*
X82041979Y-96714856D02*
X81994360Y-96619617D01*
X81994360Y-96619617D02*
X81994360Y-96238665D01*
X81994360Y-96238665D02*
X82041979Y-96143427D01*
X82041979Y-96143427D02*
X82137217Y-96095808D01*
X82137217Y-96095808D02*
X82327693Y-96095808D01*
X82327693Y-96095808D02*
X82422931Y-96143427D01*
X82422931Y-96143427D02*
X82470550Y-96238665D01*
X82470550Y-96238665D02*
X82470550Y-96333903D01*
X82470550Y-96333903D02*
X81994360Y-96429141D01*
X82899122Y-96762475D02*
X82899122Y-96095808D01*
X82899122Y-96286284D02*
X82946741Y-96191046D01*
X82946741Y-96191046D02*
X82994360Y-96143427D01*
X82994360Y-96143427D02*
X83089598Y-96095808D01*
X83089598Y-96095808D02*
X83184836Y-96095808D01*
X83946741Y-96095808D02*
X83946741Y-96905332D01*
X83946741Y-96905332D02*
X83899122Y-97000570D01*
X83899122Y-97000570D02*
X83851503Y-97048189D01*
X83851503Y-97048189D02*
X83756265Y-97095808D01*
X83756265Y-97095808D02*
X83613408Y-97095808D01*
X83613408Y-97095808D02*
X83518170Y-97048189D01*
X83946741Y-96714856D02*
X83851503Y-96762475D01*
X83851503Y-96762475D02*
X83661027Y-96762475D01*
X83661027Y-96762475D02*
X83565789Y-96714856D01*
X83565789Y-96714856D02*
X83518170Y-96667236D01*
X83518170Y-96667236D02*
X83470551Y-96571998D01*
X83470551Y-96571998D02*
X83470551Y-96286284D01*
X83470551Y-96286284D02*
X83518170Y-96191046D01*
X83518170Y-96191046D02*
X83565789Y-96143427D01*
X83565789Y-96143427D02*
X83661027Y-96095808D01*
X83661027Y-96095808D02*
X83851503Y-96095808D01*
X83851503Y-96095808D02*
X83946741Y-96143427D01*
X84803884Y-96714856D02*
X84708646Y-96762475D01*
X84708646Y-96762475D02*
X84518170Y-96762475D01*
X84518170Y-96762475D02*
X84422932Y-96714856D01*
X84422932Y-96714856D02*
X84375313Y-96619617D01*
X84375313Y-96619617D02*
X84375313Y-96238665D01*
X84375313Y-96238665D02*
X84422932Y-96143427D01*
X84422932Y-96143427D02*
X84518170Y-96095808D01*
X84518170Y-96095808D02*
X84708646Y-96095808D01*
X84708646Y-96095808D02*
X84803884Y-96143427D01*
X84803884Y-96143427D02*
X84851503Y-96238665D01*
X84851503Y-96238665D02*
X84851503Y-96333903D01*
X84851503Y-96333903D02*
X84375313Y-96429141D01*
X85280075Y-96095808D02*
X85280075Y-96762475D01*
X85280075Y-96191046D02*
X85327694Y-96143427D01*
X85327694Y-96143427D02*
X85422932Y-96095808D01*
X85422932Y-96095808D02*
X85565789Y-96095808D01*
X85565789Y-96095808D02*
X85661027Y-96143427D01*
X85661027Y-96143427D02*
X85708646Y-96238665D01*
X85708646Y-96238665D02*
X85708646Y-96762475D01*
X86613408Y-96714856D02*
X86518170Y-96762475D01*
X86518170Y-96762475D02*
X86327694Y-96762475D01*
X86327694Y-96762475D02*
X86232456Y-96714856D01*
X86232456Y-96714856D02*
X86184837Y-96667236D01*
X86184837Y-96667236D02*
X86137218Y-96571998D01*
X86137218Y-96571998D02*
X86137218Y-96286284D01*
X86137218Y-96286284D02*
X86184837Y-96191046D01*
X86184837Y-96191046D02*
X86232456Y-96143427D01*
X86232456Y-96143427D02*
X86327694Y-96095808D01*
X86327694Y-96095808D02*
X86518170Y-96095808D01*
X86518170Y-96095808D02*
X86613408Y-96143427D01*
X87422932Y-96714856D02*
X87327694Y-96762475D01*
X87327694Y-96762475D02*
X87137218Y-96762475D01*
X87137218Y-96762475D02*
X87041980Y-96714856D01*
X87041980Y-96714856D02*
X86994361Y-96619617D01*
X86994361Y-96619617D02*
X86994361Y-96238665D01*
X86994361Y-96238665D02*
X87041980Y-96143427D01*
X87041980Y-96143427D02*
X87137218Y-96095808D01*
X87137218Y-96095808D02*
X87327694Y-96095808D01*
X87327694Y-96095808D02*
X87422932Y-96143427D01*
X87422932Y-96143427D02*
X87470551Y-96238665D01*
X87470551Y-96238665D02*
X87470551Y-96333903D01*
X87470551Y-96333903D02*
X86994361Y-96429141D01*
X88803885Y-96762475D02*
X88708647Y-96714856D01*
X88708647Y-96714856D02*
X88661028Y-96667236D01*
X88661028Y-96667236D02*
X88613409Y-96571998D01*
X88613409Y-96571998D02*
X88613409Y-96286284D01*
X88613409Y-96286284D02*
X88661028Y-96191046D01*
X88661028Y-96191046D02*
X88708647Y-96143427D01*
X88708647Y-96143427D02*
X88803885Y-96095808D01*
X88803885Y-96095808D02*
X88946742Y-96095808D01*
X88946742Y-96095808D02*
X89041980Y-96143427D01*
X89041980Y-96143427D02*
X89089599Y-96191046D01*
X89089599Y-96191046D02*
X89137218Y-96286284D01*
X89137218Y-96286284D02*
X89137218Y-96571998D01*
X89137218Y-96571998D02*
X89089599Y-96667236D01*
X89089599Y-96667236D02*
X89041980Y-96714856D01*
X89041980Y-96714856D02*
X88946742Y-96762475D01*
X88946742Y-96762475D02*
X88803885Y-96762475D01*
X89422933Y-96095808D02*
X89803885Y-96095808D01*
X89565790Y-96762475D02*
X89565790Y-95905332D01*
X89565790Y-95905332D02*
X89613409Y-95810094D01*
X89613409Y-95810094D02*
X89708647Y-95762475D01*
X89708647Y-95762475D02*
X89803885Y-95762475D01*
X91470552Y-96667236D02*
X91422933Y-96714856D01*
X91422933Y-96714856D02*
X91280076Y-96762475D01*
X91280076Y-96762475D02*
X91184838Y-96762475D01*
X91184838Y-96762475D02*
X91041981Y-96714856D01*
X91041981Y-96714856D02*
X90946743Y-96619617D01*
X90946743Y-96619617D02*
X90899124Y-96524379D01*
X90899124Y-96524379D02*
X90851505Y-96333903D01*
X90851505Y-96333903D02*
X90851505Y-96191046D01*
X90851505Y-96191046D02*
X90899124Y-96000570D01*
X90899124Y-96000570D02*
X90946743Y-95905332D01*
X90946743Y-95905332D02*
X91041981Y-95810094D01*
X91041981Y-95810094D02*
X91184838Y-95762475D01*
X91184838Y-95762475D02*
X91280076Y-95762475D01*
X91280076Y-95762475D02*
X91422933Y-95810094D01*
X91422933Y-95810094D02*
X91470552Y-95857713D01*
X92041981Y-96762475D02*
X91946743Y-96714856D01*
X91946743Y-96714856D02*
X91899124Y-96667236D01*
X91899124Y-96667236D02*
X91851505Y-96571998D01*
X91851505Y-96571998D02*
X91851505Y-96286284D01*
X91851505Y-96286284D02*
X91899124Y-96191046D01*
X91899124Y-96191046D02*
X91946743Y-96143427D01*
X91946743Y-96143427D02*
X92041981Y-96095808D01*
X92041981Y-96095808D02*
X92184838Y-96095808D01*
X92184838Y-96095808D02*
X92280076Y-96143427D01*
X92280076Y-96143427D02*
X92327695Y-96191046D01*
X92327695Y-96191046D02*
X92375314Y-96286284D01*
X92375314Y-96286284D02*
X92375314Y-96571998D01*
X92375314Y-96571998D02*
X92327695Y-96667236D01*
X92327695Y-96667236D02*
X92280076Y-96714856D01*
X92280076Y-96714856D02*
X92184838Y-96762475D01*
X92184838Y-96762475D02*
X92041981Y-96762475D01*
X92803886Y-96762475D02*
X92803886Y-96095808D01*
X92803886Y-96191046D02*
X92851505Y-96143427D01*
X92851505Y-96143427D02*
X92946743Y-96095808D01*
X92946743Y-96095808D02*
X93089600Y-96095808D01*
X93089600Y-96095808D02*
X93184838Y-96143427D01*
X93184838Y-96143427D02*
X93232457Y-96238665D01*
X93232457Y-96238665D02*
X93232457Y-96762475D01*
X93232457Y-96238665D02*
X93280076Y-96143427D01*
X93280076Y-96143427D02*
X93375314Y-96095808D01*
X93375314Y-96095808D02*
X93518171Y-96095808D01*
X93518171Y-96095808D02*
X93613410Y-96143427D01*
X93613410Y-96143427D02*
X93661029Y-96238665D01*
X93661029Y-96238665D02*
X93661029Y-96762475D01*
X94137219Y-96762475D02*
X94137219Y-96095808D01*
X94137219Y-96191046D02*
X94184838Y-96143427D01*
X94184838Y-96143427D02*
X94280076Y-96095808D01*
X94280076Y-96095808D02*
X94422933Y-96095808D01*
X94422933Y-96095808D02*
X94518171Y-96143427D01*
X94518171Y-96143427D02*
X94565790Y-96238665D01*
X94565790Y-96238665D02*
X94565790Y-96762475D01*
X94565790Y-96238665D02*
X94613409Y-96143427D01*
X94613409Y-96143427D02*
X94708647Y-96095808D01*
X94708647Y-96095808D02*
X94851504Y-96095808D01*
X94851504Y-96095808D02*
X94946743Y-96143427D01*
X94946743Y-96143427D02*
X94994362Y-96238665D01*
X94994362Y-96238665D02*
X94994362Y-96762475D01*
X95899123Y-96095808D02*
X95899123Y-96762475D01*
X95470552Y-96095808D02*
X95470552Y-96619617D01*
X95470552Y-96619617D02*
X95518171Y-96714856D01*
X95518171Y-96714856D02*
X95613409Y-96762475D01*
X95613409Y-96762475D02*
X95756266Y-96762475D01*
X95756266Y-96762475D02*
X95851504Y-96714856D01*
X95851504Y-96714856D02*
X95899123Y-96667236D01*
X96375314Y-96095808D02*
X96375314Y-96762475D01*
X96375314Y-96191046D02*
X96422933Y-96143427D01*
X96422933Y-96143427D02*
X96518171Y-96095808D01*
X96518171Y-96095808D02*
X96661028Y-96095808D01*
X96661028Y-96095808D02*
X96756266Y-96143427D01*
X96756266Y-96143427D02*
X96803885Y-96238665D01*
X96803885Y-96238665D02*
X96803885Y-96762475D01*
X97280076Y-96762475D02*
X97280076Y-96095808D01*
X97280076Y-95762475D02*
X97232457Y-95810094D01*
X97232457Y-95810094D02*
X97280076Y-95857713D01*
X97280076Y-95857713D02*
X97327695Y-95810094D01*
X97327695Y-95810094D02*
X97280076Y-95762475D01*
X97280076Y-95762475D02*
X97280076Y-95857713D01*
X98184837Y-96714856D02*
X98089599Y-96762475D01*
X98089599Y-96762475D02*
X97899123Y-96762475D01*
X97899123Y-96762475D02*
X97803885Y-96714856D01*
X97803885Y-96714856D02*
X97756266Y-96667236D01*
X97756266Y-96667236D02*
X97708647Y-96571998D01*
X97708647Y-96571998D02*
X97708647Y-96286284D01*
X97708647Y-96286284D02*
X97756266Y-96191046D01*
X97756266Y-96191046D02*
X97803885Y-96143427D01*
X97803885Y-96143427D02*
X97899123Y-96095808D01*
X97899123Y-96095808D02*
X98089599Y-96095808D01*
X98089599Y-96095808D02*
X98184837Y-96143427D01*
X99041980Y-96762475D02*
X99041980Y-96238665D01*
X99041980Y-96238665D02*
X98994361Y-96143427D01*
X98994361Y-96143427D02*
X98899123Y-96095808D01*
X98899123Y-96095808D02*
X98708647Y-96095808D01*
X98708647Y-96095808D02*
X98613409Y-96143427D01*
X99041980Y-96714856D02*
X98946742Y-96762475D01*
X98946742Y-96762475D02*
X98708647Y-96762475D01*
X98708647Y-96762475D02*
X98613409Y-96714856D01*
X98613409Y-96714856D02*
X98565790Y-96619617D01*
X98565790Y-96619617D02*
X98565790Y-96524379D01*
X98565790Y-96524379D02*
X98613409Y-96429141D01*
X98613409Y-96429141D02*
X98708647Y-96381522D01*
X98708647Y-96381522D02*
X98946742Y-96381522D01*
X98946742Y-96381522D02*
X99041980Y-96333903D01*
X99375314Y-96095808D02*
X99756266Y-96095808D01*
X99518171Y-95762475D02*
X99518171Y-96619617D01*
X99518171Y-96619617D02*
X99565790Y-96714856D01*
X99565790Y-96714856D02*
X99661028Y-96762475D01*
X99661028Y-96762475D02*
X99756266Y-96762475D01*
X100089600Y-96762475D02*
X100089600Y-96095808D01*
X100089600Y-95762475D02*
X100041981Y-95810094D01*
X100041981Y-95810094D02*
X100089600Y-95857713D01*
X100089600Y-95857713D02*
X100137219Y-95810094D01*
X100137219Y-95810094D02*
X100089600Y-95762475D01*
X100089600Y-95762475D02*
X100089600Y-95857713D01*
X100708647Y-96762475D02*
X100613409Y-96714856D01*
X100613409Y-96714856D02*
X100565790Y-96667236D01*
X100565790Y-96667236D02*
X100518171Y-96571998D01*
X100518171Y-96571998D02*
X100518171Y-96286284D01*
X100518171Y-96286284D02*
X100565790Y-96191046D01*
X100565790Y-96191046D02*
X100613409Y-96143427D01*
X100613409Y-96143427D02*
X100708647Y-96095808D01*
X100708647Y-96095808D02*
X100851504Y-96095808D01*
X100851504Y-96095808D02*
X100946742Y-96143427D01*
X100946742Y-96143427D02*
X100994361Y-96191046D01*
X100994361Y-96191046D02*
X101041980Y-96286284D01*
X101041980Y-96286284D02*
X101041980Y-96571998D01*
X101041980Y-96571998D02*
X100994361Y-96667236D01*
X100994361Y-96667236D02*
X100946742Y-96714856D01*
X100946742Y-96714856D02*
X100851504Y-96762475D01*
X100851504Y-96762475D02*
X100708647Y-96762475D01*
X101470552Y-96095808D02*
X101470552Y-96762475D01*
X101470552Y-96191046D02*
X101518171Y-96143427D01*
X101518171Y-96143427D02*
X101613409Y-96095808D01*
X101613409Y-96095808D02*
X101756266Y-96095808D01*
X101756266Y-96095808D02*
X101851504Y-96143427D01*
X101851504Y-96143427D02*
X101899123Y-96238665D01*
X101899123Y-96238665D02*
X101899123Y-96762475D01*
X103613409Y-96762475D02*
X103137219Y-96762475D01*
X103137219Y-96762475D02*
X103137219Y-95762475D01*
X104375314Y-96762475D02*
X104375314Y-96238665D01*
X104375314Y-96238665D02*
X104327695Y-96143427D01*
X104327695Y-96143427D02*
X104232457Y-96095808D01*
X104232457Y-96095808D02*
X104041981Y-96095808D01*
X104041981Y-96095808D02*
X103946743Y-96143427D01*
X104375314Y-96714856D02*
X104280076Y-96762475D01*
X104280076Y-96762475D02*
X104041981Y-96762475D01*
X104041981Y-96762475D02*
X103946743Y-96714856D01*
X103946743Y-96714856D02*
X103899124Y-96619617D01*
X103899124Y-96619617D02*
X103899124Y-96524379D01*
X103899124Y-96524379D02*
X103946743Y-96429141D01*
X103946743Y-96429141D02*
X104041981Y-96381522D01*
X104041981Y-96381522D02*
X104280076Y-96381522D01*
X104280076Y-96381522D02*
X104375314Y-96333903D01*
X104851505Y-96762475D02*
X104851505Y-95762475D01*
X104851505Y-96143427D02*
X104946743Y-96095808D01*
X104946743Y-96095808D02*
X105137219Y-96095808D01*
X105137219Y-96095808D02*
X105232457Y-96143427D01*
X105232457Y-96143427D02*
X105280076Y-96191046D01*
X105280076Y-96191046D02*
X105327695Y-96286284D01*
X105327695Y-96286284D02*
X105327695Y-96571998D01*
X105327695Y-96571998D02*
X105280076Y-96667236D01*
X105280076Y-96667236D02*
X105232457Y-96714856D01*
X105232457Y-96714856D02*
X105137219Y-96762475D01*
X105137219Y-96762475D02*
X104946743Y-96762475D01*
X104946743Y-96762475D02*
X104851505Y-96714856D01*
X79994360Y-97372419D02*
X80184836Y-97372419D01*
X80184836Y-97372419D02*
X80280074Y-97420038D01*
X80280074Y-97420038D02*
X80375312Y-97515276D01*
X80375312Y-97515276D02*
X80422931Y-97705752D01*
X80422931Y-97705752D02*
X80422931Y-98039085D01*
X80422931Y-98039085D02*
X80375312Y-98229561D01*
X80375312Y-98229561D02*
X80280074Y-98324800D01*
X80280074Y-98324800D02*
X80184836Y-98372419D01*
X80184836Y-98372419D02*
X79994360Y-98372419D01*
X79994360Y-98372419D02*
X79899122Y-98324800D01*
X79899122Y-98324800D02*
X79803884Y-98229561D01*
X79803884Y-98229561D02*
X79756265Y-98039085D01*
X79756265Y-98039085D02*
X79756265Y-97705752D01*
X79756265Y-97705752D02*
X79803884Y-97515276D01*
X79803884Y-97515276D02*
X79899122Y-97420038D01*
X79899122Y-97420038D02*
X79994360Y-97372419D01*
X80851503Y-97705752D02*
X80851503Y-98705752D01*
X80851503Y-97753371D02*
X80946741Y-97705752D01*
X80946741Y-97705752D02*
X81137217Y-97705752D01*
X81137217Y-97705752D02*
X81232455Y-97753371D01*
X81232455Y-97753371D02*
X81280074Y-97800990D01*
X81280074Y-97800990D02*
X81327693Y-97896228D01*
X81327693Y-97896228D02*
X81327693Y-98181942D01*
X81327693Y-98181942D02*
X81280074Y-98277180D01*
X81280074Y-98277180D02*
X81232455Y-98324800D01*
X81232455Y-98324800D02*
X81137217Y-98372419D01*
X81137217Y-98372419D02*
X80946741Y-98372419D01*
X80946741Y-98372419D02*
X80851503Y-98324800D01*
X82137217Y-98324800D02*
X82041979Y-98372419D01*
X82041979Y-98372419D02*
X81851503Y-98372419D01*
X81851503Y-98372419D02*
X81756265Y-98324800D01*
X81756265Y-98324800D02*
X81708646Y-98229561D01*
X81708646Y-98229561D02*
X81708646Y-97848609D01*
X81708646Y-97848609D02*
X81756265Y-97753371D01*
X81756265Y-97753371D02*
X81851503Y-97705752D01*
X81851503Y-97705752D02*
X82041979Y-97705752D01*
X82041979Y-97705752D02*
X82137217Y-97753371D01*
X82137217Y-97753371D02*
X82184836Y-97848609D01*
X82184836Y-97848609D02*
X82184836Y-97943847D01*
X82184836Y-97943847D02*
X81708646Y-98039085D01*
X82613408Y-97705752D02*
X82613408Y-98372419D01*
X82613408Y-97800990D02*
X82661027Y-97753371D01*
X82661027Y-97753371D02*
X82756265Y-97705752D01*
X82756265Y-97705752D02*
X82899122Y-97705752D01*
X82899122Y-97705752D02*
X82994360Y-97753371D01*
X82994360Y-97753371D02*
X83041979Y-97848609D01*
X83041979Y-97848609D02*
X83041979Y-98372419D01*
X83851503Y-97848609D02*
X83994360Y-97896228D01*
X83994360Y-97896228D02*
X84041979Y-97943847D01*
X84041979Y-97943847D02*
X84089598Y-98039085D01*
X84089598Y-98039085D02*
X84089598Y-98181942D01*
X84089598Y-98181942D02*
X84041979Y-98277180D01*
X84041979Y-98277180D02*
X83994360Y-98324800D01*
X83994360Y-98324800D02*
X83899122Y-98372419D01*
X83899122Y-98372419D02*
X83518170Y-98372419D01*
X83518170Y-98372419D02*
X83518170Y-97372419D01*
X83518170Y-97372419D02*
X83851503Y-97372419D01*
X83851503Y-97372419D02*
X83946741Y-97420038D01*
X83946741Y-97420038D02*
X83994360Y-97467657D01*
X83994360Y-97467657D02*
X84041979Y-97562895D01*
X84041979Y-97562895D02*
X84041979Y-97658133D01*
X84041979Y-97658133D02*
X83994360Y-97753371D01*
X83994360Y-97753371D02*
X83946741Y-97800990D01*
X83946741Y-97800990D02*
X83851503Y-97848609D01*
X83851503Y-97848609D02*
X83518170Y-97848609D01*
X84946741Y-98372419D02*
X84946741Y-97848609D01*
X84946741Y-97848609D02*
X84899122Y-97753371D01*
X84899122Y-97753371D02*
X84803884Y-97705752D01*
X84803884Y-97705752D02*
X84613408Y-97705752D01*
X84613408Y-97705752D02*
X84518170Y-97753371D01*
X84946741Y-98324800D02*
X84851503Y-98372419D01*
X84851503Y-98372419D02*
X84613408Y-98372419D01*
X84613408Y-98372419D02*
X84518170Y-98324800D01*
X84518170Y-98324800D02*
X84470551Y-98229561D01*
X84470551Y-98229561D02*
X84470551Y-98134323D01*
X84470551Y-98134323D02*
X84518170Y-98039085D01*
X84518170Y-98039085D02*
X84613408Y-97991466D01*
X84613408Y-97991466D02*
X84851503Y-97991466D01*
X84851503Y-97991466D02*
X84946741Y-97943847D01*
X85422932Y-98372419D02*
X85422932Y-97372419D01*
X85422932Y-97753371D02*
X85518170Y-97705752D01*
X85518170Y-97705752D02*
X85708646Y-97705752D01*
X85708646Y-97705752D02*
X85803884Y-97753371D01*
X85803884Y-97753371D02*
X85851503Y-97800990D01*
X85851503Y-97800990D02*
X85899122Y-97896228D01*
X85899122Y-97896228D02*
X85899122Y-98181942D01*
X85899122Y-98181942D02*
X85851503Y-98277180D01*
X85851503Y-98277180D02*
X85803884Y-98324800D01*
X85803884Y-98324800D02*
X85708646Y-98372419D01*
X85708646Y-98372419D02*
X85518170Y-98372419D01*
X85518170Y-98372419D02*
X85422932Y-98324800D01*
X86232456Y-97705752D02*
X86470551Y-98372419D01*
X86708646Y-97705752D02*
X86470551Y-98372419D01*
X86470551Y-98372419D02*
X86375313Y-98610514D01*
X86375313Y-98610514D02*
X86327694Y-98658133D01*
X86327694Y-98658133D02*
X86232456Y-98705752D01*
X87232456Y-98372419D02*
X87137218Y-98324800D01*
X87137218Y-98324800D02*
X87089599Y-98277180D01*
X87089599Y-98277180D02*
X87041980Y-98181942D01*
X87041980Y-98181942D02*
X87041980Y-97896228D01*
X87041980Y-97896228D02*
X87089599Y-97800990D01*
X87089599Y-97800990D02*
X87137218Y-97753371D01*
X87137218Y-97753371D02*
X87232456Y-97705752D01*
X87232456Y-97705752D02*
X87375313Y-97705752D01*
X87375313Y-97705752D02*
X87470551Y-97753371D01*
X87470551Y-97753371D02*
X87518170Y-97800990D01*
X87518170Y-97800990D02*
X87565789Y-97896228D01*
X87565789Y-97896228D02*
X87565789Y-98181942D01*
X87565789Y-98181942D02*
X87518170Y-98277180D01*
X87518170Y-98277180D02*
X87470551Y-98324800D01*
X87470551Y-98324800D02*
X87375313Y-98372419D01*
X87375313Y-98372419D02*
X87232456Y-98372419D01*
X88422932Y-97705752D02*
X88422932Y-98515276D01*
X88422932Y-98515276D02*
X88375313Y-98610514D01*
X88375313Y-98610514D02*
X88327694Y-98658133D01*
X88327694Y-98658133D02*
X88232456Y-98705752D01*
X88232456Y-98705752D02*
X88089599Y-98705752D01*
X88089599Y-98705752D02*
X87994361Y-98658133D01*
X88422932Y-98324800D02*
X88327694Y-98372419D01*
X88327694Y-98372419D02*
X88137218Y-98372419D01*
X88137218Y-98372419D02*
X88041980Y-98324800D01*
X88041980Y-98324800D02*
X87994361Y-98277180D01*
X87994361Y-98277180D02*
X87946742Y-98181942D01*
X87946742Y-98181942D02*
X87946742Y-97896228D01*
X87946742Y-97896228D02*
X87994361Y-97800990D01*
X87994361Y-97800990D02*
X88041980Y-97753371D01*
X88041980Y-97753371D02*
X88137218Y-97705752D01*
X88137218Y-97705752D02*
X88327694Y-97705752D01*
X88327694Y-97705752D02*
X88422932Y-97753371D01*
X88899123Y-98372419D02*
X88899123Y-97705752D01*
X88899123Y-97896228D02*
X88946742Y-97800990D01*
X88946742Y-97800990D02*
X88994361Y-97753371D01*
X88994361Y-97753371D02*
X89089599Y-97705752D01*
X89089599Y-97705752D02*
X89184837Y-97705752D01*
X89946742Y-98372419D02*
X89946742Y-97848609D01*
X89946742Y-97848609D02*
X89899123Y-97753371D01*
X89899123Y-97753371D02*
X89803885Y-97705752D01*
X89803885Y-97705752D02*
X89613409Y-97705752D01*
X89613409Y-97705752D02*
X89518171Y-97753371D01*
X89946742Y-98324800D02*
X89851504Y-98372419D01*
X89851504Y-98372419D02*
X89613409Y-98372419D01*
X89613409Y-98372419D02*
X89518171Y-98324800D01*
X89518171Y-98324800D02*
X89470552Y-98229561D01*
X89470552Y-98229561D02*
X89470552Y-98134323D01*
X89470552Y-98134323D02*
X89518171Y-98039085D01*
X89518171Y-98039085D02*
X89613409Y-97991466D01*
X89613409Y-97991466D02*
X89851504Y-97991466D01*
X89851504Y-97991466D02*
X89946742Y-97943847D01*
X90422933Y-97705752D02*
X90422933Y-98705752D01*
X90422933Y-97753371D02*
X90518171Y-97705752D01*
X90518171Y-97705752D02*
X90708647Y-97705752D01*
X90708647Y-97705752D02*
X90803885Y-97753371D01*
X90803885Y-97753371D02*
X90851504Y-97800990D01*
X90851504Y-97800990D02*
X90899123Y-97896228D01*
X90899123Y-97896228D02*
X90899123Y-98181942D01*
X90899123Y-98181942D02*
X90851504Y-98277180D01*
X90851504Y-98277180D02*
X90803885Y-98324800D01*
X90803885Y-98324800D02*
X90708647Y-98372419D01*
X90708647Y-98372419D02*
X90518171Y-98372419D01*
X90518171Y-98372419D02*
X90422933Y-98324800D01*
X91327695Y-98372419D02*
X91327695Y-97372419D01*
X91756266Y-98372419D02*
X91756266Y-97848609D01*
X91756266Y-97848609D02*
X91708647Y-97753371D01*
X91708647Y-97753371D02*
X91613409Y-97705752D01*
X91613409Y-97705752D02*
X91470552Y-97705752D01*
X91470552Y-97705752D02*
X91375314Y-97753371D01*
X91375314Y-97753371D02*
X91327695Y-97800990D01*
X92613409Y-98324800D02*
X92518171Y-98372419D01*
X92518171Y-98372419D02*
X92327695Y-98372419D01*
X92327695Y-98372419D02*
X92232457Y-98324800D01*
X92232457Y-98324800D02*
X92184838Y-98229561D01*
X92184838Y-98229561D02*
X92184838Y-97848609D01*
X92184838Y-97848609D02*
X92232457Y-97753371D01*
X92232457Y-97753371D02*
X92327695Y-97705752D01*
X92327695Y-97705752D02*
X92518171Y-97705752D01*
X92518171Y-97705752D02*
X92613409Y-97753371D01*
X92613409Y-97753371D02*
X92661028Y-97848609D01*
X92661028Y-97848609D02*
X92661028Y-97943847D01*
X92661028Y-97943847D02*
X92184838Y-98039085D01*
X93089600Y-98372419D02*
X93089600Y-97705752D01*
X93089600Y-97896228D02*
X93137219Y-97800990D01*
X93137219Y-97800990D02*
X93184838Y-97753371D01*
X93184838Y-97753371D02*
X93280076Y-97705752D01*
X93280076Y-97705752D02*
X93375314Y-97705752D01*
X94375315Y-97705752D02*
X94613410Y-98372419D01*
X94613410Y-98372419D02*
X94851505Y-97705752D01*
X95184839Y-97467657D02*
X95232458Y-97420038D01*
X95232458Y-97420038D02*
X95327696Y-97372419D01*
X95327696Y-97372419D02*
X95565791Y-97372419D01*
X95565791Y-97372419D02*
X95661029Y-97420038D01*
X95661029Y-97420038D02*
X95708648Y-97467657D01*
X95708648Y-97467657D02*
X95756267Y-97562895D01*
X95756267Y-97562895D02*
X95756267Y-97658133D01*
X95756267Y-97658133D02*
X95708648Y-97800990D01*
X95708648Y-97800990D02*
X95137220Y-98372419D01*
X95137220Y-98372419D02*
X95756267Y-98372419D01*
X96184839Y-98277180D02*
X96232458Y-98324800D01*
X96232458Y-98324800D02*
X96184839Y-98372419D01*
X96184839Y-98372419D02*
X96137220Y-98324800D01*
X96137220Y-98324800D02*
X96184839Y-98277180D01*
X96184839Y-98277180D02*
X96184839Y-98372419D01*
X96851505Y-97372419D02*
X96946743Y-97372419D01*
X96946743Y-97372419D02*
X97041981Y-97420038D01*
X97041981Y-97420038D02*
X97089600Y-97467657D01*
X97089600Y-97467657D02*
X97137219Y-97562895D01*
X97137219Y-97562895D02*
X97184838Y-97753371D01*
X97184838Y-97753371D02*
X97184838Y-97991466D01*
X97184838Y-97991466D02*
X97137219Y-98181942D01*
X97137219Y-98181942D02*
X97089600Y-98277180D01*
X97089600Y-98277180D02*
X97041981Y-98324800D01*
X97041981Y-98324800D02*
X96946743Y-98372419D01*
X96946743Y-98372419D02*
X96851505Y-98372419D01*
X96851505Y-98372419D02*
X96756267Y-98324800D01*
X96756267Y-98324800D02*
X96708648Y-98277180D01*
X96708648Y-98277180D02*
X96661029Y-98181942D01*
X96661029Y-98181942D02*
X96613410Y-97991466D01*
X96613410Y-97991466D02*
X96613410Y-97753371D01*
X96613410Y-97753371D02*
X96661029Y-97562895D01*
X96661029Y-97562895D02*
X96708648Y-97467657D01*
X96708648Y-97467657D02*
X96756267Y-97420038D01*
X96756267Y-97420038D02*
X96851505Y-97372419D01*
X82803884Y-64372419D02*
X82803884Y-63372419D01*
X82803884Y-63372419D02*
X83041979Y-63372419D01*
X83041979Y-63372419D02*
X83184836Y-63420038D01*
X83184836Y-63420038D02*
X83280074Y-63515276D01*
X83280074Y-63515276D02*
X83327693Y-63610514D01*
X83327693Y-63610514D02*
X83375312Y-63800990D01*
X83375312Y-63800990D02*
X83375312Y-63943847D01*
X83375312Y-63943847D02*
X83327693Y-64134323D01*
X83327693Y-64134323D02*
X83280074Y-64229561D01*
X83280074Y-64229561D02*
X83184836Y-64324800D01*
X83184836Y-64324800D02*
X83041979Y-64372419D01*
X83041979Y-64372419D02*
X82803884Y-64372419D01*
X83803884Y-63848609D02*
X84137217Y-63848609D01*
X84280074Y-64372419D02*
X83803884Y-64372419D01*
X83803884Y-64372419D02*
X83803884Y-63372419D01*
X83803884Y-63372419D02*
X84280074Y-63372419D01*
X84565789Y-63372419D02*
X85137217Y-63372419D01*
X84851503Y-64372419D02*
X84851503Y-63372419D01*
X84303884Y-83372419D02*
X84303884Y-82372419D01*
X84303884Y-82372419D02*
X84684836Y-82372419D01*
X84684836Y-82372419D02*
X84780074Y-82420038D01*
X84780074Y-82420038D02*
X84827693Y-82467657D01*
X84827693Y-82467657D02*
X84875312Y-82562895D01*
X84875312Y-82562895D02*
X84875312Y-82705752D01*
X84875312Y-82705752D02*
X84827693Y-82800990D01*
X84827693Y-82800990D02*
X84780074Y-82848609D01*
X84780074Y-82848609D02*
X84684836Y-82896228D01*
X84684836Y-82896228D02*
X84303884Y-82896228D01*
X85827693Y-82420038D02*
X85732455Y-82372419D01*
X85732455Y-82372419D02*
X85589598Y-82372419D01*
X85589598Y-82372419D02*
X85446741Y-82420038D01*
X85446741Y-82420038D02*
X85351503Y-82515276D01*
X85351503Y-82515276D02*
X85303884Y-82610514D01*
X85303884Y-82610514D02*
X85256265Y-82800990D01*
X85256265Y-82800990D02*
X85256265Y-82943847D01*
X85256265Y-82943847D02*
X85303884Y-83134323D01*
X85303884Y-83134323D02*
X85351503Y-83229561D01*
X85351503Y-83229561D02*
X85446741Y-83324800D01*
X85446741Y-83324800D02*
X85589598Y-83372419D01*
X85589598Y-83372419D02*
X85684836Y-83372419D01*
X85684836Y-83372419D02*
X85827693Y-83324800D01*
X85827693Y-83324800D02*
X85875312Y-83277180D01*
X85875312Y-83277180D02*
X85875312Y-82943847D01*
X85875312Y-82943847D02*
X85684836Y-82943847D01*
D12*
X123071428Y-48454819D02*
X122738095Y-47978628D01*
X122500000Y-48454819D02*
X122500000Y-47454819D01*
X122500000Y-47454819D02*
X122880952Y-47454819D01*
X122880952Y-47454819D02*
X122976190Y-47502438D01*
X122976190Y-47502438D02*
X123023809Y-47550057D01*
X123023809Y-47550057D02*
X123071428Y-47645295D01*
X123071428Y-47645295D02*
X123071428Y-47788152D01*
X123071428Y-47788152D02*
X123023809Y-47883390D01*
X123023809Y-47883390D02*
X122976190Y-47931009D01*
X122976190Y-47931009D02*
X122880952Y-47978628D01*
X122880952Y-47978628D02*
X122500000Y-47978628D01*
X123500000Y-47931009D02*
X123833333Y-47931009D01*
X123976190Y-48454819D02*
X123500000Y-48454819D01*
X123500000Y-48454819D02*
X123500000Y-47454819D01*
X123500000Y-47454819D02*
X123976190Y-47454819D01*
X124357143Y-48407200D02*
X124500000Y-48454819D01*
X124500000Y-48454819D02*
X124738095Y-48454819D01*
X124738095Y-48454819D02*
X124833333Y-48407200D01*
X124833333Y-48407200D02*
X124880952Y-48359580D01*
X124880952Y-48359580D02*
X124928571Y-48264342D01*
X124928571Y-48264342D02*
X124928571Y-48169104D01*
X124928571Y-48169104D02*
X124880952Y-48073866D01*
X124880952Y-48073866D02*
X124833333Y-48026247D01*
X124833333Y-48026247D02*
X124738095Y-47978628D01*
X124738095Y-47978628D02*
X124547619Y-47931009D01*
X124547619Y-47931009D02*
X124452381Y-47883390D01*
X124452381Y-47883390D02*
X124404762Y-47835771D01*
X124404762Y-47835771D02*
X124357143Y-47740533D01*
X124357143Y-47740533D02*
X124357143Y-47645295D01*
X124357143Y-47645295D02*
X124404762Y-47550057D01*
X124404762Y-47550057D02*
X124452381Y-47502438D01*
X124452381Y-47502438D02*
X124547619Y-47454819D01*
X124547619Y-47454819D02*
X124785714Y-47454819D01*
X124785714Y-47454819D02*
X124928571Y-47502438D01*
X125357143Y-47931009D02*
X125690476Y-47931009D01*
X125833333Y-48454819D02*
X125357143Y-48454819D01*
X125357143Y-48454819D02*
X125357143Y-47454819D01*
X125357143Y-47454819D02*
X125833333Y-47454819D01*
X126119048Y-47454819D02*
X126690476Y-47454819D01*
X126404762Y-48454819D02*
X126404762Y-47454819D01*
X127547619Y-48454819D02*
X126976191Y-48454819D01*
X127261905Y-48454819D02*
X127261905Y-47454819D01*
X127261905Y-47454819D02*
X127166667Y-47597676D01*
X127166667Y-47597676D02*
X127071429Y-47692914D01*
X127071429Y-47692914D02*
X126976191Y-47740533D01*
X92083377Y-89355553D02*
X92226234Y-89403172D01*
X92226234Y-89403172D02*
X92464329Y-89403172D01*
X92464329Y-89403172D02*
X92559567Y-89355553D01*
X92559567Y-89355553D02*
X92607186Y-89307933D01*
X92607186Y-89307933D02*
X92654805Y-89212695D01*
X92654805Y-89212695D02*
X92654805Y-89117457D01*
X92654805Y-89117457D02*
X92607186Y-89022219D01*
X92607186Y-89022219D02*
X92559567Y-88974600D01*
X92559567Y-88974600D02*
X92464329Y-88926981D01*
X92464329Y-88926981D02*
X92273853Y-88879362D01*
X92273853Y-88879362D02*
X92178615Y-88831743D01*
X92178615Y-88831743D02*
X92130996Y-88784124D01*
X92130996Y-88784124D02*
X92083377Y-88688886D01*
X92083377Y-88688886D02*
X92083377Y-88593648D01*
X92083377Y-88593648D02*
X92130996Y-88498410D01*
X92130996Y-88498410D02*
X92178615Y-88450791D01*
X92178615Y-88450791D02*
X92273853Y-88403172D01*
X92273853Y-88403172D02*
X92511948Y-88403172D01*
X92511948Y-88403172D02*
X92654805Y-88450791D01*
X92988139Y-88403172D02*
X93226234Y-89403172D01*
X93226234Y-89403172D02*
X93416710Y-88688886D01*
X93416710Y-88688886D02*
X93607186Y-89403172D01*
X93607186Y-89403172D02*
X93845282Y-88403172D01*
X94750043Y-89403172D02*
X94178615Y-89403172D01*
X94464329Y-89403172D02*
X94464329Y-88403172D01*
X94464329Y-88403172D02*
X94369091Y-88546029D01*
X94369091Y-88546029D02*
X94273853Y-88641267D01*
X94273853Y-88641267D02*
X94178615Y-88688886D01*
X133578939Y-71789102D02*
X134293224Y-71789102D01*
X134293224Y-71789102D02*
X134436081Y-71836721D01*
X134436081Y-71836721D02*
X134531320Y-71931959D01*
X134531320Y-71931959D02*
X134578939Y-72074816D01*
X134578939Y-72074816D02*
X134578939Y-72170054D01*
X133578939Y-71408149D02*
X133578939Y-70789102D01*
X133578939Y-70789102D02*
X133959891Y-71122435D01*
X133959891Y-71122435D02*
X133959891Y-70979578D01*
X133959891Y-70979578D02*
X134007510Y-70884340D01*
X134007510Y-70884340D02*
X134055129Y-70836721D01*
X134055129Y-70836721D02*
X134150367Y-70789102D01*
X134150367Y-70789102D02*
X134388462Y-70789102D01*
X134388462Y-70789102D02*
X134483700Y-70836721D01*
X134483700Y-70836721D02*
X134531320Y-70884340D01*
X134531320Y-70884340D02*
X134578939Y-70979578D01*
X134578939Y-70979578D02*
X134578939Y-71265292D01*
X134578939Y-71265292D02*
X134531320Y-71360530D01*
X134531320Y-71360530D02*
X134483700Y-71408149D01*
X117366666Y-47931009D02*
X117509523Y-47978628D01*
X117509523Y-47978628D02*
X117557142Y-48026247D01*
X117557142Y-48026247D02*
X117604761Y-48121485D01*
X117604761Y-48121485D02*
X117604761Y-48264342D01*
X117604761Y-48264342D02*
X117557142Y-48359580D01*
X117557142Y-48359580D02*
X117509523Y-48407200D01*
X117509523Y-48407200D02*
X117414285Y-48454819D01*
X117414285Y-48454819D02*
X117033333Y-48454819D01*
X117033333Y-48454819D02*
X117033333Y-47454819D01*
X117033333Y-47454819D02*
X117366666Y-47454819D01*
X117366666Y-47454819D02*
X117461904Y-47502438D01*
X117461904Y-47502438D02*
X117509523Y-47550057D01*
X117509523Y-47550057D02*
X117557142Y-47645295D01*
X117557142Y-47645295D02*
X117557142Y-47740533D01*
X117557142Y-47740533D02*
X117509523Y-47835771D01*
X117509523Y-47835771D02*
X117461904Y-47883390D01*
X117461904Y-47883390D02*
X117366666Y-47931009D01*
X117366666Y-47931009D02*
X117033333Y-47931009D01*
X118223809Y-47454819D02*
X118414285Y-47454819D01*
X118414285Y-47454819D02*
X118509523Y-47502438D01*
X118509523Y-47502438D02*
X118604761Y-47597676D01*
X118604761Y-47597676D02*
X118652380Y-47788152D01*
X118652380Y-47788152D02*
X118652380Y-48121485D01*
X118652380Y-48121485D02*
X118604761Y-48311961D01*
X118604761Y-48311961D02*
X118509523Y-48407200D01*
X118509523Y-48407200D02*
X118414285Y-48454819D01*
X118414285Y-48454819D02*
X118223809Y-48454819D01*
X118223809Y-48454819D02*
X118128571Y-48407200D01*
X118128571Y-48407200D02*
X118033333Y-48311961D01*
X118033333Y-48311961D02*
X117985714Y-48121485D01*
X117985714Y-48121485D02*
X117985714Y-47788152D01*
X117985714Y-47788152D02*
X118033333Y-47597676D01*
X118033333Y-47597676D02*
X118128571Y-47502438D01*
X118128571Y-47502438D02*
X118223809Y-47454819D01*
X119271428Y-47454819D02*
X119461904Y-47454819D01*
X119461904Y-47454819D02*
X119557142Y-47502438D01*
X119557142Y-47502438D02*
X119652380Y-47597676D01*
X119652380Y-47597676D02*
X119699999Y-47788152D01*
X119699999Y-47788152D02*
X119699999Y-48121485D01*
X119699999Y-48121485D02*
X119652380Y-48311961D01*
X119652380Y-48311961D02*
X119557142Y-48407200D01*
X119557142Y-48407200D02*
X119461904Y-48454819D01*
X119461904Y-48454819D02*
X119271428Y-48454819D01*
X119271428Y-48454819D02*
X119176190Y-48407200D01*
X119176190Y-48407200D02*
X119080952Y-48311961D01*
X119080952Y-48311961D02*
X119033333Y-48121485D01*
X119033333Y-48121485D02*
X119033333Y-47788152D01*
X119033333Y-47788152D02*
X119080952Y-47597676D01*
X119080952Y-47597676D02*
X119176190Y-47502438D01*
X119176190Y-47502438D02*
X119271428Y-47454819D01*
X119985714Y-47454819D02*
X120557142Y-47454819D01*
X120271428Y-48454819D02*
X120271428Y-47454819D01*
X121414285Y-48454819D02*
X120842857Y-48454819D01*
X121128571Y-48454819D02*
X121128571Y-47454819D01*
X121128571Y-47454819D02*
X121033333Y-47597676D01*
X121033333Y-47597676D02*
X120938095Y-47692914D01*
X120938095Y-47692914D02*
X120842857Y-47740533D01*
D13*
G04 #@! TO.C,TP4*
X86800000Y-90300000D02*
X88200000Y-90300000D01*
X86800000Y-91700000D02*
X86800000Y-90300000D01*
X88200000Y-90300000D02*
X88200000Y-91700000D01*
X88200000Y-91700000D02*
X86800000Y-91700000D01*
G04 #@! TO.C,TP7*
X88200000Y-94200000D02*
X86800000Y-94200000D01*
X88200000Y-92800000D02*
X88200000Y-94200000D01*
X86800000Y-94200000D02*
X86800000Y-92800000D01*
X86800000Y-92800000D02*
X88200000Y-92800000D01*
G04 #@! TO.C,R4*
X77120000Y-63643641D02*
X77120000Y-63336359D01*
X77880000Y-63643641D02*
X77880000Y-63336359D01*
G04 #@! TO.C,L1*
X78117787Y-90390000D02*
X78117787Y-91415000D01*
X78117787Y-90390000D02*
X79142787Y-90390000D01*
X78117787Y-94610000D02*
X78117787Y-93585000D01*
X78117787Y-94610000D02*
X79142787Y-94610000D01*
X82887787Y-90390000D02*
X81862787Y-90390000D01*
X82887787Y-90390000D02*
X82887787Y-91415000D01*
X82887787Y-94610000D02*
X81862787Y-94610000D01*
X82887787Y-94610000D02*
X82887787Y-93585000D01*
G04 #@! TO.C,R10*
X93403101Y-66125236D02*
X93710383Y-66125236D01*
X93403101Y-66885236D02*
X93710383Y-66885236D01*
G04 #@! TO.C,C6*
X84950151Y-89865580D02*
X84950151Y-89584420D01*
X85970151Y-89865580D02*
X85970151Y-89584420D01*
G04 #@! TO.C,TP1*
X86620000Y-84120000D02*
X88000000Y-84120000D01*
X86620000Y-85500000D02*
X86620000Y-84120000D01*
X86620000Y-86770000D02*
X86620000Y-86880000D01*
X86620000Y-86770000D02*
X89380000Y-86770000D01*
X86620000Y-86880000D02*
X89380000Y-86880000D01*
X89380000Y-86770000D02*
X89380000Y-86880000D01*
G04 #@! TO.C,J1*
X79180000Y-60244516D02*
X79180000Y-59384516D01*
X80550000Y-61724516D02*
X85000000Y-61724516D01*
X86400000Y-61724516D02*
X88700000Y-61724516D01*
X90100000Y-61724516D02*
X90820000Y-61724516D01*
X90820000Y-49544516D02*
X81000000Y-49544516D01*
X90820000Y-50774516D02*
X90820000Y-49544516D01*
X90820000Y-56744516D02*
X90820000Y-53074516D01*
X90820000Y-61724516D02*
X90820000Y-59044516D01*
G04 #@! TO.C,R3*
X80120000Y-63336359D02*
X80120000Y-63643641D01*
X80880000Y-63336359D02*
X80880000Y-63643641D01*
G04 #@! TO.C,TP6*
X85300000Y-63300000D02*
X86700000Y-63300000D01*
X85300000Y-64700000D02*
X85300000Y-63300000D01*
X86700000Y-63300000D02*
X86700000Y-64700000D01*
X86700000Y-64700000D02*
X85300000Y-64700000D01*
G04 #@! TO.C,R22*
X85408350Y-67640123D02*
X85715632Y-67640123D01*
X85408350Y-68400123D02*
X85715632Y-68400123D01*
G04 #@! TO.C,R9*
X93395668Y-64846762D02*
X93702950Y-64846762D01*
X93395668Y-65606762D02*
X93702950Y-65606762D01*
G04 #@! TO.C,R12*
X115153641Y-67120000D02*
X114846359Y-67120000D01*
X115153641Y-67880000D02*
X114846359Y-67880000D01*
G04 #@! TO.C,F1*
X99485358Y-83386967D02*
X99485358Y-84591095D01*
X101305358Y-83386967D02*
X101305358Y-84591095D01*
G04 #@! TO.C,C7*
X90644310Y-78030265D02*
X90428638Y-78030265D01*
X90644310Y-78750265D02*
X90428638Y-78750265D01*
G04 #@! TO.C,J5*
X129837032Y-89566530D02*
X131637032Y-89566530D01*
X129837032Y-91016530D02*
X129837032Y-89566530D01*
X131107032Y-93836530D02*
X139537032Y-93836530D01*
X131637032Y-89566530D02*
X131637032Y-88576530D01*
X140807032Y-89566530D02*
X139007032Y-89566530D01*
X140807032Y-91016530D02*
X140807032Y-89566530D01*
G04 #@! TO.C,J2*
X105460000Y-88600000D02*
X128540000Y-88600000D01*
X105460000Y-91250000D02*
X105460000Y-88600000D01*
X105460000Y-93900000D02*
X105460000Y-92520000D01*
X106840000Y-93900000D02*
X105460000Y-93900000D01*
X108110000Y-91250000D02*
X105460000Y-91250000D01*
X108110000Y-93900000D02*
X108110000Y-91250000D01*
X108110000Y-93900000D02*
X128540000Y-93900000D01*
X128540000Y-93900000D02*
X128540000Y-88600000D01*
G04 #@! TO.C,D1*
X141890000Y-52890000D02*
X143000000Y-52890000D01*
X141890000Y-54000000D02*
X141890000Y-52890000D01*
X141890000Y-55000000D02*
X141890000Y-57110000D01*
X141890000Y-55000000D02*
X144110000Y-55000000D01*
X141890000Y-57110000D02*
X144110000Y-57110000D01*
X144110000Y-55000000D02*
X144110000Y-57110000D01*
G04 #@! TO.C,C2*
X76626628Y-49337032D02*
X76410956Y-49337032D01*
X76626628Y-50057032D02*
X76410956Y-50057032D01*
G04 #@! TO.C,J7*
X130540000Y-57620000D02*
X130540000Y-60380000D01*
X138270000Y-57620000D02*
X130540000Y-57620000D01*
X138270000Y-57620000D02*
X138270000Y-60380000D01*
X138270000Y-60380000D02*
X130540000Y-60380000D01*
X139540000Y-57620000D02*
X140920000Y-57620000D01*
X140920000Y-57620000D02*
X140920000Y-59000000D01*
G04 #@! TO.C,R21*
X85406743Y-71390535D02*
X85714025Y-71390535D01*
X85406743Y-72150535D02*
X85714025Y-72150535D01*
G04 #@! TO.C,C9*
X76640000Y-88562524D02*
X76640000Y-88346852D01*
X77360000Y-88562524D02*
X77360000Y-88346852D01*
G04 #@! TO.C,C3*
X93307273Y-49604718D02*
X93307273Y-49820390D01*
X94027273Y-49604718D02*
X94027273Y-49820390D01*
G04 #@! TO.C,C13*
X79765000Y-83838652D02*
X79765000Y-84361156D01*
X81235000Y-83838652D02*
X81235000Y-84361156D01*
G04 #@! TO.C,J4*
X129515000Y-52260000D02*
X129515000Y-53710000D01*
X129515000Y-53710000D02*
X131315000Y-53710000D01*
X138685000Y-53710000D02*
X138685000Y-54700000D01*
X139215000Y-49440000D02*
X130785000Y-49440000D01*
X140485000Y-52260000D02*
X140485000Y-53710000D01*
X140485000Y-53710000D02*
X138685000Y-53710000D01*
G04 #@! TO.C,C5*
X83458460Y-89865530D02*
X83458460Y-89584370D01*
X84478460Y-89865530D02*
X84478460Y-89584370D01*
G04 #@! TO.C,R1*
X115339245Y-49620000D02*
X115031963Y-49620000D01*
X115339245Y-50380000D02*
X115031963Y-50380000D01*
G04 #@! TO.C,USER_INPUT1*
X137750000Y-84900000D02*
X137750000Y-82400000D01*
X138200000Y-81950000D02*
X137750000Y-82400000D01*
X138200000Y-85350000D02*
X137750000Y-84900000D01*
X139500000Y-80900000D02*
X141500000Y-80900000D01*
X139500000Y-86400000D02*
X141500000Y-86400000D01*
X142800000Y-81950000D02*
X143250000Y-82400000D01*
X142800000Y-85350000D02*
X143250000Y-84900000D01*
X143250000Y-84900000D02*
X143250000Y-82400000D01*
G04 #@! TO.C,U1*
X95050000Y-68210000D02*
X95050000Y-67260000D01*
X96450000Y-68210000D02*
X95050000Y-68210000D01*
X112050000Y-68210000D02*
X113450000Y-68210000D01*
X113450000Y-68210000D02*
X113450000Y-67260000D01*
X95050000Y-49260000D02*
X94550000Y-49260000D01*
X95050000Y-48760000D01*
X95050000Y-49260000D01*
G36*
X95050000Y-49260000D02*
G01*
X94550000Y-49260000D01*
X95050000Y-48760000D01*
X95050000Y-49260000D01*
G37*
G04 #@! TO.C,D3*
X83291588Y-77593695D02*
X85576588Y-77593695D01*
X85576588Y-76123695D02*
X83291588Y-76123695D01*
X85576588Y-77593695D02*
X85576588Y-76123695D01*
G04 #@! TO.C,TP9*
X84300000Y-83800000D02*
X85700000Y-83800000D01*
X84300000Y-85200000D02*
X84300000Y-83800000D01*
X85700000Y-83800000D02*
X85700000Y-85200000D01*
X85700000Y-85200000D02*
X84300000Y-85200000D01*
G04 #@! TO.C,R6*
X75120000Y-63643641D02*
X75120000Y-63336359D01*
X75880000Y-63643641D02*
X75880000Y-63336359D01*
G04 #@! TO.C,RESET1*
X126750000Y-53270000D02*
X123250000Y-53270000D01*
X126750000Y-53270000D02*
X126750000Y-53230000D01*
X127550000Y-53230000D02*
X126750000Y-53230000D01*
G04 #@! TO.C,R15*
X85846359Y-73620000D02*
X86153641Y-73620000D01*
X85846359Y-74380000D02*
X86153641Y-74380000D01*
G04 #@! TO.C,D2*
X77533168Y-77606381D02*
X79818168Y-77606381D01*
X79818168Y-76136381D02*
X77533168Y-76136381D01*
X79818168Y-77606381D02*
X79818168Y-76136381D01*
G04 #@! TO.C,R2*
X76120000Y-63643641D02*
X76120000Y-63336359D01*
X76880000Y-63643641D02*
X76880000Y-63336359D01*
G04 #@! TO.C,R24*
X75261338Y-80649759D02*
X75261338Y-80957041D01*
X76021338Y-80649759D02*
X76021338Y-80957041D01*
G04 #@! TO.C,R5*
X79120000Y-63336359D02*
X79120000Y-63643641D01*
X79880000Y-63336359D02*
X79880000Y-63643641D01*
G04 #@! TO.C,J6*
X75100000Y-65300000D02*
X75100000Y-74700000D01*
X77000000Y-65300000D02*
X75100000Y-65300000D01*
X77000000Y-74700000D02*
X75100000Y-74700000D01*
X80900000Y-65300000D02*
X78900000Y-65300000D01*
X80900000Y-74700000D02*
X78900000Y-74700000D01*
G04 #@! TO.C,R7*
X78120000Y-63336359D02*
X78120000Y-63643641D01*
X78880000Y-63336359D02*
X78880000Y-63643641D01*
G04 #@! TO.C,TP3*
X88120000Y-63120000D02*
X89500000Y-63120000D01*
X88120000Y-64500000D02*
X88120000Y-63120000D01*
X88120000Y-65770000D02*
X88120000Y-65880000D01*
X88120000Y-65770000D02*
X90880000Y-65770000D01*
X88120000Y-65880000D02*
X90880000Y-65880000D01*
X90880000Y-65770000D02*
X90880000Y-65880000D01*
G04 #@! TO.C,SW1*
X89966710Y-92078353D02*
X89966710Y-92868353D01*
X90566710Y-93878353D02*
X96266710Y-93878353D01*
X91816710Y-91028353D02*
X93516710Y-91028353D01*
X92016710Y-93878353D02*
X92016710Y-95168353D01*
X92016710Y-95168353D02*
X92216710Y-95378353D01*
X92216710Y-95378353D02*
X93116710Y-95378353D01*
X93316710Y-95168353D02*
X93116710Y-95378353D01*
X93316710Y-95168353D02*
X93316710Y-93878353D01*
X94816710Y-91028353D02*
X95016710Y-91028353D01*
X96866710Y-92868353D02*
X96866710Y-92078353D01*
G04 #@! TO.C,BT1*
X98419071Y-87028608D02*
X98419071Y-94848608D01*
X98419071Y-88628608D02*
X99339071Y-88628608D01*
X98419071Y-94848608D02*
X104539071Y-94848608D01*
X99339071Y-87028608D02*
X98419071Y-87028608D01*
X99339071Y-88628608D02*
X99339071Y-87028608D01*
X99619071Y-88628608D02*
X99339071Y-88628608D01*
X99619071Y-88628608D02*
X99619071Y-87413608D01*
X99679071Y-92588608D02*
X99679071Y-94848608D01*
X100179071Y-92588608D02*
X100179071Y-94848608D01*
X100979071Y-90488608D02*
X101979071Y-90488608D01*
X100979071Y-94848608D02*
X100979071Y-90488608D01*
X101979071Y-90488608D02*
X101979071Y-94848608D01*
X103619071Y-87028608D02*
X103619071Y-88628608D01*
X103619071Y-88628608D02*
X103339071Y-88628608D01*
X104539071Y-87028608D02*
X103619071Y-87028608D01*
X104539071Y-88628608D02*
X103619071Y-88628608D01*
X104539071Y-94848608D02*
X104539071Y-87028608D01*
X99179071Y-90988608D02*
X100179071Y-90988608D01*
X100179071Y-92588608D01*
X99179071Y-92588608D01*
X99179071Y-90988608D01*
X102779071Y-90988608D02*
X103779071Y-90988608D01*
X103779071Y-92588608D01*
X102779071Y-92588608D01*
X102779071Y-90988608D01*
G04 #@! TO.C,C11*
X81765000Y-83838652D02*
X81765000Y-84361156D01*
X83235000Y-83838652D02*
X83235000Y-84361156D01*
G04 #@! TO.C,D5*
X84510000Y-78350000D02*
X79000000Y-78350000D01*
X84510000Y-81650000D02*
X79000000Y-81650000D01*
X84510000Y-81650000D02*
X84510000Y-78350000D01*
G04 #@! TO.C,R23*
X99357925Y-69846359D02*
X99357925Y-70153641D01*
X100117925Y-69846359D02*
X100117925Y-70153641D01*
G04 #@! TO.C,TP2*
X94620000Y-84120000D02*
X96000000Y-84120000D01*
X94620000Y-85500000D02*
X94620000Y-84120000D01*
X94620000Y-86770000D02*
X94620000Y-86880000D01*
X94620000Y-86770000D02*
X97380000Y-86770000D01*
X94620000Y-86880000D02*
X97380000Y-86880000D01*
X97380000Y-86770000D02*
X97380000Y-86880000D01*
G04 #@! TO.C,U3*
X90440000Y-72440000D02*
X94560000Y-72440000D01*
X90440000Y-72535000D02*
X90440000Y-72440000D01*
X90440000Y-77560000D02*
X90440000Y-77465000D01*
X94560000Y-72440000D02*
X94560000Y-72535000D01*
X94560000Y-77465000D02*
X94560000Y-77560000D01*
X94560000Y-77560000D02*
X90440000Y-77560000D01*
X89900000Y-72530000D02*
X89660000Y-72200000D01*
X90140000Y-72200000D01*
X89900000Y-72530000D01*
G36*
X89900000Y-72530000D02*
G01*
X89660000Y-72200000D01*
X90140000Y-72200000D01*
X89900000Y-72530000D01*
G37*
G04 #@! TO.C,C12*
X77765000Y-83838652D02*
X77765000Y-84361156D01*
X79235000Y-83838652D02*
X79235000Y-84361156D01*
G04 #@! TO.C,U2*
X78875000Y-86467968D02*
X78875000Y-86217968D01*
X78875000Y-89267968D02*
X78875000Y-89517968D01*
X79540000Y-86217968D02*
X78875000Y-86217968D01*
X79540000Y-89517968D02*
X78875000Y-89517968D01*
X81825000Y-89517968D02*
X81510000Y-89517968D01*
X82175000Y-86217968D02*
X81510000Y-86217968D01*
X82175000Y-86217968D02*
X82175000Y-86467968D01*
X82575000Y-89617968D02*
X82095000Y-89617968D01*
X82335000Y-89287968D01*
X82575000Y-89617968D01*
G36*
X82575000Y-89617968D02*
G01*
X82095000Y-89617968D01*
X82335000Y-89287968D01*
X82575000Y-89617968D01*
G37*
G04 #@! TO.C,C8*
X76635044Y-86389723D02*
X76635044Y-86605395D01*
X77355044Y-86389723D02*
X77355044Y-86605395D01*
G04 #@! TO.C,TP5*
X94300000Y-79800000D02*
X95700000Y-79800000D01*
X94300000Y-81200000D02*
X94300000Y-79800000D01*
X95700000Y-79800000D02*
X95700000Y-81200000D01*
X95700000Y-81200000D02*
X94300000Y-81200000D01*
G04 #@! TO.C,J3*
X136314120Y-64095769D02*
X136314120Y-65895769D01*
X136314120Y-77015769D02*
X135324120Y-77015769D01*
X136314120Y-78815769D02*
X136314120Y-77015769D01*
X137764120Y-64095769D02*
X136314120Y-64095769D01*
X137764120Y-78815769D02*
X136314120Y-78815769D01*
X140584120Y-77545769D02*
X140584120Y-65365769D01*
G04 #@! TO.C,R19*
X84165789Y-86470000D02*
X84473071Y-86470000D01*
X84165789Y-87230000D02*
X84473071Y-87230000D01*
G04 #@! TO.C,R18*
X75594247Y-86324496D02*
X75594247Y-86631778D01*
X76354247Y-86324496D02*
X76354247Y-86631778D01*
G04 #@! TO.C,R13*
X76049542Y-76494396D02*
X75742260Y-76494396D01*
X76049542Y-77254396D02*
X75742260Y-77254396D01*
G04 #@! TO.C,R16*
X75599202Y-88315740D02*
X75599202Y-88623022D01*
X76359202Y-88315740D02*
X76359202Y-88623022D01*
G04 #@! TO.C,C4*
X91889168Y-50399584D02*
X91889168Y-50118424D01*
X92909168Y-50399584D02*
X92909168Y-50118424D01*
G04 #@! TO.C,R8*
X98203935Y-69843611D02*
X98203935Y-70150893D01*
X98963935Y-69843611D02*
X98963935Y-70150893D01*
G04 #@! TO.C,R17*
X87801283Y-74663641D02*
X87801283Y-74356359D01*
X88561283Y-74663641D02*
X88561283Y-74356359D01*
G04 #@! TO.C,R14*
X81803793Y-76486545D02*
X81496511Y-76486545D01*
X81803793Y-77246545D02*
X81496511Y-77246545D01*
G04 #@! TO.C,C1*
X76627836Y-48378516D02*
X76412164Y-48378516D01*
X76627836Y-49098516D02*
X76412164Y-49098516D01*
G04 #@! TO.C,R11*
X139856359Y-54548437D02*
X140163641Y-54548437D01*
X139856359Y-55308437D02*
X140163641Y-55308437D01*
G04 #@! TO.C,BOOT1*
X120950000Y-53270000D02*
X117450000Y-53270000D01*
X120950000Y-53270000D02*
X120950000Y-53230000D01*
X121750000Y-53230000D02*
X120950000Y-53230000D01*
G04 #@! TO.C,C10*
X96519082Y-77594959D02*
X96519082Y-77379287D01*
X97239082Y-77594959D02*
X97239082Y-77379287D01*
G04 #@! TO.C,Q1*
X90302500Y-80440000D02*
X91822500Y-80440000D01*
X90302500Y-80490000D02*
X90302500Y-80440000D01*
X90302500Y-82390000D02*
X90302500Y-81610000D01*
X90302500Y-83560000D02*
X90302500Y-83510000D01*
X91822500Y-80440000D02*
X91822500Y-81440000D01*
X91822500Y-82560000D02*
X91822500Y-83560000D01*
X91822500Y-83560000D02*
X90302500Y-83560000D01*
X90002500Y-81950000D02*
X89522500Y-81950000D01*
X89762500Y-81620000D01*
X90002500Y-81950000D01*
G36*
X90002500Y-81950000D02*
G01*
X89522500Y-81950000D01*
X89762500Y-81620000D01*
X90002500Y-81950000D01*
G37*
G04 #@! TD*
%LPC*%
D14*
G04 #@! TO.C,TP4*
X87500000Y-91000000D03*
G04 #@! TD*
G04 #@! TO.C,TP7*
X87500000Y-93500000D03*
G04 #@! TD*
D15*
G04 #@! TO.C,R4*
X77500000Y-64000000D03*
X77500000Y-62980000D03*
G04 #@! TD*
D16*
G04 #@! TO.C,L1*
X78977787Y-92500000D03*
X82027787Y-92500000D03*
G04 #@! TD*
D17*
G04 #@! TO.C,R10*
X93046742Y-66505236D03*
X94066742Y-66505236D03*
G04 #@! TD*
D18*
G04 #@! TO.C,C6*
X85460151Y-90500000D03*
X85460151Y-88950000D03*
G04 #@! TD*
D19*
G04 #@! TO.C,TP1*
X88000000Y-85500000D03*
G04 #@! TD*
D20*
G04 #@! TO.C,J1*
X79550000Y-58759516D03*
X79550000Y-57659516D03*
X79550000Y-56559516D03*
X79550000Y-55459516D03*
X79550000Y-54359516D03*
X79550000Y-53259516D03*
X79550000Y-52159516D03*
D21*
X79550000Y-51109516D03*
D22*
X85700000Y-61394516D03*
X89400000Y-61394516D03*
D23*
X79675000Y-61219516D03*
D24*
X90375000Y-57894516D03*
X90375000Y-51924516D03*
D25*
X79900000Y-49899516D03*
G04 #@! TD*
D26*
G04 #@! TO.C,R3*
X80500000Y-62980000D03*
X80500000Y-64000000D03*
G04 #@! TD*
D14*
G04 #@! TO.C,TP6*
X86000000Y-64000000D03*
G04 #@! TD*
D17*
G04 #@! TO.C,R22*
X85051991Y-68020123D03*
X86071991Y-68020123D03*
G04 #@! TD*
G04 #@! TO.C,R9*
X93039309Y-65226762D03*
X94059309Y-65226762D03*
G04 #@! TD*
D27*
G04 #@! TO.C,R12*
X115510000Y-67500000D03*
X114490000Y-67500000D03*
G04 #@! TD*
D28*
G04 #@! TO.C,F1*
X100395358Y-82589031D03*
X100395358Y-85389031D03*
G04 #@! TD*
D29*
G04 #@! TO.C,C7*
X91016474Y-78390265D03*
X90056474Y-78390265D03*
G04 #@! TD*
D30*
G04 #@! TO.C,J5*
X132197032Y-89426530D03*
X133447032Y-89426530D03*
X134697032Y-89426530D03*
X135947032Y-89426530D03*
X137197032Y-89426530D03*
X138447032Y-89426530D03*
D31*
X130347032Y-92626530D03*
X140297032Y-92626530D03*
G04 #@! TD*
D19*
G04 #@! TO.C,J2*
X106840000Y-92520000D03*
D32*
X106840000Y-89980000D03*
X109380000Y-92520000D03*
X109380000Y-89980000D03*
X111920000Y-92520000D03*
X111920000Y-89980000D03*
X114460000Y-92520000D03*
X114460000Y-89980000D03*
X117000000Y-92520000D03*
X117000000Y-89980000D03*
X119540000Y-92520000D03*
X119540000Y-89980000D03*
X122080000Y-92520000D03*
X122080000Y-89980000D03*
X124620000Y-92520000D03*
X124620000Y-89980000D03*
X127160000Y-92520000D03*
X127160000Y-89980000D03*
G04 #@! TD*
D33*
G04 #@! TO.C,D1*
X143000000Y-54000000D03*
D34*
X143000000Y-56000000D03*
G04 #@! TD*
D29*
G04 #@! TO.C,C2*
X76998792Y-49697032D03*
X76038792Y-49697032D03*
G04 #@! TD*
D19*
G04 #@! TO.C,J7*
X139540000Y-59000000D03*
D32*
X137000000Y-59000000D03*
X134460000Y-59000000D03*
X131920000Y-59000000D03*
G04 #@! TD*
D17*
G04 #@! TO.C,R21*
X85050384Y-71770535D03*
X86070384Y-71770535D03*
G04 #@! TD*
D35*
G04 #@! TO.C,C9*
X77000000Y-88934688D03*
X77000000Y-87974688D03*
G04 #@! TD*
D36*
G04 #@! TO.C,C3*
X93667273Y-49232554D03*
X93667273Y-50192554D03*
G04 #@! TD*
D37*
G04 #@! TO.C,C13*
X80500000Y-83149904D03*
X80500000Y-85049904D03*
G04 #@! TD*
D38*
G04 #@! TO.C,J4*
X138125000Y-53850000D03*
X136875000Y-53850000D03*
X135625000Y-53850000D03*
X134375000Y-53850000D03*
X133125000Y-53850000D03*
X131875000Y-53850000D03*
D39*
X139975000Y-50650000D03*
X130025000Y-50650000D03*
G04 #@! TD*
D40*
G04 #@! TO.C,H1*
X76500000Y-97000000D03*
G04 #@! TD*
D18*
G04 #@! TO.C,C5*
X83968460Y-90499950D03*
X83968460Y-88949950D03*
G04 #@! TD*
D27*
G04 #@! TO.C,R1*
X115695604Y-50000000D03*
X114675604Y-50000000D03*
G04 #@! TD*
D41*
G04 #@! TO.C,USER_INPUT1*
X138600000Y-86800000D03*
X138600000Y-80500000D03*
X142400000Y-86800000D03*
X142400000Y-80500000D03*
G04 #@! TD*
D42*
G04 #@! TO.C,U1*
X95500000Y-50000000D03*
X95500000Y-51270000D03*
X95500000Y-52540000D03*
X95500000Y-53810000D03*
X95500000Y-55080000D03*
X95500000Y-56350000D03*
X95500000Y-57620000D03*
X95500000Y-58890000D03*
X95500000Y-60160000D03*
X95500000Y-61430000D03*
X95500000Y-62700000D03*
X95500000Y-63970000D03*
X95500000Y-65240000D03*
X95500000Y-66510000D03*
D43*
X97265000Y-67760000D03*
X98535000Y-67760000D03*
X99805000Y-67760000D03*
X101075000Y-67760000D03*
X102345000Y-67760000D03*
X103615000Y-67760000D03*
X104885000Y-67760000D03*
X106155000Y-67760000D03*
X107425000Y-67760000D03*
X108695000Y-67760000D03*
X109965000Y-67760000D03*
X111235000Y-67760000D03*
D42*
X113000000Y-66510000D03*
X113000000Y-65240000D03*
X113000000Y-63970000D03*
X113000000Y-62700000D03*
X113000000Y-61430000D03*
X113000000Y-60160000D03*
X113000000Y-58890000D03*
X113000000Y-57620000D03*
X113000000Y-56350000D03*
X113000000Y-55080000D03*
X113000000Y-53810000D03*
X113000000Y-52540000D03*
X113000000Y-51270000D03*
X113000000Y-50000000D03*
D14*
X101390000Y-53850000D03*
D44*
X101390000Y-54600000D03*
D14*
X101390000Y-55350000D03*
D44*
X101390000Y-56100000D03*
D14*
X101390000Y-56850000D03*
D44*
X102140000Y-53850000D03*
X102140000Y-55350000D03*
X102140000Y-56850000D03*
D14*
X102890000Y-53850000D03*
D44*
X102890000Y-54600000D03*
D14*
X102890000Y-55350000D03*
D44*
X102890000Y-56100000D03*
D14*
X102890000Y-56850000D03*
D44*
X103640000Y-53850000D03*
X103640000Y-55350000D03*
X103640000Y-56850000D03*
D14*
X104390000Y-53850000D03*
D44*
X104390000Y-54600000D03*
D14*
X104390000Y-55350000D03*
D44*
X104390000Y-56100000D03*
D14*
X104390000Y-56850000D03*
G04 #@! TD*
D40*
G04 #@! TO.C,H4*
X141500000Y-45500000D03*
G04 #@! TD*
D45*
G04 #@! TO.C,D3*
X84879088Y-76858695D03*
X83304088Y-76858695D03*
G04 #@! TD*
D14*
G04 #@! TO.C,TP9*
X85000000Y-84500000D03*
G04 #@! TD*
D15*
G04 #@! TO.C,R6*
X75500000Y-64000000D03*
X75500000Y-62980000D03*
G04 #@! TD*
D46*
G04 #@! TO.C,RESET1*
X126800000Y-52440000D03*
X123200000Y-52440000D03*
X126800000Y-51000000D03*
X123200000Y-51000000D03*
G04 #@! TD*
D17*
G04 #@! TO.C,R15*
X85490000Y-74000000D03*
X86510000Y-74000000D03*
G04 #@! TD*
D45*
G04 #@! TO.C,D2*
X79120668Y-76871381D03*
X77545668Y-76871381D03*
G04 #@! TD*
D15*
G04 #@! TO.C,R2*
X76500000Y-64000000D03*
X76500000Y-62980000D03*
G04 #@! TD*
D26*
G04 #@! TO.C,R24*
X75641338Y-80293400D03*
X75641338Y-81313400D03*
G04 #@! TD*
G04 #@! TO.C,R5*
X79500000Y-62980000D03*
X79500000Y-64000000D03*
G04 #@! TD*
D40*
G04 #@! TO.C,H3*
X76500000Y-45500000D03*
G04 #@! TD*
D47*
G04 #@! TO.C,J6*
X81600000Y-67110000D03*
X81600000Y-72890000D03*
D48*
X83045000Y-66750000D03*
X83045000Y-67550000D03*
D49*
X83045000Y-68750000D03*
X83045000Y-69750000D03*
X83045000Y-70250000D03*
X83045000Y-71250000D03*
D48*
X83045000Y-72450000D03*
X83045000Y-73250000D03*
X83045000Y-73250000D03*
X83045000Y-72450000D03*
D49*
X83045000Y-71750000D03*
X83045000Y-70750000D03*
X83045000Y-69250000D03*
X83045000Y-68250000D03*
D48*
X83045000Y-67550000D03*
X83045000Y-66750000D03*
D50*
X82130000Y-65680000D03*
D51*
X77950000Y-65680000D03*
D50*
X82130000Y-74320000D03*
D51*
X77950000Y-74320000D03*
G04 #@! TD*
D26*
G04 #@! TO.C,R7*
X78500000Y-62980000D03*
X78500000Y-64000000D03*
G04 #@! TD*
D19*
G04 #@! TO.C,TP3*
X89500000Y-64500000D03*
G04 #@! TD*
D52*
G04 #@! TO.C,SW1*
X89766710Y-91368353D03*
X89766710Y-93578353D03*
D53*
X91916710Y-92478353D03*
X94916710Y-92478353D03*
D52*
X97066710Y-91368353D03*
X97066710Y-93578353D03*
D54*
X91166710Y-90718353D03*
X94166710Y-90718353D03*
X95666710Y-90718353D03*
G04 #@! TD*
D55*
G04 #@! TO.C,BT1*
X100479071Y-88488608D03*
D56*
X102479071Y-88488608D03*
G04 #@! TD*
D37*
G04 #@! TO.C,C11*
X82500000Y-83149904D03*
X82500000Y-85049904D03*
G04 #@! TD*
D57*
G04 #@! TO.C,D5*
X83000000Y-80000000D03*
X79000000Y-80000000D03*
G04 #@! TD*
D26*
G04 #@! TO.C,R23*
X99737925Y-69490000D03*
X99737925Y-70510000D03*
G04 #@! TD*
D19*
G04 #@! TO.C,TP2*
X96000000Y-85500000D03*
G04 #@! TD*
D58*
G04 #@! TO.C,U3*
X90025000Y-73095000D03*
X90025000Y-74365000D03*
X90025000Y-75635000D03*
X90025000Y-76905000D03*
X94975000Y-76905000D03*
X94975000Y-75635000D03*
X94975000Y-74365000D03*
X94975000Y-73095000D03*
D59*
X92500000Y-75000000D03*
G04 #@! TD*
D37*
G04 #@! TO.C,C12*
X78500000Y-83149904D03*
X78500000Y-85049904D03*
G04 #@! TD*
D60*
G04 #@! TO.C,U2*
X82285000Y-88867968D03*
D61*
X82000000Y-88867968D03*
D60*
X82285000Y-88367968D03*
D61*
X82000000Y-88367968D03*
D60*
X82285000Y-87867968D03*
D61*
X82000000Y-87867968D03*
D60*
X82285000Y-87367968D03*
D61*
X82000000Y-87367968D03*
D60*
X82285000Y-86867968D03*
D61*
X82000000Y-86867968D03*
X79050000Y-86867968D03*
D60*
X78765000Y-86867968D03*
D61*
X79050000Y-87367968D03*
D60*
X78765000Y-87367968D03*
D61*
X79050000Y-87867968D03*
D60*
X78765000Y-87867968D03*
D61*
X79050000Y-88367968D03*
D60*
X78765000Y-88367968D03*
D61*
X79050000Y-88867968D03*
D60*
X78765000Y-88867968D03*
D62*
X81125000Y-89292968D03*
D63*
X81125000Y-89292968D03*
D62*
X81125000Y-86442968D03*
D63*
X81125000Y-86442968D03*
D44*
X81025000Y-88367968D03*
X81025000Y-87367968D03*
D64*
X80960000Y-88427968D03*
X80960000Y-87307968D03*
D62*
X80725000Y-89292968D03*
D63*
X80725000Y-89292968D03*
D62*
X80725000Y-86442968D03*
D63*
X80725000Y-86442968D03*
D44*
X80525000Y-87867968D03*
D65*
X80525000Y-87867968D03*
D62*
X80325000Y-89292968D03*
D63*
X80325000Y-89292968D03*
D62*
X80325000Y-86442968D03*
D63*
X80325000Y-86442968D03*
D64*
X80090000Y-88427968D03*
X80090000Y-87307968D03*
D44*
X80025000Y-88367968D03*
X80025000Y-87367968D03*
D62*
X79925000Y-89292968D03*
D63*
X79925000Y-89292968D03*
D62*
X79925000Y-86442968D03*
D63*
X79925000Y-86442968D03*
G04 #@! TD*
D36*
G04 #@! TO.C,C8*
X76995044Y-86017559D03*
X76995044Y-86977559D03*
G04 #@! TD*
D14*
G04 #@! TO.C,TP5*
X95000000Y-80500000D03*
G04 #@! TD*
D66*
G04 #@! TO.C,J3*
X136174120Y-76455769D03*
X136174120Y-75205769D03*
X136174120Y-73955769D03*
X136174120Y-72705769D03*
X136174120Y-71455769D03*
X136174120Y-70205769D03*
X136174120Y-68955769D03*
X136174120Y-67705769D03*
X136174120Y-66455769D03*
D67*
X139374120Y-78305769D03*
X139374120Y-64605769D03*
G04 #@! TD*
D17*
G04 #@! TO.C,R19*
X83809430Y-86850000D03*
X84829430Y-86850000D03*
G04 #@! TD*
D26*
G04 #@! TO.C,R18*
X75974247Y-85968137D03*
X75974247Y-86988137D03*
G04 #@! TD*
D27*
G04 #@! TO.C,R13*
X76405901Y-76874396D03*
X75385901Y-76874396D03*
G04 #@! TD*
D26*
G04 #@! TO.C,R16*
X75979202Y-87959381D03*
X75979202Y-88979381D03*
G04 #@! TD*
D18*
G04 #@! TO.C,C4*
X92399168Y-51034004D03*
X92399168Y-49484004D03*
G04 #@! TD*
D26*
G04 #@! TO.C,R8*
X98583935Y-69487252D03*
X98583935Y-70507252D03*
G04 #@! TD*
D15*
G04 #@! TO.C,R17*
X88181283Y-75020000D03*
X88181283Y-74000000D03*
G04 #@! TD*
D40*
G04 #@! TO.C,H2*
X141500000Y-97000000D03*
G04 #@! TD*
D27*
G04 #@! TO.C,R14*
X82160152Y-76866545D03*
X81140152Y-76866545D03*
G04 #@! TD*
D29*
G04 #@! TO.C,C1*
X77000000Y-48738516D03*
X76040000Y-48738516D03*
G04 #@! TD*
D17*
G04 #@! TO.C,R11*
X139500000Y-54928437D03*
X140520000Y-54928437D03*
G04 #@! TD*
D46*
G04 #@! TO.C,BOOT1*
X121000000Y-52440000D03*
X117400000Y-52440000D03*
X121000000Y-51000000D03*
X117400000Y-51000000D03*
G04 #@! TD*
D35*
G04 #@! TO.C,C10*
X96879082Y-77967123D03*
X96879082Y-77007123D03*
G04 #@! TD*
D68*
G04 #@! TO.C,Q1*
X90125000Y-81050000D03*
X90125000Y-82950000D03*
X92000000Y-82000000D03*
G04 #@! TD*
%LPD*%
M02*
