M48
; DRILL file {KiCad 9.0.7} date 2026-03-10T23:21:33-0700
; FORMAT={-:-/ absolute / metric / decimal}
; #@! TF.CreationDate,2026-03-10T23:21:33-07:00
; #@! TF.GenerationSoftware,Kicad,Pcbnew,9.0.7
; #@! TF.FileFunction,Plated,1,4,PTH
FMAT,2
METRIC
; #@! TA.AperFunction,Plated,PTH,ComponentDrill
T1C0.200
; #@! TA.AperFunction,Plated,PTH,ViaDrill
T2C0.300
; #@! TA.AperFunction,Plated,PTH,ComponentDrill
T3C0.300
; #@! TA.AperFunction,Plated,PTH,ComponentDrill
T4C0.600
; #@! TA.AperFunction,Plated,PTH,ComponentDrill
T5C0.750
; #@! TA.AperFunction,Plated,PTH,ComponentDrill
T6C0.800
; #@! TA.AperFunction,Plated,PTH,ComponentDrill
T7C1.000
%
G90
G05
T1
X91.8Y-73.8
X91.8Y-75.0
X91.8Y-76.2
X93.2Y-73.8
X93.2Y-75.0
X93.2Y-76.2
X101.39Y-54.6
X101.39Y-56.1
X102.14Y-53.85
X102.14Y-55.35
X102.14Y-56.85
X102.89Y-54.6
X102.89Y-56.1
X103.64Y-53.85
X103.64Y-55.35
X103.64Y-56.85
X104.39Y-54.6
X104.39Y-56.1
T2
X75.0Y-85.968
X75.341Y-48.744
X75.341Y-49.699
X75.979Y-89.608
X76.0Y-82.0
X77.0Y-89.563
X78.0Y-86.0
X78.0Y-88.689
X78.0Y-89.5
X78.007Y-48.755
X78.009Y-49.697
X79.48Y-82.4
X79.552Y-85.948
X80.0Y-90.0
X80.5Y-53.5
X80.5Y-55.5
X81.0Y-90.0
X81.48Y-82.4
X81.5Y-64.0
X81.5Y-86.0
X83.0Y-86.0
X83.967Y-92.128
X84.0Y-59.0
X85.467Y-92.053
X85.5Y-86.0
X87.0Y-53.0
X87.0Y-68.0
X87.0Y-71.771
X87.0Y-77.0
X87.0Y-78.0
X87.02Y-87.831
X88.0Y-58.0
X88.5Y-61.5
X91.0Y-89.0
X91.018Y-78.909
X91.5Y-49.484
X92.399Y-51.899
X93.4Y-51.034
X94.0Y-62.0
X94.0Y-63.0
X94.0Y-64.0
X94.25Y-52.25
X94.5Y-49.233
X96.5Y-74.5
X96.5Y-95.5
X96.6Y-76.0
X96.876Y-78.768
X102.479Y-86.5
X102.5Y-77.0
X103.0Y-85.5
X104.5Y-82.0
X106.0Y-77.5
X106.5Y-95.0
X109.933Y-74.567
X111.5Y-81.0
X113.0Y-69.0
X113.0Y-75.5
X114.0Y-49.0
X114.49Y-66.51
X115.5Y-68.5
X116.0Y-49.0
X116.0Y-54.0
X116.082Y-51.234
X117.0Y-60.97
X117.0Y-64.0
X117.0Y-67.0
X118.0Y-85.0
X118.5Y-53.601
X118.5Y-76.5
X119.44Y-51.75
X119.5Y-79.5
X122.0Y-77.5
X124.0Y-55.142
X124.0Y-73.5
X124.44Y-51.75
X126.0Y-56.0
X127.5Y-65.0
X127.5Y-68.0
X127.5Y-74.0
X128.0Y-51.0
X128.0Y-57.0
X130.5Y-65.0
X130.5Y-74.0
X132.21Y-87.5
X133.46Y-87.46
X135.359Y-65.641
X135.5Y-94.5
X136.415Y-54.915
X137.451Y-73.5
X137.5Y-76.5
X137.5Y-80.5
X138.0Y-56.0
X139.5Y-89.5
X142.5Y-50.0
X142.5Y-79.0
T3
X80.025Y-87.368
X80.025Y-88.368
X80.525Y-87.868
X81.025Y-87.368
X81.025Y-88.368
T5
X100.479Y-88.489
X102.479Y-88.489
T6
X143.0Y-54.0
X143.0Y-56.0
T7
X88.0Y-85.5
X89.5Y-64.5
X96.0Y-85.5
X106.84Y-89.98
X106.84Y-92.52
X109.38Y-89.98
X109.38Y-92.52
X111.92Y-89.98
X111.92Y-92.52
X114.46Y-89.98
X114.46Y-92.52
X117.0Y-89.98
X117.0Y-92.52
X119.54Y-89.98
X119.54Y-92.52
X122.08Y-89.98
X122.08Y-92.52
X124.62Y-89.98
X124.62Y-92.52
X127.16Y-89.98
X127.16Y-92.52
X131.92Y-59.0
X134.46Y-59.0
X137.0Y-59.0
X139.54Y-59.0
T4
G00X78.25Y-65.68
M15
G01X77.65Y-65.68
M16
G05
G00X78.25Y-74.32
M15
G01X77.65Y-74.32
M16
G05
G00X82.68Y-65.68
M15
G01X81.58Y-65.68
M16
G05
G00X82.68Y-74.32
M15
G01X81.58Y-74.32
M16
G05
M30
