G04 #@! TF.GenerationSoftware,KiCad,Pcbnew,9.0.7*
G04 #@! TF.CreationDate,2026-03-10T23:21:33-07:00*
G04 #@! TF.ProjectId,Main Board,4d61696e-2042-46f6-9172-642e6b696361,rev?*
G04 #@! TF.SameCoordinates,Original*
G04 #@! TF.FileFunction,Soldermask,Bot*
G04 #@! TF.FilePolarity,Negative*
%FSLAX46Y46*%
G04 Gerber Fmt 4.6, Leading zero omitted, Abs format (unit mm)*
G04 Created by KiCad (PCBNEW 9.0.7) date 2026-03-10 23:21:33*
%MOMM*%
%LPD*%
G01*
G04 APERTURE LIST*
G04 Aperture macros list*
%AMRoundRect*
0 Rectangle with rounded corners*
0 $1 Rounding radius*
0 $2 $3 $4 $5 $6 $7 $8 $9 X,Y pos of 4 corners*
0 Add a 4 corners polygon primitive as box body*
4,1,4,$2,$3,$4,$5,$6,$7,$8,$9,$2,$3,0*
0 Add four circle primitives for the rounded corners*
1,1,$1+$1,$2,$3*
1,1,$1+$1,$4,$5*
1,1,$1+$1,$6,$7*
1,1,$1+$1,$8,$9*
0 Add four rect primitives between the rounded corners*
20,1,$1+$1,$2,$3,$4,$5,0*
20,1,$1+$1,$4,$5,$6,$7,0*
20,1,$1+$1,$6,$7,$8,$9,0*
20,1,$1+$1,$8,$9,$2,$3,0*%
G04 Aperture macros list end*
%ADD10R,1.700000X1.700000*%
%ADD11C,1.700000*%
%ADD12R,1.350000X1.350000*%
%ADD13C,1.350000*%
%ADD14C,2.100000*%
%ADD15C,0.600000*%
%ADD16C,0.650000*%
%ADD17O,2.100000X1.000000*%
%ADD18O,1.600000X1.000000*%
%ADD19C,0.900000*%
%ADD20RoundRect,0.250000X-0.350000X-0.625000X0.350000X-0.625000X0.350000X0.625000X-0.350000X0.625000X0*%
%ADD21O,1.200000X1.750000*%
G04 APERTURE END LIST*
D10*
G04 #@! TO.C,TP1*
X88000000Y-85500000D03*
G04 #@! TD*
G04 #@! TO.C,J2*
X106840000Y-92520000D03*
D11*
X106840000Y-89980000D03*
X109380000Y-92520000D03*
X109380000Y-89980000D03*
X111920000Y-92520000D03*
X111920000Y-89980000D03*
X114460000Y-92520000D03*
X114460000Y-89980000D03*
X117000000Y-92520000D03*
X117000000Y-89980000D03*
X119540000Y-92520000D03*
X119540000Y-89980000D03*
X122080000Y-92520000D03*
X122080000Y-89980000D03*
X124620000Y-92520000D03*
X124620000Y-89980000D03*
X127160000Y-92520000D03*
X127160000Y-89980000D03*
G04 #@! TD*
D12*
G04 #@! TO.C,D1*
X143000000Y-54000000D03*
D13*
X143000000Y-56000000D03*
G04 #@! TD*
D10*
G04 #@! TO.C,J7*
X139540000Y-59000000D03*
D11*
X137000000Y-59000000D03*
X134460000Y-59000000D03*
X131920000Y-59000000D03*
G04 #@! TD*
D14*
G04 #@! TO.C,H1*
X76500000Y-97000000D03*
G04 #@! TD*
D15*
G04 #@! TO.C,U1*
X101390000Y-54600000D03*
X101390000Y-56100000D03*
X102140000Y-53850000D03*
X102140000Y-55350000D03*
X102140000Y-56850000D03*
X102890000Y-54600000D03*
X102890000Y-56100000D03*
X103640000Y-53850000D03*
X103640000Y-55350000D03*
X103640000Y-56850000D03*
X104390000Y-54600000D03*
X104390000Y-56100000D03*
G04 #@! TD*
D14*
G04 #@! TO.C,H4*
X141500000Y-45500000D03*
G04 #@! TD*
G04 #@! TO.C,H3*
X76500000Y-45500000D03*
G04 #@! TD*
D16*
G04 #@! TO.C,J6*
X81600000Y-67110000D03*
X81600000Y-72890000D03*
D17*
X82130000Y-65680000D03*
D18*
X77950000Y-65680000D03*
D17*
X82130000Y-74320000D03*
D18*
X77950000Y-74320000D03*
G04 #@! TD*
D10*
G04 #@! TO.C,TP3*
X89500000Y-64500000D03*
G04 #@! TD*
D19*
G04 #@! TO.C,SW1*
X91916710Y-92478353D03*
X94916710Y-92478353D03*
G04 #@! TD*
D20*
G04 #@! TO.C,BT1*
X100479071Y-88488608D03*
D21*
X102479071Y-88488608D03*
G04 #@! TD*
D10*
G04 #@! TO.C,TP2*
X96000000Y-85500000D03*
G04 #@! TD*
D15*
G04 #@! TO.C,U2*
X81025000Y-88367968D03*
X81025000Y-87367968D03*
X80525000Y-87867968D03*
X80025000Y-88367968D03*
X80025000Y-87367968D03*
G04 #@! TD*
D14*
G04 #@! TO.C,H2*
X141500000Y-97000000D03*
G04 #@! TD*
M02*
