G04 #@! TF.GenerationSoftware,KiCad,Pcbnew,9.0.7*
G04 #@! TF.CreationDate,2026-03-10T23:21:33-07:00*
G04 #@! TF.ProjectId,Main Board,4d61696e-2042-46f6-9172-642e6b696361,rev?*
G04 #@! TF.SameCoordinates,Original*
G04 #@! TF.FileFunction,Soldermask,Top*
G04 #@! TF.FilePolarity,Negative*
%FSLAX46Y46*%
G04 Gerber Fmt 4.6, Leading zero omitted, Abs format (unit mm)*
G04 Created by KiCad (PCBNEW 9.0.7) date 2026-03-10 23:21:33*
%MOMM*%
%LPD*%
G01*
G04 APERTURE LIST*
G04 Aperture macros list*
%AMRoundRect*
0 Rectangle with rounded corners*
0 $1 Rounding radius*
0 $2 $3 $4 $5 $6 $7 $8 $9 X,Y pos of 4 corners*
0 Add a 4 corners polygon primitive as box body*
4,1,4,$2,$3,$4,$5,$6,$7,$8,$9,$2,$3,0*
0 Add four circle primitives for the rounded corners*
1,1,$1+$1,$2,$3*
1,1,$1+$1,$4,$5*
1,1,$1+$1,$6,$7*
1,1,$1+$1,$8,$9*
0 Add four rect primitives between the rounded corners*
20,1,$1+$1,$2,$3,$4,$5,0*
20,1,$1+$1,$4,$5,$6,$7,0*
20,1,$1+$1,$6,$7,$8,$9,0*
20,1,$1+$1,$8,$9,$2,$3,0*%
G04 Aperture macros list end*
%ADD10R,1.000000X1.000000*%
%ADD11RoundRect,0.135000X0.185000X-0.135000X0.185000X0.135000X-0.185000X0.135000X-0.185000X-0.135000X0*%
%ADD12R,1.500000X3.600000*%
%ADD13RoundRect,0.135000X-0.135000X-0.185000X0.135000X-0.185000X0.135000X0.185000X-0.135000X0.185000X0*%
%ADD14RoundRect,0.225000X0.250000X-0.225000X0.250000X0.225000X-0.250000X0.225000X-0.250000X-0.225000X0*%
%ADD15R,1.700000X1.700000*%
%ADD16R,1.100000X0.850000*%
%ADD17R,1.100000X0.750000*%
%ADD18R,1.000000X1.200000*%
%ADD19R,1.350000X1.550000*%
%ADD20R,1.350000X1.900000*%
%ADD21R,1.800000X1.170000*%
%ADD22RoundRect,0.135000X-0.185000X0.135000X-0.185000X-0.135000X0.185000X-0.135000X0.185000X0.135000X0*%
%ADD23RoundRect,0.135000X0.135000X0.185000X-0.135000X0.185000X-0.135000X-0.185000X0.135000X-0.185000X0*%
%ADD24RoundRect,0.250000X-0.625000X0.375000X-0.625000X-0.375000X0.625000X-0.375000X0.625000X0.375000X0*%
%ADD25RoundRect,0.140000X0.140000X0.170000X-0.140000X0.170000X-0.140000X-0.170000X0.140000X-0.170000X0*%
%ADD26RoundRect,0.150000X-0.150000X-0.700000X0.150000X-0.700000X0.150000X0.700000X-0.150000X0.700000X0*%
%ADD27RoundRect,0.250000X-0.250000X-1.100000X0.250000X-1.100000X0.250000X1.100000X-0.250000X1.100000X0*%
%ADD28C,1.700000*%
%ADD29R,1.350000X1.350000*%
%ADD30C,1.350000*%
%ADD31RoundRect,0.140000X0.170000X-0.140000X0.170000X0.140000X-0.170000X0.140000X-0.170000X-0.140000X0*%
%ADD32RoundRect,0.140000X-0.170000X0.140000X-0.170000X-0.140000X0.170000X-0.140000X0.170000X0.140000X0*%
%ADD33RoundRect,0.250000X-0.475000X0.250000X-0.475000X-0.250000X0.475000X-0.250000X0.475000X0.250000X0*%
%ADD34RoundRect,0.150000X0.150000X0.700000X-0.150000X0.700000X-0.150000X-0.700000X0.150000X-0.700000X0*%
%ADD35RoundRect,0.250000X0.250000X1.100000X-0.250000X1.100000X-0.250000X-1.100000X0.250000X-1.100000X0*%
%ADD36C,2.100000*%
%ADD37R,1.000000X1.700000*%
%ADD38R,1.500000X0.900000*%
%ADD39R,0.900000X1.500000*%
%ADD40C,0.600000*%
%ADD41RoundRect,0.218750X0.218750X0.256250X-0.218750X0.256250X-0.218750X-0.256250X0.218750X-0.256250X0*%
%ADD42RoundRect,0.250000X0.450000X0.275000X-0.450000X0.275000X-0.450000X-0.275000X0.450000X-0.275000X0*%
%ADD43C,0.650000*%
%ADD44R,1.450000X0.600000*%
%ADD45R,1.450000X0.300000*%
%ADD46O,2.100000X1.000000*%
%ADD47O,1.600000X1.000000*%
%ADD48R,1.000000X0.800000*%
%ADD49C,0.900000*%
%ADD50R,0.700000X1.500000*%
%ADD51RoundRect,0.250000X-0.350000X-0.625000X0.350000X-0.625000X0.350000X0.625000X-0.350000X0.625000X0*%
%ADD52O,1.200000X1.750000*%
%ADD53RoundRect,0.250000X1.000000X0.650000X-1.000000X0.650000X-1.000000X-0.650000X1.000000X-0.650000X0*%
%ADD54RoundRect,0.150000X-0.825000X-0.150000X0.825000X-0.150000X0.825000X0.150000X-0.825000X0.150000X0*%
%ADD55R,2.410000X3.300000*%
%ADD56R,0.280000X0.280000*%
%ADD57O,0.850000X0.280000*%
%ADD58R,0.230000X0.600000*%
%ADD59R,0.250000X0.700000*%
%ADD60R,0.650000X0.900000*%
%ADD61R,1.700000X2.150000*%
%ADD62RoundRect,0.150000X0.700000X-0.150000X0.700000X0.150000X-0.700000X0.150000X-0.700000X-0.150000X0*%
%ADD63RoundRect,0.250000X1.100000X-0.250000X1.100000X0.250000X-1.100000X0.250000X-1.100000X-0.250000X0*%
%ADD64RoundRect,0.150000X-0.587500X-0.150000X0.587500X-0.150000X0.587500X0.150000X-0.587500X0.150000X0*%
G04 APERTURE END LIST*
D10*
G04 #@! TO.C,TP4*
X87500000Y-91000000D03*
G04 #@! TD*
G04 #@! TO.C,TP7*
X87500000Y-93500000D03*
G04 #@! TD*
D11*
G04 #@! TO.C,R4*
X77500000Y-64000000D03*
X77500000Y-62980000D03*
G04 #@! TD*
D12*
G04 #@! TO.C,L1*
X78977787Y-92500000D03*
X82027787Y-92500000D03*
G04 #@! TD*
D13*
G04 #@! TO.C,R10*
X93046742Y-66505236D03*
X94066742Y-66505236D03*
G04 #@! TD*
D14*
G04 #@! TO.C,C6*
X85460151Y-90500000D03*
X85460151Y-88950000D03*
G04 #@! TD*
D15*
G04 #@! TO.C,TP1*
X88000000Y-85500000D03*
G04 #@! TD*
D16*
G04 #@! TO.C,J1*
X79550000Y-58759516D03*
X79550000Y-57659516D03*
X79550000Y-56559516D03*
X79550000Y-55459516D03*
X79550000Y-54359516D03*
X79550000Y-53259516D03*
X79550000Y-52159516D03*
D17*
X79550000Y-51109516D03*
D18*
X85700000Y-61394516D03*
X89400000Y-61394516D03*
D19*
X79675000Y-61219516D03*
D20*
X90375000Y-57894516D03*
X90375000Y-51924516D03*
D21*
X79900000Y-49899516D03*
G04 #@! TD*
D22*
G04 #@! TO.C,R3*
X80500000Y-62980000D03*
X80500000Y-64000000D03*
G04 #@! TD*
D10*
G04 #@! TO.C,TP6*
X86000000Y-64000000D03*
G04 #@! TD*
D13*
G04 #@! TO.C,R22*
X85051991Y-68020123D03*
X86071991Y-68020123D03*
G04 #@! TD*
G04 #@! TO.C,R9*
X93039309Y-65226762D03*
X94059309Y-65226762D03*
G04 #@! TD*
D23*
G04 #@! TO.C,R12*
X115510000Y-67500000D03*
X114490000Y-67500000D03*
G04 #@! TD*
D24*
G04 #@! TO.C,F1*
X100395358Y-82589031D03*
X100395358Y-85389031D03*
G04 #@! TD*
D25*
G04 #@! TO.C,C7*
X91016474Y-78390265D03*
X90056474Y-78390265D03*
G04 #@! TD*
D26*
G04 #@! TO.C,J5*
X132197032Y-89426530D03*
X133447032Y-89426530D03*
X134697032Y-89426530D03*
X135947032Y-89426530D03*
X137197032Y-89426530D03*
X138447032Y-89426530D03*
D27*
X130347032Y-92626530D03*
X140297032Y-92626530D03*
G04 #@! TD*
D15*
G04 #@! TO.C,J2*
X106840000Y-92520000D03*
D28*
X106840000Y-89980000D03*
X109380000Y-92520000D03*
X109380000Y-89980000D03*
X111920000Y-92520000D03*
X111920000Y-89980000D03*
X114460000Y-92520000D03*
X114460000Y-89980000D03*
X117000000Y-92520000D03*
X117000000Y-89980000D03*
X119540000Y-92520000D03*
X119540000Y-89980000D03*
X122080000Y-92520000D03*
X122080000Y-89980000D03*
X124620000Y-92520000D03*
X124620000Y-89980000D03*
X127160000Y-92520000D03*
X127160000Y-89980000D03*
G04 #@! TD*
D29*
G04 #@! TO.C,D1*
X143000000Y-54000000D03*
D30*
X143000000Y-56000000D03*
G04 #@! TD*
D25*
G04 #@! TO.C,C2*
X76998792Y-49697032D03*
X76038792Y-49697032D03*
G04 #@! TD*
D15*
G04 #@! TO.C,J7*
X139540000Y-59000000D03*
D28*
X137000000Y-59000000D03*
X134460000Y-59000000D03*
X131920000Y-59000000D03*
G04 #@! TD*
D13*
G04 #@! TO.C,R21*
X85050384Y-71770535D03*
X86070384Y-71770535D03*
G04 #@! TD*
D31*
G04 #@! TO.C,C9*
X77000000Y-88934688D03*
X77000000Y-87974688D03*
G04 #@! TD*
D32*
G04 #@! TO.C,C3*
X93667273Y-49232554D03*
X93667273Y-50192554D03*
G04 #@! TD*
D33*
G04 #@! TO.C,C13*
X80500000Y-83149904D03*
X80500000Y-85049904D03*
G04 #@! TD*
D34*
G04 #@! TO.C,J4*
X138125000Y-53850000D03*
X136875000Y-53850000D03*
X135625000Y-53850000D03*
X134375000Y-53850000D03*
X133125000Y-53850000D03*
X131875000Y-53850000D03*
D35*
X139975000Y-50650000D03*
X130025000Y-50650000D03*
G04 #@! TD*
D36*
G04 #@! TO.C,H1*
X76500000Y-97000000D03*
G04 #@! TD*
D14*
G04 #@! TO.C,C5*
X83968460Y-90499950D03*
X83968460Y-88949950D03*
G04 #@! TD*
D23*
G04 #@! TO.C,R1*
X115695604Y-50000000D03*
X114675604Y-50000000D03*
G04 #@! TD*
D37*
G04 #@! TO.C,USER_INPUT1*
X138600000Y-86800000D03*
X138600000Y-80500000D03*
X142400000Y-86800000D03*
X142400000Y-80500000D03*
G04 #@! TD*
D38*
G04 #@! TO.C,U1*
X95500000Y-50000000D03*
X95500000Y-51270000D03*
X95500000Y-52540000D03*
X95500000Y-53810000D03*
X95500000Y-55080000D03*
X95500000Y-56350000D03*
X95500000Y-57620000D03*
X95500000Y-58890000D03*
X95500000Y-60160000D03*
X95500000Y-61430000D03*
X95500000Y-62700000D03*
X95500000Y-63970000D03*
X95500000Y-65240000D03*
X95500000Y-66510000D03*
D39*
X97265000Y-67760000D03*
X98535000Y-67760000D03*
X99805000Y-67760000D03*
X101075000Y-67760000D03*
X102345000Y-67760000D03*
X103615000Y-67760000D03*
X104885000Y-67760000D03*
X106155000Y-67760000D03*
X107425000Y-67760000D03*
X108695000Y-67760000D03*
X109965000Y-67760000D03*
X111235000Y-67760000D03*
D38*
X113000000Y-66510000D03*
X113000000Y-65240000D03*
X113000000Y-63970000D03*
X113000000Y-62700000D03*
X113000000Y-61430000D03*
X113000000Y-60160000D03*
X113000000Y-58890000D03*
X113000000Y-57620000D03*
X113000000Y-56350000D03*
X113000000Y-55080000D03*
X113000000Y-53810000D03*
X113000000Y-52540000D03*
X113000000Y-51270000D03*
X113000000Y-50000000D03*
D10*
X101390000Y-53850000D03*
D40*
X101390000Y-54600000D03*
D10*
X101390000Y-55350000D03*
D40*
X101390000Y-56100000D03*
D10*
X101390000Y-56850000D03*
D40*
X102140000Y-53850000D03*
X102140000Y-55350000D03*
X102140000Y-56850000D03*
D10*
X102890000Y-53850000D03*
D40*
X102890000Y-54600000D03*
D10*
X102890000Y-55350000D03*
D40*
X102890000Y-56100000D03*
D10*
X102890000Y-56850000D03*
D40*
X103640000Y-53850000D03*
X103640000Y-55350000D03*
X103640000Y-56850000D03*
D10*
X104390000Y-53850000D03*
D40*
X104390000Y-54600000D03*
D10*
X104390000Y-55350000D03*
D40*
X104390000Y-56100000D03*
D10*
X104390000Y-56850000D03*
G04 #@! TD*
D36*
G04 #@! TO.C,H4*
X141500000Y-45500000D03*
G04 #@! TD*
D41*
G04 #@! TO.C,D3*
X84879088Y-76858695D03*
X83304088Y-76858695D03*
G04 #@! TD*
D10*
G04 #@! TO.C,TP9*
X85000000Y-84500000D03*
G04 #@! TD*
D11*
G04 #@! TO.C,R6*
X75500000Y-64000000D03*
X75500000Y-62980000D03*
G04 #@! TD*
D42*
G04 #@! TO.C,RESET1*
X126800000Y-52440000D03*
X123200000Y-52440000D03*
X126800000Y-51000000D03*
X123200000Y-51000000D03*
G04 #@! TD*
D13*
G04 #@! TO.C,R15*
X85490000Y-74000000D03*
X86510000Y-74000000D03*
G04 #@! TD*
D41*
G04 #@! TO.C,D2*
X79120668Y-76871381D03*
X77545668Y-76871381D03*
G04 #@! TD*
D11*
G04 #@! TO.C,R2*
X76500000Y-64000000D03*
X76500000Y-62980000D03*
G04 #@! TD*
D22*
G04 #@! TO.C,R24*
X75641338Y-80293400D03*
X75641338Y-81313400D03*
G04 #@! TD*
G04 #@! TO.C,R5*
X79500000Y-62980000D03*
X79500000Y-64000000D03*
G04 #@! TD*
D36*
G04 #@! TO.C,H3*
X76500000Y-45500000D03*
G04 #@! TD*
D43*
G04 #@! TO.C,J6*
X81600000Y-67110000D03*
X81600000Y-72890000D03*
D44*
X83045000Y-66750000D03*
X83045000Y-67550000D03*
D45*
X83045000Y-68750000D03*
X83045000Y-69750000D03*
X83045000Y-70250000D03*
X83045000Y-71250000D03*
D44*
X83045000Y-72450000D03*
X83045000Y-73250000D03*
X83045000Y-73250000D03*
X83045000Y-72450000D03*
D45*
X83045000Y-71750000D03*
X83045000Y-70750000D03*
X83045000Y-69250000D03*
X83045000Y-68250000D03*
D44*
X83045000Y-67550000D03*
X83045000Y-66750000D03*
D46*
X82130000Y-65680000D03*
D47*
X77950000Y-65680000D03*
D46*
X82130000Y-74320000D03*
D47*
X77950000Y-74320000D03*
G04 #@! TD*
D22*
G04 #@! TO.C,R7*
X78500000Y-62980000D03*
X78500000Y-64000000D03*
G04 #@! TD*
D15*
G04 #@! TO.C,TP3*
X89500000Y-64500000D03*
G04 #@! TD*
D48*
G04 #@! TO.C,SW1*
X89766710Y-91368353D03*
X89766710Y-93578353D03*
D49*
X91916710Y-92478353D03*
X94916710Y-92478353D03*
D48*
X97066710Y-91368353D03*
X97066710Y-93578353D03*
D50*
X91166710Y-90718353D03*
X94166710Y-90718353D03*
X95666710Y-90718353D03*
G04 #@! TD*
D51*
G04 #@! TO.C,BT1*
X100479071Y-88488608D03*
D52*
X102479071Y-88488608D03*
G04 #@! TD*
D33*
G04 #@! TO.C,C11*
X82500000Y-83149904D03*
X82500000Y-85049904D03*
G04 #@! TD*
D53*
G04 #@! TO.C,D5*
X83000000Y-80000000D03*
X79000000Y-80000000D03*
G04 #@! TD*
D22*
G04 #@! TO.C,R23*
X99737925Y-69490000D03*
X99737925Y-70510000D03*
G04 #@! TD*
D15*
G04 #@! TO.C,TP2*
X96000000Y-85500000D03*
G04 #@! TD*
D54*
G04 #@! TO.C,U3*
X90025000Y-73095000D03*
X90025000Y-74365000D03*
X90025000Y-75635000D03*
X90025000Y-76905000D03*
X94975000Y-76905000D03*
X94975000Y-75635000D03*
X94975000Y-74365000D03*
X94975000Y-73095000D03*
D55*
X92500000Y-75000000D03*
G04 #@! TD*
D33*
G04 #@! TO.C,C12*
X78500000Y-83149904D03*
X78500000Y-85049904D03*
G04 #@! TD*
D56*
G04 #@! TO.C,U2*
X82285000Y-88867968D03*
D57*
X82000000Y-88867968D03*
D56*
X82285000Y-88367968D03*
D57*
X82000000Y-88367968D03*
D56*
X82285000Y-87867968D03*
D57*
X82000000Y-87867968D03*
D56*
X82285000Y-87367968D03*
D57*
X82000000Y-87367968D03*
D56*
X82285000Y-86867968D03*
D57*
X82000000Y-86867968D03*
X79050000Y-86867968D03*
D56*
X78765000Y-86867968D03*
D57*
X79050000Y-87367968D03*
D56*
X78765000Y-87367968D03*
D57*
X79050000Y-87867968D03*
D56*
X78765000Y-87867968D03*
D57*
X79050000Y-88367968D03*
D56*
X78765000Y-88367968D03*
D57*
X79050000Y-88867968D03*
D56*
X78765000Y-88867968D03*
D58*
X81125000Y-89292968D03*
D59*
X81125000Y-89292968D03*
D58*
X81125000Y-86442968D03*
D59*
X81125000Y-86442968D03*
D40*
X81025000Y-88367968D03*
X81025000Y-87367968D03*
D60*
X80960000Y-88427968D03*
X80960000Y-87307968D03*
D58*
X80725000Y-89292968D03*
D59*
X80725000Y-89292968D03*
D58*
X80725000Y-86442968D03*
D59*
X80725000Y-86442968D03*
D40*
X80525000Y-87867968D03*
D61*
X80525000Y-87867968D03*
D58*
X80325000Y-89292968D03*
D59*
X80325000Y-89292968D03*
D58*
X80325000Y-86442968D03*
D59*
X80325000Y-86442968D03*
D60*
X80090000Y-88427968D03*
X80090000Y-87307968D03*
D40*
X80025000Y-88367968D03*
X80025000Y-87367968D03*
D58*
X79925000Y-89292968D03*
D59*
X79925000Y-89292968D03*
D58*
X79925000Y-86442968D03*
D59*
X79925000Y-86442968D03*
G04 #@! TD*
D32*
G04 #@! TO.C,C8*
X76995044Y-86017559D03*
X76995044Y-86977559D03*
G04 #@! TD*
D10*
G04 #@! TO.C,TP5*
X95000000Y-80500000D03*
G04 #@! TD*
D62*
G04 #@! TO.C,J3*
X136174120Y-76455769D03*
X136174120Y-75205769D03*
X136174120Y-73955769D03*
X136174120Y-72705769D03*
X136174120Y-71455769D03*
X136174120Y-70205769D03*
X136174120Y-68955769D03*
X136174120Y-67705769D03*
X136174120Y-66455769D03*
D63*
X139374120Y-78305769D03*
X139374120Y-64605769D03*
G04 #@! TD*
D13*
G04 #@! TO.C,R19*
X83809430Y-86850000D03*
X84829430Y-86850000D03*
G04 #@! TD*
D22*
G04 #@! TO.C,R18*
X75974247Y-85968137D03*
X75974247Y-86988137D03*
G04 #@! TD*
D23*
G04 #@! TO.C,R13*
X76405901Y-76874396D03*
X75385901Y-76874396D03*
G04 #@! TD*
D22*
G04 #@! TO.C,R16*
X75979202Y-87959381D03*
X75979202Y-88979381D03*
G04 #@! TD*
D14*
G04 #@! TO.C,C4*
X92399168Y-51034004D03*
X92399168Y-49484004D03*
G04 #@! TD*
D22*
G04 #@! TO.C,R8*
X98583935Y-69487252D03*
X98583935Y-70507252D03*
G04 #@! TD*
D11*
G04 #@! TO.C,R17*
X88181283Y-75020000D03*
X88181283Y-74000000D03*
G04 #@! TD*
D36*
G04 #@! TO.C,H2*
X141500000Y-97000000D03*
G04 #@! TD*
D23*
G04 #@! TO.C,R14*
X82160152Y-76866545D03*
X81140152Y-76866545D03*
G04 #@! TD*
D25*
G04 #@! TO.C,C1*
X77000000Y-48738516D03*
X76040000Y-48738516D03*
G04 #@! TD*
D13*
G04 #@! TO.C,R11*
X139500000Y-54928437D03*
X140520000Y-54928437D03*
G04 #@! TD*
D42*
G04 #@! TO.C,BOOT1*
X121000000Y-52440000D03*
X117400000Y-52440000D03*
X121000000Y-51000000D03*
X117400000Y-51000000D03*
G04 #@! TD*
D31*
G04 #@! TO.C,C10*
X96879082Y-77967123D03*
X96879082Y-77007123D03*
G04 #@! TD*
D64*
G04 #@! TO.C,Q1*
X90125000Y-81050000D03*
X90125000Y-82950000D03*
X92000000Y-82000000D03*
G04 #@! TD*
M02*
