G04 #@! TF.GenerationSoftware,KiCad,Pcbnew,9.0.7*
G04 #@! TF.CreationDate,2026-03-10T23:21:33-07:00*
G04 #@! TF.ProjectId,Main Board,4d61696e-2042-46f6-9172-642e6b696361,rev?*
G04 #@! TF.SameCoordinates,Original*
G04 #@! TF.FileFunction,Copper,L2,Inr*
G04 #@! TF.FilePolarity,Positive*
%FSLAX46Y46*%
G04 Gerber Fmt 4.6, Leading zero omitted, Abs format (unit mm)*
G04 Created by KiCad (PCBNEW 9.0.7) date 2026-03-10 23:21:33*
%MOMM*%
%LPD*%
G01*
G04 APERTURE LIST*
G04 Aperture macros list*
%AMRoundRect*
0 Rectangle with rounded corners*
0 $1 Rounding radius*
0 $2 $3 $4 $5 $6 $7 $8 $9 X,Y pos of 4 corners*
0 Add a 4 corners polygon primitive as box body*
4,1,4,$2,$3,$4,$5,$6,$7,$8,$9,$2,$3,0*
0 Add four circle primitives for the rounded corners*
1,1,$1+$1,$2,$3*
1,1,$1+$1,$4,$5*
1,1,$1+$1,$6,$7*
1,1,$1+$1,$8,$9*
0 Add four rect primitives between the rounded corners*
20,1,$1+$1,$2,$3,$4,$5,0*
20,1,$1+$1,$4,$5,$6,$7,0*
20,1,$1+$1,$6,$7,$8,$9,0*
20,1,$1+$1,$8,$9,$2,$3,0*%
G04 Aperture macros list end*
G04 #@! TA.AperFunction,ComponentPad*
%ADD10R,1.700000X1.700000*%
G04 #@! TD*
G04 #@! TA.AperFunction,ComponentPad*
%ADD11C,1.700000*%
G04 #@! TD*
G04 #@! TA.AperFunction,ComponentPad*
%ADD12R,1.350000X1.350000*%
G04 #@! TD*
G04 #@! TA.AperFunction,ComponentPad*
%ADD13C,1.350000*%
G04 #@! TD*
G04 #@! TA.AperFunction,HeatsinkPad*
%ADD14C,0.600000*%
G04 #@! TD*
G04 #@! TA.AperFunction,HeatsinkPad*
%ADD15O,2.100000X1.000000*%
G04 #@! TD*
G04 #@! TA.AperFunction,HeatsinkPad*
%ADD16O,1.600000X1.000000*%
G04 #@! TD*
G04 #@! TA.AperFunction,ComponentPad*
%ADD17RoundRect,0.250000X-0.350000X-0.625000X0.350000X-0.625000X0.350000X0.625000X-0.350000X0.625000X0*%
G04 #@! TD*
G04 #@! TA.AperFunction,ComponentPad*
%ADD18O,1.200000X1.750000*%
G04 #@! TD*
G04 #@! TA.AperFunction,HeatsinkPad*
%ADD19C,0.500000*%
G04 #@! TD*
G04 #@! TA.AperFunction,ComponentPad*
%ADD20C,0.600000*%
G04 #@! TD*
G04 #@! TA.AperFunction,ViaPad*
%ADD21C,0.600000*%
G04 #@! TD*
G04 APERTURE END LIST*
D10*
G04 #@! TO.N,GND*
G04 #@! TO.C,TP1*
X88000000Y-85500000D03*
G04 #@! TD*
G04 #@! TO.N,+3.3V*
G04 #@! TO.C,J2*
X106840000Y-92520000D03*
D11*
G04 #@! TO.N,GND*
X106840000Y-89980000D03*
G04 #@! TO.N,CAM_CLK*
X109380000Y-92520000D03*
G04 #@! TO.N,CAM_SIO_DAT*
X109380000Y-89980000D03*
G04 #@! TO.N,CAM_VSYNC*
X111920000Y-92520000D03*
G04 #@! TO.N,CAM_HREF*
X111920000Y-89980000D03*
G04 #@! TO.N,CAM_PCLK*
X114460000Y-92520000D03*
G04 #@! TO.N,CAM_XCLK*
X114460000Y-89980000D03*
G04 #@! TO.N,CAM_D7*
X117000000Y-92520000D03*
G04 #@! TO.N,CAM_D6*
X117000000Y-89980000D03*
G04 #@! TO.N,CAM_D5*
X119540000Y-92520000D03*
G04 #@! TO.N,CAM_D4*
X119540000Y-89980000D03*
G04 #@! TO.N,CAM_D3*
X122080000Y-92520000D03*
G04 #@! TO.N,CAM_D2*
X122080000Y-89980000D03*
G04 #@! TO.N,CAM_D1*
X124620000Y-92520000D03*
G04 #@! TO.N,CAM_D0*
X124620000Y-89980000D03*
G04 #@! TO.N,+3.3V*
X127160000Y-92520000D03*
G04 #@! TO.N,GND*
X127160000Y-89980000D03*
G04 #@! TD*
D12*
G04 #@! TO.N,Net-(D1-K)*
G04 #@! TO.C,D1*
X143000000Y-54000000D03*
D13*
G04 #@! TO.N,+3.3V*
X143000000Y-56000000D03*
G04 #@! TD*
D10*
G04 #@! TO.N,I2C_SDA*
G04 #@! TO.C,J7*
X139540000Y-59000000D03*
D11*
G04 #@! TO.N,I2C_SCL*
X137000000Y-59000000D03*
G04 #@! TO.N,+3.3V*
X134460000Y-59000000D03*
G04 #@! TO.N,GND*
X131920000Y-59000000D03*
G04 #@! TD*
D14*
G04 #@! TO.N,GND*
G04 #@! TO.C,U1*
X101390000Y-54600000D03*
X101390000Y-56100000D03*
X102140000Y-53850000D03*
X102140000Y-55350000D03*
X102140000Y-56850000D03*
X102890000Y-54600000D03*
X102890000Y-56100000D03*
X103640000Y-53850000D03*
X103640000Y-55350000D03*
X103640000Y-56850000D03*
X104390000Y-54600000D03*
X104390000Y-56100000D03*
G04 #@! TD*
D15*
G04 #@! TO.N,GND*
G04 #@! TO.C,J6*
X82130000Y-65680000D03*
D16*
X77950000Y-65680000D03*
D15*
X82130000Y-74320000D03*
D16*
X77950000Y-74320000D03*
G04 #@! TD*
D10*
G04 #@! TO.N,+5V_USB*
G04 #@! TO.C,TP3*
X89500000Y-64500000D03*
G04 #@! TD*
D17*
G04 #@! TO.N,Net-(BT1-+)*
G04 #@! TO.C,BT1*
X100479071Y-88488608D03*
D18*
G04 #@! TO.N,GND*
X102479071Y-88488608D03*
G04 #@! TD*
D10*
G04 #@! TO.N,+3.3V*
G04 #@! TO.C,TP2*
X96000000Y-85500000D03*
G04 #@! TD*
D19*
G04 #@! TO.N,GND*
G04 #@! TO.C,U3*
X91800000Y-73800000D03*
X91800000Y-75000000D03*
X91800000Y-76200000D03*
X93200000Y-73800000D03*
X93200000Y-75000000D03*
X93200000Y-76200000D03*
G04 #@! TD*
D20*
G04 #@! TO.N,GND*
G04 #@! TO.C,U2*
X81025000Y-88367968D03*
X81025000Y-87367968D03*
X80525000Y-87867968D03*
X80025000Y-88367968D03*
X80025000Y-87367968D03*
G04 #@! TD*
D21*
G04 #@! TO.N,+3.3V*
X78007350Y-48754598D03*
G04 #@! TO.N,GND*
X142500000Y-79000000D03*
G04 #@! TO.N,Net-(SW1-A)*
X91000000Y-89000000D03*
X87019737Y-87831140D03*
G04 #@! TO.N,+3.3V*
X78009472Y-49697032D03*
G04 #@! TO.N,GND*
X96500000Y-95500000D03*
X127500000Y-74000000D03*
X142500000Y-50000000D03*
X88500000Y-61500000D03*
X127500000Y-68000000D03*
X133460000Y-87460000D03*
X91017700Y-78908948D03*
X118500000Y-76500000D03*
X128000000Y-51000000D03*
X122000000Y-77500000D03*
X81480000Y-82399904D03*
X130500000Y-74000000D03*
X113000000Y-75500000D03*
X119500000Y-79500000D03*
X114000000Y-49000000D03*
X79551752Y-85948248D03*
X77000000Y-89562983D03*
X102479071Y-86500000D03*
X135500000Y-94500000D03*
X136414550Y-54914550D03*
X80500000Y-53500000D03*
X87000000Y-53000000D03*
X96875886Y-78767599D03*
X102500000Y-77000000D03*
X76000000Y-82000000D03*
X91500000Y-49484004D03*
X83967095Y-92128146D03*
X81000000Y-90000000D03*
X130500000Y-65000000D03*
X79480000Y-82399904D03*
X118000000Y-85000000D03*
X106000000Y-77500000D03*
X106500000Y-95000000D03*
X127500000Y-65000000D03*
X103000000Y-85500000D03*
X75340640Y-48744032D03*
X124000000Y-73500000D03*
X104500000Y-82000000D03*
X80000000Y-90000000D03*
X84000000Y-59000000D03*
X75000000Y-85968137D03*
X81500000Y-86000000D03*
X88000000Y-58000000D03*
X75340640Y-49699415D03*
X135359176Y-65640825D03*
X87000000Y-71770535D03*
X139500000Y-89500000D03*
X85466589Y-92052936D03*
X111500000Y-81000000D03*
X87000000Y-68000000D03*
X109932985Y-74567015D03*
G04 #@! TO.N,+3.3V*
X78000000Y-89500000D03*
X116081579Y-51234052D03*
X75979202Y-89607576D03*
X85500000Y-86000000D03*
X83000000Y-86000000D03*
X115500000Y-68500000D03*
X137500000Y-76500000D03*
X92399168Y-51899168D03*
X81500000Y-64000000D03*
X78000000Y-86000000D03*
X78000000Y-88689205D03*
X80500000Y-55500000D03*
X93400000Y-51034004D03*
X138000000Y-56000000D03*
X132210000Y-87500000D03*
G04 #@! TO.N,Net-(D2-K)*
X87000000Y-77000000D03*
X96500000Y-74500000D03*
G04 #@! TO.N,Net-(D3-K)*
X96600000Y-76000000D03*
X87000000Y-78000000D03*
G04 #@! TO.N,CAM_CLK*
X94000000Y-62000000D03*
G04 #@! TO.N,CAM_SIO_DAT*
X94000000Y-63000000D03*
G04 #@! TO.N,CAM_HREF*
X94000000Y-64000000D03*
G04 #@! TO.N,I2C_SDA*
X137451000Y-73500000D03*
X118500000Y-53601000D03*
G04 #@! TO.N,I2C_SCL*
X116000000Y-54000000D03*
G04 #@! TO.N,MIC_LCRL*
X117000000Y-60970000D03*
X124000000Y-55142087D03*
G04 #@! TO.N,MIC_BCLK*
X117000000Y-67000000D03*
X128000000Y-57000000D03*
G04 #@! TO.N,MIC_DOUT*
X126000000Y-56000000D03*
X117000000Y-64000000D03*
G04 #@! TO.N,Net-(U1-EN)*
X124440000Y-51750000D03*
X116000000Y-49000000D03*
X94250000Y-52250000D03*
G04 #@! TO.N,Net-(U1-IO0)*
X119440000Y-51750000D03*
X114490000Y-66510000D03*
G04 #@! TO.N,Net-(U1-IO45)*
X137500000Y-80500000D03*
X113000000Y-69000000D03*
G04 #@! TO.N,GND*
X94500000Y-49232554D03*
G04 #@! TD*
G04 #@! TA.AperFunction,Conductor*
G04 #@! TO.N,GND*
G36*
X126694075Y-90172993D02*
G01*
X126759901Y-90287007D01*
X126852993Y-90380099D01*
X126967007Y-90445925D01*
X127030590Y-90462962D01*
X126398282Y-91095269D01*
X126398282Y-91095270D01*
X126452452Y-91134626D01*
X126452451Y-91134626D01*
X126461495Y-91139234D01*
X126512292Y-91187208D01*
X126529087Y-91255029D01*
X126506550Y-91321164D01*
X126461499Y-91360202D01*
X126452182Y-91364949D01*
X126280213Y-91489890D01*
X126129890Y-91640213D01*
X126004949Y-91812182D01*
X126000484Y-91820946D01*
X125952509Y-91871742D01*
X125884688Y-91888536D01*
X125818553Y-91865998D01*
X125779516Y-91820946D01*
X125775050Y-91812182D01*
X125650109Y-91640213D01*
X125499786Y-91489890D01*
X125327820Y-91364951D01*
X125327115Y-91364591D01*
X125319054Y-91360485D01*
X125268259Y-91312512D01*
X125251463Y-91244692D01*
X125273999Y-91178556D01*
X125319054Y-91139515D01*
X125327816Y-91135051D01*
X125382572Y-91095269D01*
X125499786Y-91010109D01*
X125499788Y-91010106D01*
X125499792Y-91010104D01*
X125650104Y-90859792D01*
X125650106Y-90859788D01*
X125650109Y-90859786D01*
X125735890Y-90741717D01*
X125775051Y-90687816D01*
X125779793Y-90678508D01*
X125827763Y-90627711D01*
X125895583Y-90610911D01*
X125961719Y-90633445D01*
X126000763Y-90678500D01*
X126005373Y-90687547D01*
X126044728Y-90741716D01*
X126677037Y-90109408D01*
X126694075Y-90172993D01*
G37*
G04 #@! TD.AperFunction*
G04 #@! TA.AperFunction,Conductor*
G36*
X107955270Y-90741717D02*
G01*
X107955270Y-90741716D01*
X107994622Y-90687555D01*
X107999232Y-90678507D01*
X108047205Y-90627709D01*
X108115025Y-90610912D01*
X108181161Y-90633447D01*
X108220204Y-90678504D01*
X108224949Y-90687817D01*
X108349890Y-90859786D01*
X108500213Y-91010109D01*
X108672182Y-91135050D01*
X108680946Y-91139516D01*
X108731742Y-91187491D01*
X108748536Y-91255312D01*
X108725998Y-91321447D01*
X108680946Y-91360484D01*
X108672182Y-91364949D01*
X108500215Y-91489889D01*
X108386673Y-91603431D01*
X108325350Y-91636915D01*
X108255658Y-91631931D01*
X108199725Y-91590059D01*
X108182810Y-91559082D01*
X108133797Y-91427671D01*
X108133793Y-91427664D01*
X108047547Y-91312455D01*
X108047544Y-91312452D01*
X107932335Y-91226206D01*
X107932328Y-91226202D01*
X107797482Y-91175908D01*
X107797483Y-91175908D01*
X107737883Y-91169501D01*
X107737881Y-91169500D01*
X107737873Y-91169500D01*
X107737865Y-91169500D01*
X107727309Y-91169500D01*
X107660270Y-91149815D01*
X107639628Y-91133181D01*
X106969408Y-90462962D01*
X107032993Y-90445925D01*
X107147007Y-90380099D01*
X107240099Y-90287007D01*
X107305925Y-90172993D01*
X107322962Y-90109408D01*
X107955270Y-90741717D01*
G37*
G04 #@! TD.AperFunction*
G04 #@! TA.AperFunction,Conductor*
G36*
X80193039Y-43020185D02*
G01*
X80238794Y-43072989D01*
X80250000Y-43124500D01*
X80250000Y-48510000D01*
X115150931Y-48510000D01*
X115217970Y-48529685D01*
X115263725Y-48582489D01*
X115273669Y-48651647D01*
X115265492Y-48681453D01*
X115230263Y-48766502D01*
X115230261Y-48766510D01*
X115199500Y-48921153D01*
X115199500Y-49078846D01*
X115230261Y-49233489D01*
X115230264Y-49233501D01*
X115290602Y-49379172D01*
X115290609Y-49379185D01*
X115378210Y-49510288D01*
X115378213Y-49510292D01*
X115489707Y-49621786D01*
X115489711Y-49621789D01*
X115620814Y-49709390D01*
X115620827Y-49709397D01*
X115766498Y-49769735D01*
X115766503Y-49769737D01*
X115921153Y-49800499D01*
X115921156Y-49800500D01*
X115921158Y-49800500D01*
X116078844Y-49800500D01*
X116078845Y-49800499D01*
X116233497Y-49769737D01*
X116379179Y-49709394D01*
X116510289Y-49621789D01*
X116621789Y-49510289D01*
X116709394Y-49379179D01*
X116769737Y-49233497D01*
X116800500Y-49078842D01*
X116800500Y-48921158D01*
X116800500Y-48921155D01*
X116800499Y-48921153D01*
X116783052Y-48833442D01*
X116769737Y-48766503D01*
X116734507Y-48681451D01*
X116727039Y-48611983D01*
X116758314Y-48549504D01*
X116818403Y-48513852D01*
X116849069Y-48510000D01*
X128250000Y-48510000D01*
X128250000Y-45397648D01*
X140199500Y-45397648D01*
X140199500Y-45602351D01*
X140231522Y-45804534D01*
X140294781Y-45999223D01*
X140387715Y-46181613D01*
X140508028Y-46347213D01*
X140652786Y-46491971D01*
X140807749Y-46604556D01*
X140818390Y-46612287D01*
X140934607Y-46671503D01*
X141000776Y-46705218D01*
X141000778Y-46705218D01*
X141000781Y-46705220D01*
X141105137Y-46739127D01*
X141195465Y-46768477D01*
X141296557Y-46784488D01*
X141397648Y-46800500D01*
X141397649Y-46800500D01*
X141602351Y-46800500D01*
X141602352Y-46800500D01*
X141804534Y-46768477D01*
X141999219Y-46705220D01*
X142181610Y-46612287D01*
X142274590Y-46544732D01*
X142347213Y-46491971D01*
X142347215Y-46491968D01*
X142347219Y-46491966D01*
X142491966Y-46347219D01*
X142491968Y-46347215D01*
X142491971Y-46347213D01*
X142544732Y-46274590D01*
X142612287Y-46181610D01*
X142705220Y-45999219D01*
X142768477Y-45804534D01*
X142800500Y-45602352D01*
X142800500Y-45397648D01*
X142768477Y-45195466D01*
X142705220Y-45000781D01*
X142705218Y-45000778D01*
X142705218Y-45000776D01*
X142671503Y-44934607D01*
X142612287Y-44818390D01*
X142604556Y-44807749D01*
X142491971Y-44652786D01*
X142347213Y-44508028D01*
X142181613Y-44387715D01*
X142181612Y-44387714D01*
X142181610Y-44387713D01*
X142124653Y-44358691D01*
X141999223Y-44294781D01*
X141804534Y-44231522D01*
X141629995Y-44203878D01*
X141602352Y-44199500D01*
X141397648Y-44199500D01*
X141373329Y-44203351D01*
X141195465Y-44231522D01*
X141000776Y-44294781D01*
X140818386Y-44387715D01*
X140652786Y-44508028D01*
X140508028Y-44652786D01*
X140387715Y-44818386D01*
X140294781Y-45000776D01*
X140231522Y-45195465D01*
X140199500Y-45397648D01*
X128250000Y-45397648D01*
X128250000Y-43124500D01*
X128269685Y-43057461D01*
X128322489Y-43011706D01*
X128374000Y-43000500D01*
X143875500Y-43000500D01*
X143942539Y-43020185D01*
X143988294Y-43072989D01*
X143999500Y-43124500D01*
X143999500Y-52733257D01*
X143979815Y-52800296D01*
X143927011Y-52846051D01*
X143857853Y-52855995D01*
X143832168Y-52849439D01*
X143782485Y-52830909D01*
X143782483Y-52830908D01*
X143722883Y-52824501D01*
X143722881Y-52824500D01*
X143722873Y-52824500D01*
X143722864Y-52824500D01*
X142277129Y-52824500D01*
X142277123Y-52824501D01*
X142217516Y-52830908D01*
X142082671Y-52881202D01*
X142082664Y-52881206D01*
X141967455Y-52967452D01*
X141967452Y-52967455D01*
X141881206Y-53082664D01*
X141881202Y-53082671D01*
X141830908Y-53217517D01*
X141824501Y-53277116D01*
X141824500Y-53277135D01*
X141824500Y-54722870D01*
X141824501Y-54722876D01*
X141830908Y-54782483D01*
X141881202Y-54917328D01*
X141881206Y-54917335D01*
X141967452Y-55032544D01*
X141967453Y-55032544D01*
X141967454Y-55032546D01*
X142000500Y-55057284D01*
X142052539Y-55096241D01*
X142094409Y-55152175D01*
X142099393Y-55221867D01*
X142078545Y-55268392D01*
X141994624Y-55383900D01*
X141910620Y-55548764D01*
X141910619Y-55548767D01*
X141853445Y-55724734D01*
X141824500Y-55907486D01*
X141824500Y-56092513D01*
X141853445Y-56275265D01*
X141910619Y-56451232D01*
X141910620Y-56451235D01*
X141994622Y-56616096D01*
X142103379Y-56765787D01*
X142234213Y-56896621D01*
X142383904Y-57005378D01*
X142464763Y-57046577D01*
X142548764Y-57089379D01*
X142548767Y-57089380D01*
X142636750Y-57117967D01*
X142724736Y-57146555D01*
X142907486Y-57175500D01*
X142907487Y-57175500D01*
X143092513Y-57175500D01*
X143092514Y-57175500D01*
X143275264Y-57146555D01*
X143451235Y-57089379D01*
X143616096Y-57005378D01*
X143765787Y-56896621D01*
X143787819Y-56874589D01*
X143849142Y-56841104D01*
X143918834Y-56846088D01*
X143974767Y-56887960D01*
X143999184Y-56953424D01*
X143999500Y-56962270D01*
X143999500Y-99375500D01*
X143979815Y-99442539D01*
X143927011Y-99488294D01*
X143875500Y-99499500D01*
X74124500Y-99499500D01*
X74057461Y-99479815D01*
X74011706Y-99427011D01*
X74000500Y-99375500D01*
X74000500Y-96897648D01*
X75199500Y-96897648D01*
X75199500Y-97102351D01*
X75231522Y-97304534D01*
X75294781Y-97499223D01*
X75387715Y-97681613D01*
X75508028Y-97847213D01*
X75652786Y-97991971D01*
X75807749Y-98104556D01*
X75818390Y-98112287D01*
X75934607Y-98171503D01*
X76000776Y-98205218D01*
X76000778Y-98205218D01*
X76000781Y-98205220D01*
X76105137Y-98239127D01*
X76195465Y-98268477D01*
X76296557Y-98284488D01*
X76397648Y-98300500D01*
X76397649Y-98300500D01*
X76602351Y-98300500D01*
X76602352Y-98300500D01*
X76804534Y-98268477D01*
X76999219Y-98205220D01*
X77181610Y-98112287D01*
X77274590Y-98044732D01*
X77347213Y-97991971D01*
X77347215Y-97991968D01*
X77347219Y-97991966D01*
X77491966Y-97847219D01*
X77491968Y-97847215D01*
X77491971Y-97847213D01*
X77544732Y-97774590D01*
X77612287Y-97681610D01*
X77705220Y-97499219D01*
X77768477Y-97304534D01*
X77800500Y-97102352D01*
X77800500Y-96897648D01*
X140199500Y-96897648D01*
X140199500Y-97102351D01*
X140231522Y-97304534D01*
X140294781Y-97499223D01*
X140387715Y-97681613D01*
X140508028Y-97847213D01*
X140652786Y-97991971D01*
X140807749Y-98104556D01*
X140818390Y-98112287D01*
X140934607Y-98171503D01*
X141000776Y-98205218D01*
X141000778Y-98205218D01*
X141000781Y-98205220D01*
X141105137Y-98239127D01*
X141195465Y-98268477D01*
X141296557Y-98284488D01*
X141397648Y-98300500D01*
X141397649Y-98300500D01*
X141602351Y-98300500D01*
X141602352Y-98300500D01*
X141804534Y-98268477D01*
X141999219Y-98205220D01*
X142181610Y-98112287D01*
X142274590Y-98044732D01*
X142347213Y-97991971D01*
X142347215Y-97991968D01*
X142347219Y-97991966D01*
X142491966Y-97847219D01*
X142491968Y-97847215D01*
X142491971Y-97847213D01*
X142544732Y-97774590D01*
X142612287Y-97681610D01*
X142705220Y-97499219D01*
X142768477Y-97304534D01*
X142800500Y-97102352D01*
X142800500Y-96897648D01*
X142768477Y-96695466D01*
X142705220Y-96500781D01*
X142705218Y-96500778D01*
X142705218Y-96500776D01*
X142671503Y-96434607D01*
X142612287Y-96318390D01*
X142604556Y-96307749D01*
X142491971Y-96152786D01*
X142347213Y-96008028D01*
X142181613Y-95887715D01*
X142181612Y-95887714D01*
X142181610Y-95887713D01*
X142124653Y-95858691D01*
X141999223Y-95794781D01*
X141804534Y-95731522D01*
X141629995Y-95703878D01*
X141602352Y-95699500D01*
X141397648Y-95699500D01*
X141373329Y-95703351D01*
X141195465Y-95731522D01*
X141000776Y-95794781D01*
X140818386Y-95887715D01*
X140652786Y-96008028D01*
X140508028Y-96152786D01*
X140387715Y-96318386D01*
X140294781Y-96500776D01*
X140231522Y-96695465D01*
X140199500Y-96897648D01*
X77800500Y-96897648D01*
X77768477Y-96695466D01*
X77705220Y-96500781D01*
X77705218Y-96500778D01*
X77705218Y-96500776D01*
X77671503Y-96434607D01*
X77612287Y-96318390D01*
X77604556Y-96307749D01*
X77491971Y-96152786D01*
X77347213Y-96008028D01*
X77181613Y-95887715D01*
X77181612Y-95887714D01*
X77181610Y-95887713D01*
X77124653Y-95858691D01*
X76999223Y-95794781D01*
X76804534Y-95731522D01*
X76629995Y-95703878D01*
X76602352Y-95699500D01*
X76397648Y-95699500D01*
X76373329Y-95703351D01*
X76195465Y-95731522D01*
X76000776Y-95794781D01*
X75818386Y-95887715D01*
X75652786Y-96008028D01*
X75508028Y-96152786D01*
X75387715Y-96318386D01*
X75294781Y-96500776D01*
X75231522Y-96695465D01*
X75199500Y-96897648D01*
X74000500Y-96897648D01*
X74000500Y-92547348D01*
X91216209Y-92547348D01*
X91243128Y-92682675D01*
X91243131Y-92682685D01*
X91295931Y-92810157D01*
X91295938Y-92810170D01*
X91372595Y-92924894D01*
X91372598Y-92924898D01*
X91470164Y-93022464D01*
X91470168Y-93022467D01*
X91584892Y-93099124D01*
X91584905Y-93099131D01*
X91711247Y-93151463D01*
X91712382Y-93151933D01*
X91712386Y-93151933D01*
X91712387Y-93151934D01*
X91847714Y-93178853D01*
X91847717Y-93178853D01*
X91985705Y-93178853D01*
X92079452Y-93160205D01*
X92121038Y-93151933D01*
X92248521Y-93099128D01*
X92363252Y-93022467D01*
X92460824Y-92924895D01*
X92537485Y-92810164D01*
X92590290Y-92682681D01*
X92617210Y-92547348D01*
X94216209Y-92547348D01*
X94243128Y-92682675D01*
X94243131Y-92682685D01*
X94295931Y-92810157D01*
X94295938Y-92810170D01*
X94372595Y-92924894D01*
X94372598Y-92924898D01*
X94470164Y-93022464D01*
X94470168Y-93022467D01*
X94584892Y-93099124D01*
X94584905Y-93099131D01*
X94711247Y-93151463D01*
X94712382Y-93151933D01*
X94712386Y-93151933D01*
X94712387Y-93151934D01*
X94847714Y-93178853D01*
X94847717Y-93178853D01*
X94985705Y-93178853D01*
X95079452Y-93160205D01*
X95121038Y-93151933D01*
X95248521Y-93099128D01*
X95363252Y-93022467D01*
X95460824Y-92924895D01*
X95537485Y-92810164D01*
X95590290Y-92682681D01*
X95617210Y-92547346D01*
X95617210Y-92409360D01*
X95617210Y-92409357D01*
X95590291Y-92274030D01*
X95590290Y-92274029D01*
X95590290Y-92274025D01*
X95590288Y-92274020D01*
X95537488Y-92146548D01*
X95537481Y-92146535D01*
X95460824Y-92031811D01*
X95460821Y-92031807D01*
X95363255Y-91934241D01*
X95363251Y-91934238D01*
X95248527Y-91857581D01*
X95248514Y-91857574D01*
X95121042Y-91804774D01*
X95121032Y-91804771D01*
X94985705Y-91777853D01*
X94985703Y-91777853D01*
X94847717Y-91777853D01*
X94847715Y-91777853D01*
X94712387Y-91804771D01*
X94712377Y-91804774D01*
X94584905Y-91857574D01*
X94584892Y-91857581D01*
X94470168Y-91934238D01*
X94470164Y-91934241D01*
X94372598Y-92031807D01*
X94372595Y-92031811D01*
X94295938Y-92146535D01*
X94295931Y-92146548D01*
X94243131Y-92274020D01*
X94243128Y-92274030D01*
X94216210Y-92409357D01*
X94216210Y-92409360D01*
X94216210Y-92547346D01*
X94216210Y-92547348D01*
X94216209Y-92547348D01*
X92617210Y-92547348D01*
X92617210Y-92547346D01*
X92617210Y-92409360D01*
X92617210Y-92409357D01*
X92590291Y-92274030D01*
X92590290Y-92274029D01*
X92590290Y-92274025D01*
X92590288Y-92274020D01*
X92537488Y-92146548D01*
X92537481Y-92146535D01*
X92460824Y-92031811D01*
X92460821Y-92031807D01*
X92363255Y-91934241D01*
X92363251Y-91934238D01*
X92248527Y-91857581D01*
X92248514Y-91857574D01*
X92121042Y-91804774D01*
X92121032Y-91804771D01*
X91985705Y-91777853D01*
X91985703Y-91777853D01*
X91847717Y-91777853D01*
X91847715Y-91777853D01*
X91712387Y-91804771D01*
X91712377Y-91804774D01*
X91584905Y-91857574D01*
X91584892Y-91857581D01*
X91470168Y-91934238D01*
X91470164Y-91934241D01*
X91372598Y-92031807D01*
X91372595Y-92031811D01*
X91295938Y-92146535D01*
X91295931Y-92146548D01*
X91243131Y-92274020D01*
X91243128Y-92274030D01*
X91216210Y-92409357D01*
X91216210Y-92409360D01*
X91216210Y-92547346D01*
X91216210Y-92547348D01*
X91216209Y-92547348D01*
X74000500Y-92547348D01*
X74000500Y-91622135D01*
X105489500Y-91622135D01*
X105489500Y-93417870D01*
X105489501Y-93417876D01*
X105495908Y-93477483D01*
X105546202Y-93612328D01*
X105546206Y-93612335D01*
X105632452Y-93727544D01*
X105632455Y-93727547D01*
X105747664Y-93813793D01*
X105747671Y-93813797D01*
X105882517Y-93864091D01*
X105882516Y-93864091D01*
X105889444Y-93864835D01*
X105942127Y-93870500D01*
X107737872Y-93870499D01*
X107797483Y-93864091D01*
X107932331Y-93813796D01*
X108047546Y-93727546D01*
X108133796Y-93612331D01*
X108182810Y-93480916D01*
X108224681Y-93424984D01*
X108290145Y-93400566D01*
X108358418Y-93415417D01*
X108386673Y-93436569D01*
X108500213Y-93550109D01*
X108672179Y-93675048D01*
X108672181Y-93675049D01*
X108672184Y-93675051D01*
X108861588Y-93771557D01*
X109063757Y-93837246D01*
X109273713Y-93870500D01*
X109273714Y-93870500D01*
X109486286Y-93870500D01*
X109486287Y-93870500D01*
X109696243Y-93837246D01*
X109898412Y-93771557D01*
X110087816Y-93675051D01*
X110174138Y-93612335D01*
X110259786Y-93550109D01*
X110259788Y-93550106D01*
X110259792Y-93550104D01*
X110410104Y-93399792D01*
X110410106Y-93399788D01*
X110410109Y-93399786D01*
X110535048Y-93227820D01*
X110535047Y-93227820D01*
X110535051Y-93227816D01*
X110539514Y-93219054D01*
X110587488Y-93168259D01*
X110655308Y-93151463D01*
X110721444Y-93173999D01*
X110760486Y-93219056D01*
X110764951Y-93227820D01*
X110889890Y-93399786D01*
X111040213Y-93550109D01*
X111212179Y-93675048D01*
X111212181Y-93675049D01*
X111212184Y-93675051D01*
X111401588Y-93771557D01*
X111603757Y-93837246D01*
X111813713Y-93870500D01*
X111813714Y-93870500D01*
X112026286Y-93870500D01*
X112026287Y-93870500D01*
X112236243Y-93837246D01*
X112438412Y-93771557D01*
X112627816Y-93675051D01*
X112714138Y-93612335D01*
X112799786Y-93550109D01*
X112799788Y-93550106D01*
X112799792Y-93550104D01*
X112950104Y-93399792D01*
X112950106Y-93399788D01*
X112950109Y-93399786D01*
X113075048Y-93227820D01*
X113075047Y-93227820D01*
X113075051Y-93227816D01*
X113079514Y-93219054D01*
X113127488Y-93168259D01*
X113195308Y-93151463D01*
X113261444Y-93173999D01*
X113300486Y-93219056D01*
X113304951Y-93227820D01*
X113429890Y-93399786D01*
X113580213Y-93550109D01*
X113752179Y-93675048D01*
X113752181Y-93675049D01*
X113752184Y-93675051D01*
X113941588Y-93771557D01*
X114143757Y-93837246D01*
X114353713Y-93870500D01*
X114353714Y-93870500D01*
X114566286Y-93870500D01*
X114566287Y-93870500D01*
X114776243Y-93837246D01*
X114978412Y-93771557D01*
X115167816Y-93675051D01*
X115254138Y-93612335D01*
X115339786Y-93550109D01*
X115339788Y-93550106D01*
X115339792Y-93550104D01*
X115490104Y-93399792D01*
X115490106Y-93399788D01*
X115490109Y-93399786D01*
X115615048Y-93227820D01*
X115615047Y-93227820D01*
X115615051Y-93227816D01*
X115619514Y-93219054D01*
X115667488Y-93168259D01*
X115735308Y-93151463D01*
X115801444Y-93173999D01*
X115840486Y-93219056D01*
X115844951Y-93227820D01*
X115969890Y-93399786D01*
X116120213Y-93550109D01*
X116292179Y-93675048D01*
X116292181Y-93675049D01*
X116292184Y-93675051D01*
X116481588Y-93771557D01*
X116683757Y-93837246D01*
X116893713Y-93870500D01*
X116893714Y-93870500D01*
X117106286Y-93870500D01*
X117106287Y-93870500D01*
X117316243Y-93837246D01*
X117518412Y-93771557D01*
X117707816Y-93675051D01*
X117794138Y-93612335D01*
X117879786Y-93550109D01*
X117879788Y-93550106D01*
X117879792Y-93550104D01*
X118030104Y-93399792D01*
X118030106Y-93399788D01*
X118030109Y-93399786D01*
X118155048Y-93227820D01*
X118155047Y-93227820D01*
X118155051Y-93227816D01*
X118159514Y-93219054D01*
X118207488Y-93168259D01*
X118275308Y-93151463D01*
X118341444Y-93173999D01*
X118380486Y-93219056D01*
X118384951Y-93227820D01*
X118509890Y-93399786D01*
X118660213Y-93550109D01*
X118832179Y-93675048D01*
X118832181Y-93675049D01*
X118832184Y-93675051D01*
X119021588Y-93771557D01*
X119223757Y-93837246D01*
X119433713Y-93870500D01*
X119433714Y-93870500D01*
X119646286Y-93870500D01*
X119646287Y-93870500D01*
X119856243Y-93837246D01*
X120058412Y-93771557D01*
X120247816Y-93675051D01*
X120334138Y-93612335D01*
X120419786Y-93550109D01*
X120419788Y-93550106D01*
X120419792Y-93550104D01*
X120570104Y-93399792D01*
X120570106Y-93399788D01*
X120570109Y-93399786D01*
X120695048Y-93227820D01*
X120695047Y-93227820D01*
X120695051Y-93227816D01*
X120699514Y-93219054D01*
X120747488Y-93168259D01*
X120815308Y-93151463D01*
X120881444Y-93173999D01*
X120920486Y-93219056D01*
X120924951Y-93227820D01*
X121049890Y-93399786D01*
X121200213Y-93550109D01*
X121372179Y-93675048D01*
X121372181Y-93675049D01*
X121372184Y-93675051D01*
X121561588Y-93771557D01*
X121763757Y-93837246D01*
X121973713Y-93870500D01*
X121973714Y-93870500D01*
X122186286Y-93870500D01*
X122186287Y-93870500D01*
X122396243Y-93837246D01*
X122598412Y-93771557D01*
X122787816Y-93675051D01*
X122874138Y-93612335D01*
X122959786Y-93550109D01*
X122959788Y-93550106D01*
X122959792Y-93550104D01*
X123110104Y-93399792D01*
X123110106Y-93399788D01*
X123110109Y-93399786D01*
X123235048Y-93227820D01*
X123235047Y-93227820D01*
X123235051Y-93227816D01*
X123239514Y-93219054D01*
X123287488Y-93168259D01*
X123355308Y-93151463D01*
X123421444Y-93173999D01*
X123460486Y-93219056D01*
X123464951Y-93227820D01*
X123589890Y-93399786D01*
X123740213Y-93550109D01*
X123912179Y-93675048D01*
X123912181Y-93675049D01*
X123912184Y-93675051D01*
X124101588Y-93771557D01*
X124303757Y-93837246D01*
X124513713Y-93870500D01*
X124513714Y-93870500D01*
X124726286Y-93870500D01*
X124726287Y-93870500D01*
X124936243Y-93837246D01*
X125138412Y-93771557D01*
X125327816Y-93675051D01*
X125414138Y-93612335D01*
X125499786Y-93550109D01*
X125499788Y-93550106D01*
X125499792Y-93550104D01*
X125650104Y-93399792D01*
X125650106Y-93399788D01*
X125650109Y-93399786D01*
X125775048Y-93227820D01*
X125775047Y-93227820D01*
X125775051Y-93227816D01*
X125779514Y-93219054D01*
X125827488Y-93168259D01*
X125895308Y-93151463D01*
X125961444Y-93173999D01*
X126000486Y-93219056D01*
X126004951Y-93227820D01*
X126129890Y-93399786D01*
X126280213Y-93550109D01*
X126452179Y-93675048D01*
X126452181Y-93675049D01*
X126452184Y-93675051D01*
X126641588Y-93771557D01*
X126843757Y-93837246D01*
X127053713Y-93870500D01*
X127053714Y-93870500D01*
X127266286Y-93870500D01*
X127266287Y-93870500D01*
X127476243Y-93837246D01*
X127678412Y-93771557D01*
X127867816Y-93675051D01*
X127954138Y-93612335D01*
X128039786Y-93550109D01*
X128039788Y-93550106D01*
X128039792Y-93550104D01*
X128190104Y-93399792D01*
X128190106Y-93399788D01*
X128190109Y-93399786D01*
X128315048Y-93227820D01*
X128315047Y-93227820D01*
X128315051Y-93227816D01*
X128411557Y-93038412D01*
X128477246Y-92836243D01*
X128510500Y-92626287D01*
X128510500Y-92413713D01*
X128477246Y-92203757D01*
X128411557Y-92001588D01*
X128315051Y-91812184D01*
X128315049Y-91812181D01*
X128315048Y-91812179D01*
X128190109Y-91640213D01*
X128039786Y-91489890D01*
X127867817Y-91364949D01*
X127858504Y-91360204D01*
X127807707Y-91312230D01*
X127790912Y-91244409D01*
X127813449Y-91178274D01*
X127858507Y-91139232D01*
X127867555Y-91134622D01*
X127921716Y-91095270D01*
X127921717Y-91095270D01*
X127289408Y-90462962D01*
X127352993Y-90445925D01*
X127467007Y-90380099D01*
X127560099Y-90287007D01*
X127625925Y-90172993D01*
X127642962Y-90109408D01*
X128275270Y-90741717D01*
X128275270Y-90741716D01*
X128314622Y-90687554D01*
X128411095Y-90498217D01*
X128476757Y-90296130D01*
X128476757Y-90296127D01*
X128510000Y-90086246D01*
X128510000Y-89873753D01*
X128476757Y-89663872D01*
X128476757Y-89663869D01*
X128411095Y-89461782D01*
X128314624Y-89272449D01*
X128275270Y-89218282D01*
X128275269Y-89218282D01*
X127642962Y-89850590D01*
X127625925Y-89787007D01*
X127560099Y-89672993D01*
X127467007Y-89579901D01*
X127352993Y-89514075D01*
X127289409Y-89497037D01*
X127921716Y-88864728D01*
X127867550Y-88825375D01*
X127678217Y-88728904D01*
X127476129Y-88663242D01*
X127266246Y-88630000D01*
X127053754Y-88630000D01*
X126843872Y-88663242D01*
X126843869Y-88663242D01*
X126641782Y-88728904D01*
X126452439Y-88825380D01*
X126398282Y-88864727D01*
X126398282Y-88864728D01*
X127030591Y-89497037D01*
X126967007Y-89514075D01*
X126852993Y-89579901D01*
X126759901Y-89672993D01*
X126694075Y-89787007D01*
X126677037Y-89850591D01*
X126044728Y-89218282D01*
X126044727Y-89218282D01*
X126005380Y-89272440D01*
X126005376Y-89272446D01*
X126000760Y-89281505D01*
X125952781Y-89332297D01*
X125884959Y-89349087D01*
X125818826Y-89326543D01*
X125779794Y-89281493D01*
X125775051Y-89272184D01*
X125775049Y-89272181D01*
X125775048Y-89272179D01*
X125650109Y-89100213D01*
X125499786Y-88949890D01*
X125327820Y-88824951D01*
X125138414Y-88728444D01*
X125138413Y-88728443D01*
X125138412Y-88728443D01*
X124936243Y-88662754D01*
X124936241Y-88662753D01*
X124936240Y-88662753D01*
X124774957Y-88637208D01*
X124726287Y-88629500D01*
X124513713Y-88629500D01*
X124465042Y-88637208D01*
X124303760Y-88662753D01*
X124101585Y-88728444D01*
X123912179Y-88824951D01*
X123740213Y-88949890D01*
X123589890Y-89100213D01*
X123464949Y-89272182D01*
X123460484Y-89280946D01*
X123412509Y-89331742D01*
X123344688Y-89348536D01*
X123278553Y-89325998D01*
X123239516Y-89280946D01*
X123235050Y-89272182D01*
X123110109Y-89100213D01*
X122959786Y-88949890D01*
X122787820Y-88824951D01*
X122598414Y-88728444D01*
X122598413Y-88728443D01*
X122598412Y-88728443D01*
X122396243Y-88662754D01*
X122396241Y-88662753D01*
X122396240Y-88662753D01*
X122234957Y-88637208D01*
X122186287Y-88629500D01*
X121973713Y-88629500D01*
X121925042Y-88637208D01*
X121763760Y-88662753D01*
X121561585Y-88728444D01*
X121372179Y-88824951D01*
X121200213Y-88949890D01*
X121049890Y-89100213D01*
X120924949Y-89272182D01*
X120920484Y-89280946D01*
X120872509Y-89331742D01*
X120804688Y-89348536D01*
X120738553Y-89325998D01*
X120699516Y-89280946D01*
X120695050Y-89272182D01*
X120570109Y-89100213D01*
X120419786Y-88949890D01*
X120247820Y-88824951D01*
X120058414Y-88728444D01*
X120058413Y-88728443D01*
X120058412Y-88728443D01*
X119856243Y-88662754D01*
X119856241Y-88662753D01*
X119856240Y-88662753D01*
X119694957Y-88637208D01*
X119646287Y-88629500D01*
X119433713Y-88629500D01*
X119385042Y-88637208D01*
X119223760Y-88662753D01*
X119021585Y-88728444D01*
X118832179Y-88824951D01*
X118660213Y-88949890D01*
X118509890Y-89100213D01*
X118384949Y-89272182D01*
X118380484Y-89280946D01*
X118332509Y-89331742D01*
X118264688Y-89348536D01*
X118198553Y-89325998D01*
X118159516Y-89280946D01*
X118155050Y-89272182D01*
X118030109Y-89100213D01*
X117879786Y-88949890D01*
X117707820Y-88824951D01*
X117518414Y-88728444D01*
X117518413Y-88728443D01*
X117518412Y-88728443D01*
X117316243Y-88662754D01*
X117316241Y-88662753D01*
X117316240Y-88662753D01*
X117154957Y-88637208D01*
X117106287Y-88629500D01*
X116893713Y-88629500D01*
X116845042Y-88637208D01*
X116683760Y-88662753D01*
X116481585Y-88728444D01*
X116292179Y-88824951D01*
X116120213Y-88949890D01*
X115969890Y-89100213D01*
X115844949Y-89272182D01*
X115840484Y-89280946D01*
X115792509Y-89331742D01*
X115724688Y-89348536D01*
X115658553Y-89325998D01*
X115619516Y-89280946D01*
X115615050Y-89272182D01*
X115490109Y-89100213D01*
X115339786Y-88949890D01*
X115167820Y-88824951D01*
X114978414Y-88728444D01*
X114978413Y-88728443D01*
X114978412Y-88728443D01*
X114776243Y-88662754D01*
X114776241Y-88662753D01*
X114776240Y-88662753D01*
X114614957Y-88637208D01*
X114566287Y-88629500D01*
X114353713Y-88629500D01*
X114305042Y-88637208D01*
X114143760Y-88662753D01*
X113941585Y-88728444D01*
X113752179Y-88824951D01*
X113580213Y-88949890D01*
X113429890Y-89100213D01*
X113304949Y-89272182D01*
X113300484Y-89280946D01*
X113252509Y-89331742D01*
X113184688Y-89348536D01*
X113118553Y-89325998D01*
X113079516Y-89280946D01*
X113075050Y-89272182D01*
X112950109Y-89100213D01*
X112799786Y-88949890D01*
X112627820Y-88824951D01*
X112438414Y-88728444D01*
X112438413Y-88728443D01*
X112438412Y-88728443D01*
X112236243Y-88662754D01*
X112236241Y-88662753D01*
X112236240Y-88662753D01*
X112074957Y-88637208D01*
X112026287Y-88629500D01*
X111813713Y-88629500D01*
X111765042Y-88637208D01*
X111603760Y-88662753D01*
X111401585Y-88728444D01*
X111212179Y-88824951D01*
X111040213Y-88949890D01*
X110889890Y-89100213D01*
X110764949Y-89272182D01*
X110760484Y-89280946D01*
X110712509Y-89331742D01*
X110644688Y-89348536D01*
X110578553Y-89325998D01*
X110539516Y-89280946D01*
X110535050Y-89272182D01*
X110410109Y-89100213D01*
X110259786Y-88949890D01*
X110087820Y-88824951D01*
X109898414Y-88728444D01*
X109898413Y-88728443D01*
X109898412Y-88728443D01*
X109696243Y-88662754D01*
X109696241Y-88662753D01*
X109696240Y-88662753D01*
X109534957Y-88637208D01*
X109486287Y-88629500D01*
X109273713Y-88629500D01*
X109225042Y-88637208D01*
X109063760Y-88662753D01*
X108861585Y-88728444D01*
X108672179Y-88824951D01*
X108500213Y-88949890D01*
X108349890Y-89100213D01*
X108224949Y-89272182D01*
X108220202Y-89281499D01*
X108172227Y-89332293D01*
X108104405Y-89349087D01*
X108038271Y-89326548D01*
X107999234Y-89281495D01*
X107994626Y-89272452D01*
X107955270Y-89218282D01*
X107955269Y-89218282D01*
X107322962Y-89850590D01*
X107305925Y-89787007D01*
X107240099Y-89672993D01*
X107147007Y-89579901D01*
X107032993Y-89514075D01*
X106969409Y-89497037D01*
X107601716Y-88864728D01*
X107547550Y-88825375D01*
X107358217Y-88728904D01*
X107156129Y-88663242D01*
X106946246Y-88630000D01*
X106733754Y-88630000D01*
X106523872Y-88663242D01*
X106523869Y-88663242D01*
X106321782Y-88728904D01*
X106132439Y-88825380D01*
X106078282Y-88864727D01*
X106078282Y-88864728D01*
X106710591Y-89497037D01*
X106647007Y-89514075D01*
X106532993Y-89579901D01*
X106439901Y-89672993D01*
X106374075Y-89787007D01*
X106357037Y-89850591D01*
X105724728Y-89218282D01*
X105724727Y-89218282D01*
X105685380Y-89272439D01*
X105588904Y-89461782D01*
X105523242Y-89663869D01*
X105523242Y-89663872D01*
X105490000Y-89873753D01*
X105490000Y-90086246D01*
X105523242Y-90296127D01*
X105523242Y-90296130D01*
X105588904Y-90498217D01*
X105685375Y-90687550D01*
X105724728Y-90741716D01*
X106357037Y-90109408D01*
X106374075Y-90172993D01*
X106439901Y-90287007D01*
X106532993Y-90380099D01*
X106647007Y-90445925D01*
X106710590Y-90462962D01*
X106040370Y-91133181D01*
X105979047Y-91166666D01*
X105952698Y-91169500D01*
X105942134Y-91169500D01*
X105942123Y-91169501D01*
X105882516Y-91175908D01*
X105747671Y-91226202D01*
X105747664Y-91226206D01*
X105632455Y-91312452D01*
X105632452Y-91312455D01*
X105546206Y-91427664D01*
X105546202Y-91427671D01*
X105495908Y-91562517D01*
X105489501Y-91622116D01*
X105489500Y-91622135D01*
X74000500Y-91622135D01*
X74000500Y-89528729D01*
X75178702Y-89528729D01*
X75178702Y-89686422D01*
X75209463Y-89841065D01*
X75209466Y-89841077D01*
X75269804Y-89986748D01*
X75269811Y-89986761D01*
X75357412Y-90117864D01*
X75357415Y-90117868D01*
X75468909Y-90229362D01*
X75468913Y-90229365D01*
X75600016Y-90316966D01*
X75600029Y-90316973D01*
X75745700Y-90377311D01*
X75745705Y-90377313D01*
X75900355Y-90408075D01*
X75900358Y-90408076D01*
X75900360Y-90408076D01*
X76058046Y-90408076D01*
X76058047Y-90408075D01*
X76212699Y-90377313D01*
X76358381Y-90316970D01*
X76489491Y-90229365D01*
X76600991Y-90117865D01*
X76688596Y-89986755D01*
X76748939Y-89841073D01*
X76779702Y-89686418D01*
X76779702Y-89528734D01*
X76779702Y-89528731D01*
X76779701Y-89528729D01*
X76760648Y-89432944D01*
X76748939Y-89374079D01*
X76734878Y-89340132D01*
X76688599Y-89228403D01*
X76688592Y-89228390D01*
X76600991Y-89097287D01*
X76600988Y-89097283D01*
X76489494Y-88985789D01*
X76489490Y-88985786D01*
X76358387Y-88898185D01*
X76358374Y-88898178D01*
X76212703Y-88837840D01*
X76212691Y-88837837D01*
X76058047Y-88807076D01*
X76058044Y-88807076D01*
X75900360Y-88807076D01*
X75900357Y-88807076D01*
X75745712Y-88837837D01*
X75745700Y-88837840D01*
X75600029Y-88898178D01*
X75600016Y-88898185D01*
X75468913Y-88985786D01*
X75468909Y-88985789D01*
X75357415Y-89097283D01*
X75357412Y-89097287D01*
X75269811Y-89228390D01*
X75269804Y-89228403D01*
X75209466Y-89374074D01*
X75209463Y-89374086D01*
X75178702Y-89528729D01*
X74000500Y-89528729D01*
X74000500Y-88610358D01*
X77199500Y-88610358D01*
X77199500Y-88768051D01*
X77230261Y-88922694D01*
X77230264Y-88922706D01*
X77281810Y-89047150D01*
X77289279Y-89116619D01*
X77281810Y-89142054D01*
X77230264Y-89266498D01*
X77230261Y-89266510D01*
X77199500Y-89421153D01*
X77199500Y-89578846D01*
X77230261Y-89733489D01*
X77230264Y-89733501D01*
X77290602Y-89879172D01*
X77290609Y-89879185D01*
X77378210Y-90010288D01*
X77378213Y-90010292D01*
X77489707Y-90121786D01*
X77489711Y-90121789D01*
X77620814Y-90209390D01*
X77620827Y-90209397D01*
X77766498Y-90269735D01*
X77766503Y-90269737D01*
X77853325Y-90287007D01*
X77921153Y-90300499D01*
X77921156Y-90300500D01*
X77921158Y-90300500D01*
X78078844Y-90300500D01*
X78078845Y-90300499D01*
X78233497Y-90269737D01*
X78379179Y-90209394D01*
X78510289Y-90121789D01*
X78621789Y-90010289D01*
X78709394Y-89879179D01*
X78769737Y-89733497D01*
X78800500Y-89578842D01*
X78800500Y-89421158D01*
X78800500Y-89421155D01*
X78800499Y-89421153D01*
X78782824Y-89332297D01*
X78769737Y-89266503D01*
X78718188Y-89142053D01*
X78714908Y-89111538D01*
X78709906Y-89083813D01*
X79662706Y-89083813D01*
X79791652Y-89137225D01*
X79791656Y-89137226D01*
X79946202Y-89167967D01*
X79946206Y-89167968D01*
X80103794Y-89167968D01*
X80103797Y-89167967D01*
X80258343Y-89137226D01*
X80258347Y-89137225D01*
X80387293Y-89083813D01*
X80662706Y-89083813D01*
X80791652Y-89137225D01*
X80791656Y-89137226D01*
X80946202Y-89167967D01*
X80946206Y-89167968D01*
X81103794Y-89167968D01*
X81103797Y-89167967D01*
X81258343Y-89137226D01*
X81258347Y-89137225D01*
X81387293Y-89083813D01*
X81224633Y-88921153D01*
X90199500Y-88921153D01*
X90199500Y-89078846D01*
X90230261Y-89233489D01*
X90230264Y-89233501D01*
X90290602Y-89379172D01*
X90290609Y-89379185D01*
X90378210Y-89510288D01*
X90378213Y-89510292D01*
X90489707Y-89621786D01*
X90489711Y-89621789D01*
X90620814Y-89709390D01*
X90620827Y-89709397D01*
X90739123Y-89758396D01*
X90766503Y-89769737D01*
X90853325Y-89787007D01*
X90921153Y-89800499D01*
X90921156Y-89800500D01*
X90921158Y-89800500D01*
X91078844Y-89800500D01*
X91078845Y-89800499D01*
X91233497Y-89769737D01*
X91379179Y-89709394D01*
X91510289Y-89621789D01*
X91621789Y-89510289D01*
X91709394Y-89379179D01*
X91711507Y-89374079D01*
X91731422Y-89325998D01*
X91769737Y-89233497D01*
X91800500Y-89078842D01*
X91800500Y-88921158D01*
X91800500Y-88921155D01*
X91800499Y-88921153D01*
X91789275Y-88864727D01*
X91769737Y-88766503D01*
X91750004Y-88718863D01*
X91709397Y-88620827D01*
X91709390Y-88620814D01*
X91621789Y-88489711D01*
X91621786Y-88489707D01*
X91510292Y-88378213D01*
X91510288Y-88378210D01*
X91379185Y-88290609D01*
X91379172Y-88290602D01*
X91233501Y-88230264D01*
X91233489Y-88230261D01*
X91078845Y-88199500D01*
X91078842Y-88199500D01*
X90921158Y-88199500D01*
X90921155Y-88199500D01*
X90766510Y-88230261D01*
X90766498Y-88230264D01*
X90620827Y-88290602D01*
X90620814Y-88290609D01*
X90489711Y-88378210D01*
X90489707Y-88378213D01*
X90378213Y-88489707D01*
X90378210Y-88489711D01*
X90290609Y-88620814D01*
X90290602Y-88620827D01*
X90230264Y-88766498D01*
X90230261Y-88766510D01*
X90199500Y-88921153D01*
X81224633Y-88921153D01*
X81025001Y-88721521D01*
X81025000Y-88721521D01*
X80662706Y-89083813D01*
X80387293Y-89083813D01*
X80025001Y-88721521D01*
X80025000Y-88721521D01*
X79662706Y-89083813D01*
X78709906Y-89083813D01*
X78709461Y-89081346D01*
X78711009Y-89075278D01*
X78710720Y-89072585D01*
X78718189Y-89047150D01*
X78769737Y-88922702D01*
X78800500Y-88768047D01*
X78800500Y-88610363D01*
X78800500Y-88610360D01*
X78800499Y-88610358D01*
X78798613Y-88600875D01*
X78769737Y-88455708D01*
X78766033Y-88446765D01*
X78717906Y-88330575D01*
X78717890Y-88330537D01*
X78716909Y-88328170D01*
X78709394Y-88310026D01*
X78709391Y-88310021D01*
X78709390Y-88310019D01*
X78695459Y-88289170D01*
X79225000Y-88289170D01*
X79225000Y-88446765D01*
X79255741Y-88601311D01*
X79255743Y-88601319D01*
X79309153Y-88730261D01*
X79671446Y-88367969D01*
X79671446Y-88367967D01*
X79641610Y-88338131D01*
X79875000Y-88338131D01*
X79875000Y-88397805D01*
X79897836Y-88452936D01*
X79940032Y-88495132D01*
X79995163Y-88517968D01*
X80054837Y-88517968D01*
X80109968Y-88495132D01*
X80152164Y-88452936D01*
X80175000Y-88397805D01*
X80175000Y-88367967D01*
X80378553Y-88367967D01*
X80525000Y-88514414D01*
X80671446Y-88367969D01*
X80671446Y-88367968D01*
X80641609Y-88338131D01*
X80875000Y-88338131D01*
X80875000Y-88397805D01*
X80897836Y-88452936D01*
X80940032Y-88495132D01*
X80995163Y-88517968D01*
X81054837Y-88517968D01*
X81109968Y-88495132D01*
X81152164Y-88452936D01*
X81175000Y-88397805D01*
X81175000Y-88367967D01*
X81378553Y-88367967D01*
X81378553Y-88367969D01*
X81740845Y-88730261D01*
X81794257Y-88601315D01*
X81794258Y-88601311D01*
X81824999Y-88446765D01*
X81825000Y-88446762D01*
X81825000Y-88289174D01*
X81824999Y-88289170D01*
X81794258Y-88134624D01*
X81794257Y-88134620D01*
X81740845Y-88005674D01*
X81378553Y-88367967D01*
X81175000Y-88367967D01*
X81175000Y-88338131D01*
X81152164Y-88283000D01*
X81109968Y-88240804D01*
X81054837Y-88217968D01*
X80995163Y-88217968D01*
X80940032Y-88240804D01*
X80897836Y-88283000D01*
X80875000Y-88338131D01*
X80641609Y-88338131D01*
X80525000Y-88221521D01*
X80378553Y-88367967D01*
X80175000Y-88367967D01*
X80175000Y-88338131D01*
X80152164Y-88283000D01*
X80109968Y-88240804D01*
X80054837Y-88217968D01*
X79995163Y-88217968D01*
X79940032Y-88240804D01*
X79897836Y-88283000D01*
X79875000Y-88338131D01*
X79641610Y-88338131D01*
X79309153Y-88005673D01*
X79255743Y-88134616D01*
X79255741Y-88134624D01*
X79225000Y-88289170D01*
X78695459Y-88289170D01*
X78621789Y-88178916D01*
X78621786Y-88178912D01*
X78510292Y-88067418D01*
X78510288Y-88067415D01*
X78379185Y-87979814D01*
X78379172Y-87979807D01*
X78233501Y-87919469D01*
X78233489Y-87919466D01*
X78078845Y-87888705D01*
X78078842Y-87888705D01*
X77921158Y-87888705D01*
X77921155Y-87888705D01*
X77766510Y-87919466D01*
X77766498Y-87919469D01*
X77620827Y-87979807D01*
X77620814Y-87979814D01*
X77489711Y-88067415D01*
X77489707Y-88067418D01*
X77378213Y-88178912D01*
X77378210Y-88178916D01*
X77290609Y-88310019D01*
X77290602Y-88310032D01*
X77230264Y-88455703D01*
X77230261Y-88455715D01*
X77199500Y-88610358D01*
X74000500Y-88610358D01*
X74000500Y-87867967D01*
X79878553Y-87867967D01*
X80025000Y-88014414D01*
X80171446Y-87867969D01*
X80171446Y-87867968D01*
X80141609Y-87838131D01*
X80375000Y-87838131D01*
X80375000Y-87897805D01*
X80397836Y-87952936D01*
X80440032Y-87995132D01*
X80495163Y-88017968D01*
X80554837Y-88017968D01*
X80609968Y-87995132D01*
X80652164Y-87952936D01*
X80675000Y-87897805D01*
X80675000Y-87867967D01*
X80878553Y-87867967D01*
X81025000Y-88014414D01*
X81171446Y-87867969D01*
X81171446Y-87867968D01*
X81055772Y-87752293D01*
X86219237Y-87752293D01*
X86219237Y-87909986D01*
X86249998Y-88064629D01*
X86250001Y-88064641D01*
X86310339Y-88210312D01*
X86310346Y-88210325D01*
X86397947Y-88341428D01*
X86397950Y-88341432D01*
X86509444Y-88452926D01*
X86509448Y-88452929D01*
X86640551Y-88540530D01*
X86640564Y-88540537D01*
X86786235Y-88600875D01*
X86786240Y-88600877D01*
X86886505Y-88620821D01*
X86940890Y-88631639D01*
X86940893Y-88631640D01*
X86940895Y-88631640D01*
X87098581Y-88631640D01*
X87098582Y-88631639D01*
X87253234Y-88600877D01*
X87398916Y-88540534D01*
X87530026Y-88452929D01*
X87641526Y-88341429D01*
X87729131Y-88210319D01*
X87789474Y-88064637D01*
X87820237Y-87909982D01*
X87820237Y-87813591D01*
X99378571Y-87813591D01*
X99378571Y-89163609D01*
X99378572Y-89163626D01*
X99389071Y-89266404D01*
X99389072Y-89266407D01*
X99444256Y-89432939D01*
X99444258Y-89432944D01*
X99467671Y-89470902D01*
X99536359Y-89582264D01*
X99660415Y-89706320D01*
X99809737Y-89798422D01*
X99976274Y-89853607D01*
X100079062Y-89864108D01*
X100879079Y-89864107D01*
X100879087Y-89864106D01*
X100879090Y-89864106D01*
X100935373Y-89858356D01*
X100981868Y-89853607D01*
X101148405Y-89798422D01*
X101297727Y-89706320D01*
X101421783Y-89582264D01*
X101461652Y-89517624D01*
X101513596Y-89470902D01*
X101582559Y-89459679D01*
X101646641Y-89487522D01*
X101654870Y-89495042D01*
X101762468Y-89602640D01*
X101902546Y-89704412D01*
X102056815Y-89783016D01*
X102221486Y-89836522D01*
X102221485Y-89836522D01*
X102229070Y-89837723D01*
X102229071Y-89837722D01*
X102229071Y-88768938D01*
X102248816Y-88788683D01*
X102334326Y-88838052D01*
X102429701Y-88863608D01*
X102528441Y-88863608D01*
X102623816Y-88838052D01*
X102709326Y-88788683D01*
X102729071Y-88768938D01*
X102729071Y-89837723D01*
X102736655Y-89836522D01*
X102901326Y-89783016D01*
X102949647Y-89758396D01*
X103055595Y-89704412D01*
X103195673Y-89602640D01*
X103318103Y-89480210D01*
X103419875Y-89340132D01*
X103498479Y-89185865D01*
X103551985Y-89021192D01*
X103572354Y-88892589D01*
X103579071Y-88850179D01*
X103579071Y-88738608D01*
X102759401Y-88738608D01*
X102779146Y-88718863D01*
X102828515Y-88633353D01*
X102854071Y-88537978D01*
X102854071Y-88439238D01*
X102828515Y-88343863D01*
X102779146Y-88258353D01*
X102759401Y-88238608D01*
X103579071Y-88238608D01*
X103579071Y-88127036D01*
X103551985Y-87956023D01*
X103498479Y-87791350D01*
X103419875Y-87637083D01*
X103318103Y-87497005D01*
X103242251Y-87421153D01*
X131409500Y-87421153D01*
X131409500Y-87578846D01*
X131440261Y-87733489D01*
X131440264Y-87733501D01*
X131500602Y-87879172D01*
X131500609Y-87879185D01*
X131588210Y-88010288D01*
X131588213Y-88010292D01*
X131699707Y-88121786D01*
X131699711Y-88121789D01*
X131830814Y-88209390D01*
X131830827Y-88209397D01*
X131949019Y-88258353D01*
X131976503Y-88269737D01*
X132131153Y-88300499D01*
X132131156Y-88300500D01*
X132131158Y-88300500D01*
X132288844Y-88300500D01*
X132288845Y-88300499D01*
X132443497Y-88269737D01*
X132568479Y-88217968D01*
X132589172Y-88209397D01*
X132589172Y-88209396D01*
X132589179Y-88209394D01*
X132720289Y-88121789D01*
X132831789Y-88010289D01*
X132919394Y-87879179D01*
X132979737Y-87733497D01*
X133010500Y-87578842D01*
X133010500Y-87421158D01*
X133010500Y-87421155D01*
X133010499Y-87421153D01*
X132999920Y-87367968D01*
X132979737Y-87266503D01*
X132961105Y-87221521D01*
X132919397Y-87120827D01*
X132919390Y-87120814D01*
X132831789Y-86989711D01*
X132831786Y-86989707D01*
X132720292Y-86878213D01*
X132720288Y-86878210D01*
X132589185Y-86790609D01*
X132589172Y-86790602D01*
X132443501Y-86730264D01*
X132443489Y-86730261D01*
X132288845Y-86699500D01*
X132288842Y-86699500D01*
X132131158Y-86699500D01*
X132131155Y-86699500D01*
X131976510Y-86730261D01*
X131976498Y-86730264D01*
X131830827Y-86790602D01*
X131830814Y-86790609D01*
X131699711Y-86878210D01*
X131699707Y-86878213D01*
X131588213Y-86989707D01*
X131588210Y-86989711D01*
X131500609Y-87120814D01*
X131500602Y-87120827D01*
X131440264Y-87266498D01*
X131440261Y-87266510D01*
X131409500Y-87421153D01*
X103242251Y-87421153D01*
X103195673Y-87374575D01*
X103055595Y-87272803D01*
X102901328Y-87194199D01*
X102736660Y-87140695D01*
X102736652Y-87140693D01*
X102729071Y-87139492D01*
X102729071Y-88208278D01*
X102709326Y-88188533D01*
X102623816Y-88139164D01*
X102528441Y-88113608D01*
X102429701Y-88113608D01*
X102334326Y-88139164D01*
X102248816Y-88188533D01*
X102229071Y-88208278D01*
X102229071Y-87139492D01*
X102229070Y-87139492D01*
X102221489Y-87140693D01*
X102221481Y-87140695D01*
X102056813Y-87194199D01*
X101902546Y-87272803D01*
X101762472Y-87374572D01*
X101654870Y-87482174D01*
X101593547Y-87515658D01*
X101523855Y-87510674D01*
X101467922Y-87468802D01*
X101461656Y-87459596D01*
X101421783Y-87394952D01*
X101297727Y-87270896D01*
X101197946Y-87209351D01*
X101148407Y-87178795D01*
X101148402Y-87178793D01*
X101146933Y-87178306D01*
X100981868Y-87123609D01*
X100981866Y-87123608D01*
X100879081Y-87113108D01*
X100079069Y-87113108D01*
X100079051Y-87113109D01*
X99976274Y-87123608D01*
X99976271Y-87123609D01*
X99809739Y-87178793D01*
X99809734Y-87178795D01*
X99660413Y-87270897D01*
X99536360Y-87394950D01*
X99444258Y-87544271D01*
X99444256Y-87544276D01*
X99432801Y-87578846D01*
X99389072Y-87710811D01*
X99389072Y-87710812D01*
X99389071Y-87710812D01*
X99378571Y-87813591D01*
X87820237Y-87813591D01*
X87820237Y-87752298D01*
X87820237Y-87752295D01*
X87820236Y-87752293D01*
X87816496Y-87733489D01*
X87789474Y-87597643D01*
X87781687Y-87578844D01*
X87729134Y-87451967D01*
X87729127Y-87451954D01*
X87641526Y-87320851D01*
X87641523Y-87320847D01*
X87530029Y-87209353D01*
X87530025Y-87209350D01*
X87398922Y-87121749D01*
X87398909Y-87121742D01*
X87318801Y-87088561D01*
X87264397Y-87044720D01*
X87242332Y-86978426D01*
X87259611Y-86910727D01*
X87310748Y-86863116D01*
X87366253Y-86850000D01*
X87750000Y-86850000D01*
X87750000Y-85933012D01*
X87807007Y-85965925D01*
X87934174Y-86000000D01*
X88065826Y-86000000D01*
X88192993Y-85965925D01*
X88250000Y-85933012D01*
X88250000Y-86850000D01*
X88897828Y-86850000D01*
X88897844Y-86849999D01*
X88957372Y-86843598D01*
X88957379Y-86843596D01*
X89092086Y-86793354D01*
X89092093Y-86793350D01*
X89207187Y-86707190D01*
X89207190Y-86707187D01*
X89293350Y-86592093D01*
X89293354Y-86592086D01*
X89343596Y-86457379D01*
X89343598Y-86457372D01*
X89349999Y-86397844D01*
X89350000Y-86397827D01*
X89350000Y-85750000D01*
X88433012Y-85750000D01*
X88465925Y-85692993D01*
X88500000Y-85565826D01*
X88500000Y-85434174D01*
X88465925Y-85307007D01*
X88433012Y-85250000D01*
X89350000Y-85250000D01*
X89350000Y-84602164D01*
X89349997Y-84602135D01*
X94649500Y-84602135D01*
X94649500Y-86397870D01*
X94649501Y-86397876D01*
X94655908Y-86457483D01*
X94706202Y-86592328D01*
X94706206Y-86592335D01*
X94792452Y-86707544D01*
X94792455Y-86707547D01*
X94907664Y-86793793D01*
X94907671Y-86793797D01*
X95042517Y-86844091D01*
X95042516Y-86844091D01*
X95049444Y-86844835D01*
X95102127Y-86850500D01*
X96897872Y-86850499D01*
X96957483Y-86844091D01*
X97092331Y-86793796D01*
X97207546Y-86707546D01*
X97293796Y-86592331D01*
X97344091Y-86457483D01*
X97350500Y-86397873D01*
X97350499Y-84602128D01*
X97344091Y-84542517D01*
X97293884Y-84407906D01*
X97293797Y-84407671D01*
X97293793Y-84407664D01*
X97207547Y-84292455D01*
X97207544Y-84292452D01*
X97092335Y-84206206D01*
X97092328Y-84206202D01*
X96957482Y-84155908D01*
X96957483Y-84155908D01*
X96897883Y-84149501D01*
X96897881Y-84149500D01*
X96897873Y-84149500D01*
X96897864Y-84149500D01*
X95102129Y-84149500D01*
X95102123Y-84149501D01*
X95042516Y-84155908D01*
X94907671Y-84206202D01*
X94907664Y-84206206D01*
X94792455Y-84292452D01*
X94792452Y-84292455D01*
X94706206Y-84407664D01*
X94706202Y-84407671D01*
X94655908Y-84542517D01*
X94649501Y-84602116D01*
X94649501Y-84602123D01*
X94649500Y-84602135D01*
X89349997Y-84602135D01*
X89343598Y-84542627D01*
X89343596Y-84542620D01*
X89293354Y-84407913D01*
X89293350Y-84407906D01*
X89207190Y-84292812D01*
X89207187Y-84292809D01*
X89092093Y-84206649D01*
X89092086Y-84206645D01*
X88957379Y-84156403D01*
X88957372Y-84156401D01*
X88897844Y-84150000D01*
X88250000Y-84150000D01*
X88250000Y-85066988D01*
X88192993Y-85034075D01*
X88065826Y-85000000D01*
X87934174Y-85000000D01*
X87807007Y-85034075D01*
X87750000Y-85066988D01*
X87750000Y-84150000D01*
X87102155Y-84150000D01*
X87042627Y-84156401D01*
X87042620Y-84156403D01*
X86907913Y-84206645D01*
X86907906Y-84206649D01*
X86792812Y-84292809D01*
X86792809Y-84292812D01*
X86706649Y-84407906D01*
X86706645Y-84407913D01*
X86656403Y-84542620D01*
X86656401Y-84542627D01*
X86650000Y-84602155D01*
X86650000Y-85250000D01*
X87566988Y-85250000D01*
X87534075Y-85307007D01*
X87500000Y-85434174D01*
X87500000Y-85565826D01*
X87534075Y-85692993D01*
X87566988Y-85750000D01*
X86650000Y-85750000D01*
X86650000Y-86397844D01*
X86656401Y-86457372D01*
X86656403Y-86457379D01*
X86706645Y-86592086D01*
X86706649Y-86592093D01*
X86792809Y-86707187D01*
X86792812Y-86707190D01*
X86907906Y-86793350D01*
X86907913Y-86793354D01*
X86925144Y-86799781D01*
X86981078Y-86841652D01*
X87005495Y-86907117D01*
X86990643Y-86975390D01*
X86941238Y-87024795D01*
X86906003Y-87037580D01*
X86786245Y-87061401D01*
X86786235Y-87061404D01*
X86640564Y-87121742D01*
X86640551Y-87121749D01*
X86509448Y-87209350D01*
X86509444Y-87209353D01*
X86397950Y-87320847D01*
X86397947Y-87320851D01*
X86310346Y-87451954D01*
X86310339Y-87451967D01*
X86250001Y-87597638D01*
X86249998Y-87597650D01*
X86219237Y-87752293D01*
X81055772Y-87752293D01*
X81025000Y-87721521D01*
X80878553Y-87867967D01*
X80675000Y-87867967D01*
X80675000Y-87838131D01*
X80652164Y-87783000D01*
X80609968Y-87740804D01*
X80554837Y-87717968D01*
X80495163Y-87717968D01*
X80440032Y-87740804D01*
X80397836Y-87783000D01*
X80375000Y-87838131D01*
X80141609Y-87838131D01*
X80025000Y-87721521D01*
X79878553Y-87867967D01*
X74000500Y-87867967D01*
X74000500Y-87289170D01*
X79225000Y-87289170D01*
X79225000Y-87446765D01*
X79255741Y-87601311D01*
X79255743Y-87601319D01*
X79309153Y-87730261D01*
X79310490Y-87728925D01*
X79671446Y-87367969D01*
X79671446Y-87367967D01*
X79641610Y-87338131D01*
X79875000Y-87338131D01*
X79875000Y-87397805D01*
X79897836Y-87452936D01*
X79940032Y-87495132D01*
X79995163Y-87517968D01*
X80054837Y-87517968D01*
X80109968Y-87495132D01*
X80152164Y-87452936D01*
X80175000Y-87397805D01*
X80175000Y-87367967D01*
X80378553Y-87367967D01*
X80525000Y-87514414D01*
X80671446Y-87367969D01*
X80671446Y-87367968D01*
X80641609Y-87338131D01*
X80875000Y-87338131D01*
X80875000Y-87397805D01*
X80897836Y-87452936D01*
X80940032Y-87495132D01*
X80995163Y-87517968D01*
X81054837Y-87517968D01*
X81109968Y-87495132D01*
X81152164Y-87452936D01*
X81175000Y-87397805D01*
X81175000Y-87367967D01*
X81378553Y-87367967D01*
X81378553Y-87367969D01*
X81740845Y-87730261D01*
X81753897Y-87698752D01*
X81794257Y-87601315D01*
X81794258Y-87601311D01*
X81824999Y-87446765D01*
X81825000Y-87446762D01*
X81825000Y-87289174D01*
X81824999Y-87289170D01*
X81794258Y-87134624D01*
X81794257Y-87134620D01*
X81740845Y-87005674D01*
X81378553Y-87367967D01*
X81175000Y-87367967D01*
X81175000Y-87338131D01*
X81152164Y-87283000D01*
X81109968Y-87240804D01*
X81054837Y-87217968D01*
X80995163Y-87217968D01*
X80940032Y-87240804D01*
X80897836Y-87283000D01*
X80875000Y-87338131D01*
X80641609Y-87338131D01*
X80525000Y-87221521D01*
X80378553Y-87367967D01*
X80175000Y-87367967D01*
X80175000Y-87338131D01*
X80152164Y-87283000D01*
X80109968Y-87240804D01*
X80054837Y-87217968D01*
X79995163Y-87217968D01*
X79940032Y-87240804D01*
X79897836Y-87283000D01*
X79875000Y-87338131D01*
X79641610Y-87338131D01*
X79309153Y-87005673D01*
X79255743Y-87134616D01*
X79255741Y-87134624D01*
X79225000Y-87289170D01*
X74000500Y-87289170D01*
X74000500Y-85921153D01*
X77199500Y-85921153D01*
X77199500Y-86078846D01*
X77230261Y-86233489D01*
X77230264Y-86233501D01*
X77290602Y-86379172D01*
X77290609Y-86379185D01*
X77378210Y-86510288D01*
X77378213Y-86510292D01*
X77489707Y-86621786D01*
X77489711Y-86621789D01*
X77620814Y-86709390D01*
X77620827Y-86709397D01*
X77766498Y-86769735D01*
X77766503Y-86769737D01*
X77885213Y-86793350D01*
X77921153Y-86800499D01*
X77921156Y-86800500D01*
X77921158Y-86800500D01*
X78078844Y-86800500D01*
X78078845Y-86800499D01*
X78233497Y-86769737D01*
X78379179Y-86709394D01*
X78464894Y-86652121D01*
X79662705Y-86652121D01*
X80025000Y-87014414D01*
X80025001Y-87014414D01*
X80387293Y-86652121D01*
X80662705Y-86652121D01*
X81025000Y-87014414D01*
X81025001Y-87014414D01*
X81387293Y-86652121D01*
X81258351Y-86598711D01*
X81258343Y-86598709D01*
X81103797Y-86567968D01*
X80946202Y-86567968D01*
X80791656Y-86598709D01*
X80791648Y-86598711D01*
X80662705Y-86652121D01*
X80387293Y-86652121D01*
X80258351Y-86598711D01*
X80258343Y-86598709D01*
X80103797Y-86567968D01*
X79946202Y-86567968D01*
X79791656Y-86598709D01*
X79791648Y-86598711D01*
X79662705Y-86652121D01*
X78464894Y-86652121D01*
X78510289Y-86621789D01*
X78510292Y-86621786D01*
X78526824Y-86605255D01*
X78621786Y-86510292D01*
X78621789Y-86510289D01*
X78709394Y-86379179D01*
X78769737Y-86233497D01*
X78800500Y-86078842D01*
X78800500Y-85921158D01*
X78800500Y-85921155D01*
X78800499Y-85921153D01*
X82199500Y-85921153D01*
X82199500Y-86078846D01*
X82230261Y-86233489D01*
X82230264Y-86233501D01*
X82290602Y-86379172D01*
X82290609Y-86379185D01*
X82378210Y-86510288D01*
X82378213Y-86510292D01*
X82489707Y-86621786D01*
X82489711Y-86621789D01*
X82620814Y-86709390D01*
X82620827Y-86709397D01*
X82766498Y-86769735D01*
X82766503Y-86769737D01*
X82885213Y-86793350D01*
X82921153Y-86800499D01*
X82921156Y-86800500D01*
X82921158Y-86800500D01*
X83078844Y-86800500D01*
X83078845Y-86800499D01*
X83233497Y-86769737D01*
X83379179Y-86709394D01*
X83510289Y-86621789D01*
X83621789Y-86510289D01*
X83709394Y-86379179D01*
X83769737Y-86233497D01*
X83800500Y-86078842D01*
X83800500Y-85921158D01*
X83800500Y-85921155D01*
X83800499Y-85921153D01*
X84699500Y-85921153D01*
X84699500Y-86078846D01*
X84730261Y-86233489D01*
X84730264Y-86233501D01*
X84790602Y-86379172D01*
X84790609Y-86379185D01*
X84878210Y-86510288D01*
X84878213Y-86510292D01*
X84989707Y-86621786D01*
X84989711Y-86621789D01*
X85120814Y-86709390D01*
X85120827Y-86709397D01*
X85266498Y-86769735D01*
X85266503Y-86769737D01*
X85385213Y-86793350D01*
X85421153Y-86800499D01*
X85421156Y-86800500D01*
X85421158Y-86800500D01*
X85578844Y-86800500D01*
X85578845Y-86800499D01*
X85733497Y-86769737D01*
X85879179Y-86709394D01*
X86010289Y-86621789D01*
X86121789Y-86510289D01*
X86209394Y-86379179D01*
X86269737Y-86233497D01*
X86300500Y-86078842D01*
X86300500Y-85921158D01*
X86300500Y-85921155D01*
X86300499Y-85921153D01*
X86269738Y-85766510D01*
X86269737Y-85766503D01*
X86262901Y-85750000D01*
X86209397Y-85620827D01*
X86209390Y-85620814D01*
X86121789Y-85489711D01*
X86121786Y-85489707D01*
X86010292Y-85378213D01*
X86010288Y-85378210D01*
X85879185Y-85290609D01*
X85879172Y-85290602D01*
X85733501Y-85230264D01*
X85733489Y-85230261D01*
X85578845Y-85199500D01*
X85578842Y-85199500D01*
X85421158Y-85199500D01*
X85421155Y-85199500D01*
X85266510Y-85230261D01*
X85266498Y-85230264D01*
X85120827Y-85290602D01*
X85120814Y-85290609D01*
X84989711Y-85378210D01*
X84989707Y-85378213D01*
X84878213Y-85489707D01*
X84878210Y-85489711D01*
X84790609Y-85620814D01*
X84790602Y-85620827D01*
X84730264Y-85766498D01*
X84730261Y-85766510D01*
X84699500Y-85921153D01*
X83800499Y-85921153D01*
X83769738Y-85766510D01*
X83769737Y-85766503D01*
X83762901Y-85750000D01*
X83709397Y-85620827D01*
X83709390Y-85620814D01*
X83621789Y-85489711D01*
X83621786Y-85489707D01*
X83510292Y-85378213D01*
X83510288Y-85378210D01*
X83379185Y-85290609D01*
X83379172Y-85290602D01*
X83233501Y-85230264D01*
X83233489Y-85230261D01*
X83078845Y-85199500D01*
X83078842Y-85199500D01*
X82921158Y-85199500D01*
X82921155Y-85199500D01*
X82766510Y-85230261D01*
X82766498Y-85230264D01*
X82620827Y-85290602D01*
X82620814Y-85290609D01*
X82489711Y-85378210D01*
X82489707Y-85378213D01*
X82378213Y-85489707D01*
X82378210Y-85489711D01*
X82290609Y-85620814D01*
X82290602Y-85620827D01*
X82230264Y-85766498D01*
X82230261Y-85766510D01*
X82199500Y-85921153D01*
X78800499Y-85921153D01*
X78769738Y-85766510D01*
X78769737Y-85766503D01*
X78762901Y-85750000D01*
X78709397Y-85620827D01*
X78709390Y-85620814D01*
X78621789Y-85489711D01*
X78621786Y-85489707D01*
X78510292Y-85378213D01*
X78510288Y-85378210D01*
X78379185Y-85290609D01*
X78379172Y-85290602D01*
X78233501Y-85230264D01*
X78233489Y-85230261D01*
X78078845Y-85199500D01*
X78078842Y-85199500D01*
X77921158Y-85199500D01*
X77921155Y-85199500D01*
X77766510Y-85230261D01*
X77766498Y-85230264D01*
X77620827Y-85290602D01*
X77620814Y-85290609D01*
X77489711Y-85378210D01*
X77489707Y-85378213D01*
X77378213Y-85489707D01*
X77378210Y-85489711D01*
X77290609Y-85620814D01*
X77290602Y-85620827D01*
X77230264Y-85766498D01*
X77230261Y-85766510D01*
X77199500Y-85921153D01*
X74000500Y-85921153D01*
X74000500Y-80421153D01*
X136699500Y-80421153D01*
X136699500Y-80578846D01*
X136730261Y-80733489D01*
X136730264Y-80733501D01*
X136790602Y-80879172D01*
X136790609Y-80879185D01*
X136878210Y-81010288D01*
X136878213Y-81010292D01*
X136989707Y-81121786D01*
X136989711Y-81121789D01*
X137120814Y-81209390D01*
X137120827Y-81209397D01*
X137266498Y-81269735D01*
X137266503Y-81269737D01*
X137421153Y-81300499D01*
X137421156Y-81300500D01*
X137421158Y-81300500D01*
X137578844Y-81300500D01*
X137578845Y-81300499D01*
X137733497Y-81269737D01*
X137879179Y-81209394D01*
X138010289Y-81121789D01*
X138121789Y-81010289D01*
X138209394Y-80879179D01*
X138269737Y-80733497D01*
X138300500Y-80578842D01*
X138300500Y-80421158D01*
X138300500Y-80421155D01*
X138300499Y-80421153D01*
X138269738Y-80266510D01*
X138269737Y-80266503D01*
X138269735Y-80266498D01*
X138209397Y-80120827D01*
X138209390Y-80120814D01*
X138121789Y-79989711D01*
X138121786Y-79989707D01*
X138010292Y-79878213D01*
X138010288Y-79878210D01*
X137879185Y-79790609D01*
X137879172Y-79790602D01*
X137733501Y-79730264D01*
X137733489Y-79730261D01*
X137578845Y-79699500D01*
X137578842Y-79699500D01*
X137421158Y-79699500D01*
X137421155Y-79699500D01*
X137266510Y-79730261D01*
X137266498Y-79730264D01*
X137120827Y-79790602D01*
X137120814Y-79790609D01*
X136989711Y-79878210D01*
X136989707Y-79878213D01*
X136878213Y-79989707D01*
X136878210Y-79989711D01*
X136790609Y-80120814D01*
X136790602Y-80120827D01*
X136730264Y-80266498D01*
X136730261Y-80266510D01*
X136699500Y-80421153D01*
X74000500Y-80421153D01*
X74000500Y-76921153D01*
X86199500Y-76921153D01*
X86199500Y-77078846D01*
X86230261Y-77233489D01*
X86230264Y-77233501D01*
X86290602Y-77379172D01*
X86290609Y-77379185D01*
X86325304Y-77431109D01*
X86346182Y-77497786D01*
X86327698Y-77565167D01*
X86325304Y-77568891D01*
X86290609Y-77620814D01*
X86290602Y-77620827D01*
X86230264Y-77766498D01*
X86230261Y-77766510D01*
X86199500Y-77921153D01*
X86199500Y-78078846D01*
X86230261Y-78233489D01*
X86230264Y-78233501D01*
X86290602Y-78379172D01*
X86290609Y-78379185D01*
X86378210Y-78510288D01*
X86378213Y-78510292D01*
X86489707Y-78621786D01*
X86489711Y-78621789D01*
X86620814Y-78709390D01*
X86620827Y-78709397D01*
X86766498Y-78769735D01*
X86766503Y-78769737D01*
X86921153Y-78800499D01*
X86921156Y-78800500D01*
X86921158Y-78800500D01*
X87078844Y-78800500D01*
X87078845Y-78800499D01*
X87233497Y-78769737D01*
X87379179Y-78709394D01*
X87510289Y-78621789D01*
X87621789Y-78510289D01*
X87709394Y-78379179D01*
X87769737Y-78233497D01*
X87800500Y-78078842D01*
X87800500Y-77921158D01*
X87800500Y-77921155D01*
X87800499Y-77921153D01*
X87769738Y-77766510D01*
X87769737Y-77766503D01*
X87769735Y-77766498D01*
X87709396Y-77620825D01*
X87709394Y-77620822D01*
X87709394Y-77620821D01*
X87674694Y-77568889D01*
X87653816Y-77502215D01*
X87672300Y-77434835D01*
X87674676Y-77431136D01*
X87709394Y-77379179D01*
X87769737Y-77233497D01*
X87800500Y-77078842D01*
X87800500Y-76921158D01*
X87800500Y-76921155D01*
X87791831Y-76877577D01*
X91475975Y-76877577D01*
X91581236Y-76921178D01*
X91581240Y-76921179D01*
X91726126Y-76949999D01*
X91726129Y-76950000D01*
X91873871Y-76950000D01*
X91873873Y-76949999D01*
X92018760Y-76921179D01*
X92018775Y-76921175D01*
X92124024Y-76877578D01*
X92124024Y-76877577D01*
X92875975Y-76877577D01*
X92981236Y-76921178D01*
X92981240Y-76921179D01*
X93126126Y-76949999D01*
X93126129Y-76950000D01*
X93273871Y-76950000D01*
X93273873Y-76949999D01*
X93418760Y-76921179D01*
X93418775Y-76921175D01*
X93524024Y-76877578D01*
X93524024Y-76877577D01*
X93200001Y-76553554D01*
X93200000Y-76553554D01*
X92875975Y-76877577D01*
X92124024Y-76877577D01*
X91800001Y-76553554D01*
X91800000Y-76553554D01*
X91475975Y-76877577D01*
X87791831Y-76877577D01*
X87788525Y-76860955D01*
X87788525Y-76860954D01*
X87769738Y-76766510D01*
X87769737Y-76766503D01*
X87709794Y-76621786D01*
X87709397Y-76620827D01*
X87709390Y-76620814D01*
X87621789Y-76489711D01*
X87621786Y-76489707D01*
X87510292Y-76378213D01*
X87510288Y-76378210D01*
X87379185Y-76290609D01*
X87379172Y-76290602D01*
X87243968Y-76234600D01*
X87233497Y-76230263D01*
X87233489Y-76230261D01*
X87078845Y-76199500D01*
X87078842Y-76199500D01*
X86921158Y-76199500D01*
X86921155Y-76199500D01*
X86766510Y-76230261D01*
X86766498Y-76230264D01*
X86620827Y-76290602D01*
X86620814Y-76290609D01*
X86489711Y-76378210D01*
X86489707Y-76378213D01*
X86378213Y-76489707D01*
X86378210Y-76489711D01*
X86290609Y-76620814D01*
X86290602Y-76620827D01*
X86230264Y-76766498D01*
X86230261Y-76766510D01*
X86199500Y-76921153D01*
X74000500Y-76921153D01*
X74000500Y-76126126D01*
X91050000Y-76126126D01*
X91050000Y-76273873D01*
X91078820Y-76418759D01*
X91078822Y-76418767D01*
X91122421Y-76524024D01*
X91446446Y-76200000D01*
X91446446Y-76199999D01*
X91426556Y-76180109D01*
X91700000Y-76180109D01*
X91700000Y-76219891D01*
X91715224Y-76256645D01*
X91743355Y-76284776D01*
X91780109Y-76300000D01*
X91819891Y-76300000D01*
X91856645Y-76284776D01*
X91884776Y-76256645D01*
X91900000Y-76219891D01*
X91900000Y-76199999D01*
X92153554Y-76199999D01*
X92153554Y-76200001D01*
X92477929Y-76524376D01*
X92522069Y-76524376D01*
X92846446Y-76200000D01*
X92826555Y-76180109D01*
X93100000Y-76180109D01*
X93100000Y-76219891D01*
X93115224Y-76256645D01*
X93143355Y-76284776D01*
X93180109Y-76300000D01*
X93219891Y-76300000D01*
X93256645Y-76284776D01*
X93284776Y-76256645D01*
X93300000Y-76219891D01*
X93300000Y-76199999D01*
X93553554Y-76199999D01*
X93553554Y-76200001D01*
X93877577Y-76524024D01*
X93877578Y-76524024D01*
X93921175Y-76418775D01*
X93921179Y-76418760D01*
X93949999Y-76273873D01*
X93950000Y-76273871D01*
X93950000Y-76126128D01*
X93949999Y-76126126D01*
X93921179Y-75981240D01*
X93921178Y-75981236D01*
X93877577Y-75875975D01*
X93553554Y-76199999D01*
X93300000Y-76199999D01*
X93300000Y-76180109D01*
X93284776Y-76143355D01*
X93256645Y-76115224D01*
X93219891Y-76100000D01*
X93180109Y-76100000D01*
X93143355Y-76115224D01*
X93115224Y-76143355D01*
X93100000Y-76180109D01*
X92826555Y-76180109D01*
X92522068Y-75875622D01*
X92477930Y-75875622D01*
X92153554Y-76199999D01*
X91900000Y-76199999D01*
X91900000Y-76180109D01*
X91884776Y-76143355D01*
X91856645Y-76115224D01*
X91819891Y-76100000D01*
X91780109Y-76100000D01*
X91743355Y-76115224D01*
X91715224Y-76143355D01*
X91700000Y-76180109D01*
X91426556Y-76180109D01*
X91122421Y-75875974D01*
X91122420Y-75875974D01*
X91078823Y-75981228D01*
X91078820Y-75981240D01*
X91050000Y-76126126D01*
X74000500Y-76126126D01*
X74000500Y-75600000D01*
X91553554Y-75600000D01*
X91800000Y-75846446D01*
X92046446Y-75600000D01*
X92953554Y-75600000D01*
X93200000Y-75846446D01*
X93446446Y-75600000D01*
X93200000Y-75353554D01*
X92953554Y-75600000D01*
X92046446Y-75600000D01*
X91800000Y-75353554D01*
X91553554Y-75600000D01*
X74000500Y-75600000D01*
X74000500Y-74070000D01*
X76680138Y-74070000D01*
X77483012Y-74070000D01*
X77465795Y-74079940D01*
X77409940Y-74135795D01*
X77370444Y-74204204D01*
X77350000Y-74280504D01*
X77350000Y-74359496D01*
X77370444Y-74435796D01*
X77409940Y-74504205D01*
X77465795Y-74560060D01*
X77483012Y-74570000D01*
X76680138Y-74570000D01*
X76688430Y-74611690D01*
X76688430Y-74611692D01*
X76763807Y-74793671D01*
X76763814Y-74793684D01*
X76873248Y-74957462D01*
X76873251Y-74957466D01*
X77012533Y-75096748D01*
X77012537Y-75096751D01*
X77176315Y-75206185D01*
X77176328Y-75206192D01*
X77358306Y-75281569D01*
X77358318Y-75281572D01*
X77551504Y-75319999D01*
X77551508Y-75320000D01*
X77700000Y-75320000D01*
X77700000Y-74620000D01*
X78200000Y-74620000D01*
X78200000Y-75320000D01*
X78348492Y-75320000D01*
X78348495Y-75319999D01*
X78541681Y-75281572D01*
X78541693Y-75281569D01*
X78723671Y-75206192D01*
X78723684Y-75206185D01*
X78887462Y-75096751D01*
X78887466Y-75096748D01*
X79026748Y-74957466D01*
X79026751Y-74957462D01*
X79136185Y-74793684D01*
X79136192Y-74793671D01*
X79211569Y-74611692D01*
X79211569Y-74611690D01*
X79219862Y-74570000D01*
X78416988Y-74570000D01*
X78434205Y-74560060D01*
X78490060Y-74504205D01*
X78529556Y-74435796D01*
X78550000Y-74359496D01*
X78550000Y-74280504D01*
X78529556Y-74204204D01*
X78490060Y-74135795D01*
X78434205Y-74079940D01*
X78416988Y-74070000D01*
X79219862Y-74070000D01*
X80610138Y-74070000D01*
X81413012Y-74070000D01*
X81395795Y-74079940D01*
X81339940Y-74135795D01*
X81300444Y-74204204D01*
X81280000Y-74280504D01*
X81280000Y-74359496D01*
X81300444Y-74435796D01*
X81339940Y-74504205D01*
X81395795Y-74560060D01*
X81413012Y-74570000D01*
X80610138Y-74570000D01*
X80618430Y-74611690D01*
X80618430Y-74611692D01*
X80693807Y-74793671D01*
X80693814Y-74793684D01*
X80803248Y-74957462D01*
X80803251Y-74957466D01*
X80942533Y-75096748D01*
X80942537Y-75096751D01*
X81106315Y-75206185D01*
X81106328Y-75206192D01*
X81288306Y-75281569D01*
X81288318Y-75281572D01*
X81481504Y-75319999D01*
X81481508Y-75320000D01*
X81880000Y-75320000D01*
X81880000Y-74620000D01*
X82380000Y-74620000D01*
X82380000Y-75320000D01*
X82778492Y-75320000D01*
X82778495Y-75319999D01*
X82971681Y-75281572D01*
X82971693Y-75281569D01*
X83153671Y-75206192D01*
X83153684Y-75206185D01*
X83317462Y-75096751D01*
X83317466Y-75096748D01*
X83456748Y-74957466D01*
X83456751Y-74957462D01*
X83477689Y-74926126D01*
X91050000Y-74926126D01*
X91050000Y-75073873D01*
X91078820Y-75218759D01*
X91078822Y-75218767D01*
X91122421Y-75324024D01*
X91446446Y-75000000D01*
X91446446Y-74999999D01*
X91426556Y-74980109D01*
X91700000Y-74980109D01*
X91700000Y-75019891D01*
X91715224Y-75056645D01*
X91743355Y-75084776D01*
X91780109Y-75100000D01*
X91819891Y-75100000D01*
X91856645Y-75084776D01*
X91884776Y-75056645D01*
X91900000Y-75019891D01*
X91900000Y-74999999D01*
X92153554Y-74999999D01*
X92153554Y-75000001D01*
X92477929Y-75324376D01*
X92522069Y-75324376D01*
X92846446Y-75000000D01*
X92826555Y-74980109D01*
X93100000Y-74980109D01*
X93100000Y-75019891D01*
X93115224Y-75056645D01*
X93143355Y-75084776D01*
X93180109Y-75100000D01*
X93219891Y-75100000D01*
X93256645Y-75084776D01*
X93284776Y-75056645D01*
X93300000Y-75019891D01*
X93300000Y-74999999D01*
X93553554Y-74999999D01*
X93553554Y-75000001D01*
X93877577Y-75324024D01*
X93877578Y-75324024D01*
X93921175Y-75218775D01*
X93921179Y-75218760D01*
X93949999Y-75073873D01*
X93950000Y-75073871D01*
X93950000Y-74926128D01*
X93949999Y-74926126D01*
X93921179Y-74781240D01*
X93921178Y-74781236D01*
X93877577Y-74675975D01*
X93553554Y-74999999D01*
X93300000Y-74999999D01*
X93300000Y-74980109D01*
X93284776Y-74943355D01*
X93256645Y-74915224D01*
X93219891Y-74900000D01*
X93180109Y-74900000D01*
X93143355Y-74915224D01*
X93115224Y-74943355D01*
X93100000Y-74980109D01*
X92826555Y-74980109D01*
X92522068Y-74675622D01*
X92477930Y-74675622D01*
X92153554Y-74999999D01*
X91900000Y-74999999D01*
X91900000Y-74980109D01*
X91884776Y-74943355D01*
X91856645Y-74915224D01*
X91819891Y-74900000D01*
X91780109Y-74900000D01*
X91743355Y-74915224D01*
X91715224Y-74943355D01*
X91700000Y-74980109D01*
X91426556Y-74980109D01*
X91122421Y-74675974D01*
X91122420Y-74675974D01*
X91078823Y-74781228D01*
X91078820Y-74781240D01*
X91050000Y-74926126D01*
X83477689Y-74926126D01*
X83527789Y-74851148D01*
X83566185Y-74793684D01*
X83566192Y-74793671D01*
X83641569Y-74611692D01*
X83641569Y-74611690D01*
X83649862Y-74570000D01*
X82846988Y-74570000D01*
X82864205Y-74560060D01*
X82920060Y-74504205D01*
X82959556Y-74435796D01*
X82969147Y-74400000D01*
X91553554Y-74400000D01*
X91800000Y-74646446D01*
X92046446Y-74400000D01*
X92953554Y-74400000D01*
X93200000Y-74646446D01*
X93425293Y-74421153D01*
X95699500Y-74421153D01*
X95699500Y-74578846D01*
X95730261Y-74733489D01*
X95730264Y-74733501D01*
X95790602Y-74879172D01*
X95790609Y-74879185D01*
X95878210Y-75010288D01*
X95878213Y-75010292D01*
X95989710Y-75121789D01*
X96078042Y-75180810D01*
X96122847Y-75234422D01*
X96131554Y-75303747D01*
X96101400Y-75366774D01*
X96093983Y-75373868D01*
X96094018Y-75373903D01*
X95978213Y-75489707D01*
X95978210Y-75489711D01*
X95890609Y-75620814D01*
X95890602Y-75620827D01*
X95830264Y-75766498D01*
X95830261Y-75766510D01*
X95799500Y-75921153D01*
X95799500Y-76078846D01*
X95830261Y-76233489D01*
X95830264Y-76233501D01*
X95890602Y-76379172D01*
X95890609Y-76379185D01*
X95978210Y-76510288D01*
X95978213Y-76510292D01*
X96089707Y-76621786D01*
X96089711Y-76621789D01*
X96220814Y-76709390D01*
X96220827Y-76709397D01*
X96358683Y-76766498D01*
X96366503Y-76769737D01*
X96521153Y-76800499D01*
X96521156Y-76800500D01*
X96521158Y-76800500D01*
X96678844Y-76800500D01*
X96678845Y-76800499D01*
X96833497Y-76769737D01*
X96979179Y-76709394D01*
X97110289Y-76621789D01*
X97221789Y-76510289D01*
X97281348Y-76421153D01*
X136699500Y-76421153D01*
X136699500Y-76578846D01*
X136730261Y-76733489D01*
X136730264Y-76733501D01*
X136790602Y-76879172D01*
X136790609Y-76879185D01*
X136878210Y-77010288D01*
X136878213Y-77010292D01*
X136989707Y-77121786D01*
X136989711Y-77121789D01*
X137120814Y-77209390D01*
X137120827Y-77209397D01*
X137266498Y-77269735D01*
X137266503Y-77269737D01*
X137421153Y-77300499D01*
X137421156Y-77300500D01*
X137421158Y-77300500D01*
X137578844Y-77300500D01*
X137578845Y-77300499D01*
X137733497Y-77269737D01*
X137879179Y-77209394D01*
X138010289Y-77121789D01*
X138121789Y-77010289D01*
X138209394Y-76879179D01*
X138269737Y-76733497D01*
X138300500Y-76578842D01*
X138300500Y-76421158D01*
X138300500Y-76421155D01*
X138300499Y-76421153D01*
X138274531Y-76290606D01*
X138269737Y-76266503D01*
X138265654Y-76256645D01*
X138209397Y-76120827D01*
X138209390Y-76120814D01*
X138121789Y-75989711D01*
X138121786Y-75989707D01*
X138010292Y-75878213D01*
X138010288Y-75878210D01*
X137879185Y-75790609D01*
X137879172Y-75790602D01*
X137733501Y-75730264D01*
X137733489Y-75730261D01*
X137578845Y-75699500D01*
X137578842Y-75699500D01*
X137421158Y-75699500D01*
X137421155Y-75699500D01*
X137266510Y-75730261D01*
X137266498Y-75730264D01*
X137120827Y-75790602D01*
X137120814Y-75790609D01*
X136989711Y-75878210D01*
X136989707Y-75878213D01*
X136878213Y-75989707D01*
X136878210Y-75989711D01*
X136790609Y-76120814D01*
X136790602Y-76120827D01*
X136730264Y-76266498D01*
X136730261Y-76266510D01*
X136699500Y-76421153D01*
X97281348Y-76421153D01*
X97309394Y-76379179D01*
X97369737Y-76233497D01*
X97400500Y-76078842D01*
X97400500Y-75921158D01*
X97400500Y-75921155D01*
X97400499Y-75921153D01*
X97374531Y-75790606D01*
X97369737Y-75766503D01*
X97369735Y-75766498D01*
X97309397Y-75620827D01*
X97309390Y-75620814D01*
X97221789Y-75489711D01*
X97221786Y-75489707D01*
X97110292Y-75378213D01*
X97110288Y-75378210D01*
X97021957Y-75319189D01*
X96977152Y-75265577D01*
X96968445Y-75196252D01*
X96998599Y-75133224D01*
X97006016Y-75126131D01*
X97005982Y-75126097D01*
X97121786Y-75010292D01*
X97121789Y-75010289D01*
X97209394Y-74879179D01*
X97269737Y-74733497D01*
X97300500Y-74578842D01*
X97300500Y-74421158D01*
X97300500Y-74421155D01*
X97300499Y-74421153D01*
X97296291Y-74400000D01*
X97269737Y-74266503D01*
X97243932Y-74204204D01*
X97209397Y-74120827D01*
X97209390Y-74120814D01*
X97121789Y-73989711D01*
X97121786Y-73989707D01*
X97010292Y-73878213D01*
X97010288Y-73878210D01*
X96879185Y-73790609D01*
X96879172Y-73790602D01*
X96733501Y-73730264D01*
X96733489Y-73730261D01*
X96578845Y-73699500D01*
X96578842Y-73699500D01*
X96421158Y-73699500D01*
X96421155Y-73699500D01*
X96266510Y-73730261D01*
X96266498Y-73730264D01*
X96120827Y-73790602D01*
X96120814Y-73790609D01*
X95989711Y-73878210D01*
X95989707Y-73878213D01*
X95878213Y-73989707D01*
X95878210Y-73989711D01*
X95790609Y-74120814D01*
X95790602Y-74120827D01*
X95730264Y-74266498D01*
X95730261Y-74266510D01*
X95699500Y-74421153D01*
X93425293Y-74421153D01*
X93446446Y-74400000D01*
X93200000Y-74153554D01*
X92953554Y-74400000D01*
X92046446Y-74400000D01*
X91800000Y-74153554D01*
X91553554Y-74400000D01*
X82969147Y-74400000D01*
X82980000Y-74359496D01*
X82980000Y-74280504D01*
X82959556Y-74204204D01*
X82920060Y-74135795D01*
X82864205Y-74079940D01*
X82846988Y-74070000D01*
X83649862Y-74070000D01*
X83641569Y-74028309D01*
X83641569Y-74028307D01*
X83566192Y-73846328D01*
X83566185Y-73846316D01*
X83527841Y-73788930D01*
X83485876Y-73726126D01*
X91050000Y-73726126D01*
X91050000Y-73873873D01*
X91078820Y-74018759D01*
X91078822Y-74018767D01*
X91122421Y-74124024D01*
X91446446Y-73800000D01*
X91446446Y-73799999D01*
X91426556Y-73780109D01*
X91700000Y-73780109D01*
X91700000Y-73819891D01*
X91715224Y-73856645D01*
X91743355Y-73884776D01*
X91780109Y-73900000D01*
X91819891Y-73900000D01*
X91856645Y-73884776D01*
X91884776Y-73856645D01*
X91900000Y-73819891D01*
X91900000Y-73799999D01*
X92153554Y-73799999D01*
X92153554Y-73800001D01*
X92477929Y-74124376D01*
X92522069Y-74124376D01*
X92846446Y-73800000D01*
X92826555Y-73780109D01*
X93100000Y-73780109D01*
X93100000Y-73819891D01*
X93115224Y-73856645D01*
X93143355Y-73884776D01*
X93180109Y-73900000D01*
X93219891Y-73900000D01*
X93256645Y-73884776D01*
X93284776Y-73856645D01*
X93300000Y-73819891D01*
X93300000Y-73799999D01*
X93553554Y-73799999D01*
X93553554Y-73800001D01*
X93877577Y-74124024D01*
X93877578Y-74124024D01*
X93921175Y-74018775D01*
X93921179Y-74018760D01*
X93949999Y-73873873D01*
X93950000Y-73873871D01*
X93950000Y-73726128D01*
X93949999Y-73726126D01*
X93921179Y-73581240D01*
X93921177Y-73581232D01*
X93877577Y-73475974D01*
X93553554Y-73799999D01*
X93300000Y-73799999D01*
X93300000Y-73780109D01*
X93284776Y-73743355D01*
X93256645Y-73715224D01*
X93219891Y-73700000D01*
X93180109Y-73700000D01*
X93143355Y-73715224D01*
X93115224Y-73743355D01*
X93100000Y-73780109D01*
X92826555Y-73780109D01*
X92522068Y-73475622D01*
X92477930Y-73475622D01*
X92153554Y-73799999D01*
X91900000Y-73799999D01*
X91900000Y-73780109D01*
X91884776Y-73743355D01*
X91856645Y-73715224D01*
X91819891Y-73700000D01*
X91780109Y-73700000D01*
X91743355Y-73715224D01*
X91715224Y-73743355D01*
X91700000Y-73780109D01*
X91426556Y-73780109D01*
X91122421Y-73475974D01*
X91122420Y-73475974D01*
X91078823Y-73581228D01*
X91078820Y-73581240D01*
X91050000Y-73726126D01*
X83485876Y-73726126D01*
X83456751Y-73682537D01*
X83456748Y-73682533D01*
X83317466Y-73543251D01*
X83317462Y-73543248D01*
X83153684Y-73433814D01*
X83153671Y-73433807D01*
X82971693Y-73358430D01*
X82971681Y-73358427D01*
X82778495Y-73320000D01*
X82380000Y-73320000D01*
X82380000Y-74020000D01*
X81880000Y-74020000D01*
X81880000Y-73464463D01*
X81899685Y-73397424D01*
X81942000Y-73357076D01*
X81953365Y-73350515D01*
X82060515Y-73243365D01*
X82061372Y-73241879D01*
X82081721Y-73206637D01*
X82130343Y-73122420D01*
X91475974Y-73122420D01*
X91475974Y-73122421D01*
X91800000Y-73446446D01*
X91800001Y-73446446D01*
X92124024Y-73122421D01*
X92124022Y-73122420D01*
X92875974Y-73122420D01*
X92875974Y-73122421D01*
X93200000Y-73446446D01*
X93200001Y-73446446D01*
X93225294Y-73421153D01*
X136650500Y-73421153D01*
X136650500Y-73578846D01*
X136681261Y-73733489D01*
X136681264Y-73733501D01*
X136741602Y-73879172D01*
X136741609Y-73879185D01*
X136829210Y-74010288D01*
X136829213Y-74010292D01*
X136940707Y-74121786D01*
X136940711Y-74121789D01*
X137071814Y-74209390D01*
X137071827Y-74209397D01*
X137209683Y-74266498D01*
X137217503Y-74269737D01*
X137372153Y-74300499D01*
X137372156Y-74300500D01*
X137372158Y-74300500D01*
X137529844Y-74300500D01*
X137529845Y-74300499D01*
X137684497Y-74269737D01*
X137830179Y-74209394D01*
X137961289Y-74121789D01*
X138072789Y-74010289D01*
X138160394Y-73879179D01*
X138220737Y-73733497D01*
X138251500Y-73578842D01*
X138251500Y-73421158D01*
X138251500Y-73421155D01*
X138251499Y-73421153D01*
X138241068Y-73368712D01*
X138220737Y-73266503D01*
X138161057Y-73122421D01*
X138160397Y-73120827D01*
X138160390Y-73120814D01*
X138072789Y-72989711D01*
X138072786Y-72989707D01*
X137961292Y-72878213D01*
X137961288Y-72878210D01*
X137830185Y-72790609D01*
X137830172Y-72790602D01*
X137684501Y-72730264D01*
X137684489Y-72730261D01*
X137529845Y-72699500D01*
X137529842Y-72699500D01*
X137372158Y-72699500D01*
X137372155Y-72699500D01*
X137217510Y-72730261D01*
X137217498Y-72730264D01*
X137071827Y-72790602D01*
X137071814Y-72790609D01*
X136940711Y-72878210D01*
X136940707Y-72878213D01*
X136829213Y-72989707D01*
X136829210Y-72989711D01*
X136741609Y-73120814D01*
X136741602Y-73120827D01*
X136681264Y-73266498D01*
X136681261Y-73266510D01*
X136650500Y-73421153D01*
X93225294Y-73421153D01*
X93524024Y-73122421D01*
X93418767Y-73078822D01*
X93418759Y-73078820D01*
X93273872Y-73050000D01*
X93126128Y-73050000D01*
X92981240Y-73078820D01*
X92981228Y-73078823D01*
X92875974Y-73122420D01*
X92124022Y-73122420D01*
X92018767Y-73078822D01*
X92018759Y-73078820D01*
X91873872Y-73050000D01*
X91726128Y-73050000D01*
X91581240Y-73078820D01*
X91581228Y-73078823D01*
X91475974Y-73122420D01*
X82130343Y-73122420D01*
X82136281Y-73112135D01*
X82175500Y-72965766D01*
X82175500Y-72814234D01*
X82136281Y-72667865D01*
X82060515Y-72536635D01*
X81953365Y-72429485D01*
X81887750Y-72391602D01*
X81822136Y-72353719D01*
X81748950Y-72334109D01*
X81675766Y-72314500D01*
X81524234Y-72314500D01*
X81377863Y-72353719D01*
X81246635Y-72429485D01*
X81246632Y-72429487D01*
X81139487Y-72536632D01*
X81139485Y-72536635D01*
X81063719Y-72667863D01*
X81024500Y-72814234D01*
X81024500Y-72965765D01*
X81063719Y-73112136D01*
X81101602Y-73177750D01*
X81139485Y-73243365D01*
X81139487Y-73243367D01*
X81144432Y-73249811D01*
X81141612Y-73251974D01*
X81167302Y-73299020D01*
X81162318Y-73368712D01*
X81120446Y-73424645D01*
X81111379Y-73430416D01*
X81111387Y-73430427D01*
X80942536Y-73543248D01*
X80803251Y-73682533D01*
X80803248Y-73682537D01*
X80693814Y-73846315D01*
X80693807Y-73846328D01*
X80618430Y-74028307D01*
X80618430Y-74028309D01*
X80610138Y-74070000D01*
X79219862Y-74070000D01*
X79211569Y-74028309D01*
X79211569Y-74028307D01*
X79136192Y-73846328D01*
X79136185Y-73846315D01*
X79026751Y-73682537D01*
X79026748Y-73682533D01*
X78887466Y-73543251D01*
X78887462Y-73543248D01*
X78723684Y-73433814D01*
X78723671Y-73433807D01*
X78541693Y-73358430D01*
X78541681Y-73358427D01*
X78348495Y-73320000D01*
X78200000Y-73320000D01*
X78200000Y-74020000D01*
X77700000Y-74020000D01*
X77700000Y-73320000D01*
X77551504Y-73320000D01*
X77358318Y-73358427D01*
X77358306Y-73358430D01*
X77176328Y-73433807D01*
X77176315Y-73433814D01*
X77012537Y-73543248D01*
X77012533Y-73543251D01*
X76873251Y-73682533D01*
X76873248Y-73682537D01*
X76763814Y-73846315D01*
X76763807Y-73846328D01*
X76688430Y-74028307D01*
X76688430Y-74028309D01*
X76680138Y-74070000D01*
X74000500Y-74070000D01*
X74000500Y-68921153D01*
X112199500Y-68921153D01*
X112199500Y-69078846D01*
X112230261Y-69233489D01*
X112230264Y-69233501D01*
X112290602Y-69379172D01*
X112290609Y-69379185D01*
X112378210Y-69510288D01*
X112378213Y-69510292D01*
X112489707Y-69621786D01*
X112489711Y-69621789D01*
X112620814Y-69709390D01*
X112620827Y-69709397D01*
X112766498Y-69769735D01*
X112766503Y-69769737D01*
X112921153Y-69800499D01*
X112921156Y-69800500D01*
X112921158Y-69800500D01*
X113078844Y-69800500D01*
X113078845Y-69800499D01*
X113233497Y-69769737D01*
X113379179Y-69709394D01*
X113510289Y-69621789D01*
X113621789Y-69510289D01*
X113709394Y-69379179D01*
X113769737Y-69233497D01*
X113800500Y-69078842D01*
X113800500Y-68921158D01*
X113800500Y-68921155D01*
X113800499Y-68921153D01*
X113769738Y-68766510D01*
X113769737Y-68766503D01*
X113756062Y-68733489D01*
X113709397Y-68620827D01*
X113709390Y-68620814D01*
X113621790Y-68489712D01*
X113621784Y-68489705D01*
X113553232Y-68421153D01*
X114699500Y-68421153D01*
X114699500Y-68578846D01*
X114730261Y-68733489D01*
X114730264Y-68733501D01*
X114790602Y-68879172D01*
X114790609Y-68879185D01*
X114878210Y-69010288D01*
X114878213Y-69010292D01*
X114989707Y-69121786D01*
X114989711Y-69121789D01*
X115120814Y-69209390D01*
X115120827Y-69209397D01*
X115266498Y-69269735D01*
X115266503Y-69269737D01*
X115421153Y-69300499D01*
X115421156Y-69300500D01*
X115421158Y-69300500D01*
X115578844Y-69300500D01*
X115578845Y-69300499D01*
X115733497Y-69269737D01*
X115879179Y-69209394D01*
X116010289Y-69121789D01*
X116121789Y-69010289D01*
X116209394Y-68879179D01*
X116269737Y-68733497D01*
X116300500Y-68578842D01*
X116300500Y-68421158D01*
X116300500Y-68421155D01*
X116300499Y-68421153D01*
X116274531Y-68290606D01*
X116269737Y-68266503D01*
X116269735Y-68266498D01*
X116209397Y-68120827D01*
X116209390Y-68120814D01*
X116121789Y-67989711D01*
X116121786Y-67989707D01*
X116010292Y-67878213D01*
X116010288Y-67878210D01*
X115879185Y-67790609D01*
X115879172Y-67790602D01*
X115733501Y-67730264D01*
X115733489Y-67730261D01*
X115578845Y-67699500D01*
X115578842Y-67699500D01*
X115421158Y-67699500D01*
X115421155Y-67699500D01*
X115266510Y-67730261D01*
X115266498Y-67730264D01*
X115120827Y-67790602D01*
X115120814Y-67790609D01*
X114989711Y-67878210D01*
X114989707Y-67878213D01*
X114878213Y-67989707D01*
X114878210Y-67989711D01*
X114790609Y-68120814D01*
X114790602Y-68120827D01*
X114730264Y-68266498D01*
X114730261Y-68266510D01*
X114699500Y-68421153D01*
X113553232Y-68421153D01*
X113510292Y-68378213D01*
X113510288Y-68378210D01*
X113379185Y-68290609D01*
X113379172Y-68290602D01*
X113233501Y-68230264D01*
X113233489Y-68230261D01*
X113078845Y-68199500D01*
X113078842Y-68199500D01*
X112921158Y-68199500D01*
X112921155Y-68199500D01*
X112766510Y-68230261D01*
X112766498Y-68230264D01*
X112620827Y-68290602D01*
X112620814Y-68290609D01*
X112489711Y-68378210D01*
X112489707Y-68378213D01*
X112378213Y-68489707D01*
X112378210Y-68489711D01*
X112290609Y-68620814D01*
X112290602Y-68620827D01*
X112230264Y-68766498D01*
X112230261Y-68766510D01*
X112199500Y-68921153D01*
X74000500Y-68921153D01*
X74000500Y-65430000D01*
X76680138Y-65430000D01*
X77483012Y-65430000D01*
X77465795Y-65439940D01*
X77409940Y-65495795D01*
X77370444Y-65564204D01*
X77350000Y-65640504D01*
X77350000Y-65719496D01*
X77370444Y-65795796D01*
X77409940Y-65864205D01*
X77465795Y-65920060D01*
X77483012Y-65930000D01*
X76680138Y-65930000D01*
X76688430Y-65971690D01*
X76688430Y-65971692D01*
X76763807Y-66153671D01*
X76763814Y-66153684D01*
X76873248Y-66317462D01*
X76873251Y-66317466D01*
X77012533Y-66456748D01*
X77012537Y-66456751D01*
X77176315Y-66566185D01*
X77176328Y-66566192D01*
X77358306Y-66641569D01*
X77358318Y-66641572D01*
X77551504Y-66679999D01*
X77551508Y-66680000D01*
X77700000Y-66680000D01*
X77700000Y-65980000D01*
X78200000Y-65980000D01*
X78200000Y-66680000D01*
X78348492Y-66680000D01*
X78348495Y-66679999D01*
X78541681Y-66641572D01*
X78541693Y-66641569D01*
X78723671Y-66566192D01*
X78723684Y-66566185D01*
X78887462Y-66456751D01*
X78887466Y-66456748D01*
X79026748Y-66317466D01*
X79026751Y-66317462D01*
X79136185Y-66153684D01*
X79136192Y-66153671D01*
X79211569Y-65971692D01*
X79211569Y-65971690D01*
X79219862Y-65930000D01*
X78416988Y-65930000D01*
X78434205Y-65920060D01*
X78490060Y-65864205D01*
X78529556Y-65795796D01*
X78550000Y-65719496D01*
X78550000Y-65640504D01*
X78529556Y-65564204D01*
X78490060Y-65495795D01*
X78434205Y-65439940D01*
X78416988Y-65430000D01*
X79219862Y-65430000D01*
X80610138Y-65430000D01*
X81413012Y-65430000D01*
X81395795Y-65439940D01*
X81339940Y-65495795D01*
X81300444Y-65564204D01*
X81280000Y-65640504D01*
X81280000Y-65719496D01*
X81300444Y-65795796D01*
X81339940Y-65864205D01*
X81395795Y-65920060D01*
X81413012Y-65930000D01*
X80610138Y-65930000D01*
X80618430Y-65971690D01*
X80618430Y-65971692D01*
X80693807Y-66153671D01*
X80693814Y-66153684D01*
X80803248Y-66317462D01*
X80803251Y-66317466D01*
X80942533Y-66456748D01*
X80942537Y-66456751D01*
X81111387Y-66569574D01*
X81110430Y-66571005D01*
X81154425Y-66614211D01*
X81169895Y-66682346D01*
X81146072Y-66748029D01*
X81144309Y-66750094D01*
X81144432Y-66750189D01*
X81139485Y-66756635D01*
X81063719Y-66887863D01*
X81028236Y-67020292D01*
X81024500Y-67034234D01*
X81024500Y-67185766D01*
X81033511Y-67219397D01*
X81063719Y-67332136D01*
X81090876Y-67379172D01*
X81139485Y-67463365D01*
X81246635Y-67570515D01*
X81377865Y-67646281D01*
X81524234Y-67685500D01*
X81524236Y-67685500D01*
X81675764Y-67685500D01*
X81675766Y-67685500D01*
X81822135Y-67646281D01*
X81953365Y-67570515D01*
X82060515Y-67463365D01*
X82136281Y-67332135D01*
X82175500Y-67185766D01*
X82175500Y-67034234D01*
X82136281Y-66887865D01*
X82060515Y-66756635D01*
X81953365Y-66649485D01*
X81941998Y-66642922D01*
X81893783Y-66592354D01*
X81880000Y-66535536D01*
X81880000Y-65980000D01*
X82380000Y-65980000D01*
X82380000Y-66680000D01*
X82778492Y-66680000D01*
X82778495Y-66679999D01*
X82971681Y-66641572D01*
X82971693Y-66641569D01*
X83153671Y-66566192D01*
X83153684Y-66566185D01*
X83317462Y-66456751D01*
X83317466Y-66456748D01*
X83343061Y-66431153D01*
X113689500Y-66431153D01*
X113689500Y-66588846D01*
X113720261Y-66743489D01*
X113720264Y-66743501D01*
X113780602Y-66889172D01*
X113780609Y-66889185D01*
X113868210Y-67020288D01*
X113868213Y-67020292D01*
X113979707Y-67131786D01*
X113979711Y-67131789D01*
X114110814Y-67219390D01*
X114110827Y-67219397D01*
X114256498Y-67279735D01*
X114256503Y-67279737D01*
X114411153Y-67310499D01*
X114411156Y-67310500D01*
X114411158Y-67310500D01*
X114568844Y-67310500D01*
X114568845Y-67310499D01*
X114723497Y-67279737D01*
X114869179Y-67219394D01*
X115000289Y-67131789D01*
X115111789Y-67020289D01*
X115178030Y-66921153D01*
X116199500Y-66921153D01*
X116199500Y-67078846D01*
X116230261Y-67233489D01*
X116230264Y-67233501D01*
X116290602Y-67379172D01*
X116290609Y-67379185D01*
X116378210Y-67510288D01*
X116378213Y-67510292D01*
X116489707Y-67621786D01*
X116489711Y-67621789D01*
X116620814Y-67709390D01*
X116620827Y-67709397D01*
X116766498Y-67769735D01*
X116766503Y-67769737D01*
X116921153Y-67800499D01*
X116921156Y-67800500D01*
X116921158Y-67800500D01*
X117078844Y-67800500D01*
X117078845Y-67800499D01*
X117233497Y-67769737D01*
X117379179Y-67709394D01*
X117510289Y-67621789D01*
X117621789Y-67510289D01*
X117709394Y-67379179D01*
X117769737Y-67233497D01*
X117800500Y-67078842D01*
X117800500Y-66921158D01*
X117800500Y-66921155D01*
X117800499Y-66921153D01*
X117794139Y-66889179D01*
X117769737Y-66766503D01*
X117760208Y-66743497D01*
X117709397Y-66620827D01*
X117709390Y-66620814D01*
X117621789Y-66489711D01*
X117621786Y-66489707D01*
X117510292Y-66378213D01*
X117510288Y-66378210D01*
X117379185Y-66290609D01*
X117379172Y-66290602D01*
X117233501Y-66230264D01*
X117233489Y-66230261D01*
X117078845Y-66199500D01*
X117078842Y-66199500D01*
X116921158Y-66199500D01*
X116921155Y-66199500D01*
X116766510Y-66230261D01*
X116766498Y-66230264D01*
X116620827Y-66290602D01*
X116620814Y-66290609D01*
X116489711Y-66378210D01*
X116489707Y-66378213D01*
X116378213Y-66489707D01*
X116378210Y-66489711D01*
X116290609Y-66620814D01*
X116290602Y-66620827D01*
X116230264Y-66766498D01*
X116230261Y-66766510D01*
X116199500Y-66921153D01*
X115178030Y-66921153D01*
X115199394Y-66889179D01*
X115199939Y-66887863D01*
X115208327Y-66867614D01*
X115250205Y-66766510D01*
X115259737Y-66743497D01*
X115290500Y-66588842D01*
X115290500Y-66431158D01*
X115290500Y-66431155D01*
X115290499Y-66431153D01*
X115259737Y-66276503D01*
X115259735Y-66276498D01*
X115199397Y-66130827D01*
X115199390Y-66130814D01*
X115111789Y-65999711D01*
X115111786Y-65999707D01*
X115000292Y-65888213D01*
X115000288Y-65888210D01*
X114869185Y-65800609D01*
X114869172Y-65800602D01*
X114723501Y-65740264D01*
X114723489Y-65740261D01*
X114568845Y-65709500D01*
X114568842Y-65709500D01*
X114411158Y-65709500D01*
X114411155Y-65709500D01*
X114256510Y-65740261D01*
X114256498Y-65740264D01*
X114110827Y-65800602D01*
X114110814Y-65800609D01*
X113979711Y-65888210D01*
X113979707Y-65888213D01*
X113868213Y-65999707D01*
X113868210Y-65999711D01*
X113780609Y-66130814D01*
X113780602Y-66130827D01*
X113720264Y-66276498D01*
X113720261Y-66276510D01*
X113689500Y-66431153D01*
X83343061Y-66431153D01*
X83436830Y-66337385D01*
X83456748Y-66317466D01*
X83456751Y-66317462D01*
X83566185Y-66153684D01*
X83566192Y-66153671D01*
X83641569Y-65971692D01*
X83641569Y-65971690D01*
X83649862Y-65930000D01*
X82846988Y-65930000D01*
X82864205Y-65920060D01*
X82920060Y-65864205D01*
X82959556Y-65795796D01*
X82980000Y-65719496D01*
X82980000Y-65640504D01*
X82959556Y-65564204D01*
X82920060Y-65495795D01*
X82864205Y-65439940D01*
X82846988Y-65430000D01*
X83649862Y-65430000D01*
X83641569Y-65388309D01*
X83641569Y-65388307D01*
X83566192Y-65206328D01*
X83566185Y-65206315D01*
X83456751Y-65042537D01*
X83456748Y-65042533D01*
X83317466Y-64903251D01*
X83317462Y-64903248D01*
X83153684Y-64793814D01*
X83153671Y-64793807D01*
X82971693Y-64718430D01*
X82971681Y-64718427D01*
X82778495Y-64680000D01*
X82380000Y-64680000D01*
X82380000Y-65380000D01*
X81880000Y-65380000D01*
X81880000Y-64775124D01*
X81880299Y-64774102D01*
X81880017Y-64773077D01*
X81890126Y-64740638D01*
X81899685Y-64708085D01*
X81900591Y-64707055D01*
X81900805Y-64706372D01*
X81904108Y-64703064D01*
X81924355Y-64680083D01*
X81929505Y-64675767D01*
X82010289Y-64621789D01*
X82121789Y-64510289D01*
X82209394Y-64379179D01*
X82269737Y-64233497D01*
X82300500Y-64078842D01*
X82300500Y-63921158D01*
X82300500Y-63921155D01*
X82300499Y-63921153D01*
X82269738Y-63766510D01*
X82269737Y-63766503D01*
X82269735Y-63766498D01*
X82219931Y-63646258D01*
X82209396Y-63620827D01*
X82209394Y-63620821D01*
X82209392Y-63620818D01*
X82209390Y-63620814D01*
X82196909Y-63602135D01*
X88149500Y-63602135D01*
X88149500Y-65397870D01*
X88149501Y-65397876D01*
X88155908Y-65457483D01*
X88206202Y-65592328D01*
X88206206Y-65592335D01*
X88292452Y-65707544D01*
X88292455Y-65707547D01*
X88407664Y-65793793D01*
X88407671Y-65793797D01*
X88542517Y-65844091D01*
X88542516Y-65844091D01*
X88549444Y-65844835D01*
X88602127Y-65850500D01*
X90397872Y-65850499D01*
X90457483Y-65844091D01*
X90592331Y-65793796D01*
X90707546Y-65707546D01*
X90793796Y-65592331D01*
X90844091Y-65457483D01*
X90850500Y-65397873D01*
X90850499Y-63602128D01*
X90844091Y-63542517D01*
X90829059Y-63502215D01*
X90793797Y-63407671D01*
X90793793Y-63407664D01*
X90707547Y-63292455D01*
X90707544Y-63292452D01*
X90592335Y-63206206D01*
X90592328Y-63206202D01*
X90457482Y-63155908D01*
X90457483Y-63155908D01*
X90397883Y-63149501D01*
X90397881Y-63149500D01*
X90397873Y-63149500D01*
X90397864Y-63149500D01*
X88602129Y-63149500D01*
X88602123Y-63149501D01*
X88542516Y-63155908D01*
X88407671Y-63206202D01*
X88407664Y-63206206D01*
X88292455Y-63292452D01*
X88292452Y-63292455D01*
X88206206Y-63407664D01*
X88206202Y-63407671D01*
X88155908Y-63542517D01*
X88153073Y-63568891D01*
X88149501Y-63602123D01*
X88149500Y-63602135D01*
X82196909Y-63602135D01*
X82121789Y-63489711D01*
X82121786Y-63489707D01*
X82010292Y-63378213D01*
X82010288Y-63378210D01*
X81879185Y-63290609D01*
X81879172Y-63290602D01*
X81733501Y-63230264D01*
X81733489Y-63230261D01*
X81578845Y-63199500D01*
X81578842Y-63199500D01*
X81421158Y-63199500D01*
X81421155Y-63199500D01*
X81266510Y-63230261D01*
X81266498Y-63230264D01*
X81120827Y-63290602D01*
X81120814Y-63290609D01*
X80989711Y-63378210D01*
X80989707Y-63378213D01*
X80878213Y-63489707D01*
X80878210Y-63489711D01*
X80790609Y-63620814D01*
X80790602Y-63620827D01*
X80730264Y-63766498D01*
X80730261Y-63766510D01*
X80699500Y-63921153D01*
X80699500Y-64078846D01*
X80730261Y-64233489D01*
X80730264Y-64233501D01*
X80790602Y-64379172D01*
X80790609Y-64379185D01*
X80878210Y-64510288D01*
X80878213Y-64510292D01*
X80989707Y-64621786D01*
X80989715Y-64621792D01*
X81022436Y-64643656D01*
X81067242Y-64697268D01*
X81075949Y-64766593D01*
X81045795Y-64829620D01*
X81022438Y-64849860D01*
X80942533Y-64903251D01*
X80803251Y-65042533D01*
X80803248Y-65042537D01*
X80693814Y-65206315D01*
X80693807Y-65206328D01*
X80618430Y-65388307D01*
X80618430Y-65388309D01*
X80610138Y-65430000D01*
X79219862Y-65430000D01*
X79211569Y-65388309D01*
X79211569Y-65388307D01*
X79136192Y-65206328D01*
X79136185Y-65206315D01*
X79026751Y-65042537D01*
X79026748Y-65042533D01*
X78887466Y-64903251D01*
X78887462Y-64903248D01*
X78723684Y-64793814D01*
X78723671Y-64793807D01*
X78541693Y-64718430D01*
X78541681Y-64718427D01*
X78348495Y-64680000D01*
X78200000Y-64680000D01*
X78200000Y-65380000D01*
X77700000Y-65380000D01*
X77700000Y-64680000D01*
X77551504Y-64680000D01*
X77358318Y-64718427D01*
X77358306Y-64718430D01*
X77176328Y-64793807D01*
X77176315Y-64793814D01*
X77012537Y-64903248D01*
X77012533Y-64903251D01*
X76873251Y-65042533D01*
X76873248Y-65042537D01*
X76763814Y-65206315D01*
X76763807Y-65206328D01*
X76688430Y-65388307D01*
X76688430Y-65388309D01*
X76680138Y-65430000D01*
X74000500Y-65430000D01*
X74000500Y-61921153D01*
X93199500Y-61921153D01*
X93199500Y-62078846D01*
X93230261Y-62233489D01*
X93230264Y-62233501D01*
X93290602Y-62379172D01*
X93290609Y-62379185D01*
X93325304Y-62431109D01*
X93346182Y-62497786D01*
X93327698Y-62565167D01*
X93325304Y-62568891D01*
X93290609Y-62620814D01*
X93290602Y-62620827D01*
X93230264Y-62766498D01*
X93230261Y-62766510D01*
X93199500Y-62921153D01*
X93199500Y-63078846D01*
X93230261Y-63233489D01*
X93230264Y-63233501D01*
X93290602Y-63379172D01*
X93290609Y-63379185D01*
X93325304Y-63431109D01*
X93346182Y-63497786D01*
X93327698Y-63565167D01*
X93325304Y-63568891D01*
X93290609Y-63620814D01*
X93290602Y-63620827D01*
X93230264Y-63766498D01*
X93230261Y-63766510D01*
X93199500Y-63921153D01*
X93199500Y-64078846D01*
X93230261Y-64233489D01*
X93230264Y-64233501D01*
X93290602Y-64379172D01*
X93290609Y-64379185D01*
X93378210Y-64510288D01*
X93378213Y-64510292D01*
X93489707Y-64621786D01*
X93489711Y-64621789D01*
X93620814Y-64709390D01*
X93620827Y-64709397D01*
X93766498Y-64769735D01*
X93766503Y-64769737D01*
X93921153Y-64800499D01*
X93921156Y-64800500D01*
X93921158Y-64800500D01*
X94078844Y-64800500D01*
X94078845Y-64800499D01*
X94233497Y-64769737D01*
X94379179Y-64709394D01*
X94510289Y-64621789D01*
X94621789Y-64510289D01*
X94709394Y-64379179D01*
X94769737Y-64233497D01*
X94800500Y-64078842D01*
X94800500Y-63921158D01*
X94800500Y-63921155D01*
X94800499Y-63921153D01*
X116199500Y-63921153D01*
X116199500Y-64078846D01*
X116230261Y-64233489D01*
X116230264Y-64233501D01*
X116290602Y-64379172D01*
X116290609Y-64379185D01*
X116378210Y-64510288D01*
X116378213Y-64510292D01*
X116489707Y-64621786D01*
X116489711Y-64621789D01*
X116620814Y-64709390D01*
X116620827Y-64709397D01*
X116766498Y-64769735D01*
X116766503Y-64769737D01*
X116921153Y-64800499D01*
X116921156Y-64800500D01*
X116921158Y-64800500D01*
X117078844Y-64800500D01*
X117078845Y-64800499D01*
X117233497Y-64769737D01*
X117379179Y-64709394D01*
X117510289Y-64621789D01*
X117621789Y-64510289D01*
X117709394Y-64379179D01*
X117769737Y-64233497D01*
X117800500Y-64078842D01*
X117800500Y-63921158D01*
X117800500Y-63921155D01*
X117800499Y-63921153D01*
X117769738Y-63766510D01*
X117769737Y-63766503D01*
X117769735Y-63766498D01*
X117709397Y-63620827D01*
X117709390Y-63620814D01*
X117621789Y-63489711D01*
X117621786Y-63489707D01*
X117510292Y-63378213D01*
X117510288Y-63378210D01*
X117379185Y-63290609D01*
X117379172Y-63290602D01*
X117233501Y-63230264D01*
X117233489Y-63230261D01*
X117078845Y-63199500D01*
X117078842Y-63199500D01*
X116921158Y-63199500D01*
X116921155Y-63199500D01*
X116766510Y-63230261D01*
X116766498Y-63230264D01*
X116620827Y-63290602D01*
X116620814Y-63290609D01*
X116489711Y-63378210D01*
X116489707Y-63378213D01*
X116378213Y-63489707D01*
X116378210Y-63489711D01*
X116290609Y-63620814D01*
X116290602Y-63620827D01*
X116230264Y-63766498D01*
X116230261Y-63766510D01*
X116199500Y-63921153D01*
X94800499Y-63921153D01*
X94769738Y-63766510D01*
X94769737Y-63766503D01*
X94769735Y-63766498D01*
X94709396Y-63620825D01*
X94709394Y-63620822D01*
X94709394Y-63620821D01*
X94674694Y-63568889D01*
X94653816Y-63502215D01*
X94672300Y-63434835D01*
X94674676Y-63431136D01*
X94709394Y-63379179D01*
X94769737Y-63233497D01*
X94800500Y-63078842D01*
X94800500Y-62921158D01*
X94800500Y-62921155D01*
X94800499Y-62921153D01*
X94769738Y-62766510D01*
X94769737Y-62766503D01*
X94769735Y-62766498D01*
X94709396Y-62620825D01*
X94709394Y-62620822D01*
X94709394Y-62620821D01*
X94674694Y-62568889D01*
X94653816Y-62502215D01*
X94672300Y-62434835D01*
X94674676Y-62431136D01*
X94709394Y-62379179D01*
X94769737Y-62233497D01*
X94800500Y-62078842D01*
X94800500Y-61921158D01*
X94800500Y-61921155D01*
X94800499Y-61921153D01*
X94770532Y-61770500D01*
X94769737Y-61766503D01*
X94758650Y-61739737D01*
X94709397Y-61620827D01*
X94709390Y-61620814D01*
X94621789Y-61489711D01*
X94621786Y-61489707D01*
X94510292Y-61378213D01*
X94510288Y-61378210D01*
X94379185Y-61290609D01*
X94379172Y-61290602D01*
X94233501Y-61230264D01*
X94233489Y-61230261D01*
X94078845Y-61199500D01*
X94078842Y-61199500D01*
X93921158Y-61199500D01*
X93921155Y-61199500D01*
X93766510Y-61230261D01*
X93766498Y-61230264D01*
X93620827Y-61290602D01*
X93620814Y-61290609D01*
X93489711Y-61378210D01*
X93489707Y-61378213D01*
X93378213Y-61489707D01*
X93378210Y-61489711D01*
X93290609Y-61620814D01*
X93290602Y-61620827D01*
X93230264Y-61766498D01*
X93230261Y-61766510D01*
X93199500Y-61921153D01*
X74000500Y-61921153D01*
X74000500Y-60891153D01*
X116199500Y-60891153D01*
X116199500Y-61048846D01*
X116230261Y-61203489D01*
X116230264Y-61203501D01*
X116290602Y-61349172D01*
X116290609Y-61349185D01*
X116378210Y-61480288D01*
X116378213Y-61480292D01*
X116489707Y-61591786D01*
X116489711Y-61591789D01*
X116620814Y-61679390D01*
X116620827Y-61679397D01*
X116766498Y-61739735D01*
X116766503Y-61739737D01*
X116901039Y-61766498D01*
X116921153Y-61770499D01*
X116921156Y-61770500D01*
X116921158Y-61770500D01*
X117078844Y-61770500D01*
X117078845Y-61770499D01*
X117233497Y-61739737D01*
X117379179Y-61679394D01*
X117510289Y-61591789D01*
X117621789Y-61480289D01*
X117709394Y-61349179D01*
X117769737Y-61203497D01*
X117800500Y-61048842D01*
X117800500Y-60891158D01*
X117800500Y-60891155D01*
X117800499Y-60891153D01*
X117769738Y-60736510D01*
X117769737Y-60736503D01*
X117769735Y-60736498D01*
X117709397Y-60590827D01*
X117709390Y-60590814D01*
X117621789Y-60459711D01*
X117621786Y-60459707D01*
X117510292Y-60348213D01*
X117510288Y-60348210D01*
X117379185Y-60260609D01*
X117379172Y-60260602D01*
X117233501Y-60200264D01*
X117233489Y-60200261D01*
X117180034Y-60189628D01*
X117180033Y-60189628D01*
X117078844Y-60169500D01*
X117078842Y-60169500D01*
X116921158Y-60169500D01*
X116921155Y-60169500D01*
X116766510Y-60200261D01*
X116766498Y-60200264D01*
X116620827Y-60260602D01*
X116620814Y-60260609D01*
X116489711Y-60348210D01*
X116489707Y-60348213D01*
X116378213Y-60459707D01*
X116378210Y-60459711D01*
X116290609Y-60590814D01*
X116290602Y-60590827D01*
X116230264Y-60736498D01*
X116230261Y-60736510D01*
X116199500Y-60891153D01*
X74000500Y-60891153D01*
X74000500Y-58893753D01*
X130570000Y-58893753D01*
X130570000Y-59106246D01*
X130603242Y-59316127D01*
X130603242Y-59316130D01*
X130668904Y-59518217D01*
X130765375Y-59707550D01*
X130804728Y-59761716D01*
X131437037Y-59129408D01*
X131454075Y-59192993D01*
X131519901Y-59307007D01*
X131612993Y-59400099D01*
X131727007Y-59465925D01*
X131790590Y-59482962D01*
X131158282Y-60115269D01*
X131158282Y-60115270D01*
X131212449Y-60154624D01*
X131401782Y-60251095D01*
X131603870Y-60316757D01*
X131813754Y-60350000D01*
X132026246Y-60350000D01*
X132236127Y-60316757D01*
X132236130Y-60316757D01*
X132438217Y-60251095D01*
X132627554Y-60154622D01*
X132681716Y-60115270D01*
X132681717Y-60115270D01*
X132049408Y-59482962D01*
X132112993Y-59465925D01*
X132227007Y-59400099D01*
X132320099Y-59307007D01*
X132385925Y-59192993D01*
X132402962Y-59129408D01*
X133035270Y-59761717D01*
X133035270Y-59761716D01*
X133074622Y-59707555D01*
X133079232Y-59698507D01*
X133127205Y-59647709D01*
X133195025Y-59630912D01*
X133261161Y-59653447D01*
X133300204Y-59698504D01*
X133304949Y-59707817D01*
X133429890Y-59879786D01*
X133580213Y-60030109D01*
X133752179Y-60155048D01*
X133752181Y-60155049D01*
X133752184Y-60155051D01*
X133941588Y-60251557D01*
X134143757Y-60317246D01*
X134353713Y-60350500D01*
X134353714Y-60350500D01*
X134566286Y-60350500D01*
X134566287Y-60350500D01*
X134776243Y-60317246D01*
X134978412Y-60251557D01*
X135167816Y-60155051D01*
X135254138Y-60092335D01*
X135339786Y-60030109D01*
X135339788Y-60030106D01*
X135339792Y-60030104D01*
X135490104Y-59879792D01*
X135490106Y-59879788D01*
X135490109Y-59879786D01*
X135615048Y-59707820D01*
X135615050Y-59707817D01*
X135615051Y-59707816D01*
X135619514Y-59699054D01*
X135667488Y-59648259D01*
X135735308Y-59631463D01*
X135801444Y-59653999D01*
X135840486Y-59699056D01*
X135844951Y-59707820D01*
X135969890Y-59879786D01*
X136120213Y-60030109D01*
X136292179Y-60155048D01*
X136292181Y-60155049D01*
X136292184Y-60155051D01*
X136481588Y-60251557D01*
X136683757Y-60317246D01*
X136893713Y-60350500D01*
X136893714Y-60350500D01*
X137106286Y-60350500D01*
X137106287Y-60350500D01*
X137316243Y-60317246D01*
X137518412Y-60251557D01*
X137707816Y-60155051D01*
X137879792Y-60030104D01*
X137993329Y-59916566D01*
X138054648Y-59883084D01*
X138124340Y-59888068D01*
X138180274Y-59929939D01*
X138197189Y-59960917D01*
X138246202Y-60092328D01*
X138246206Y-60092335D01*
X138332452Y-60207544D01*
X138332455Y-60207547D01*
X138447664Y-60293793D01*
X138447671Y-60293797D01*
X138582517Y-60344091D01*
X138582516Y-60344091D01*
X138589444Y-60344835D01*
X138642127Y-60350500D01*
X140437872Y-60350499D01*
X140497483Y-60344091D01*
X140632331Y-60293796D01*
X140747546Y-60207546D01*
X140833796Y-60092331D01*
X140884091Y-59957483D01*
X140890500Y-59897873D01*
X140890499Y-58102128D01*
X140884091Y-58042517D01*
X140882810Y-58039083D01*
X140833797Y-57907671D01*
X140833793Y-57907664D01*
X140747547Y-57792455D01*
X140747544Y-57792452D01*
X140632335Y-57706206D01*
X140632328Y-57706202D01*
X140497482Y-57655908D01*
X140497483Y-57655908D01*
X140437883Y-57649501D01*
X140437881Y-57649500D01*
X140437873Y-57649500D01*
X140437864Y-57649500D01*
X138642129Y-57649500D01*
X138642123Y-57649501D01*
X138582516Y-57655908D01*
X138447671Y-57706202D01*
X138447664Y-57706206D01*
X138332455Y-57792452D01*
X138332452Y-57792455D01*
X138246206Y-57907664D01*
X138246203Y-57907669D01*
X138197189Y-58039083D01*
X138155317Y-58095016D01*
X138089853Y-58119433D01*
X138021580Y-58104581D01*
X137993326Y-58083430D01*
X137879786Y-57969890D01*
X137707820Y-57844951D01*
X137518414Y-57748444D01*
X137518413Y-57748443D01*
X137518412Y-57748443D01*
X137316243Y-57682754D01*
X137316241Y-57682753D01*
X137316240Y-57682753D01*
X137154957Y-57657208D01*
X137106287Y-57649500D01*
X136893713Y-57649500D01*
X136845042Y-57657208D01*
X136683760Y-57682753D01*
X136481585Y-57748444D01*
X136292179Y-57844951D01*
X136120213Y-57969890D01*
X135969890Y-58120213D01*
X135844949Y-58292182D01*
X135840484Y-58300946D01*
X135792509Y-58351742D01*
X135724688Y-58368536D01*
X135658553Y-58345998D01*
X135619516Y-58300946D01*
X135615050Y-58292182D01*
X135490109Y-58120213D01*
X135339786Y-57969890D01*
X135167820Y-57844951D01*
X134978414Y-57748444D01*
X134978413Y-57748443D01*
X134978412Y-57748443D01*
X134776243Y-57682754D01*
X134776241Y-57682753D01*
X134776240Y-57682753D01*
X134614957Y-57657208D01*
X134566287Y-57649500D01*
X134353713Y-57649500D01*
X134305042Y-57657208D01*
X134143760Y-57682753D01*
X133941585Y-57748444D01*
X133752179Y-57844951D01*
X133580213Y-57969890D01*
X133429890Y-58120213D01*
X133304949Y-58292182D01*
X133300202Y-58301499D01*
X133252227Y-58352293D01*
X133184405Y-58369087D01*
X133118271Y-58346548D01*
X133079234Y-58301495D01*
X133074626Y-58292452D01*
X133035270Y-58238282D01*
X133035269Y-58238282D01*
X132402962Y-58870590D01*
X132385925Y-58807007D01*
X132320099Y-58692993D01*
X132227007Y-58599901D01*
X132112993Y-58534075D01*
X132049409Y-58517037D01*
X132681716Y-57884728D01*
X132627550Y-57845375D01*
X132438217Y-57748904D01*
X132236129Y-57683242D01*
X132026246Y-57650000D01*
X131813754Y-57650000D01*
X131603872Y-57683242D01*
X131603869Y-57683242D01*
X131401782Y-57748904D01*
X131212439Y-57845380D01*
X131158282Y-57884727D01*
X131158282Y-57884728D01*
X131790591Y-58517037D01*
X131727007Y-58534075D01*
X131612993Y-58599901D01*
X131519901Y-58692993D01*
X131454075Y-58807007D01*
X131437037Y-58870591D01*
X130804728Y-58238282D01*
X130804727Y-58238282D01*
X130765380Y-58292439D01*
X130668904Y-58481782D01*
X130603242Y-58683869D01*
X130603242Y-58683872D01*
X130570000Y-58893753D01*
X74000500Y-58893753D01*
X74000500Y-56921153D01*
X127199500Y-56921153D01*
X127199500Y-57078846D01*
X127230261Y-57233489D01*
X127230264Y-57233501D01*
X127290602Y-57379172D01*
X127290609Y-57379185D01*
X127378210Y-57510288D01*
X127378213Y-57510292D01*
X127489707Y-57621786D01*
X127489711Y-57621789D01*
X127620814Y-57709390D01*
X127620827Y-57709397D01*
X127716207Y-57748904D01*
X127766503Y-57769737D01*
X127921153Y-57800499D01*
X127921156Y-57800500D01*
X127921158Y-57800500D01*
X128078844Y-57800500D01*
X128078845Y-57800499D01*
X128233497Y-57769737D01*
X128379179Y-57709394D01*
X128510289Y-57621789D01*
X128621789Y-57510289D01*
X128709394Y-57379179D01*
X128769737Y-57233497D01*
X128800500Y-57078842D01*
X128800500Y-56921158D01*
X128800500Y-56921155D01*
X128800499Y-56921153D01*
X128791237Y-56874589D01*
X128769737Y-56766503D01*
X128709794Y-56621786D01*
X128709397Y-56620827D01*
X128709390Y-56620814D01*
X128621789Y-56489711D01*
X128621786Y-56489707D01*
X128510292Y-56378213D01*
X128510288Y-56378210D01*
X128379185Y-56290609D01*
X128379172Y-56290602D01*
X128233501Y-56230264D01*
X128233489Y-56230261D01*
X128078845Y-56199500D01*
X128078842Y-56199500D01*
X127921158Y-56199500D01*
X127921155Y-56199500D01*
X127766510Y-56230261D01*
X127766498Y-56230264D01*
X127620827Y-56290602D01*
X127620814Y-56290609D01*
X127489711Y-56378210D01*
X127489707Y-56378213D01*
X127378213Y-56489707D01*
X127378210Y-56489711D01*
X127290609Y-56620814D01*
X127290602Y-56620827D01*
X127230264Y-56766498D01*
X127230261Y-56766510D01*
X127199500Y-56921153D01*
X74000500Y-56921153D01*
X74000500Y-55421153D01*
X79699500Y-55421153D01*
X79699500Y-55578846D01*
X79730261Y-55733489D01*
X79730264Y-55733501D01*
X79790602Y-55879172D01*
X79790609Y-55879185D01*
X79878210Y-56010288D01*
X79878213Y-56010292D01*
X79989707Y-56121786D01*
X79989711Y-56121789D01*
X80120814Y-56209390D01*
X80120827Y-56209397D01*
X80266498Y-56269735D01*
X80266503Y-56269737D01*
X80421153Y-56300499D01*
X80421156Y-56300500D01*
X80421158Y-56300500D01*
X80578844Y-56300500D01*
X80578845Y-56300499D01*
X80733497Y-56269737D01*
X80879179Y-56209394D01*
X81010289Y-56121789D01*
X81121789Y-56010289D01*
X81209394Y-55879179D01*
X81269737Y-55733497D01*
X81300500Y-55578842D01*
X81300500Y-55421158D01*
X81300500Y-55421155D01*
X81300499Y-55421153D01*
X81291480Y-55375813D01*
X81269737Y-55266503D01*
X81256362Y-55234213D01*
X81209396Y-55120825D01*
X81209391Y-55120816D01*
X81170920Y-55063240D01*
X123199500Y-55063240D01*
X123199500Y-55220933D01*
X123230261Y-55375576D01*
X123230264Y-55375588D01*
X123290602Y-55521259D01*
X123290609Y-55521272D01*
X123378210Y-55652375D01*
X123378213Y-55652379D01*
X123489707Y-55763873D01*
X123489711Y-55763876D01*
X123620814Y-55851477D01*
X123620827Y-55851484D01*
X123756030Y-55907486D01*
X123766503Y-55911824D01*
X123921153Y-55942586D01*
X123921156Y-55942587D01*
X123921158Y-55942587D01*
X124078844Y-55942587D01*
X124078845Y-55942586D01*
X124186597Y-55921153D01*
X125199500Y-55921153D01*
X125199500Y-56078846D01*
X125230261Y-56233489D01*
X125230264Y-56233501D01*
X125290602Y-56379172D01*
X125290609Y-56379185D01*
X125378210Y-56510288D01*
X125378213Y-56510292D01*
X125489707Y-56621786D01*
X125489711Y-56621789D01*
X125620814Y-56709390D01*
X125620827Y-56709397D01*
X125758683Y-56766498D01*
X125766503Y-56769737D01*
X125921153Y-56800499D01*
X125921156Y-56800500D01*
X125921158Y-56800500D01*
X126078844Y-56800500D01*
X126078845Y-56800499D01*
X126089179Y-56798443D01*
X126114287Y-56793450D01*
X126114292Y-56793449D01*
X126199800Y-56776439D01*
X126233497Y-56769737D01*
X126379179Y-56709394D01*
X126510289Y-56621789D01*
X126621789Y-56510289D01*
X126709394Y-56379179D01*
X126769737Y-56233497D01*
X126800500Y-56078842D01*
X126800500Y-55921158D01*
X126800500Y-55921155D01*
X126800499Y-55921153D01*
X137199500Y-55921153D01*
X137199500Y-56078846D01*
X137230261Y-56233489D01*
X137230264Y-56233501D01*
X137290602Y-56379172D01*
X137290609Y-56379185D01*
X137378210Y-56510288D01*
X137378213Y-56510292D01*
X137489707Y-56621786D01*
X137489711Y-56621789D01*
X137620814Y-56709390D01*
X137620827Y-56709397D01*
X137758683Y-56766498D01*
X137766503Y-56769737D01*
X137921153Y-56800499D01*
X137921156Y-56800500D01*
X137921158Y-56800500D01*
X138078844Y-56800500D01*
X138078845Y-56800499D01*
X138233497Y-56769737D01*
X138379179Y-56709394D01*
X138510289Y-56621789D01*
X138621789Y-56510289D01*
X138709394Y-56379179D01*
X138769737Y-56233497D01*
X138800500Y-56078842D01*
X138800500Y-55921158D01*
X138800500Y-55921155D01*
X138800499Y-55921153D01*
X138769738Y-55766510D01*
X138769737Y-55766503D01*
X138722466Y-55652379D01*
X138709397Y-55620827D01*
X138709390Y-55620814D01*
X138621789Y-55489711D01*
X138621786Y-55489707D01*
X138510292Y-55378213D01*
X138510288Y-55378210D01*
X138379185Y-55290609D01*
X138379172Y-55290602D01*
X138233501Y-55230264D01*
X138233489Y-55230261D01*
X138078845Y-55199500D01*
X138078842Y-55199500D01*
X137921158Y-55199500D01*
X137921155Y-55199500D01*
X137766510Y-55230261D01*
X137766498Y-55230264D01*
X137620827Y-55290602D01*
X137620814Y-55290609D01*
X137489711Y-55378210D01*
X137489707Y-55378213D01*
X137378213Y-55489707D01*
X137378210Y-55489711D01*
X137290609Y-55620814D01*
X137290602Y-55620827D01*
X137230264Y-55766498D01*
X137230261Y-55766510D01*
X137199500Y-55921153D01*
X126800499Y-55921153D01*
X126769738Y-55766510D01*
X126769737Y-55766503D01*
X126722466Y-55652379D01*
X126709397Y-55620827D01*
X126709390Y-55620814D01*
X126621789Y-55489711D01*
X126621786Y-55489707D01*
X126510292Y-55378213D01*
X126510288Y-55378210D01*
X126379185Y-55290609D01*
X126379172Y-55290602D01*
X126233501Y-55230264D01*
X126233489Y-55230261D01*
X126078845Y-55199500D01*
X126078842Y-55199500D01*
X125921158Y-55199500D01*
X125921155Y-55199500D01*
X125766510Y-55230261D01*
X125766498Y-55230264D01*
X125620827Y-55290602D01*
X125620814Y-55290609D01*
X125489711Y-55378210D01*
X125489707Y-55378213D01*
X125378213Y-55489707D01*
X125378210Y-55489711D01*
X125290609Y-55620814D01*
X125290602Y-55620827D01*
X125230264Y-55766498D01*
X125230261Y-55766510D01*
X125199500Y-55921153D01*
X124186597Y-55921153D01*
X124233497Y-55911824D01*
X124379179Y-55851481D01*
X124379185Y-55851477D01*
X124438321Y-55811964D01*
X124467873Y-55792217D01*
X124510289Y-55763876D01*
X124621789Y-55652376D01*
X124709394Y-55521266D01*
X124769737Y-55375584D01*
X124800500Y-55220929D01*
X124800500Y-55063245D01*
X124800500Y-55063242D01*
X124800499Y-55063240D01*
X124799314Y-55057284D01*
X124769737Y-54908590D01*
X124720867Y-54790606D01*
X124709397Y-54762914D01*
X124709390Y-54762901D01*
X124621789Y-54631798D01*
X124621786Y-54631794D01*
X124510292Y-54520300D01*
X124510288Y-54520297D01*
X124379185Y-54432696D01*
X124379172Y-54432689D01*
X124233501Y-54372351D01*
X124233489Y-54372348D01*
X124078845Y-54341587D01*
X124078842Y-54341587D01*
X123921158Y-54341587D01*
X123921155Y-54341587D01*
X123766510Y-54372348D01*
X123766498Y-54372351D01*
X123620827Y-54432689D01*
X123620814Y-54432696D01*
X123489711Y-54520297D01*
X123489707Y-54520300D01*
X123378213Y-54631794D01*
X123378210Y-54631798D01*
X123290609Y-54762901D01*
X123290602Y-54762914D01*
X123230264Y-54908585D01*
X123230261Y-54908597D01*
X123199500Y-55063240D01*
X81170920Y-55063240D01*
X81121789Y-54989711D01*
X81121786Y-54989707D01*
X81010292Y-54878213D01*
X81010288Y-54878210D01*
X80879185Y-54790609D01*
X80879172Y-54790602D01*
X80733501Y-54730264D01*
X80733489Y-54730261D01*
X80578845Y-54699500D01*
X80578842Y-54699500D01*
X80421158Y-54699500D01*
X80421155Y-54699500D01*
X80266510Y-54730261D01*
X80266498Y-54730264D01*
X80120827Y-54790602D01*
X80120814Y-54790609D01*
X79989711Y-54878210D01*
X79989707Y-54878213D01*
X79878213Y-54989707D01*
X79878210Y-54989711D01*
X79790609Y-55120814D01*
X79790602Y-55120827D01*
X79730264Y-55266498D01*
X79730261Y-55266510D01*
X79699500Y-55421153D01*
X74000500Y-55421153D01*
X74000500Y-53921153D01*
X115199500Y-53921153D01*
X115199500Y-54078846D01*
X115230261Y-54233489D01*
X115230264Y-54233501D01*
X115290602Y-54379172D01*
X115290609Y-54379185D01*
X115378210Y-54510288D01*
X115378213Y-54510292D01*
X115489707Y-54621786D01*
X115489711Y-54621789D01*
X115620814Y-54709390D01*
X115620827Y-54709397D01*
X115766498Y-54769735D01*
X115766503Y-54769737D01*
X115921153Y-54800499D01*
X115921156Y-54800500D01*
X115921158Y-54800500D01*
X116078844Y-54800500D01*
X116078845Y-54800499D01*
X116233497Y-54769737D01*
X116379179Y-54709394D01*
X116510289Y-54621789D01*
X116621789Y-54510289D01*
X116709394Y-54379179D01*
X116712224Y-54372348D01*
X116769735Y-54233501D01*
X116769737Y-54233497D01*
X116800500Y-54078842D01*
X116800500Y-53921158D01*
X116800500Y-53921155D01*
X116800499Y-53921153D01*
X116769738Y-53766510D01*
X116769737Y-53766503D01*
X116733841Y-53679842D01*
X116709397Y-53620827D01*
X116709390Y-53620814D01*
X116685431Y-53584957D01*
X116643466Y-53522153D01*
X117699500Y-53522153D01*
X117699500Y-53679846D01*
X117730261Y-53834489D01*
X117730264Y-53834501D01*
X117790602Y-53980172D01*
X117790609Y-53980185D01*
X117878210Y-54111288D01*
X117878213Y-54111292D01*
X117989707Y-54222786D01*
X117989711Y-54222789D01*
X118120814Y-54310390D01*
X118120827Y-54310397D01*
X118266498Y-54370735D01*
X118266503Y-54370737D01*
X118421153Y-54401499D01*
X118421156Y-54401500D01*
X118421158Y-54401500D01*
X118578844Y-54401500D01*
X118578845Y-54401499D01*
X118733497Y-54370737D01*
X118879179Y-54310394D01*
X119010289Y-54222789D01*
X119121789Y-54111289D01*
X119209394Y-53980179D01*
X119269737Y-53834497D01*
X119300500Y-53679842D01*
X119300500Y-53522158D01*
X119300500Y-53522155D01*
X119300499Y-53522153D01*
X119271867Y-53378211D01*
X119269737Y-53367503D01*
X119237887Y-53290609D01*
X119209397Y-53221827D01*
X119209390Y-53221814D01*
X119121789Y-53090711D01*
X119121786Y-53090707D01*
X119010292Y-52979213D01*
X119010288Y-52979210D01*
X118879185Y-52891609D01*
X118879172Y-52891602D01*
X118733501Y-52831264D01*
X118733489Y-52831261D01*
X118578845Y-52800500D01*
X118578842Y-52800500D01*
X118421158Y-52800500D01*
X118421155Y-52800500D01*
X118266510Y-52831261D01*
X118266498Y-52831264D01*
X118120827Y-52891602D01*
X118120814Y-52891609D01*
X117989711Y-52979210D01*
X117989707Y-52979213D01*
X117878213Y-53090707D01*
X117878210Y-53090711D01*
X117790609Y-53221814D01*
X117790602Y-53221827D01*
X117730264Y-53367498D01*
X117730261Y-53367510D01*
X117699500Y-53522153D01*
X116643466Y-53522153D01*
X116621789Y-53489711D01*
X116621786Y-53489707D01*
X116510292Y-53378213D01*
X116510288Y-53378210D01*
X116379185Y-53290609D01*
X116379172Y-53290602D01*
X116233501Y-53230264D01*
X116233489Y-53230261D01*
X116078845Y-53199500D01*
X116078842Y-53199500D01*
X115921158Y-53199500D01*
X115921155Y-53199500D01*
X115766510Y-53230261D01*
X115766498Y-53230264D01*
X115620827Y-53290602D01*
X115620814Y-53290609D01*
X115489711Y-53378210D01*
X115489707Y-53378213D01*
X115378213Y-53489707D01*
X115378210Y-53489711D01*
X115290609Y-53620814D01*
X115290602Y-53620827D01*
X115230264Y-53766498D01*
X115230261Y-53766510D01*
X115199500Y-53921153D01*
X74000500Y-53921153D01*
X74000500Y-51820321D01*
X91598668Y-51820321D01*
X91598668Y-51978014D01*
X91629429Y-52132657D01*
X91629432Y-52132669D01*
X91689770Y-52278340D01*
X91689777Y-52278353D01*
X91777378Y-52409456D01*
X91777381Y-52409460D01*
X91888875Y-52520954D01*
X91888879Y-52520957D01*
X92019982Y-52608558D01*
X92019995Y-52608565D01*
X92165666Y-52668903D01*
X92165671Y-52668905D01*
X92320321Y-52699667D01*
X92320324Y-52699668D01*
X92320326Y-52699668D01*
X92478012Y-52699668D01*
X92478013Y-52699667D01*
X92632665Y-52668905D01*
X92778347Y-52608562D01*
X92909457Y-52520957D01*
X93020957Y-52409457D01*
X93108562Y-52278347D01*
X93168905Y-52132665D01*
X93199668Y-51978010D01*
X93199668Y-51958504D01*
X93202218Y-51949818D01*
X93200930Y-51940857D01*
X93211908Y-51916816D01*
X93219353Y-51891465D01*
X93226193Y-51885537D01*
X93229955Y-51877301D01*
X93252189Y-51863011D01*
X93272157Y-51845710D01*
X93282671Y-51843422D01*
X93288733Y-51839527D01*
X93323668Y-51834504D01*
X93370070Y-51834504D01*
X93437109Y-51854189D01*
X93482864Y-51906993D01*
X93492808Y-51976151D01*
X93484632Y-52005954D01*
X93480264Y-52016498D01*
X93480261Y-52016510D01*
X93449500Y-52171153D01*
X93449500Y-52328846D01*
X93480261Y-52483489D01*
X93480264Y-52483501D01*
X93540602Y-52629172D01*
X93540609Y-52629185D01*
X93628210Y-52760288D01*
X93628213Y-52760292D01*
X93739707Y-52871786D01*
X93739711Y-52871789D01*
X93870814Y-52959390D01*
X93870827Y-52959397D01*
X94016498Y-53019735D01*
X94016503Y-53019737D01*
X94171153Y-53050499D01*
X94171156Y-53050500D01*
X94171158Y-53050500D01*
X94328844Y-53050500D01*
X94328845Y-53050499D01*
X94483497Y-53019737D01*
X94629179Y-52959394D01*
X94760289Y-52871789D01*
X94871789Y-52760289D01*
X94959394Y-52629179D01*
X95019737Y-52483497D01*
X95050500Y-52328842D01*
X95050500Y-52171158D01*
X95050500Y-52171155D01*
X95050499Y-52171153D01*
X95019738Y-52016510D01*
X95019737Y-52016503D01*
X95019735Y-52016498D01*
X94959397Y-51870827D01*
X94959390Y-51870814D01*
X94871789Y-51739711D01*
X94871786Y-51739707D01*
X94760292Y-51628213D01*
X94760288Y-51628210D01*
X94629185Y-51540609D01*
X94629172Y-51540602D01*
X94483501Y-51480264D01*
X94483489Y-51480261D01*
X94328845Y-51449500D01*
X94328842Y-51449500D01*
X94279930Y-51449500D01*
X94212891Y-51429815D01*
X94167136Y-51377011D01*
X94157192Y-51307853D01*
X94158969Y-51298216D01*
X94161305Y-51287855D01*
X94169737Y-51267501D01*
X94192074Y-51155205D01*
X115281079Y-51155205D01*
X115281079Y-51312898D01*
X115311840Y-51467541D01*
X115311843Y-51467553D01*
X115372181Y-51613224D01*
X115372188Y-51613237D01*
X115459789Y-51744340D01*
X115459792Y-51744344D01*
X115571286Y-51855838D01*
X115571290Y-51855841D01*
X115702393Y-51943442D01*
X115702406Y-51943449D01*
X115785850Y-51978012D01*
X115848082Y-52003789D01*
X116002732Y-52034551D01*
X116002735Y-52034552D01*
X116002737Y-52034552D01*
X116160423Y-52034552D01*
X116160424Y-52034551D01*
X116315076Y-52003789D01*
X116460758Y-51943446D01*
X116591868Y-51855841D01*
X116703368Y-51744341D01*
X116752271Y-51671153D01*
X118639500Y-51671153D01*
X118639500Y-51828846D01*
X118670261Y-51983489D01*
X118670264Y-51983501D01*
X118730602Y-52129172D01*
X118730609Y-52129185D01*
X118818210Y-52260288D01*
X118818213Y-52260292D01*
X118929707Y-52371786D01*
X118929711Y-52371789D01*
X119060814Y-52459390D01*
X119060827Y-52459397D01*
X119206498Y-52519735D01*
X119206503Y-52519737D01*
X119361153Y-52550499D01*
X119361156Y-52550500D01*
X119361158Y-52550500D01*
X119518844Y-52550500D01*
X119518845Y-52550499D01*
X119673497Y-52519737D01*
X119819179Y-52459394D01*
X119950289Y-52371789D01*
X120061789Y-52260289D01*
X120149394Y-52129179D01*
X120209737Y-51983497D01*
X120240500Y-51828842D01*
X120240500Y-51671158D01*
X120240500Y-51671155D01*
X120240499Y-51671153D01*
X123639500Y-51671153D01*
X123639500Y-51828846D01*
X123670261Y-51983489D01*
X123670264Y-51983501D01*
X123730602Y-52129172D01*
X123730609Y-52129185D01*
X123818210Y-52260288D01*
X123818213Y-52260292D01*
X123929707Y-52371786D01*
X123929711Y-52371789D01*
X124060814Y-52459390D01*
X124060827Y-52459397D01*
X124206498Y-52519735D01*
X124206503Y-52519737D01*
X124361153Y-52550499D01*
X124361156Y-52550500D01*
X124361158Y-52550500D01*
X124518844Y-52550500D01*
X124518845Y-52550499D01*
X124673497Y-52519737D01*
X124819179Y-52459394D01*
X124950289Y-52371789D01*
X125061789Y-52260289D01*
X125149394Y-52129179D01*
X125209737Y-51983497D01*
X125240500Y-51828842D01*
X125240500Y-51671158D01*
X125240500Y-51671155D01*
X125240499Y-51671153D01*
X125228979Y-51613237D01*
X125209737Y-51516503D01*
X125209735Y-51516498D01*
X125149397Y-51370827D01*
X125149390Y-51370814D01*
X125061789Y-51239711D01*
X125061786Y-51239707D01*
X124950292Y-51128213D01*
X124950288Y-51128210D01*
X124819185Y-51040609D01*
X124819172Y-51040602D01*
X124673501Y-50980264D01*
X124673489Y-50980261D01*
X124518845Y-50949500D01*
X124518842Y-50949500D01*
X124361158Y-50949500D01*
X124361155Y-50949500D01*
X124206510Y-50980261D01*
X124206498Y-50980264D01*
X124060827Y-51040602D01*
X124060814Y-51040609D01*
X123929711Y-51128210D01*
X123929707Y-51128213D01*
X123818213Y-51239707D01*
X123818210Y-51239711D01*
X123730609Y-51370814D01*
X123730602Y-51370827D01*
X123670264Y-51516498D01*
X123670261Y-51516510D01*
X123639500Y-51671153D01*
X120240499Y-51671153D01*
X120228979Y-51613237D01*
X120209737Y-51516503D01*
X120209735Y-51516498D01*
X120149397Y-51370827D01*
X120149390Y-51370814D01*
X120061789Y-51239711D01*
X120061786Y-51239707D01*
X119950292Y-51128213D01*
X119950288Y-51128210D01*
X119819185Y-51040609D01*
X119819172Y-51040602D01*
X119673501Y-50980264D01*
X119673489Y-50980261D01*
X119518845Y-50949500D01*
X119518842Y-50949500D01*
X119361158Y-50949500D01*
X119361155Y-50949500D01*
X119206510Y-50980261D01*
X119206498Y-50980264D01*
X119060827Y-51040602D01*
X119060814Y-51040609D01*
X118929711Y-51128210D01*
X118929707Y-51128213D01*
X118818213Y-51239707D01*
X118818210Y-51239711D01*
X118730609Y-51370814D01*
X118730602Y-51370827D01*
X118670264Y-51516498D01*
X118670261Y-51516510D01*
X118639500Y-51671153D01*
X116752271Y-51671153D01*
X116790973Y-51613231D01*
X116851316Y-51467549D01*
X116882079Y-51312894D01*
X116882079Y-51155210D01*
X116882079Y-51155207D01*
X116882078Y-51155205D01*
X116876709Y-51128213D01*
X116851316Y-51000555D01*
X116832512Y-50955157D01*
X116790976Y-50854879D01*
X116790969Y-50854866D01*
X116703368Y-50723763D01*
X116703365Y-50723759D01*
X116591871Y-50612265D01*
X116591867Y-50612262D01*
X116460764Y-50524661D01*
X116460751Y-50524654D01*
X116315080Y-50464316D01*
X116315068Y-50464313D01*
X116160424Y-50433552D01*
X116160421Y-50433552D01*
X116002737Y-50433552D01*
X116002734Y-50433552D01*
X115848089Y-50464313D01*
X115848077Y-50464316D01*
X115702406Y-50524654D01*
X115702393Y-50524661D01*
X115571290Y-50612262D01*
X115571286Y-50612265D01*
X115459792Y-50723759D01*
X115459789Y-50723763D01*
X115372188Y-50854866D01*
X115372181Y-50854879D01*
X115311843Y-51000550D01*
X115311840Y-51000562D01*
X115281079Y-51155205D01*
X94192074Y-51155205D01*
X94200500Y-51112846D01*
X94200500Y-50955162D01*
X94200500Y-50955159D01*
X94200499Y-50955157D01*
X94180551Y-50854873D01*
X94169737Y-50800507D01*
X94137947Y-50723759D01*
X94109397Y-50654831D01*
X94109390Y-50654818D01*
X94021789Y-50523715D01*
X94021786Y-50523711D01*
X93910292Y-50412217D01*
X93910288Y-50412214D01*
X93779185Y-50324613D01*
X93779172Y-50324606D01*
X93633501Y-50264268D01*
X93633489Y-50264265D01*
X93478845Y-50233504D01*
X93478842Y-50233504D01*
X93321158Y-50233504D01*
X93321155Y-50233504D01*
X93166510Y-50264265D01*
X93166498Y-50264268D01*
X93020827Y-50324606D01*
X93020814Y-50324613D01*
X92889711Y-50412214D01*
X92889707Y-50412217D01*
X92778213Y-50523711D01*
X92778210Y-50523715D01*
X92690609Y-50654818D01*
X92690602Y-50654831D01*
X92630264Y-50800502D01*
X92630261Y-50800514D01*
X92599500Y-50955157D01*
X92599500Y-50974668D01*
X92579815Y-51041707D01*
X92527011Y-51087462D01*
X92475500Y-51098668D01*
X92320323Y-51098668D01*
X92165678Y-51129429D01*
X92165666Y-51129432D01*
X92019995Y-51189770D01*
X92019982Y-51189777D01*
X91888879Y-51277378D01*
X91888875Y-51277381D01*
X91777381Y-51388875D01*
X91777378Y-51388879D01*
X91689777Y-51519982D01*
X91689770Y-51519995D01*
X91629432Y-51665666D01*
X91629429Y-51665678D01*
X91598668Y-51820321D01*
X74000500Y-51820321D01*
X74000500Y-48675751D01*
X77206850Y-48675751D01*
X77206850Y-48833444D01*
X77237611Y-48988087D01*
X77237614Y-48988099D01*
X77297952Y-49133769D01*
X77297953Y-49133770D01*
X77297956Y-49133777D01*
X77297961Y-49133785D01*
X77314483Y-49158511D01*
X77335361Y-49225188D01*
X77316877Y-49292568D01*
X77314485Y-49296290D01*
X77300082Y-49317846D01*
X77300074Y-49317860D01*
X77239736Y-49463530D01*
X77239733Y-49463542D01*
X77208972Y-49618185D01*
X77208972Y-49775878D01*
X77239733Y-49930521D01*
X77239736Y-49930533D01*
X77300074Y-50076204D01*
X77300081Y-50076217D01*
X77387682Y-50207320D01*
X77387685Y-50207324D01*
X77499179Y-50318818D01*
X77499183Y-50318821D01*
X77630286Y-50406422D01*
X77630299Y-50406429D01*
X77770050Y-50464315D01*
X77775975Y-50466769D01*
X77930625Y-50497531D01*
X77930628Y-50497532D01*
X77930630Y-50497532D01*
X78088316Y-50497532D01*
X78088317Y-50497531D01*
X78242969Y-50466769D01*
X78374675Y-50412215D01*
X78388644Y-50406429D01*
X78388644Y-50406428D01*
X78388651Y-50406426D01*
X78519761Y-50318821D01*
X78631261Y-50207321D01*
X78718866Y-50076211D01*
X78779209Y-49930529D01*
X78809972Y-49775874D01*
X78809972Y-49618190D01*
X78809972Y-49618187D01*
X78809971Y-49618185D01*
X78779209Y-49463535D01*
X78779207Y-49463530D01*
X78718869Y-49317859D01*
X78718867Y-49317855D01*
X78718866Y-49317853D01*
X78702339Y-49293118D01*
X78681461Y-49226441D01*
X78699945Y-49159061D01*
X78702340Y-49155335D01*
X78716739Y-49133785D01*
X78716741Y-49133781D01*
X78716744Y-49133777D01*
X78777087Y-48988095D01*
X78807850Y-48833440D01*
X78807850Y-48675756D01*
X78807850Y-48675753D01*
X78807849Y-48675751D01*
X78789298Y-48582489D01*
X78777087Y-48521101D01*
X78772489Y-48510000D01*
X78716747Y-48375425D01*
X78716740Y-48375412D01*
X78629139Y-48244309D01*
X78629136Y-48244305D01*
X78517642Y-48132811D01*
X78517638Y-48132808D01*
X78386535Y-48045207D01*
X78386522Y-48045200D01*
X78240851Y-47984862D01*
X78240839Y-47984859D01*
X78086195Y-47954098D01*
X78086192Y-47954098D01*
X77928508Y-47954098D01*
X77928505Y-47954098D01*
X77773860Y-47984859D01*
X77773848Y-47984862D01*
X77628177Y-48045200D01*
X77628164Y-48045207D01*
X77497061Y-48132808D01*
X77497057Y-48132811D01*
X77385563Y-48244305D01*
X77385560Y-48244309D01*
X77297959Y-48375412D01*
X77297952Y-48375425D01*
X77237614Y-48521096D01*
X77237611Y-48521108D01*
X77206850Y-48675751D01*
X74000500Y-48675751D01*
X74000500Y-45397648D01*
X75199500Y-45397648D01*
X75199500Y-45602351D01*
X75231522Y-45804534D01*
X75294781Y-45999223D01*
X75387715Y-46181613D01*
X75508028Y-46347213D01*
X75652786Y-46491971D01*
X75807749Y-46604556D01*
X75818390Y-46612287D01*
X75934607Y-46671503D01*
X76000776Y-46705218D01*
X76000778Y-46705218D01*
X76000781Y-46705220D01*
X76105137Y-46739127D01*
X76195465Y-46768477D01*
X76296557Y-46784488D01*
X76397648Y-46800500D01*
X76397649Y-46800500D01*
X76602351Y-46800500D01*
X76602352Y-46800500D01*
X76804534Y-46768477D01*
X76999219Y-46705220D01*
X77181610Y-46612287D01*
X77274590Y-46544732D01*
X77347213Y-46491971D01*
X77347215Y-46491968D01*
X77347219Y-46491966D01*
X77491966Y-46347219D01*
X77491968Y-46347215D01*
X77491971Y-46347213D01*
X77544732Y-46274590D01*
X77612287Y-46181610D01*
X77705220Y-45999219D01*
X77768477Y-45804534D01*
X77800500Y-45602352D01*
X77800500Y-45397648D01*
X77768477Y-45195466D01*
X77705220Y-45000781D01*
X77705218Y-45000778D01*
X77705218Y-45000776D01*
X77671503Y-44934607D01*
X77612287Y-44818390D01*
X77604556Y-44807749D01*
X77491971Y-44652786D01*
X77347213Y-44508028D01*
X77181613Y-44387715D01*
X77181612Y-44387714D01*
X77181610Y-44387713D01*
X77124653Y-44358691D01*
X76999223Y-44294781D01*
X76804534Y-44231522D01*
X76629995Y-44203878D01*
X76602352Y-44199500D01*
X76397648Y-44199500D01*
X76373329Y-44203351D01*
X76195465Y-44231522D01*
X76000776Y-44294781D01*
X75818386Y-44387715D01*
X75652786Y-44508028D01*
X75508028Y-44652786D01*
X75387715Y-44818386D01*
X75294781Y-45000776D01*
X75231522Y-45195465D01*
X75199500Y-45397648D01*
X74000500Y-45397648D01*
X74000500Y-43124500D01*
X74020185Y-43057461D01*
X74072989Y-43011706D01*
X74124500Y-43000500D01*
X80126000Y-43000500D01*
X80193039Y-43020185D01*
G37*
G04 #@! TD.AperFunction*
G04 #@! TD*
M02*
