%TF.GenerationSoftware,KiCad,Pcbnew,9.0.7*%
%TF.CreationDate,2026-03-10T23:21:33-07:00*%
%TF.ProjectId,Main Board,4d61696e-2042-46f6-9172-642e6b696361,rev?*%
%TF.SameCoordinates,Original*%
%TF.FileFunction,Drillmap*%
%TF.FilePolarity,Positive*%
%FSLAX45Y45*%
G04 Gerber Fmt 4.5, Leading zero omitted, Abs format (unit mm)*
G04 Created by KiCad (PCBNEW 9.0.7) date 2026-03-10 23:21:33*
%MOMM*%
%LPD*%
G01*
G04 APERTURE LIST*
%ADD10C,0.050000*%
%ADD11C,0.200000*%
%ADD12C,0.100000*%
G04 APERTURE END LIST*
D10*
X7350000Y-4250000D02*
X14450000Y-4250000D01*
X14450000Y-10000000D01*
X7350000Y-10000000D01*
X7350000Y-4250000D01*
D11*
D12*
X9170000Y-7370000D02*
X9190000Y-7390000D01*
X9190000Y-7370000D02*
X9170000Y-7390000D01*
X9170000Y-7490000D02*
X9190000Y-7510000D01*
X9190000Y-7490000D02*
X9170000Y-7510000D01*
X9170000Y-7610000D02*
X9190000Y-7630000D01*
X9190000Y-7610000D02*
X9170000Y-7630000D01*
X9310000Y-7370000D02*
X9330000Y-7390000D01*
X9330000Y-7370000D02*
X9310000Y-7390000D01*
X9310000Y-7490000D02*
X9330000Y-7510000D01*
X9330000Y-7490000D02*
X9310000Y-7510000D01*
X9310000Y-7610000D02*
X9330000Y-7630000D01*
X9330000Y-7610000D02*
X9310000Y-7630000D01*
X10129000Y-5450000D02*
X10149000Y-5470000D01*
X10149000Y-5450000D02*
X10129000Y-5470000D01*
X10129000Y-5600000D02*
X10149000Y-5620000D01*
X10149000Y-5600000D02*
X10129000Y-5620000D01*
X10204000Y-5375000D02*
X10224000Y-5395000D01*
X10224000Y-5375000D02*
X10204000Y-5395000D01*
X10204000Y-5525000D02*
X10224000Y-5545000D01*
X10224000Y-5525000D02*
X10204000Y-5545000D01*
X10204000Y-5675000D02*
X10224000Y-5695000D01*
X10224000Y-5675000D02*
X10204000Y-5695000D01*
X10279000Y-5450000D02*
X10299000Y-5470000D01*
X10299000Y-5450000D02*
X10279000Y-5470000D01*
X10279000Y-5600000D02*
X10299000Y-5620000D01*
X10299000Y-5600000D02*
X10279000Y-5620000D01*
X10354000Y-5375000D02*
X10374000Y-5395000D01*
X10374000Y-5375000D02*
X10354000Y-5395000D01*
X10354000Y-5525000D02*
X10374000Y-5545000D01*
X10374000Y-5525000D02*
X10354000Y-5545000D01*
X10354000Y-5675000D02*
X10374000Y-5695000D01*
X10374000Y-5675000D02*
X10354000Y-5695000D01*
X10429000Y-5450000D02*
X10449000Y-5470000D01*
X10449000Y-5450000D02*
X10429000Y-5470000D01*
X10429000Y-5600000D02*
X10449000Y-5620000D01*
X10449000Y-5600000D02*
X10429000Y-5620000D01*
X7515000Y-8596814D02*
G75*
G02*
X7485000Y-8596814I-15000J0D01*
G01*
X7485000Y-8596814D02*
G75*
G02*
X7515000Y-8596814I15000J0D01*
G01*
X7549064Y-4874403D02*
G75*
G02*
X7519064Y-4874403I-15000J0D01*
G01*
X7519064Y-4874403D02*
G75*
G02*
X7549064Y-4874403I15000J0D01*
G01*
X7549064Y-4969942D02*
G75*
G02*
X7519064Y-4969942I-15000J0D01*
G01*
X7519064Y-4969942D02*
G75*
G02*
X7549064Y-4969942I15000J0D01*
G01*
X7612920Y-8960758D02*
G75*
G02*
X7582920Y-8960758I-15000J0D01*
G01*
X7582920Y-8960758D02*
G75*
G02*
X7612920Y-8960758I15000J0D01*
G01*
X7615000Y-8200000D02*
G75*
G02*
X7585000Y-8200000I-15000J0D01*
G01*
X7585000Y-8200000D02*
G75*
G02*
X7615000Y-8200000I15000J0D01*
G01*
X7715000Y-8956298D02*
G75*
G02*
X7685000Y-8956298I-15000J0D01*
G01*
X7685000Y-8956298D02*
G75*
G02*
X7715000Y-8956298I15000J0D01*
G01*
X7815000Y-8600000D02*
G75*
G02*
X7785000Y-8600000I-15000J0D01*
G01*
X7785000Y-8600000D02*
G75*
G02*
X7815000Y-8600000I15000J0D01*
G01*
X7815000Y-8868921D02*
G75*
G02*
X7785000Y-8868921I-15000J0D01*
G01*
X7785000Y-8868921D02*
G75*
G02*
X7815000Y-8868921I15000J0D01*
G01*
X7815000Y-8950000D02*
G75*
G02*
X7785000Y-8950000I-15000J0D01*
G01*
X7785000Y-8950000D02*
G75*
G02*
X7815000Y-8950000I15000J0D01*
G01*
X7815735Y-4875460D02*
G75*
G02*
X7785735Y-4875460I-15000J0D01*
G01*
X7785735Y-4875460D02*
G75*
G02*
X7815735Y-4875460I15000J0D01*
G01*
X7815947Y-4969703D02*
G75*
G02*
X7785947Y-4969703I-15000J0D01*
G01*
X7785947Y-4969703D02*
G75*
G02*
X7815947Y-4969703I15000J0D01*
G01*
X7963000Y-8239990D02*
G75*
G02*
X7933000Y-8239990I-15000J0D01*
G01*
X7933000Y-8239990D02*
G75*
G02*
X7963000Y-8239990I15000J0D01*
G01*
X7970175Y-8594825D02*
G75*
G02*
X7940175Y-8594825I-15000J0D01*
G01*
X7940175Y-8594825D02*
G75*
G02*
X7970175Y-8594825I15000J0D01*
G01*
X8015000Y-9000000D02*
G75*
G02*
X7985000Y-9000000I-15000J0D01*
G01*
X7985000Y-9000000D02*
G75*
G02*
X8015000Y-9000000I15000J0D01*
G01*
X8065000Y-5350000D02*
G75*
G02*
X8035000Y-5350000I-15000J0D01*
G01*
X8035000Y-5350000D02*
G75*
G02*
X8065000Y-5350000I15000J0D01*
G01*
X8065000Y-5550000D02*
G75*
G02*
X8035000Y-5550000I-15000J0D01*
G01*
X8035000Y-5550000D02*
G75*
G02*
X8065000Y-5550000I15000J0D01*
G01*
X8115000Y-9000000D02*
G75*
G02*
X8085000Y-9000000I-15000J0D01*
G01*
X8085000Y-9000000D02*
G75*
G02*
X8115000Y-9000000I15000J0D01*
G01*
X8163000Y-8239990D02*
G75*
G02*
X8133000Y-8239990I-15000J0D01*
G01*
X8133000Y-8239990D02*
G75*
G02*
X8163000Y-8239990I15000J0D01*
G01*
X8165000Y-6400000D02*
G75*
G02*
X8135000Y-6400000I-15000J0D01*
G01*
X8135000Y-6400000D02*
G75*
G02*
X8165000Y-6400000I15000J0D01*
G01*
X8165000Y-8600000D02*
G75*
G02*
X8135000Y-8600000I-15000J0D01*
G01*
X8135000Y-8600000D02*
G75*
G02*
X8165000Y-8600000I15000J0D01*
G01*
X8315000Y-8600000D02*
G75*
G02*
X8285000Y-8600000I-15000J0D01*
G01*
X8285000Y-8600000D02*
G75*
G02*
X8315000Y-8600000I15000J0D01*
G01*
X8411710Y-9212815D02*
G75*
G02*
X8381709Y-9212815I-15000J0D01*
G01*
X8381709Y-9212815D02*
G75*
G02*
X8411710Y-9212815I15000J0D01*
G01*
X8415000Y-5900000D02*
G75*
G02*
X8385000Y-5900000I-15000J0D01*
G01*
X8385000Y-5900000D02*
G75*
G02*
X8415000Y-5900000I15000J0D01*
G01*
X8561659Y-9205294D02*
G75*
G02*
X8531659Y-9205294I-15000J0D01*
G01*
X8531659Y-9205294D02*
G75*
G02*
X8561659Y-9205294I15000J0D01*
G01*
X8565000Y-8600000D02*
G75*
G02*
X8535000Y-8600000I-15000J0D01*
G01*
X8535000Y-8600000D02*
G75*
G02*
X8565000Y-8600000I15000J0D01*
G01*
X8715000Y-5300000D02*
G75*
G02*
X8685000Y-5300000I-15000J0D01*
G01*
X8685000Y-5300000D02*
G75*
G02*
X8715000Y-5300000I15000J0D01*
G01*
X8715000Y-6800000D02*
G75*
G02*
X8685000Y-6800000I-15000J0D01*
G01*
X8685000Y-6800000D02*
G75*
G02*
X8715000Y-6800000I15000J0D01*
G01*
X8715000Y-7177053D02*
G75*
G02*
X8685000Y-7177053I-15000J0D01*
G01*
X8685000Y-7177053D02*
G75*
G02*
X8715000Y-7177053I15000J0D01*
G01*
X8715000Y-7700000D02*
G75*
G02*
X8685000Y-7700000I-15000J0D01*
G01*
X8685000Y-7700000D02*
G75*
G02*
X8715000Y-7700000I15000J0D01*
G01*
X8715000Y-7800000D02*
G75*
G02*
X8685000Y-7800000I-15000J0D01*
G01*
X8685000Y-7800000D02*
G75*
G02*
X8715000Y-7800000I15000J0D01*
G01*
X8716974Y-8783114D02*
G75*
G02*
X8686974Y-8783114I-15000J0D01*
G01*
X8686974Y-8783114D02*
G75*
G02*
X8716974Y-8783114I15000J0D01*
G01*
X8815000Y-5800000D02*
G75*
G02*
X8785000Y-5800000I-15000J0D01*
G01*
X8785000Y-5800000D02*
G75*
G02*
X8815000Y-5800000I15000J0D01*
G01*
X8865000Y-6150000D02*
G75*
G02*
X8835000Y-6150000I-15000J0D01*
G01*
X8835000Y-6150000D02*
G75*
G02*
X8865000Y-6150000I15000J0D01*
G01*
X9115000Y-8900000D02*
G75*
G02*
X9085000Y-8900000I-15000J0D01*
G01*
X9085000Y-8900000D02*
G75*
G02*
X9115000Y-8900000I15000J0D01*
G01*
X9116770Y-7890895D02*
G75*
G02*
X9086770Y-7890895I-15000J0D01*
G01*
X9086770Y-7890895D02*
G75*
G02*
X9116770Y-7890895I15000J0D01*
G01*
X9165000Y-4948400D02*
G75*
G02*
X9135000Y-4948400I-15000J0D01*
G01*
X9135000Y-4948400D02*
G75*
G02*
X9165000Y-4948400I15000J0D01*
G01*
X9254917Y-5189917D02*
G75*
G02*
X9224917Y-5189917I-15000J0D01*
G01*
X9224917Y-5189917D02*
G75*
G02*
X9254917Y-5189917I15000J0D01*
G01*
X9355000Y-5103400D02*
G75*
G02*
X9325000Y-5103400I-15000J0D01*
G01*
X9325000Y-5103400D02*
G75*
G02*
X9355000Y-5103400I15000J0D01*
G01*
X9415000Y-6200000D02*
G75*
G02*
X9385000Y-6200000I-15000J0D01*
G01*
X9385000Y-6200000D02*
G75*
G02*
X9415000Y-6200000I15000J0D01*
G01*
X9415000Y-6300000D02*
G75*
G02*
X9385000Y-6300000I-15000J0D01*
G01*
X9385000Y-6300000D02*
G75*
G02*
X9415000Y-6300000I15000J0D01*
G01*
X9415000Y-6400000D02*
G75*
G02*
X9385000Y-6400000I-15000J0D01*
G01*
X9385000Y-6400000D02*
G75*
G02*
X9415000Y-6400000I15000J0D01*
G01*
X9440000Y-5225000D02*
G75*
G02*
X9410000Y-5225000I-15000J0D01*
G01*
X9410000Y-5225000D02*
G75*
G02*
X9440000Y-5225000I15000J0D01*
G01*
X9465000Y-4923255D02*
G75*
G02*
X9435000Y-4923255I-15000J0D01*
G01*
X9435000Y-4923255D02*
G75*
G02*
X9465000Y-4923255I15000J0D01*
G01*
X9665000Y-7450000D02*
G75*
G02*
X9635000Y-7450000I-15000J0D01*
G01*
X9635000Y-7450000D02*
G75*
G02*
X9665000Y-7450000I15000J0D01*
G01*
X9665000Y-9550000D02*
G75*
G02*
X9635000Y-9550000I-15000J0D01*
G01*
X9635000Y-9550000D02*
G75*
G02*
X9665000Y-9550000I15000J0D01*
G01*
X9675000Y-7600000D02*
G75*
G02*
X9645000Y-7600000I-15000J0D01*
G01*
X9645000Y-7600000D02*
G75*
G02*
X9675000Y-7600000I15000J0D01*
G01*
X9702589Y-7876760D02*
G75*
G02*
X9672589Y-7876760I-15000J0D01*
G01*
X9672589Y-7876760D02*
G75*
G02*
X9702589Y-7876760I15000J0D01*
G01*
X10262907Y-8650000D02*
G75*
G02*
X10232907Y-8650000I-15000J0D01*
G01*
X10232907Y-8650000D02*
G75*
G02*
X10262907Y-8650000I15000J0D01*
G01*
X10265000Y-7700000D02*
G75*
G02*
X10235000Y-7700000I-15000J0D01*
G01*
X10235000Y-7700000D02*
G75*
G02*
X10265000Y-7700000I15000J0D01*
G01*
X10315000Y-8550000D02*
G75*
G02*
X10285000Y-8550000I-15000J0D01*
G01*
X10285000Y-8550000D02*
G75*
G02*
X10315000Y-8550000I15000J0D01*
G01*
X10465000Y-8200000D02*
G75*
G02*
X10435000Y-8200000I-15000J0D01*
G01*
X10435000Y-8200000D02*
G75*
G02*
X10465000Y-8200000I15000J0D01*
G01*
X10615000Y-7750000D02*
G75*
G02*
X10585000Y-7750000I-15000J0D01*
G01*
X10585000Y-7750000D02*
G75*
G02*
X10615000Y-7750000I15000J0D01*
G01*
X10665000Y-9500000D02*
G75*
G02*
X10635000Y-9500000I-15000J0D01*
G01*
X10635000Y-9500000D02*
G75*
G02*
X10665000Y-9500000I15000J0D01*
G01*
X11008299Y-7456701D02*
G75*
G02*
X10978299Y-7456701I-15000J0D01*
G01*
X10978299Y-7456701D02*
G75*
G02*
X11008299Y-7456701I15000J0D01*
G01*
X11165000Y-8100000D02*
G75*
G02*
X11135000Y-8100000I-15000J0D01*
G01*
X11135000Y-8100000D02*
G75*
G02*
X11165000Y-8100000I15000J0D01*
G01*
X11315000Y-6900000D02*
G75*
G02*
X11285000Y-6900000I-15000J0D01*
G01*
X11285000Y-6900000D02*
G75*
G02*
X11315000Y-6900000I15000J0D01*
G01*
X11315000Y-7550000D02*
G75*
G02*
X11285000Y-7550000I-15000J0D01*
G01*
X11285000Y-7550000D02*
G75*
G02*
X11315000Y-7550000I15000J0D01*
G01*
X11415000Y-4900000D02*
G75*
G02*
X11385000Y-4900000I-15000J0D01*
G01*
X11385000Y-4900000D02*
G75*
G02*
X11415000Y-4900000I15000J0D01*
G01*
X11464000Y-6651000D02*
G75*
G02*
X11434000Y-6651000I-15000J0D01*
G01*
X11434000Y-6651000D02*
G75*
G02*
X11464000Y-6651000I15000J0D01*
G01*
X11565000Y-6850000D02*
G75*
G02*
X11535000Y-6850000I-15000J0D01*
G01*
X11535000Y-6850000D02*
G75*
G02*
X11565000Y-6850000I15000J0D01*
G01*
X11615000Y-4900000D02*
G75*
G02*
X11585000Y-4900000I-15000J0D01*
G01*
X11585000Y-4900000D02*
G75*
G02*
X11615000Y-4900000I15000J0D01*
G01*
X11615000Y-5400000D02*
G75*
G02*
X11585000Y-5400000I-15000J0D01*
G01*
X11585000Y-5400000D02*
G75*
G02*
X11615000Y-5400000I15000J0D01*
G01*
X11623158Y-5123405D02*
G75*
G02*
X11593158Y-5123405I-15000J0D01*
G01*
X11593158Y-5123405D02*
G75*
G02*
X11623158Y-5123405I15000J0D01*
G01*
X11715000Y-6097000D02*
G75*
G02*
X11685000Y-6097000I-15000J0D01*
G01*
X11685000Y-6097000D02*
G75*
G02*
X11715000Y-6097000I15000J0D01*
G01*
X11715000Y-6400000D02*
G75*
G02*
X11685000Y-6400000I-15000J0D01*
G01*
X11685000Y-6400000D02*
G75*
G02*
X11715000Y-6400000I15000J0D01*
G01*
X11715000Y-6700000D02*
G75*
G02*
X11685000Y-6700000I-15000J0D01*
G01*
X11685000Y-6700000D02*
G75*
G02*
X11715000Y-6700000I15000J0D01*
G01*
X11815000Y-8500000D02*
G75*
G02*
X11785000Y-8500000I-15000J0D01*
G01*
X11785000Y-8500000D02*
G75*
G02*
X11815000Y-8500000I15000J0D01*
G01*
X11865000Y-5360100D02*
G75*
G02*
X11835000Y-5360100I-15000J0D01*
G01*
X11835000Y-5360100D02*
G75*
G02*
X11865000Y-5360100I15000J0D01*
G01*
X11865000Y-7650000D02*
G75*
G02*
X11835000Y-7650000I-15000J0D01*
G01*
X11835000Y-7650000D02*
G75*
G02*
X11865000Y-7650000I15000J0D01*
G01*
X11959000Y-5175000D02*
G75*
G02*
X11929000Y-5175000I-15000J0D01*
G01*
X11929000Y-5175000D02*
G75*
G02*
X11959000Y-5175000I15000J0D01*
G01*
X11965000Y-7950000D02*
G75*
G02*
X11935000Y-7950000I-15000J0D01*
G01*
X11935000Y-7950000D02*
G75*
G02*
X11965000Y-7950000I15000J0D01*
G01*
X12215000Y-7750000D02*
G75*
G02*
X12185000Y-7750000I-15000J0D01*
G01*
X12185000Y-7750000D02*
G75*
G02*
X12215000Y-7750000I15000J0D01*
G01*
X12415000Y-5514209D02*
G75*
G02*
X12385000Y-5514209I-15000J0D01*
G01*
X12385000Y-5514209D02*
G75*
G02*
X12415000Y-5514209I15000J0D01*
G01*
X12415000Y-7350000D02*
G75*
G02*
X12385000Y-7350000I-15000J0D01*
G01*
X12385000Y-7350000D02*
G75*
G02*
X12415000Y-7350000I15000J0D01*
G01*
X12459000Y-5175000D02*
G75*
G02*
X12429000Y-5175000I-15000J0D01*
G01*
X12429000Y-5175000D02*
G75*
G02*
X12459000Y-5175000I15000J0D01*
G01*
X12615000Y-5600000D02*
G75*
G02*
X12585000Y-5600000I-15000J0D01*
G01*
X12585000Y-5600000D02*
G75*
G02*
X12615000Y-5600000I15000J0D01*
G01*
X12765000Y-6500000D02*
G75*
G02*
X12735000Y-6500000I-15000J0D01*
G01*
X12735000Y-6500000D02*
G75*
G02*
X12765000Y-6500000I15000J0D01*
G01*
X12765000Y-6800000D02*
G75*
G02*
X12735000Y-6800000I-15000J0D01*
G01*
X12735000Y-6800000D02*
G75*
G02*
X12765000Y-6800000I15000J0D01*
G01*
X12765000Y-7400000D02*
G75*
G02*
X12735000Y-7400000I-15000J0D01*
G01*
X12735000Y-7400000D02*
G75*
G02*
X12765000Y-7400000I15000J0D01*
G01*
X12815000Y-5100000D02*
G75*
G02*
X12785000Y-5100000I-15000J0D01*
G01*
X12785000Y-5100000D02*
G75*
G02*
X12815000Y-5100000I15000J0D01*
G01*
X12815000Y-5700000D02*
G75*
G02*
X12785000Y-5700000I-15000J0D01*
G01*
X12785000Y-5700000D02*
G75*
G02*
X12815000Y-5700000I15000J0D01*
G01*
X13065000Y-6500000D02*
G75*
G02*
X13035000Y-6500000I-15000J0D01*
G01*
X13035000Y-6500000D02*
G75*
G02*
X13065000Y-6500000I15000J0D01*
G01*
X13065000Y-7400000D02*
G75*
G02*
X13035000Y-7400000I-15000J0D01*
G01*
X13035000Y-7400000D02*
G75*
G02*
X13065000Y-7400000I15000J0D01*
G01*
X13236000Y-8750000D02*
G75*
G02*
X13206000Y-8750000I-15000J0D01*
G01*
X13206000Y-8750000D02*
G75*
G02*
X13236000Y-8750000I15000J0D01*
G01*
X13361000Y-8746000D02*
G75*
G02*
X13331000Y-8746000I-15000J0D01*
G01*
X13331000Y-8746000D02*
G75*
G02*
X13361000Y-8746000I15000J0D01*
G01*
X13550918Y-6564082D02*
G75*
G02*
X13520918Y-6564082I-15000J0D01*
G01*
X13520918Y-6564082D02*
G75*
G02*
X13550918Y-6564082I15000J0D01*
G01*
X13565000Y-9450000D02*
G75*
G02*
X13535000Y-9450000I-15000J0D01*
G01*
X13535000Y-9450000D02*
G75*
G02*
X13565000Y-9450000I15000J0D01*
G01*
X13656455Y-5491455D02*
G75*
G02*
X13626455Y-5491455I-15000J0D01*
G01*
X13626455Y-5491455D02*
G75*
G02*
X13656455Y-5491455I15000J0D01*
G01*
X13760100Y-7350000D02*
G75*
G02*
X13730100Y-7350000I-15000J0D01*
G01*
X13730100Y-7350000D02*
G75*
G02*
X13760100Y-7350000I15000J0D01*
G01*
X13765000Y-7650000D02*
G75*
G02*
X13735000Y-7650000I-15000J0D01*
G01*
X13735000Y-7650000D02*
G75*
G02*
X13765000Y-7650000I15000J0D01*
G01*
X13765000Y-8050000D02*
G75*
G02*
X13735000Y-8050000I-15000J0D01*
G01*
X13735000Y-8050000D02*
G75*
G02*
X13765000Y-8050000I15000J0D01*
G01*
X13815000Y-5600000D02*
G75*
G02*
X13785000Y-5600000I-15000J0D01*
G01*
X13785000Y-5600000D02*
G75*
G02*
X13815000Y-5600000I15000J0D01*
G01*
X13965000Y-8950000D02*
G75*
G02*
X13935000Y-8950000I-15000J0D01*
G01*
X13935000Y-8950000D02*
G75*
G02*
X13965000Y-8950000I15000J0D01*
G01*
X14265000Y-5000000D02*
G75*
G02*
X14235000Y-5000000I-15000J0D01*
G01*
X14235000Y-5000000D02*
G75*
G02*
X14265000Y-5000000I15000J0D01*
G01*
X14265000Y-7900000D02*
G75*
G02*
X14235000Y-7900000I-15000J0D01*
G01*
X14235000Y-7900000D02*
G75*
G02*
X14265000Y-7900000I15000J0D01*
G01*
X8002500Y-8721797D02*
X8002500Y-8751797D01*
X7987500Y-8736797D02*
X8017500Y-8736797D01*
X8002500Y-8821797D02*
X8002500Y-8851797D01*
X7987500Y-8836797D02*
X8017500Y-8836797D01*
X8052500Y-8771797D02*
X8052500Y-8801797D01*
X8037500Y-8786797D02*
X8067500Y-8786797D01*
X8102500Y-8721797D02*
X8102500Y-8751797D01*
X8087500Y-8736797D02*
X8117500Y-8736797D01*
X8102500Y-8821797D02*
X8102500Y-8851797D01*
X8087500Y-8836797D02*
X8117500Y-8836797D01*
X7816213Y-6589213D02*
X7816213Y-6546787D01*
X7773787Y-6546787D01*
X7773787Y-6589213D01*
X7816213Y-6589213D01*
X7825000Y-6538000D02*
X7765000Y-6538000D01*
X7765000Y-6598000D02*
G75*
G02*
X7765000Y-6538000I0J30000D01*
G01*
X7765000Y-6598000D02*
X7825000Y-6598000D01*
X7825000Y-6598000D02*
G75*
G03*
X7825000Y-6538000I0J30000D01*
G01*
X7816213Y-7453213D02*
X7816213Y-7410787D01*
X7773787Y-7410787D01*
X7773787Y-7453213D01*
X7816213Y-7453213D01*
X7825000Y-7402000D02*
X7765000Y-7402000D01*
X7765000Y-7462000D02*
G75*
G02*
X7765000Y-7402000I0J30000D01*
G01*
X7765000Y-7462000D02*
X7825000Y-7462000D01*
X7825000Y-7462000D02*
G75*
G03*
X7825000Y-7402000I0J30000D01*
G01*
X8234213Y-6589213D02*
X8234213Y-6546787D01*
X8191787Y-6546787D01*
X8191787Y-6589213D01*
X8234213Y-6589213D01*
X8268000Y-6538000D02*
X8158000Y-6538000D01*
X8158000Y-6598000D02*
G75*
G02*
X8158000Y-6538000I0J30000D01*
G01*
X8158000Y-6598000D02*
X8268000Y-6598000D01*
X8268000Y-6598000D02*
G75*
G03*
X8268000Y-6538000I0J30000D01*
G01*
X8234213Y-7453213D02*
X8234213Y-7410787D01*
X8191787Y-7410787D01*
X8191787Y-7453213D01*
X8234213Y-7453213D01*
X8268000Y-7402000D02*
X8158000Y-7402000D01*
X8158000Y-7462000D02*
G75*
G02*
X8158000Y-7402000I0J30000D01*
G01*
X8158000Y-7462000D02*
X8268000Y-7462000D01*
X8268000Y-7462000D02*
G75*
G03*
X8268000Y-7402000I0J30000D01*
G01*
X10047907Y-8886361D02*
X10085407Y-8848861D01*
X10047907Y-8811361D01*
X10010407Y-8848861D01*
X10047907Y-8886361D01*
X10247907Y-8886361D02*
X10285407Y-8848861D01*
X10247907Y-8811361D01*
X10210407Y-8848861D01*
X10247907Y-8886361D01*
X14260000Y-5360000D02*
X14340000Y-5440000D01*
X14340000Y-5360000D02*
X14260000Y-5440000D01*
X14340000Y-5400000D02*
G75*
G02*
X14260000Y-5400000I-40000J0D01*
G01*
X14260000Y-5400000D02*
G75*
G02*
X14340000Y-5400000I40000J0D01*
G01*
X14260000Y-5560000D02*
X14340000Y-5640000D01*
X14340000Y-5560000D02*
X14260000Y-5640000D01*
X14340000Y-5600000D02*
G75*
G02*
X14260000Y-5600000I-40000J0D01*
G01*
X14260000Y-5600000D02*
G75*
G02*
X14340000Y-5600000I40000J0D01*
G01*
X8750000Y-8500000D02*
X8850000Y-8600000D01*
X8850000Y-8500000D02*
X8750000Y-8600000D01*
X8800000Y-8500000D02*
X8800000Y-8600000D01*
X8750000Y-8550000D02*
X8850000Y-8550000D01*
X8900000Y-6400000D02*
X9000000Y-6500000D01*
X9000000Y-6400000D02*
X8900000Y-6500000D01*
X8950000Y-6400000D02*
X8950000Y-6500000D01*
X8900000Y-6450000D02*
X9000000Y-6450000D01*
X9550000Y-8500000D02*
X9650000Y-8600000D01*
X9650000Y-8500000D02*
X9550000Y-8600000D01*
X9600000Y-8500000D02*
X9600000Y-8600000D01*
X9550000Y-8550000D02*
X9650000Y-8550000D01*
X10634000Y-8948000D02*
X10734000Y-9048000D01*
X10734000Y-8948000D02*
X10634000Y-9048000D01*
X10684000Y-8948000D02*
X10684000Y-9048000D01*
X10634000Y-8998000D02*
X10734000Y-8998000D01*
X10634000Y-9202000D02*
X10734000Y-9302000D01*
X10734000Y-9202000D02*
X10634000Y-9302000D01*
X10684000Y-9202000D02*
X10684000Y-9302000D01*
X10634000Y-9252000D02*
X10734000Y-9252000D01*
X10888000Y-8948000D02*
X10988000Y-9048000D01*
X10988000Y-8948000D02*
X10888000Y-9048000D01*
X10938000Y-8948000D02*
X10938000Y-9048000D01*
X10888000Y-8998000D02*
X10988000Y-8998000D01*
X10888000Y-9202000D02*
X10988000Y-9302000D01*
X10988000Y-9202000D02*
X10888000Y-9302000D01*
X10938000Y-9202000D02*
X10938000Y-9302000D01*
X10888000Y-9252000D02*
X10988000Y-9252000D01*
X11142000Y-8948000D02*
X11242000Y-9048000D01*
X11242000Y-8948000D02*
X11142000Y-9048000D01*
X11192000Y-8948000D02*
X11192000Y-9048000D01*
X11142000Y-8998000D02*
X11242000Y-8998000D01*
X11142000Y-9202000D02*
X11242000Y-9302000D01*
X11242000Y-9202000D02*
X11142000Y-9302000D01*
X11192000Y-9202000D02*
X11192000Y-9302000D01*
X11142000Y-9252000D02*
X11242000Y-9252000D01*
X11396000Y-8948000D02*
X11496000Y-9048000D01*
X11496000Y-8948000D02*
X11396000Y-9048000D01*
X11446000Y-8948000D02*
X11446000Y-9048000D01*
X11396000Y-8998000D02*
X11496000Y-8998000D01*
X11396000Y-9202000D02*
X11496000Y-9302000D01*
X11496000Y-9202000D02*
X11396000Y-9302000D01*
X11446000Y-9202000D02*
X11446000Y-9302000D01*
X11396000Y-9252000D02*
X11496000Y-9252000D01*
X11650000Y-8948000D02*
X11750000Y-9048000D01*
X11750000Y-8948000D02*
X11650000Y-9048000D01*
X11700000Y-8948000D02*
X11700000Y-9048000D01*
X11650000Y-8998000D02*
X11750000Y-8998000D01*
X11650000Y-9202000D02*
X11750000Y-9302000D01*
X11750000Y-9202000D02*
X11650000Y-9302000D01*
X11700000Y-9202000D02*
X11700000Y-9302000D01*
X11650000Y-9252000D02*
X11750000Y-9252000D01*
X11904000Y-8948000D02*
X12004000Y-9048000D01*
X12004000Y-8948000D02*
X11904000Y-9048000D01*
X11954000Y-8948000D02*
X11954000Y-9048000D01*
X11904000Y-8998000D02*
X12004000Y-8998000D01*
X11904000Y-9202000D02*
X12004000Y-9302000D01*
X12004000Y-9202000D02*
X11904000Y-9302000D01*
X11954000Y-9202000D02*
X11954000Y-9302000D01*
X11904000Y-9252000D02*
X12004000Y-9252000D01*
X12158000Y-8948000D02*
X12258000Y-9048000D01*
X12258000Y-8948000D02*
X12158000Y-9048000D01*
X12208000Y-8948000D02*
X12208000Y-9048000D01*
X12158000Y-8998000D02*
X12258000Y-8998000D01*
X12158000Y-9202000D02*
X12258000Y-9302000D01*
X12258000Y-9202000D02*
X12158000Y-9302000D01*
X12208000Y-9202000D02*
X12208000Y-9302000D01*
X12158000Y-9252000D02*
X12258000Y-9252000D01*
X12412000Y-8948000D02*
X12512000Y-9048000D01*
X12512000Y-8948000D02*
X12412000Y-9048000D01*
X12462000Y-8948000D02*
X12462000Y-9048000D01*
X12412000Y-8998000D02*
X12512000Y-8998000D01*
X12412000Y-9202000D02*
X12512000Y-9302000D01*
X12512000Y-9202000D02*
X12412000Y-9302000D01*
X12462000Y-9202000D02*
X12462000Y-9302000D01*
X12412000Y-9252000D02*
X12512000Y-9252000D01*
X12666000Y-8948000D02*
X12766000Y-9048000D01*
X12766000Y-8948000D02*
X12666000Y-9048000D01*
X12716000Y-8948000D02*
X12716000Y-9048000D01*
X12666000Y-8998000D02*
X12766000Y-8998000D01*
X12666000Y-9202000D02*
X12766000Y-9302000D01*
X12766000Y-9202000D02*
X12666000Y-9302000D01*
X12716000Y-9202000D02*
X12716000Y-9302000D01*
X12666000Y-9252000D02*
X12766000Y-9252000D01*
X13142000Y-5850000D02*
X13242000Y-5950000D01*
X13242000Y-5850000D02*
X13142000Y-5950000D01*
X13192000Y-5850000D02*
X13192000Y-5950000D01*
X13142000Y-5900000D02*
X13242000Y-5900000D01*
X13396000Y-5850000D02*
X13496000Y-5950000D01*
X13496000Y-5850000D02*
X13396000Y-5950000D01*
X13446000Y-5850000D02*
X13446000Y-5950000D01*
X13396000Y-5900000D02*
X13496000Y-5900000D01*
X13650000Y-5850000D02*
X13750000Y-5950000D01*
X13750000Y-5850000D02*
X13650000Y-5950000D01*
X13700000Y-5850000D02*
X13700000Y-5950000D01*
X13650000Y-5900000D02*
X13750000Y-5900000D01*
X13904000Y-5850000D02*
X14004000Y-5950000D01*
X14004000Y-5850000D02*
X13904000Y-5950000D01*
X13954000Y-5850000D02*
X13954000Y-5950000D01*
X13904000Y-5900000D02*
X14004000Y-5900000D01*
D11*
X7608277Y-10313984D02*
X7608277Y-10113984D01*
X7608277Y-10113984D02*
X7655896Y-10113984D01*
X7655896Y-10113984D02*
X7684467Y-10123508D01*
X7684467Y-10123508D02*
X7703515Y-10142555D01*
X7703515Y-10142555D02*
X7713039Y-10161603D01*
X7713039Y-10161603D02*
X7722562Y-10199698D01*
X7722562Y-10199698D02*
X7722562Y-10228270D01*
X7722562Y-10228270D02*
X7713039Y-10266365D01*
X7713039Y-10266365D02*
X7703515Y-10285412D01*
X7703515Y-10285412D02*
X7684467Y-10304460D01*
X7684467Y-10304460D02*
X7655896Y-10313984D01*
X7655896Y-10313984D02*
X7608277Y-10313984D01*
X7808277Y-10313984D02*
X7808277Y-10180650D01*
X7808277Y-10218746D02*
X7817801Y-10199698D01*
X7817801Y-10199698D02*
X7827324Y-10190174D01*
X7827324Y-10190174D02*
X7846372Y-10180650D01*
X7846372Y-10180650D02*
X7865420Y-10180650D01*
X7932086Y-10313984D02*
X7932086Y-10180650D01*
X7932086Y-10113984D02*
X7922562Y-10123508D01*
X7922562Y-10123508D02*
X7932086Y-10133031D01*
X7932086Y-10133031D02*
X7941610Y-10123508D01*
X7941610Y-10123508D02*
X7932086Y-10113984D01*
X7932086Y-10113984D02*
X7932086Y-10133031D01*
X8055896Y-10313984D02*
X8036848Y-10304460D01*
X8036848Y-10304460D02*
X8027324Y-10285412D01*
X8027324Y-10285412D02*
X8027324Y-10113984D01*
X8160658Y-10313984D02*
X8141610Y-10304460D01*
X8141610Y-10304460D02*
X8132086Y-10285412D01*
X8132086Y-10285412D02*
X8132086Y-10113984D01*
X8389229Y-10313984D02*
X8389229Y-10113984D01*
X8389229Y-10113984D02*
X8455896Y-10256841D01*
X8455896Y-10256841D02*
X8522563Y-10113984D01*
X8522563Y-10113984D02*
X8522563Y-10313984D01*
X8703515Y-10313984D02*
X8703515Y-10209222D01*
X8703515Y-10209222D02*
X8693991Y-10190174D01*
X8693991Y-10190174D02*
X8674944Y-10180650D01*
X8674944Y-10180650D02*
X8636848Y-10180650D01*
X8636848Y-10180650D02*
X8617801Y-10190174D01*
X8703515Y-10304460D02*
X8684467Y-10313984D01*
X8684467Y-10313984D02*
X8636848Y-10313984D01*
X8636848Y-10313984D02*
X8617801Y-10304460D01*
X8617801Y-10304460D02*
X8608277Y-10285412D01*
X8608277Y-10285412D02*
X8608277Y-10266365D01*
X8608277Y-10266365D02*
X8617801Y-10247317D01*
X8617801Y-10247317D02*
X8636848Y-10237793D01*
X8636848Y-10237793D02*
X8684467Y-10237793D01*
X8684467Y-10237793D02*
X8703515Y-10228270D01*
X8798753Y-10180650D02*
X8798753Y-10380650D01*
X8798753Y-10190174D02*
X8817801Y-10180650D01*
X8817801Y-10180650D02*
X8855896Y-10180650D01*
X8855896Y-10180650D02*
X8874944Y-10190174D01*
X8874944Y-10190174D02*
X8884467Y-10199698D01*
X8884467Y-10199698D02*
X8893991Y-10218746D01*
X8893991Y-10218746D02*
X8893991Y-10275889D01*
X8893991Y-10275889D02*
X8884467Y-10294936D01*
X8884467Y-10294936D02*
X8874944Y-10304460D01*
X8874944Y-10304460D02*
X8855896Y-10313984D01*
X8855896Y-10313984D02*
X8817801Y-10313984D01*
X8817801Y-10313984D02*
X8798753Y-10304460D01*
X8979705Y-10294936D02*
X8989229Y-10304460D01*
X8989229Y-10304460D02*
X8979705Y-10313984D01*
X8979705Y-10313984D02*
X8970182Y-10304460D01*
X8970182Y-10304460D02*
X8979705Y-10294936D01*
X8979705Y-10294936D02*
X8979705Y-10313984D01*
X8979705Y-10190174D02*
X8989229Y-10199698D01*
X8989229Y-10199698D02*
X8979705Y-10209222D01*
X8979705Y-10209222D02*
X8970182Y-10199698D01*
X8970182Y-10199698D02*
X8979705Y-10190174D01*
X8979705Y-10190174D02*
X8979705Y-10209222D01*
D12*
X7327500Y-10632500D02*
X7347500Y-10652500D01*
X7347500Y-10632500D02*
X7327500Y-10652500D01*
D11*
X7646372Y-10533984D02*
X7665420Y-10533984D01*
X7665420Y-10533984D02*
X7684467Y-10543508D01*
X7684467Y-10543508D02*
X7693991Y-10553031D01*
X7693991Y-10553031D02*
X7703515Y-10572079D01*
X7703515Y-10572079D02*
X7713039Y-10610174D01*
X7713039Y-10610174D02*
X7713039Y-10657793D01*
X7713039Y-10657793D02*
X7703515Y-10695889D01*
X7703515Y-10695889D02*
X7693991Y-10714936D01*
X7693991Y-10714936D02*
X7684467Y-10724460D01*
X7684467Y-10724460D02*
X7665420Y-10733984D01*
X7665420Y-10733984D02*
X7646372Y-10733984D01*
X7646372Y-10733984D02*
X7627324Y-10724460D01*
X7627324Y-10724460D02*
X7617801Y-10714936D01*
X7617801Y-10714936D02*
X7608277Y-10695889D01*
X7608277Y-10695889D02*
X7598753Y-10657793D01*
X7598753Y-10657793D02*
X7598753Y-10610174D01*
X7598753Y-10610174D02*
X7608277Y-10572079D01*
X7608277Y-10572079D02*
X7617801Y-10553031D01*
X7617801Y-10553031D02*
X7627324Y-10543508D01*
X7627324Y-10543508D02*
X7646372Y-10533984D01*
X7798753Y-10714936D02*
X7808277Y-10724460D01*
X7808277Y-10724460D02*
X7798753Y-10733984D01*
X7798753Y-10733984D02*
X7789229Y-10724460D01*
X7789229Y-10724460D02*
X7798753Y-10714936D01*
X7798753Y-10714936D02*
X7798753Y-10733984D01*
X7884467Y-10553031D02*
X7893991Y-10543508D01*
X7893991Y-10543508D02*
X7913039Y-10533984D01*
X7913039Y-10533984D02*
X7960658Y-10533984D01*
X7960658Y-10533984D02*
X7979705Y-10543508D01*
X7979705Y-10543508D02*
X7989229Y-10553031D01*
X7989229Y-10553031D02*
X7998753Y-10572079D01*
X7998753Y-10572079D02*
X7998753Y-10591127D01*
X7998753Y-10591127D02*
X7989229Y-10619698D01*
X7989229Y-10619698D02*
X7874943Y-10733984D01*
X7874943Y-10733984D02*
X7998753Y-10733984D01*
X8122562Y-10533984D02*
X8141610Y-10533984D01*
X8141610Y-10533984D02*
X8160658Y-10543508D01*
X8160658Y-10543508D02*
X8170182Y-10553031D01*
X8170182Y-10553031D02*
X8179705Y-10572079D01*
X8179705Y-10572079D02*
X8189229Y-10610174D01*
X8189229Y-10610174D02*
X8189229Y-10657793D01*
X8189229Y-10657793D02*
X8179705Y-10695889D01*
X8179705Y-10695889D02*
X8170182Y-10714936D01*
X8170182Y-10714936D02*
X8160658Y-10724460D01*
X8160658Y-10724460D02*
X8141610Y-10733984D01*
X8141610Y-10733984D02*
X8122562Y-10733984D01*
X8122562Y-10733984D02*
X8103515Y-10724460D01*
X8103515Y-10724460D02*
X8093991Y-10714936D01*
X8093991Y-10714936D02*
X8084467Y-10695889D01*
X8084467Y-10695889D02*
X8074943Y-10657793D01*
X8074943Y-10657793D02*
X8074943Y-10610174D01*
X8074943Y-10610174D02*
X8084467Y-10572079D01*
X8084467Y-10572079D02*
X8093991Y-10553031D01*
X8093991Y-10553031D02*
X8103515Y-10543508D01*
X8103515Y-10543508D02*
X8122562Y-10533984D01*
X8313039Y-10533984D02*
X8332086Y-10533984D01*
X8332086Y-10533984D02*
X8351134Y-10543508D01*
X8351134Y-10543508D02*
X8360658Y-10553031D01*
X8360658Y-10553031D02*
X8370182Y-10572079D01*
X8370182Y-10572079D02*
X8379705Y-10610174D01*
X8379705Y-10610174D02*
X8379705Y-10657793D01*
X8379705Y-10657793D02*
X8370182Y-10695889D01*
X8370182Y-10695889D02*
X8360658Y-10714936D01*
X8360658Y-10714936D02*
X8351134Y-10724460D01*
X8351134Y-10724460D02*
X8332086Y-10733984D01*
X8332086Y-10733984D02*
X8313039Y-10733984D01*
X8313039Y-10733984D02*
X8293991Y-10724460D01*
X8293991Y-10724460D02*
X8284467Y-10714936D01*
X8284467Y-10714936D02*
X8274943Y-10695889D01*
X8274943Y-10695889D02*
X8265420Y-10657793D01*
X8265420Y-10657793D02*
X8265420Y-10610174D01*
X8265420Y-10610174D02*
X8274943Y-10572079D01*
X8274943Y-10572079D02*
X8284467Y-10553031D01*
X8284467Y-10553031D02*
X8293991Y-10543508D01*
X8293991Y-10543508D02*
X8313039Y-10533984D01*
X8465420Y-10733984D02*
X8465420Y-10600650D01*
X8465420Y-10619698D02*
X8474944Y-10610174D01*
X8474944Y-10610174D02*
X8493991Y-10600650D01*
X8493991Y-10600650D02*
X8522563Y-10600650D01*
X8522563Y-10600650D02*
X8541610Y-10610174D01*
X8541610Y-10610174D02*
X8551134Y-10629222D01*
X8551134Y-10629222D02*
X8551134Y-10733984D01*
X8551134Y-10629222D02*
X8560658Y-10610174D01*
X8560658Y-10610174D02*
X8579705Y-10600650D01*
X8579705Y-10600650D02*
X8608277Y-10600650D01*
X8608277Y-10600650D02*
X8627325Y-10610174D01*
X8627325Y-10610174D02*
X8636848Y-10629222D01*
X8636848Y-10629222D02*
X8636848Y-10733984D01*
X8732086Y-10733984D02*
X8732086Y-10600650D01*
X8732086Y-10619698D02*
X8741610Y-10610174D01*
X8741610Y-10610174D02*
X8760658Y-10600650D01*
X8760658Y-10600650D02*
X8789229Y-10600650D01*
X8789229Y-10600650D02*
X8808277Y-10610174D01*
X8808277Y-10610174D02*
X8817801Y-10629222D01*
X8817801Y-10629222D02*
X8817801Y-10733984D01*
X8817801Y-10629222D02*
X8827325Y-10610174D01*
X8827325Y-10610174D02*
X8846372Y-10600650D01*
X8846372Y-10600650D02*
X8874944Y-10600650D01*
X8874944Y-10600650D02*
X8893991Y-10610174D01*
X8893991Y-10610174D02*
X8903515Y-10629222D01*
X8903515Y-10629222D02*
X8903515Y-10733984D01*
X9293991Y-10524460D02*
X9122563Y-10781603D01*
X9551134Y-10533984D02*
X9570182Y-10533984D01*
X9570182Y-10533984D02*
X9589229Y-10543508D01*
X9589229Y-10543508D02*
X9598753Y-10553031D01*
X9598753Y-10553031D02*
X9608277Y-10572079D01*
X9608277Y-10572079D02*
X9617801Y-10610174D01*
X9617801Y-10610174D02*
X9617801Y-10657793D01*
X9617801Y-10657793D02*
X9608277Y-10695889D01*
X9608277Y-10695889D02*
X9598753Y-10714936D01*
X9598753Y-10714936D02*
X9589229Y-10724460D01*
X9589229Y-10724460D02*
X9570182Y-10733984D01*
X9570182Y-10733984D02*
X9551134Y-10733984D01*
X9551134Y-10733984D02*
X9532087Y-10724460D01*
X9532087Y-10724460D02*
X9522563Y-10714936D01*
X9522563Y-10714936D02*
X9513039Y-10695889D01*
X9513039Y-10695889D02*
X9503515Y-10657793D01*
X9503515Y-10657793D02*
X9503515Y-10610174D01*
X9503515Y-10610174D02*
X9513039Y-10572079D01*
X9513039Y-10572079D02*
X9522563Y-10553031D01*
X9522563Y-10553031D02*
X9532087Y-10543508D01*
X9532087Y-10543508D02*
X9551134Y-10533984D01*
X9703515Y-10714936D02*
X9713039Y-10724460D01*
X9713039Y-10724460D02*
X9703515Y-10733984D01*
X9703515Y-10733984D02*
X9693991Y-10724460D01*
X9693991Y-10724460D02*
X9703515Y-10714936D01*
X9703515Y-10714936D02*
X9703515Y-10733984D01*
X9836848Y-10533984D02*
X9855896Y-10533984D01*
X9855896Y-10533984D02*
X9874944Y-10543508D01*
X9874944Y-10543508D02*
X9884468Y-10553031D01*
X9884468Y-10553031D02*
X9893991Y-10572079D01*
X9893991Y-10572079D02*
X9903515Y-10610174D01*
X9903515Y-10610174D02*
X9903515Y-10657793D01*
X9903515Y-10657793D02*
X9893991Y-10695889D01*
X9893991Y-10695889D02*
X9884468Y-10714936D01*
X9884468Y-10714936D02*
X9874944Y-10724460D01*
X9874944Y-10724460D02*
X9855896Y-10733984D01*
X9855896Y-10733984D02*
X9836848Y-10733984D01*
X9836848Y-10733984D02*
X9817801Y-10724460D01*
X9817801Y-10724460D02*
X9808277Y-10714936D01*
X9808277Y-10714936D02*
X9798753Y-10695889D01*
X9798753Y-10695889D02*
X9789229Y-10657793D01*
X9789229Y-10657793D02*
X9789229Y-10610174D01*
X9789229Y-10610174D02*
X9798753Y-10572079D01*
X9798753Y-10572079D02*
X9808277Y-10553031D01*
X9808277Y-10553031D02*
X9817801Y-10543508D01*
X9817801Y-10543508D02*
X9836848Y-10533984D01*
X10027325Y-10533984D02*
X10046372Y-10533984D01*
X10046372Y-10533984D02*
X10065420Y-10543508D01*
X10065420Y-10543508D02*
X10074944Y-10553031D01*
X10074944Y-10553031D02*
X10084468Y-10572079D01*
X10084468Y-10572079D02*
X10093991Y-10610174D01*
X10093991Y-10610174D02*
X10093991Y-10657793D01*
X10093991Y-10657793D02*
X10084468Y-10695889D01*
X10084468Y-10695889D02*
X10074944Y-10714936D01*
X10074944Y-10714936D02*
X10065420Y-10724460D01*
X10065420Y-10724460D02*
X10046372Y-10733984D01*
X10046372Y-10733984D02*
X10027325Y-10733984D01*
X10027325Y-10733984D02*
X10008277Y-10724460D01*
X10008277Y-10724460D02*
X9998753Y-10714936D01*
X9998753Y-10714936D02*
X9989229Y-10695889D01*
X9989229Y-10695889D02*
X9979706Y-10657793D01*
X9979706Y-10657793D02*
X9979706Y-10610174D01*
X9979706Y-10610174D02*
X9989229Y-10572079D01*
X9989229Y-10572079D02*
X9998753Y-10553031D01*
X9998753Y-10553031D02*
X10008277Y-10543508D01*
X10008277Y-10543508D02*
X10027325Y-10533984D01*
X10160658Y-10533984D02*
X10293991Y-10533984D01*
X10293991Y-10533984D02*
X10208277Y-10733984D01*
X10379706Y-10733984D02*
X10417801Y-10733984D01*
X10417801Y-10733984D02*
X10436849Y-10724460D01*
X10436849Y-10724460D02*
X10446372Y-10714936D01*
X10446372Y-10714936D02*
X10465420Y-10686365D01*
X10465420Y-10686365D02*
X10474944Y-10648270D01*
X10474944Y-10648270D02*
X10474944Y-10572079D01*
X10474944Y-10572079D02*
X10465420Y-10553031D01*
X10465420Y-10553031D02*
X10455896Y-10543508D01*
X10455896Y-10543508D02*
X10436849Y-10533984D01*
X10436849Y-10533984D02*
X10398753Y-10533984D01*
X10398753Y-10533984D02*
X10379706Y-10543508D01*
X10379706Y-10543508D02*
X10370182Y-10553031D01*
X10370182Y-10553031D02*
X10360658Y-10572079D01*
X10360658Y-10572079D02*
X10360658Y-10619698D01*
X10360658Y-10619698D02*
X10370182Y-10638746D01*
X10370182Y-10638746D02*
X10379706Y-10648270D01*
X10379706Y-10648270D02*
X10398753Y-10657793D01*
X10398753Y-10657793D02*
X10436849Y-10657793D01*
X10436849Y-10657793D02*
X10455896Y-10648270D01*
X10455896Y-10648270D02*
X10465420Y-10638746D01*
X10465420Y-10638746D02*
X10474944Y-10619698D01*
X10551134Y-10533984D02*
X10551134Y-10572079D01*
X10627325Y-10533984D02*
X10627325Y-10572079D01*
X10922563Y-10810174D02*
X10913039Y-10800650D01*
X10913039Y-10800650D02*
X10893991Y-10772079D01*
X10893991Y-10772079D02*
X10884468Y-10753031D01*
X10884468Y-10753031D02*
X10874944Y-10724460D01*
X10874944Y-10724460D02*
X10865420Y-10676841D01*
X10865420Y-10676841D02*
X10865420Y-10638746D01*
X10865420Y-10638746D02*
X10874944Y-10591127D01*
X10874944Y-10591127D02*
X10884468Y-10562555D01*
X10884468Y-10562555D02*
X10893991Y-10543508D01*
X10893991Y-10543508D02*
X10913039Y-10514936D01*
X10913039Y-10514936D02*
X10922563Y-10505412D01*
X11103515Y-10733984D02*
X10989230Y-10733984D01*
X11046372Y-10733984D02*
X11046372Y-10533984D01*
X11046372Y-10533984D02*
X11027325Y-10562555D01*
X11027325Y-10562555D02*
X11008277Y-10581603D01*
X11008277Y-10581603D02*
X10989230Y-10591127D01*
X11217801Y-10619698D02*
X11198753Y-10610174D01*
X11198753Y-10610174D02*
X11189229Y-10600650D01*
X11189229Y-10600650D02*
X11179706Y-10581603D01*
X11179706Y-10581603D02*
X11179706Y-10572079D01*
X11179706Y-10572079D02*
X11189229Y-10553031D01*
X11189229Y-10553031D02*
X11198753Y-10543508D01*
X11198753Y-10543508D02*
X11217801Y-10533984D01*
X11217801Y-10533984D02*
X11255896Y-10533984D01*
X11255896Y-10533984D02*
X11274944Y-10543508D01*
X11274944Y-10543508D02*
X11284468Y-10553031D01*
X11284468Y-10553031D02*
X11293991Y-10572079D01*
X11293991Y-10572079D02*
X11293991Y-10581603D01*
X11293991Y-10581603D02*
X11284468Y-10600650D01*
X11284468Y-10600650D02*
X11274944Y-10610174D01*
X11274944Y-10610174D02*
X11255896Y-10619698D01*
X11255896Y-10619698D02*
X11217801Y-10619698D01*
X11217801Y-10619698D02*
X11198753Y-10629222D01*
X11198753Y-10629222D02*
X11189229Y-10638746D01*
X11189229Y-10638746D02*
X11179706Y-10657793D01*
X11179706Y-10657793D02*
X11179706Y-10695889D01*
X11179706Y-10695889D02*
X11189229Y-10714936D01*
X11189229Y-10714936D02*
X11198753Y-10724460D01*
X11198753Y-10724460D02*
X11217801Y-10733984D01*
X11217801Y-10733984D02*
X11255896Y-10733984D01*
X11255896Y-10733984D02*
X11274944Y-10724460D01*
X11274944Y-10724460D02*
X11284468Y-10714936D01*
X11284468Y-10714936D02*
X11293991Y-10695889D01*
X11293991Y-10695889D02*
X11293991Y-10657793D01*
X11293991Y-10657793D02*
X11284468Y-10638746D01*
X11284468Y-10638746D02*
X11274944Y-10629222D01*
X11274944Y-10629222D02*
X11255896Y-10619698D01*
X11532087Y-10733984D02*
X11532087Y-10533984D01*
X11617801Y-10733984D02*
X11617801Y-10629222D01*
X11617801Y-10629222D02*
X11608277Y-10610174D01*
X11608277Y-10610174D02*
X11589230Y-10600650D01*
X11589230Y-10600650D02*
X11560658Y-10600650D01*
X11560658Y-10600650D02*
X11541610Y-10610174D01*
X11541610Y-10610174D02*
X11532087Y-10619698D01*
X11741610Y-10733984D02*
X11722563Y-10724460D01*
X11722563Y-10724460D02*
X11713039Y-10714936D01*
X11713039Y-10714936D02*
X11703515Y-10695889D01*
X11703515Y-10695889D02*
X11703515Y-10638746D01*
X11703515Y-10638746D02*
X11713039Y-10619698D01*
X11713039Y-10619698D02*
X11722563Y-10610174D01*
X11722563Y-10610174D02*
X11741610Y-10600650D01*
X11741610Y-10600650D02*
X11770182Y-10600650D01*
X11770182Y-10600650D02*
X11789230Y-10610174D01*
X11789230Y-10610174D02*
X11798753Y-10619698D01*
X11798753Y-10619698D02*
X11808277Y-10638746D01*
X11808277Y-10638746D02*
X11808277Y-10695889D01*
X11808277Y-10695889D02*
X11798753Y-10714936D01*
X11798753Y-10714936D02*
X11789230Y-10724460D01*
X11789230Y-10724460D02*
X11770182Y-10733984D01*
X11770182Y-10733984D02*
X11741610Y-10733984D01*
X11922563Y-10733984D02*
X11903515Y-10724460D01*
X11903515Y-10724460D02*
X11893991Y-10705412D01*
X11893991Y-10705412D02*
X11893991Y-10533984D01*
X12074944Y-10724460D02*
X12055896Y-10733984D01*
X12055896Y-10733984D02*
X12017801Y-10733984D01*
X12017801Y-10733984D02*
X11998753Y-10724460D01*
X11998753Y-10724460D02*
X11989230Y-10705412D01*
X11989230Y-10705412D02*
X11989230Y-10629222D01*
X11989230Y-10629222D02*
X11998753Y-10610174D01*
X11998753Y-10610174D02*
X12017801Y-10600650D01*
X12017801Y-10600650D02*
X12055896Y-10600650D01*
X12055896Y-10600650D02*
X12074944Y-10610174D01*
X12074944Y-10610174D02*
X12084468Y-10629222D01*
X12084468Y-10629222D02*
X12084468Y-10648270D01*
X12084468Y-10648270D02*
X11989230Y-10667317D01*
X12160658Y-10724460D02*
X12179706Y-10733984D01*
X12179706Y-10733984D02*
X12217801Y-10733984D01*
X12217801Y-10733984D02*
X12236849Y-10724460D01*
X12236849Y-10724460D02*
X12246372Y-10705412D01*
X12246372Y-10705412D02*
X12246372Y-10695889D01*
X12246372Y-10695889D02*
X12236849Y-10676841D01*
X12236849Y-10676841D02*
X12217801Y-10667317D01*
X12217801Y-10667317D02*
X12189230Y-10667317D01*
X12189230Y-10667317D02*
X12170182Y-10657793D01*
X12170182Y-10657793D02*
X12160658Y-10638746D01*
X12160658Y-10638746D02*
X12160658Y-10629222D01*
X12160658Y-10629222D02*
X12170182Y-10610174D01*
X12170182Y-10610174D02*
X12189230Y-10600650D01*
X12189230Y-10600650D02*
X12217801Y-10600650D01*
X12217801Y-10600650D02*
X12236849Y-10610174D01*
X12313039Y-10810174D02*
X12322563Y-10800650D01*
X12322563Y-10800650D02*
X12341611Y-10772079D01*
X12341611Y-10772079D02*
X12351134Y-10753031D01*
X12351134Y-10753031D02*
X12360658Y-10724460D01*
X12360658Y-10724460D02*
X12370182Y-10676841D01*
X12370182Y-10676841D02*
X12370182Y-10638746D01*
X12370182Y-10638746D02*
X12360658Y-10591127D01*
X12360658Y-10591127D02*
X12351134Y-10562555D01*
X12351134Y-10562555D02*
X12341611Y-10543508D01*
X12341611Y-10543508D02*
X12322563Y-10514936D01*
X12322563Y-10514936D02*
X12313039Y-10505412D01*
D12*
X7347500Y-10906500D02*
G75*
G02*
X7317500Y-10906500I-15000J0D01*
G01*
X7317500Y-10906500D02*
G75*
G02*
X7347500Y-10906500I15000J0D01*
G01*
D11*
X7646372Y-10797984D02*
X7665420Y-10797984D01*
X7665420Y-10797984D02*
X7684467Y-10807508D01*
X7684467Y-10807508D02*
X7693991Y-10817031D01*
X7693991Y-10817031D02*
X7703515Y-10836079D01*
X7703515Y-10836079D02*
X7713039Y-10874174D01*
X7713039Y-10874174D02*
X7713039Y-10921793D01*
X7713039Y-10921793D02*
X7703515Y-10959889D01*
X7703515Y-10959889D02*
X7693991Y-10978936D01*
X7693991Y-10978936D02*
X7684467Y-10988460D01*
X7684467Y-10988460D02*
X7665420Y-10997984D01*
X7665420Y-10997984D02*
X7646372Y-10997984D01*
X7646372Y-10997984D02*
X7627324Y-10988460D01*
X7627324Y-10988460D02*
X7617801Y-10978936D01*
X7617801Y-10978936D02*
X7608277Y-10959889D01*
X7608277Y-10959889D02*
X7598753Y-10921793D01*
X7598753Y-10921793D02*
X7598753Y-10874174D01*
X7598753Y-10874174D02*
X7608277Y-10836079D01*
X7608277Y-10836079D02*
X7617801Y-10817031D01*
X7617801Y-10817031D02*
X7627324Y-10807508D01*
X7627324Y-10807508D02*
X7646372Y-10797984D01*
X7798753Y-10978936D02*
X7808277Y-10988460D01*
X7808277Y-10988460D02*
X7798753Y-10997984D01*
X7798753Y-10997984D02*
X7789229Y-10988460D01*
X7789229Y-10988460D02*
X7798753Y-10978936D01*
X7798753Y-10978936D02*
X7798753Y-10997984D01*
X7874943Y-10797984D02*
X7998753Y-10797984D01*
X7998753Y-10797984D02*
X7932086Y-10874174D01*
X7932086Y-10874174D02*
X7960658Y-10874174D01*
X7960658Y-10874174D02*
X7979705Y-10883698D01*
X7979705Y-10883698D02*
X7989229Y-10893222D01*
X7989229Y-10893222D02*
X7998753Y-10912270D01*
X7998753Y-10912270D02*
X7998753Y-10959889D01*
X7998753Y-10959889D02*
X7989229Y-10978936D01*
X7989229Y-10978936D02*
X7979705Y-10988460D01*
X7979705Y-10988460D02*
X7960658Y-10997984D01*
X7960658Y-10997984D02*
X7903515Y-10997984D01*
X7903515Y-10997984D02*
X7884467Y-10988460D01*
X7884467Y-10988460D02*
X7874943Y-10978936D01*
X8122562Y-10797984D02*
X8141610Y-10797984D01*
X8141610Y-10797984D02*
X8160658Y-10807508D01*
X8160658Y-10807508D02*
X8170182Y-10817031D01*
X8170182Y-10817031D02*
X8179705Y-10836079D01*
X8179705Y-10836079D02*
X8189229Y-10874174D01*
X8189229Y-10874174D02*
X8189229Y-10921793D01*
X8189229Y-10921793D02*
X8179705Y-10959889D01*
X8179705Y-10959889D02*
X8170182Y-10978936D01*
X8170182Y-10978936D02*
X8160658Y-10988460D01*
X8160658Y-10988460D02*
X8141610Y-10997984D01*
X8141610Y-10997984D02*
X8122562Y-10997984D01*
X8122562Y-10997984D02*
X8103515Y-10988460D01*
X8103515Y-10988460D02*
X8093991Y-10978936D01*
X8093991Y-10978936D02*
X8084467Y-10959889D01*
X8084467Y-10959889D02*
X8074943Y-10921793D01*
X8074943Y-10921793D02*
X8074943Y-10874174D01*
X8074943Y-10874174D02*
X8084467Y-10836079D01*
X8084467Y-10836079D02*
X8093991Y-10817031D01*
X8093991Y-10817031D02*
X8103515Y-10807508D01*
X8103515Y-10807508D02*
X8122562Y-10797984D01*
X8313039Y-10797984D02*
X8332086Y-10797984D01*
X8332086Y-10797984D02*
X8351134Y-10807508D01*
X8351134Y-10807508D02*
X8360658Y-10817031D01*
X8360658Y-10817031D02*
X8370182Y-10836079D01*
X8370182Y-10836079D02*
X8379705Y-10874174D01*
X8379705Y-10874174D02*
X8379705Y-10921793D01*
X8379705Y-10921793D02*
X8370182Y-10959889D01*
X8370182Y-10959889D02*
X8360658Y-10978936D01*
X8360658Y-10978936D02*
X8351134Y-10988460D01*
X8351134Y-10988460D02*
X8332086Y-10997984D01*
X8332086Y-10997984D02*
X8313039Y-10997984D01*
X8313039Y-10997984D02*
X8293991Y-10988460D01*
X8293991Y-10988460D02*
X8284467Y-10978936D01*
X8284467Y-10978936D02*
X8274943Y-10959889D01*
X8274943Y-10959889D02*
X8265420Y-10921793D01*
X8265420Y-10921793D02*
X8265420Y-10874174D01*
X8265420Y-10874174D02*
X8274943Y-10836079D01*
X8274943Y-10836079D02*
X8284467Y-10817031D01*
X8284467Y-10817031D02*
X8293991Y-10807508D01*
X8293991Y-10807508D02*
X8313039Y-10797984D01*
X8465420Y-10997984D02*
X8465420Y-10864650D01*
X8465420Y-10883698D02*
X8474944Y-10874174D01*
X8474944Y-10874174D02*
X8493991Y-10864650D01*
X8493991Y-10864650D02*
X8522563Y-10864650D01*
X8522563Y-10864650D02*
X8541610Y-10874174D01*
X8541610Y-10874174D02*
X8551134Y-10893222D01*
X8551134Y-10893222D02*
X8551134Y-10997984D01*
X8551134Y-10893222D02*
X8560658Y-10874174D01*
X8560658Y-10874174D02*
X8579705Y-10864650D01*
X8579705Y-10864650D02*
X8608277Y-10864650D01*
X8608277Y-10864650D02*
X8627325Y-10874174D01*
X8627325Y-10874174D02*
X8636848Y-10893222D01*
X8636848Y-10893222D02*
X8636848Y-10997984D01*
X8732086Y-10997984D02*
X8732086Y-10864650D01*
X8732086Y-10883698D02*
X8741610Y-10874174D01*
X8741610Y-10874174D02*
X8760658Y-10864650D01*
X8760658Y-10864650D02*
X8789229Y-10864650D01*
X8789229Y-10864650D02*
X8808277Y-10874174D01*
X8808277Y-10874174D02*
X8817801Y-10893222D01*
X8817801Y-10893222D02*
X8817801Y-10997984D01*
X8817801Y-10893222D02*
X8827325Y-10874174D01*
X8827325Y-10874174D02*
X8846372Y-10864650D01*
X8846372Y-10864650D02*
X8874944Y-10864650D01*
X8874944Y-10864650D02*
X8893991Y-10874174D01*
X8893991Y-10874174D02*
X8903515Y-10893222D01*
X8903515Y-10893222D02*
X8903515Y-10997984D01*
X9293991Y-10788460D02*
X9122563Y-11045603D01*
X9551134Y-10797984D02*
X9570182Y-10797984D01*
X9570182Y-10797984D02*
X9589229Y-10807508D01*
X9589229Y-10807508D02*
X9598753Y-10817031D01*
X9598753Y-10817031D02*
X9608277Y-10836079D01*
X9608277Y-10836079D02*
X9617801Y-10874174D01*
X9617801Y-10874174D02*
X9617801Y-10921793D01*
X9617801Y-10921793D02*
X9608277Y-10959889D01*
X9608277Y-10959889D02*
X9598753Y-10978936D01*
X9598753Y-10978936D02*
X9589229Y-10988460D01*
X9589229Y-10988460D02*
X9570182Y-10997984D01*
X9570182Y-10997984D02*
X9551134Y-10997984D01*
X9551134Y-10997984D02*
X9532087Y-10988460D01*
X9532087Y-10988460D02*
X9522563Y-10978936D01*
X9522563Y-10978936D02*
X9513039Y-10959889D01*
X9513039Y-10959889D02*
X9503515Y-10921793D01*
X9503515Y-10921793D02*
X9503515Y-10874174D01*
X9503515Y-10874174D02*
X9513039Y-10836079D01*
X9513039Y-10836079D02*
X9522563Y-10817031D01*
X9522563Y-10817031D02*
X9532087Y-10807508D01*
X9532087Y-10807508D02*
X9551134Y-10797984D01*
X9703515Y-10978936D02*
X9713039Y-10988460D01*
X9713039Y-10988460D02*
X9703515Y-10997984D01*
X9703515Y-10997984D02*
X9693991Y-10988460D01*
X9693991Y-10988460D02*
X9703515Y-10978936D01*
X9703515Y-10978936D02*
X9703515Y-10997984D01*
X9836848Y-10797984D02*
X9855896Y-10797984D01*
X9855896Y-10797984D02*
X9874944Y-10807508D01*
X9874944Y-10807508D02*
X9884468Y-10817031D01*
X9884468Y-10817031D02*
X9893991Y-10836079D01*
X9893991Y-10836079D02*
X9903515Y-10874174D01*
X9903515Y-10874174D02*
X9903515Y-10921793D01*
X9903515Y-10921793D02*
X9893991Y-10959889D01*
X9893991Y-10959889D02*
X9884468Y-10978936D01*
X9884468Y-10978936D02*
X9874944Y-10988460D01*
X9874944Y-10988460D02*
X9855896Y-10997984D01*
X9855896Y-10997984D02*
X9836848Y-10997984D01*
X9836848Y-10997984D02*
X9817801Y-10988460D01*
X9817801Y-10988460D02*
X9808277Y-10978936D01*
X9808277Y-10978936D02*
X9798753Y-10959889D01*
X9798753Y-10959889D02*
X9789229Y-10921793D01*
X9789229Y-10921793D02*
X9789229Y-10874174D01*
X9789229Y-10874174D02*
X9798753Y-10836079D01*
X9798753Y-10836079D02*
X9808277Y-10817031D01*
X9808277Y-10817031D02*
X9817801Y-10807508D01*
X9817801Y-10807508D02*
X9836848Y-10797984D01*
X10093991Y-10997984D02*
X9979706Y-10997984D01*
X10036848Y-10997984D02*
X10036848Y-10797984D01*
X10036848Y-10797984D02*
X10017801Y-10826555D01*
X10017801Y-10826555D02*
X9998753Y-10845603D01*
X9998753Y-10845603D02*
X9979706Y-10855127D01*
X10284468Y-10997984D02*
X10170182Y-10997984D01*
X10227325Y-10997984D02*
X10227325Y-10797984D01*
X10227325Y-10797984D02*
X10208277Y-10826555D01*
X10208277Y-10826555D02*
X10189229Y-10845603D01*
X10189229Y-10845603D02*
X10170182Y-10855127D01*
X10398753Y-10883698D02*
X10379706Y-10874174D01*
X10379706Y-10874174D02*
X10370182Y-10864650D01*
X10370182Y-10864650D02*
X10360658Y-10845603D01*
X10360658Y-10845603D02*
X10360658Y-10836079D01*
X10360658Y-10836079D02*
X10370182Y-10817031D01*
X10370182Y-10817031D02*
X10379706Y-10807508D01*
X10379706Y-10807508D02*
X10398753Y-10797984D01*
X10398753Y-10797984D02*
X10436849Y-10797984D01*
X10436849Y-10797984D02*
X10455896Y-10807508D01*
X10455896Y-10807508D02*
X10465420Y-10817031D01*
X10465420Y-10817031D02*
X10474944Y-10836079D01*
X10474944Y-10836079D02*
X10474944Y-10845603D01*
X10474944Y-10845603D02*
X10465420Y-10864650D01*
X10465420Y-10864650D02*
X10455896Y-10874174D01*
X10455896Y-10874174D02*
X10436849Y-10883698D01*
X10436849Y-10883698D02*
X10398753Y-10883698D01*
X10398753Y-10883698D02*
X10379706Y-10893222D01*
X10379706Y-10893222D02*
X10370182Y-10902746D01*
X10370182Y-10902746D02*
X10360658Y-10921793D01*
X10360658Y-10921793D02*
X10360658Y-10959889D01*
X10360658Y-10959889D02*
X10370182Y-10978936D01*
X10370182Y-10978936D02*
X10379706Y-10988460D01*
X10379706Y-10988460D02*
X10398753Y-10997984D01*
X10398753Y-10997984D02*
X10436849Y-10997984D01*
X10436849Y-10997984D02*
X10455896Y-10988460D01*
X10455896Y-10988460D02*
X10465420Y-10978936D01*
X10465420Y-10978936D02*
X10474944Y-10959889D01*
X10474944Y-10959889D02*
X10474944Y-10921793D01*
X10474944Y-10921793D02*
X10465420Y-10902746D01*
X10465420Y-10902746D02*
X10455896Y-10893222D01*
X10455896Y-10893222D02*
X10436849Y-10883698D01*
X10551134Y-10797984D02*
X10551134Y-10836079D01*
X10627325Y-10797984D02*
X10627325Y-10836079D01*
X10922563Y-11074174D02*
X10913039Y-11064650D01*
X10913039Y-11064650D02*
X10893991Y-11036079D01*
X10893991Y-11036079D02*
X10884468Y-11017031D01*
X10884468Y-11017031D02*
X10874944Y-10988460D01*
X10874944Y-10988460D02*
X10865420Y-10940841D01*
X10865420Y-10940841D02*
X10865420Y-10902746D01*
X10865420Y-10902746D02*
X10874944Y-10855127D01*
X10874944Y-10855127D02*
X10884468Y-10826555D01*
X10884468Y-10826555D02*
X10893991Y-10807508D01*
X10893991Y-10807508D02*
X10913039Y-10778936D01*
X10913039Y-10778936D02*
X10922563Y-10769412D01*
X11008277Y-10997984D02*
X11046372Y-10997984D01*
X11046372Y-10997984D02*
X11065420Y-10988460D01*
X11065420Y-10988460D02*
X11074944Y-10978936D01*
X11074944Y-10978936D02*
X11093991Y-10950365D01*
X11093991Y-10950365D02*
X11103515Y-10912270D01*
X11103515Y-10912270D02*
X11103515Y-10836079D01*
X11103515Y-10836079D02*
X11093991Y-10817031D01*
X11093991Y-10817031D02*
X11084468Y-10807508D01*
X11084468Y-10807508D02*
X11065420Y-10797984D01*
X11065420Y-10797984D02*
X11027325Y-10797984D01*
X11027325Y-10797984D02*
X11008277Y-10807508D01*
X11008277Y-10807508D02*
X10998753Y-10817031D01*
X10998753Y-10817031D02*
X10989230Y-10836079D01*
X10989230Y-10836079D02*
X10989230Y-10883698D01*
X10989230Y-10883698D02*
X10998753Y-10902746D01*
X10998753Y-10902746D02*
X11008277Y-10912270D01*
X11008277Y-10912270D02*
X11027325Y-10921793D01*
X11027325Y-10921793D02*
X11065420Y-10921793D01*
X11065420Y-10921793D02*
X11084468Y-10912270D01*
X11084468Y-10912270D02*
X11093991Y-10902746D01*
X11093991Y-10902746D02*
X11103515Y-10883698D01*
X11284468Y-10797984D02*
X11189229Y-10797984D01*
X11189229Y-10797984D02*
X11179706Y-10893222D01*
X11179706Y-10893222D02*
X11189229Y-10883698D01*
X11189229Y-10883698D02*
X11208277Y-10874174D01*
X11208277Y-10874174D02*
X11255896Y-10874174D01*
X11255896Y-10874174D02*
X11274944Y-10883698D01*
X11274944Y-10883698D02*
X11284468Y-10893222D01*
X11284468Y-10893222D02*
X11293991Y-10912270D01*
X11293991Y-10912270D02*
X11293991Y-10959889D01*
X11293991Y-10959889D02*
X11284468Y-10978936D01*
X11284468Y-10978936D02*
X11274944Y-10988460D01*
X11274944Y-10988460D02*
X11255896Y-10997984D01*
X11255896Y-10997984D02*
X11208277Y-10997984D01*
X11208277Y-10997984D02*
X11189229Y-10988460D01*
X11189229Y-10988460D02*
X11179706Y-10978936D01*
X11532087Y-10997984D02*
X11532087Y-10797984D01*
X11617801Y-10997984D02*
X11617801Y-10893222D01*
X11617801Y-10893222D02*
X11608277Y-10874174D01*
X11608277Y-10874174D02*
X11589230Y-10864650D01*
X11589230Y-10864650D02*
X11560658Y-10864650D01*
X11560658Y-10864650D02*
X11541610Y-10874174D01*
X11541610Y-10874174D02*
X11532087Y-10883698D01*
X11741610Y-10997984D02*
X11722563Y-10988460D01*
X11722563Y-10988460D02*
X11713039Y-10978936D01*
X11713039Y-10978936D02*
X11703515Y-10959889D01*
X11703515Y-10959889D02*
X11703515Y-10902746D01*
X11703515Y-10902746D02*
X11713039Y-10883698D01*
X11713039Y-10883698D02*
X11722563Y-10874174D01*
X11722563Y-10874174D02*
X11741610Y-10864650D01*
X11741610Y-10864650D02*
X11770182Y-10864650D01*
X11770182Y-10864650D02*
X11789230Y-10874174D01*
X11789230Y-10874174D02*
X11798753Y-10883698D01*
X11798753Y-10883698D02*
X11808277Y-10902746D01*
X11808277Y-10902746D02*
X11808277Y-10959889D01*
X11808277Y-10959889D02*
X11798753Y-10978936D01*
X11798753Y-10978936D02*
X11789230Y-10988460D01*
X11789230Y-10988460D02*
X11770182Y-10997984D01*
X11770182Y-10997984D02*
X11741610Y-10997984D01*
X11922563Y-10997984D02*
X11903515Y-10988460D01*
X11903515Y-10988460D02*
X11893991Y-10969412D01*
X11893991Y-10969412D02*
X11893991Y-10797984D01*
X12074944Y-10988460D02*
X12055896Y-10997984D01*
X12055896Y-10997984D02*
X12017801Y-10997984D01*
X12017801Y-10997984D02*
X11998753Y-10988460D01*
X11998753Y-10988460D02*
X11989230Y-10969412D01*
X11989230Y-10969412D02*
X11989230Y-10893222D01*
X11989230Y-10893222D02*
X11998753Y-10874174D01*
X11998753Y-10874174D02*
X12017801Y-10864650D01*
X12017801Y-10864650D02*
X12055896Y-10864650D01*
X12055896Y-10864650D02*
X12074944Y-10874174D01*
X12074944Y-10874174D02*
X12084468Y-10893222D01*
X12084468Y-10893222D02*
X12084468Y-10912270D01*
X12084468Y-10912270D02*
X11989230Y-10931317D01*
X12160658Y-10988460D02*
X12179706Y-10997984D01*
X12179706Y-10997984D02*
X12217801Y-10997984D01*
X12217801Y-10997984D02*
X12236849Y-10988460D01*
X12236849Y-10988460D02*
X12246372Y-10969412D01*
X12246372Y-10969412D02*
X12246372Y-10959889D01*
X12246372Y-10959889D02*
X12236849Y-10940841D01*
X12236849Y-10940841D02*
X12217801Y-10931317D01*
X12217801Y-10931317D02*
X12189230Y-10931317D01*
X12189230Y-10931317D02*
X12170182Y-10921793D01*
X12170182Y-10921793D02*
X12160658Y-10902746D01*
X12160658Y-10902746D02*
X12160658Y-10893222D01*
X12160658Y-10893222D02*
X12170182Y-10874174D01*
X12170182Y-10874174D02*
X12189230Y-10864650D01*
X12189230Y-10864650D02*
X12217801Y-10864650D01*
X12217801Y-10864650D02*
X12236849Y-10874174D01*
X12313039Y-11074174D02*
X12322563Y-11064650D01*
X12322563Y-11064650D02*
X12341611Y-11036079D01*
X12341611Y-11036079D02*
X12351134Y-11017031D01*
X12351134Y-11017031D02*
X12360658Y-10988460D01*
X12360658Y-10988460D02*
X12370182Y-10940841D01*
X12370182Y-10940841D02*
X12370182Y-10902746D01*
X12370182Y-10902746D02*
X12360658Y-10855127D01*
X12360658Y-10855127D02*
X12351134Y-10826555D01*
X12351134Y-10826555D02*
X12341611Y-10807508D01*
X12341611Y-10807508D02*
X12322563Y-10778936D01*
X12322563Y-10778936D02*
X12313039Y-10769412D01*
D12*
X7332500Y-11155500D02*
X7332500Y-11185500D01*
X7317500Y-11170500D02*
X7347500Y-11170500D01*
D11*
X7646372Y-11061984D02*
X7665420Y-11061984D01*
X7665420Y-11061984D02*
X7684467Y-11071508D01*
X7684467Y-11071508D02*
X7693991Y-11081031D01*
X7693991Y-11081031D02*
X7703515Y-11100079D01*
X7703515Y-11100079D02*
X7713039Y-11138174D01*
X7713039Y-11138174D02*
X7713039Y-11185793D01*
X7713039Y-11185793D02*
X7703515Y-11223888D01*
X7703515Y-11223888D02*
X7693991Y-11242936D01*
X7693991Y-11242936D02*
X7684467Y-11252460D01*
X7684467Y-11252460D02*
X7665420Y-11261984D01*
X7665420Y-11261984D02*
X7646372Y-11261984D01*
X7646372Y-11261984D02*
X7627324Y-11252460D01*
X7627324Y-11252460D02*
X7617801Y-11242936D01*
X7617801Y-11242936D02*
X7608277Y-11223888D01*
X7608277Y-11223888D02*
X7598753Y-11185793D01*
X7598753Y-11185793D02*
X7598753Y-11138174D01*
X7598753Y-11138174D02*
X7608277Y-11100079D01*
X7608277Y-11100079D02*
X7617801Y-11081031D01*
X7617801Y-11081031D02*
X7627324Y-11071508D01*
X7627324Y-11071508D02*
X7646372Y-11061984D01*
X7798753Y-11242936D02*
X7808277Y-11252460D01*
X7808277Y-11252460D02*
X7798753Y-11261984D01*
X7798753Y-11261984D02*
X7789229Y-11252460D01*
X7789229Y-11252460D02*
X7798753Y-11242936D01*
X7798753Y-11242936D02*
X7798753Y-11261984D01*
X7874943Y-11061984D02*
X7998753Y-11061984D01*
X7998753Y-11061984D02*
X7932086Y-11138174D01*
X7932086Y-11138174D02*
X7960658Y-11138174D01*
X7960658Y-11138174D02*
X7979705Y-11147698D01*
X7979705Y-11147698D02*
X7989229Y-11157222D01*
X7989229Y-11157222D02*
X7998753Y-11176270D01*
X7998753Y-11176270D02*
X7998753Y-11223888D01*
X7998753Y-11223888D02*
X7989229Y-11242936D01*
X7989229Y-11242936D02*
X7979705Y-11252460D01*
X7979705Y-11252460D02*
X7960658Y-11261984D01*
X7960658Y-11261984D02*
X7903515Y-11261984D01*
X7903515Y-11261984D02*
X7884467Y-11252460D01*
X7884467Y-11252460D02*
X7874943Y-11242936D01*
X8122562Y-11061984D02*
X8141610Y-11061984D01*
X8141610Y-11061984D02*
X8160658Y-11071508D01*
X8160658Y-11071508D02*
X8170182Y-11081031D01*
X8170182Y-11081031D02*
X8179705Y-11100079D01*
X8179705Y-11100079D02*
X8189229Y-11138174D01*
X8189229Y-11138174D02*
X8189229Y-11185793D01*
X8189229Y-11185793D02*
X8179705Y-11223888D01*
X8179705Y-11223888D02*
X8170182Y-11242936D01*
X8170182Y-11242936D02*
X8160658Y-11252460D01*
X8160658Y-11252460D02*
X8141610Y-11261984D01*
X8141610Y-11261984D02*
X8122562Y-11261984D01*
X8122562Y-11261984D02*
X8103515Y-11252460D01*
X8103515Y-11252460D02*
X8093991Y-11242936D01*
X8093991Y-11242936D02*
X8084467Y-11223888D01*
X8084467Y-11223888D02*
X8074943Y-11185793D01*
X8074943Y-11185793D02*
X8074943Y-11138174D01*
X8074943Y-11138174D02*
X8084467Y-11100079D01*
X8084467Y-11100079D02*
X8093991Y-11081031D01*
X8093991Y-11081031D02*
X8103515Y-11071508D01*
X8103515Y-11071508D02*
X8122562Y-11061984D01*
X8313039Y-11061984D02*
X8332086Y-11061984D01*
X8332086Y-11061984D02*
X8351134Y-11071508D01*
X8351134Y-11071508D02*
X8360658Y-11081031D01*
X8360658Y-11081031D02*
X8370182Y-11100079D01*
X8370182Y-11100079D02*
X8379705Y-11138174D01*
X8379705Y-11138174D02*
X8379705Y-11185793D01*
X8379705Y-11185793D02*
X8370182Y-11223888D01*
X8370182Y-11223888D02*
X8360658Y-11242936D01*
X8360658Y-11242936D02*
X8351134Y-11252460D01*
X8351134Y-11252460D02*
X8332086Y-11261984D01*
X8332086Y-11261984D02*
X8313039Y-11261984D01*
X8313039Y-11261984D02*
X8293991Y-11252460D01*
X8293991Y-11252460D02*
X8284467Y-11242936D01*
X8284467Y-11242936D02*
X8274943Y-11223888D01*
X8274943Y-11223888D02*
X8265420Y-11185793D01*
X8265420Y-11185793D02*
X8265420Y-11138174D01*
X8265420Y-11138174D02*
X8274943Y-11100079D01*
X8274943Y-11100079D02*
X8284467Y-11081031D01*
X8284467Y-11081031D02*
X8293991Y-11071508D01*
X8293991Y-11071508D02*
X8313039Y-11061984D01*
X8465420Y-11261984D02*
X8465420Y-11128650D01*
X8465420Y-11147698D02*
X8474944Y-11138174D01*
X8474944Y-11138174D02*
X8493991Y-11128650D01*
X8493991Y-11128650D02*
X8522563Y-11128650D01*
X8522563Y-11128650D02*
X8541610Y-11138174D01*
X8541610Y-11138174D02*
X8551134Y-11157222D01*
X8551134Y-11157222D02*
X8551134Y-11261984D01*
X8551134Y-11157222D02*
X8560658Y-11138174D01*
X8560658Y-11138174D02*
X8579705Y-11128650D01*
X8579705Y-11128650D02*
X8608277Y-11128650D01*
X8608277Y-11128650D02*
X8627325Y-11138174D01*
X8627325Y-11138174D02*
X8636848Y-11157222D01*
X8636848Y-11157222D02*
X8636848Y-11261984D01*
X8732086Y-11261984D02*
X8732086Y-11128650D01*
X8732086Y-11147698D02*
X8741610Y-11138174D01*
X8741610Y-11138174D02*
X8760658Y-11128650D01*
X8760658Y-11128650D02*
X8789229Y-11128650D01*
X8789229Y-11128650D02*
X8808277Y-11138174D01*
X8808277Y-11138174D02*
X8817801Y-11157222D01*
X8817801Y-11157222D02*
X8817801Y-11261984D01*
X8817801Y-11157222D02*
X8827325Y-11138174D01*
X8827325Y-11138174D02*
X8846372Y-11128650D01*
X8846372Y-11128650D02*
X8874944Y-11128650D01*
X8874944Y-11128650D02*
X8893991Y-11138174D01*
X8893991Y-11138174D02*
X8903515Y-11157222D01*
X8903515Y-11157222D02*
X8903515Y-11261984D01*
X9293991Y-11052460D02*
X9122563Y-11309603D01*
X9551134Y-11061984D02*
X9570182Y-11061984D01*
X9570182Y-11061984D02*
X9589229Y-11071508D01*
X9589229Y-11071508D02*
X9598753Y-11081031D01*
X9598753Y-11081031D02*
X9608277Y-11100079D01*
X9608277Y-11100079D02*
X9617801Y-11138174D01*
X9617801Y-11138174D02*
X9617801Y-11185793D01*
X9617801Y-11185793D02*
X9608277Y-11223888D01*
X9608277Y-11223888D02*
X9598753Y-11242936D01*
X9598753Y-11242936D02*
X9589229Y-11252460D01*
X9589229Y-11252460D02*
X9570182Y-11261984D01*
X9570182Y-11261984D02*
X9551134Y-11261984D01*
X9551134Y-11261984D02*
X9532087Y-11252460D01*
X9532087Y-11252460D02*
X9522563Y-11242936D01*
X9522563Y-11242936D02*
X9513039Y-11223888D01*
X9513039Y-11223888D02*
X9503515Y-11185793D01*
X9503515Y-11185793D02*
X9503515Y-11138174D01*
X9503515Y-11138174D02*
X9513039Y-11100079D01*
X9513039Y-11100079D02*
X9522563Y-11081031D01*
X9522563Y-11081031D02*
X9532087Y-11071508D01*
X9532087Y-11071508D02*
X9551134Y-11061984D01*
X9703515Y-11242936D02*
X9713039Y-11252460D01*
X9713039Y-11252460D02*
X9703515Y-11261984D01*
X9703515Y-11261984D02*
X9693991Y-11252460D01*
X9693991Y-11252460D02*
X9703515Y-11242936D01*
X9703515Y-11242936D02*
X9703515Y-11261984D01*
X9836848Y-11061984D02*
X9855896Y-11061984D01*
X9855896Y-11061984D02*
X9874944Y-11071508D01*
X9874944Y-11071508D02*
X9884468Y-11081031D01*
X9884468Y-11081031D02*
X9893991Y-11100079D01*
X9893991Y-11100079D02*
X9903515Y-11138174D01*
X9903515Y-11138174D02*
X9903515Y-11185793D01*
X9903515Y-11185793D02*
X9893991Y-11223888D01*
X9893991Y-11223888D02*
X9884468Y-11242936D01*
X9884468Y-11242936D02*
X9874944Y-11252460D01*
X9874944Y-11252460D02*
X9855896Y-11261984D01*
X9855896Y-11261984D02*
X9836848Y-11261984D01*
X9836848Y-11261984D02*
X9817801Y-11252460D01*
X9817801Y-11252460D02*
X9808277Y-11242936D01*
X9808277Y-11242936D02*
X9798753Y-11223888D01*
X9798753Y-11223888D02*
X9789229Y-11185793D01*
X9789229Y-11185793D02*
X9789229Y-11138174D01*
X9789229Y-11138174D02*
X9798753Y-11100079D01*
X9798753Y-11100079D02*
X9808277Y-11081031D01*
X9808277Y-11081031D02*
X9817801Y-11071508D01*
X9817801Y-11071508D02*
X9836848Y-11061984D01*
X10093991Y-11261984D02*
X9979706Y-11261984D01*
X10036848Y-11261984D02*
X10036848Y-11061984D01*
X10036848Y-11061984D02*
X10017801Y-11090555D01*
X10017801Y-11090555D02*
X9998753Y-11109603D01*
X9998753Y-11109603D02*
X9979706Y-11119127D01*
X10284468Y-11261984D02*
X10170182Y-11261984D01*
X10227325Y-11261984D02*
X10227325Y-11061984D01*
X10227325Y-11061984D02*
X10208277Y-11090555D01*
X10208277Y-11090555D02*
X10189229Y-11109603D01*
X10189229Y-11109603D02*
X10170182Y-11119127D01*
X10398753Y-11147698D02*
X10379706Y-11138174D01*
X10379706Y-11138174D02*
X10370182Y-11128650D01*
X10370182Y-11128650D02*
X10360658Y-11109603D01*
X10360658Y-11109603D02*
X10360658Y-11100079D01*
X10360658Y-11100079D02*
X10370182Y-11081031D01*
X10370182Y-11081031D02*
X10379706Y-11071508D01*
X10379706Y-11071508D02*
X10398753Y-11061984D01*
X10398753Y-11061984D02*
X10436849Y-11061984D01*
X10436849Y-11061984D02*
X10455896Y-11071508D01*
X10455896Y-11071508D02*
X10465420Y-11081031D01*
X10465420Y-11081031D02*
X10474944Y-11100079D01*
X10474944Y-11100079D02*
X10474944Y-11109603D01*
X10474944Y-11109603D02*
X10465420Y-11128650D01*
X10465420Y-11128650D02*
X10455896Y-11138174D01*
X10455896Y-11138174D02*
X10436849Y-11147698D01*
X10436849Y-11147698D02*
X10398753Y-11147698D01*
X10398753Y-11147698D02*
X10379706Y-11157222D01*
X10379706Y-11157222D02*
X10370182Y-11166746D01*
X10370182Y-11166746D02*
X10360658Y-11185793D01*
X10360658Y-11185793D02*
X10360658Y-11223888D01*
X10360658Y-11223888D02*
X10370182Y-11242936D01*
X10370182Y-11242936D02*
X10379706Y-11252460D01*
X10379706Y-11252460D02*
X10398753Y-11261984D01*
X10398753Y-11261984D02*
X10436849Y-11261984D01*
X10436849Y-11261984D02*
X10455896Y-11252460D01*
X10455896Y-11252460D02*
X10465420Y-11242936D01*
X10465420Y-11242936D02*
X10474944Y-11223888D01*
X10474944Y-11223888D02*
X10474944Y-11185793D01*
X10474944Y-11185793D02*
X10465420Y-11166746D01*
X10465420Y-11166746D02*
X10455896Y-11157222D01*
X10455896Y-11157222D02*
X10436849Y-11147698D01*
X10551134Y-11061984D02*
X10551134Y-11100079D01*
X10627325Y-11061984D02*
X10627325Y-11100079D01*
X10922563Y-11338174D02*
X10913039Y-11328650D01*
X10913039Y-11328650D02*
X10893991Y-11300079D01*
X10893991Y-11300079D02*
X10884468Y-11281031D01*
X10884468Y-11281031D02*
X10874944Y-11252460D01*
X10874944Y-11252460D02*
X10865420Y-11204841D01*
X10865420Y-11204841D02*
X10865420Y-11166746D01*
X10865420Y-11166746D02*
X10874944Y-11119127D01*
X10874944Y-11119127D02*
X10884468Y-11090555D01*
X10884468Y-11090555D02*
X10893991Y-11071508D01*
X10893991Y-11071508D02*
X10913039Y-11042936D01*
X10913039Y-11042936D02*
X10922563Y-11033412D01*
X11093991Y-11061984D02*
X10998753Y-11061984D01*
X10998753Y-11061984D02*
X10989230Y-11157222D01*
X10989230Y-11157222D02*
X10998753Y-11147698D01*
X10998753Y-11147698D02*
X11017801Y-11138174D01*
X11017801Y-11138174D02*
X11065420Y-11138174D01*
X11065420Y-11138174D02*
X11084468Y-11147698D01*
X11084468Y-11147698D02*
X11093991Y-11157222D01*
X11093991Y-11157222D02*
X11103515Y-11176270D01*
X11103515Y-11176270D02*
X11103515Y-11223888D01*
X11103515Y-11223888D02*
X11093991Y-11242936D01*
X11093991Y-11242936D02*
X11084468Y-11252460D01*
X11084468Y-11252460D02*
X11065420Y-11261984D01*
X11065420Y-11261984D02*
X11017801Y-11261984D01*
X11017801Y-11261984D02*
X10998753Y-11252460D01*
X10998753Y-11252460D02*
X10989230Y-11242936D01*
X11341610Y-11261984D02*
X11341610Y-11061984D01*
X11427325Y-11261984D02*
X11427325Y-11157222D01*
X11427325Y-11157222D02*
X11417801Y-11138174D01*
X11417801Y-11138174D02*
X11398753Y-11128650D01*
X11398753Y-11128650D02*
X11370182Y-11128650D01*
X11370182Y-11128650D02*
X11351134Y-11138174D01*
X11351134Y-11138174D02*
X11341610Y-11147698D01*
X11551134Y-11261984D02*
X11532087Y-11252460D01*
X11532087Y-11252460D02*
X11522563Y-11242936D01*
X11522563Y-11242936D02*
X11513039Y-11223888D01*
X11513039Y-11223888D02*
X11513039Y-11166746D01*
X11513039Y-11166746D02*
X11522563Y-11147698D01*
X11522563Y-11147698D02*
X11532087Y-11138174D01*
X11532087Y-11138174D02*
X11551134Y-11128650D01*
X11551134Y-11128650D02*
X11579706Y-11128650D01*
X11579706Y-11128650D02*
X11598753Y-11138174D01*
X11598753Y-11138174D02*
X11608277Y-11147698D01*
X11608277Y-11147698D02*
X11617801Y-11166746D01*
X11617801Y-11166746D02*
X11617801Y-11223888D01*
X11617801Y-11223888D02*
X11608277Y-11242936D01*
X11608277Y-11242936D02*
X11598753Y-11252460D01*
X11598753Y-11252460D02*
X11579706Y-11261984D01*
X11579706Y-11261984D02*
X11551134Y-11261984D01*
X11732087Y-11261984D02*
X11713039Y-11252460D01*
X11713039Y-11252460D02*
X11703515Y-11233412D01*
X11703515Y-11233412D02*
X11703515Y-11061984D01*
X11884468Y-11252460D02*
X11865420Y-11261984D01*
X11865420Y-11261984D02*
X11827325Y-11261984D01*
X11827325Y-11261984D02*
X11808277Y-11252460D01*
X11808277Y-11252460D02*
X11798753Y-11233412D01*
X11798753Y-11233412D02*
X11798753Y-11157222D01*
X11798753Y-11157222D02*
X11808277Y-11138174D01*
X11808277Y-11138174D02*
X11827325Y-11128650D01*
X11827325Y-11128650D02*
X11865420Y-11128650D01*
X11865420Y-11128650D02*
X11884468Y-11138174D01*
X11884468Y-11138174D02*
X11893991Y-11157222D01*
X11893991Y-11157222D02*
X11893991Y-11176270D01*
X11893991Y-11176270D02*
X11798753Y-11195317D01*
X11970182Y-11252460D02*
X11989230Y-11261984D01*
X11989230Y-11261984D02*
X12027325Y-11261984D01*
X12027325Y-11261984D02*
X12046372Y-11252460D01*
X12046372Y-11252460D02*
X12055896Y-11233412D01*
X12055896Y-11233412D02*
X12055896Y-11223888D01*
X12055896Y-11223888D02*
X12046372Y-11204841D01*
X12046372Y-11204841D02*
X12027325Y-11195317D01*
X12027325Y-11195317D02*
X11998753Y-11195317D01*
X11998753Y-11195317D02*
X11979706Y-11185793D01*
X11979706Y-11185793D02*
X11970182Y-11166746D01*
X11970182Y-11166746D02*
X11970182Y-11157222D01*
X11970182Y-11157222D02*
X11979706Y-11138174D01*
X11979706Y-11138174D02*
X11998753Y-11128650D01*
X11998753Y-11128650D02*
X12027325Y-11128650D01*
X12027325Y-11128650D02*
X12046372Y-11138174D01*
X12122563Y-11338174D02*
X12132087Y-11328650D01*
X12132087Y-11328650D02*
X12151134Y-11300079D01*
X12151134Y-11300079D02*
X12160658Y-11281031D01*
X12160658Y-11281031D02*
X12170182Y-11252460D01*
X12170182Y-11252460D02*
X12179706Y-11204841D01*
X12179706Y-11204841D02*
X12179706Y-11166746D01*
X12179706Y-11166746D02*
X12170182Y-11119127D01*
X12170182Y-11119127D02*
X12160658Y-11090555D01*
X12160658Y-11090555D02*
X12151134Y-11071508D01*
X12151134Y-11071508D02*
X12132087Y-11042936D01*
X12132087Y-11042936D02*
X12122563Y-11033412D01*
D12*
X7338713Y-11455713D02*
X7338713Y-11413287D01*
X7296287Y-11413287D01*
X7296287Y-11455713D01*
X7338713Y-11455713D01*
D11*
X7646372Y-11325984D02*
X7665420Y-11325984D01*
X7665420Y-11325984D02*
X7684467Y-11335508D01*
X7684467Y-11335508D02*
X7693991Y-11345031D01*
X7693991Y-11345031D02*
X7703515Y-11364079D01*
X7703515Y-11364079D02*
X7713039Y-11402174D01*
X7713039Y-11402174D02*
X7713039Y-11449793D01*
X7713039Y-11449793D02*
X7703515Y-11487888D01*
X7703515Y-11487888D02*
X7693991Y-11506936D01*
X7693991Y-11506936D02*
X7684467Y-11516460D01*
X7684467Y-11516460D02*
X7665420Y-11525984D01*
X7665420Y-11525984D02*
X7646372Y-11525984D01*
X7646372Y-11525984D02*
X7627324Y-11516460D01*
X7627324Y-11516460D02*
X7617801Y-11506936D01*
X7617801Y-11506936D02*
X7608277Y-11487888D01*
X7608277Y-11487888D02*
X7598753Y-11449793D01*
X7598753Y-11449793D02*
X7598753Y-11402174D01*
X7598753Y-11402174D02*
X7608277Y-11364079D01*
X7608277Y-11364079D02*
X7617801Y-11345031D01*
X7617801Y-11345031D02*
X7627324Y-11335508D01*
X7627324Y-11335508D02*
X7646372Y-11325984D01*
X7798753Y-11506936D02*
X7808277Y-11516460D01*
X7808277Y-11516460D02*
X7798753Y-11525984D01*
X7798753Y-11525984D02*
X7789229Y-11516460D01*
X7789229Y-11516460D02*
X7798753Y-11506936D01*
X7798753Y-11506936D02*
X7798753Y-11525984D01*
X7979705Y-11325984D02*
X7941610Y-11325984D01*
X7941610Y-11325984D02*
X7922562Y-11335508D01*
X7922562Y-11335508D02*
X7913039Y-11345031D01*
X7913039Y-11345031D02*
X7893991Y-11373603D01*
X7893991Y-11373603D02*
X7884467Y-11411698D01*
X7884467Y-11411698D02*
X7884467Y-11487888D01*
X7884467Y-11487888D02*
X7893991Y-11506936D01*
X7893991Y-11506936D02*
X7903515Y-11516460D01*
X7903515Y-11516460D02*
X7922562Y-11525984D01*
X7922562Y-11525984D02*
X7960658Y-11525984D01*
X7960658Y-11525984D02*
X7979705Y-11516460D01*
X7979705Y-11516460D02*
X7989229Y-11506936D01*
X7989229Y-11506936D02*
X7998753Y-11487888D01*
X7998753Y-11487888D02*
X7998753Y-11440269D01*
X7998753Y-11440269D02*
X7989229Y-11421222D01*
X7989229Y-11421222D02*
X7979705Y-11411698D01*
X7979705Y-11411698D02*
X7960658Y-11402174D01*
X7960658Y-11402174D02*
X7922562Y-11402174D01*
X7922562Y-11402174D02*
X7903515Y-11411698D01*
X7903515Y-11411698D02*
X7893991Y-11421222D01*
X7893991Y-11421222D02*
X7884467Y-11440269D01*
X8122562Y-11325984D02*
X8141610Y-11325984D01*
X8141610Y-11325984D02*
X8160658Y-11335508D01*
X8160658Y-11335508D02*
X8170182Y-11345031D01*
X8170182Y-11345031D02*
X8179705Y-11364079D01*
X8179705Y-11364079D02*
X8189229Y-11402174D01*
X8189229Y-11402174D02*
X8189229Y-11449793D01*
X8189229Y-11449793D02*
X8179705Y-11487888D01*
X8179705Y-11487888D02*
X8170182Y-11506936D01*
X8170182Y-11506936D02*
X8160658Y-11516460D01*
X8160658Y-11516460D02*
X8141610Y-11525984D01*
X8141610Y-11525984D02*
X8122562Y-11525984D01*
X8122562Y-11525984D02*
X8103515Y-11516460D01*
X8103515Y-11516460D02*
X8093991Y-11506936D01*
X8093991Y-11506936D02*
X8084467Y-11487888D01*
X8084467Y-11487888D02*
X8074943Y-11449793D01*
X8074943Y-11449793D02*
X8074943Y-11402174D01*
X8074943Y-11402174D02*
X8084467Y-11364079D01*
X8084467Y-11364079D02*
X8093991Y-11345031D01*
X8093991Y-11345031D02*
X8103515Y-11335508D01*
X8103515Y-11335508D02*
X8122562Y-11325984D01*
X8313039Y-11325984D02*
X8332086Y-11325984D01*
X8332086Y-11325984D02*
X8351134Y-11335508D01*
X8351134Y-11335508D02*
X8360658Y-11345031D01*
X8360658Y-11345031D02*
X8370182Y-11364079D01*
X8370182Y-11364079D02*
X8379705Y-11402174D01*
X8379705Y-11402174D02*
X8379705Y-11449793D01*
X8379705Y-11449793D02*
X8370182Y-11487888D01*
X8370182Y-11487888D02*
X8360658Y-11506936D01*
X8360658Y-11506936D02*
X8351134Y-11516460D01*
X8351134Y-11516460D02*
X8332086Y-11525984D01*
X8332086Y-11525984D02*
X8313039Y-11525984D01*
X8313039Y-11525984D02*
X8293991Y-11516460D01*
X8293991Y-11516460D02*
X8284467Y-11506936D01*
X8284467Y-11506936D02*
X8274943Y-11487888D01*
X8274943Y-11487888D02*
X8265420Y-11449793D01*
X8265420Y-11449793D02*
X8265420Y-11402174D01*
X8265420Y-11402174D02*
X8274943Y-11364079D01*
X8274943Y-11364079D02*
X8284467Y-11345031D01*
X8284467Y-11345031D02*
X8293991Y-11335508D01*
X8293991Y-11335508D02*
X8313039Y-11325984D01*
X8465420Y-11525984D02*
X8465420Y-11392650D01*
X8465420Y-11411698D02*
X8474944Y-11402174D01*
X8474944Y-11402174D02*
X8493991Y-11392650D01*
X8493991Y-11392650D02*
X8522563Y-11392650D01*
X8522563Y-11392650D02*
X8541610Y-11402174D01*
X8541610Y-11402174D02*
X8551134Y-11421222D01*
X8551134Y-11421222D02*
X8551134Y-11525984D01*
X8551134Y-11421222D02*
X8560658Y-11402174D01*
X8560658Y-11402174D02*
X8579705Y-11392650D01*
X8579705Y-11392650D02*
X8608277Y-11392650D01*
X8608277Y-11392650D02*
X8627325Y-11402174D01*
X8627325Y-11402174D02*
X8636848Y-11421222D01*
X8636848Y-11421222D02*
X8636848Y-11525984D01*
X8732086Y-11525984D02*
X8732086Y-11392650D01*
X8732086Y-11411698D02*
X8741610Y-11402174D01*
X8741610Y-11402174D02*
X8760658Y-11392650D01*
X8760658Y-11392650D02*
X8789229Y-11392650D01*
X8789229Y-11392650D02*
X8808277Y-11402174D01*
X8808277Y-11402174D02*
X8817801Y-11421222D01*
X8817801Y-11421222D02*
X8817801Y-11525984D01*
X8817801Y-11421222D02*
X8827325Y-11402174D01*
X8827325Y-11402174D02*
X8846372Y-11392650D01*
X8846372Y-11392650D02*
X8874944Y-11392650D01*
X8874944Y-11392650D02*
X8893991Y-11402174D01*
X8893991Y-11402174D02*
X8903515Y-11421222D01*
X8903515Y-11421222D02*
X8903515Y-11525984D01*
X9293991Y-11316460D02*
X9122563Y-11573603D01*
X9551134Y-11325984D02*
X9570182Y-11325984D01*
X9570182Y-11325984D02*
X9589229Y-11335508D01*
X9589229Y-11335508D02*
X9598753Y-11345031D01*
X9598753Y-11345031D02*
X9608277Y-11364079D01*
X9608277Y-11364079D02*
X9617801Y-11402174D01*
X9617801Y-11402174D02*
X9617801Y-11449793D01*
X9617801Y-11449793D02*
X9608277Y-11487888D01*
X9608277Y-11487888D02*
X9598753Y-11506936D01*
X9598753Y-11506936D02*
X9589229Y-11516460D01*
X9589229Y-11516460D02*
X9570182Y-11525984D01*
X9570182Y-11525984D02*
X9551134Y-11525984D01*
X9551134Y-11525984D02*
X9532087Y-11516460D01*
X9532087Y-11516460D02*
X9522563Y-11506936D01*
X9522563Y-11506936D02*
X9513039Y-11487888D01*
X9513039Y-11487888D02*
X9503515Y-11449793D01*
X9503515Y-11449793D02*
X9503515Y-11402174D01*
X9503515Y-11402174D02*
X9513039Y-11364079D01*
X9513039Y-11364079D02*
X9522563Y-11345031D01*
X9522563Y-11345031D02*
X9532087Y-11335508D01*
X9532087Y-11335508D02*
X9551134Y-11325984D01*
X9703515Y-11506936D02*
X9713039Y-11516460D01*
X9713039Y-11516460D02*
X9703515Y-11525984D01*
X9703515Y-11525984D02*
X9693991Y-11516460D01*
X9693991Y-11516460D02*
X9703515Y-11506936D01*
X9703515Y-11506936D02*
X9703515Y-11525984D01*
X9836848Y-11325984D02*
X9855896Y-11325984D01*
X9855896Y-11325984D02*
X9874944Y-11335508D01*
X9874944Y-11335508D02*
X9884468Y-11345031D01*
X9884468Y-11345031D02*
X9893991Y-11364079D01*
X9893991Y-11364079D02*
X9903515Y-11402174D01*
X9903515Y-11402174D02*
X9903515Y-11449793D01*
X9903515Y-11449793D02*
X9893991Y-11487888D01*
X9893991Y-11487888D02*
X9884468Y-11506936D01*
X9884468Y-11506936D02*
X9874944Y-11516460D01*
X9874944Y-11516460D02*
X9855896Y-11525984D01*
X9855896Y-11525984D02*
X9836848Y-11525984D01*
X9836848Y-11525984D02*
X9817801Y-11516460D01*
X9817801Y-11516460D02*
X9808277Y-11506936D01*
X9808277Y-11506936D02*
X9798753Y-11487888D01*
X9798753Y-11487888D02*
X9789229Y-11449793D01*
X9789229Y-11449793D02*
X9789229Y-11402174D01*
X9789229Y-11402174D02*
X9798753Y-11364079D01*
X9798753Y-11364079D02*
X9808277Y-11345031D01*
X9808277Y-11345031D02*
X9817801Y-11335508D01*
X9817801Y-11335508D02*
X9836848Y-11325984D01*
X9979706Y-11345031D02*
X9989229Y-11335508D01*
X9989229Y-11335508D02*
X10008277Y-11325984D01*
X10008277Y-11325984D02*
X10055896Y-11325984D01*
X10055896Y-11325984D02*
X10074944Y-11335508D01*
X10074944Y-11335508D02*
X10084468Y-11345031D01*
X10084468Y-11345031D02*
X10093991Y-11364079D01*
X10093991Y-11364079D02*
X10093991Y-11383127D01*
X10093991Y-11383127D02*
X10084468Y-11411698D01*
X10084468Y-11411698D02*
X9970182Y-11525984D01*
X9970182Y-11525984D02*
X10093991Y-11525984D01*
X10160658Y-11325984D02*
X10284468Y-11325984D01*
X10284468Y-11325984D02*
X10217801Y-11402174D01*
X10217801Y-11402174D02*
X10246372Y-11402174D01*
X10246372Y-11402174D02*
X10265420Y-11411698D01*
X10265420Y-11411698D02*
X10274944Y-11421222D01*
X10274944Y-11421222D02*
X10284468Y-11440269D01*
X10284468Y-11440269D02*
X10284468Y-11487888D01*
X10284468Y-11487888D02*
X10274944Y-11506936D01*
X10274944Y-11506936D02*
X10265420Y-11516460D01*
X10265420Y-11516460D02*
X10246372Y-11525984D01*
X10246372Y-11525984D02*
X10189229Y-11525984D01*
X10189229Y-11525984D02*
X10170182Y-11516460D01*
X10170182Y-11516460D02*
X10160658Y-11506936D01*
X10455896Y-11325984D02*
X10417801Y-11325984D01*
X10417801Y-11325984D02*
X10398753Y-11335508D01*
X10398753Y-11335508D02*
X10389229Y-11345031D01*
X10389229Y-11345031D02*
X10370182Y-11373603D01*
X10370182Y-11373603D02*
X10360658Y-11411698D01*
X10360658Y-11411698D02*
X10360658Y-11487888D01*
X10360658Y-11487888D02*
X10370182Y-11506936D01*
X10370182Y-11506936D02*
X10379706Y-11516460D01*
X10379706Y-11516460D02*
X10398753Y-11525984D01*
X10398753Y-11525984D02*
X10436849Y-11525984D01*
X10436849Y-11525984D02*
X10455896Y-11516460D01*
X10455896Y-11516460D02*
X10465420Y-11506936D01*
X10465420Y-11506936D02*
X10474944Y-11487888D01*
X10474944Y-11487888D02*
X10474944Y-11440269D01*
X10474944Y-11440269D02*
X10465420Y-11421222D01*
X10465420Y-11421222D02*
X10455896Y-11411698D01*
X10455896Y-11411698D02*
X10436849Y-11402174D01*
X10436849Y-11402174D02*
X10398753Y-11402174D01*
X10398753Y-11402174D02*
X10379706Y-11411698D01*
X10379706Y-11411698D02*
X10370182Y-11421222D01*
X10370182Y-11421222D02*
X10360658Y-11440269D01*
X10551134Y-11325984D02*
X10551134Y-11364079D01*
X10627325Y-11325984D02*
X10627325Y-11364079D01*
X10922563Y-11602174D02*
X10913039Y-11592650D01*
X10913039Y-11592650D02*
X10893991Y-11564079D01*
X10893991Y-11564079D02*
X10884468Y-11545031D01*
X10884468Y-11545031D02*
X10874944Y-11516460D01*
X10874944Y-11516460D02*
X10865420Y-11468841D01*
X10865420Y-11468841D02*
X10865420Y-11430746D01*
X10865420Y-11430746D02*
X10874944Y-11383127D01*
X10874944Y-11383127D02*
X10884468Y-11354555D01*
X10884468Y-11354555D02*
X10893991Y-11335508D01*
X10893991Y-11335508D02*
X10913039Y-11306936D01*
X10913039Y-11306936D02*
X10922563Y-11297412D01*
X11036849Y-11325984D02*
X11055896Y-11325984D01*
X11055896Y-11325984D02*
X11074944Y-11335508D01*
X11074944Y-11335508D02*
X11084468Y-11345031D01*
X11084468Y-11345031D02*
X11093991Y-11364079D01*
X11093991Y-11364079D02*
X11103515Y-11402174D01*
X11103515Y-11402174D02*
X11103515Y-11449793D01*
X11103515Y-11449793D02*
X11093991Y-11487888D01*
X11093991Y-11487888D02*
X11084468Y-11506936D01*
X11084468Y-11506936D02*
X11074944Y-11516460D01*
X11074944Y-11516460D02*
X11055896Y-11525984D01*
X11055896Y-11525984D02*
X11036849Y-11525984D01*
X11036849Y-11525984D02*
X11017801Y-11516460D01*
X11017801Y-11516460D02*
X11008277Y-11506936D01*
X11008277Y-11506936D02*
X10998753Y-11487888D01*
X10998753Y-11487888D02*
X10989230Y-11449793D01*
X10989230Y-11449793D02*
X10989230Y-11402174D01*
X10989230Y-11402174D02*
X10998753Y-11364079D01*
X10998753Y-11364079D02*
X11008277Y-11345031D01*
X11008277Y-11345031D02*
X11017801Y-11335508D01*
X11017801Y-11335508D02*
X11036849Y-11325984D01*
X11341610Y-11525984D02*
X11341610Y-11325984D01*
X11427325Y-11525984D02*
X11427325Y-11421222D01*
X11427325Y-11421222D02*
X11417801Y-11402174D01*
X11417801Y-11402174D02*
X11398753Y-11392650D01*
X11398753Y-11392650D02*
X11370182Y-11392650D01*
X11370182Y-11392650D02*
X11351134Y-11402174D01*
X11351134Y-11402174D02*
X11341610Y-11411698D01*
X11551134Y-11525984D02*
X11532087Y-11516460D01*
X11532087Y-11516460D02*
X11522563Y-11506936D01*
X11522563Y-11506936D02*
X11513039Y-11487888D01*
X11513039Y-11487888D02*
X11513039Y-11430746D01*
X11513039Y-11430746D02*
X11522563Y-11411698D01*
X11522563Y-11411698D02*
X11532087Y-11402174D01*
X11532087Y-11402174D02*
X11551134Y-11392650D01*
X11551134Y-11392650D02*
X11579706Y-11392650D01*
X11579706Y-11392650D02*
X11598753Y-11402174D01*
X11598753Y-11402174D02*
X11608277Y-11411698D01*
X11608277Y-11411698D02*
X11617801Y-11430746D01*
X11617801Y-11430746D02*
X11617801Y-11487888D01*
X11617801Y-11487888D02*
X11608277Y-11506936D01*
X11608277Y-11506936D02*
X11598753Y-11516460D01*
X11598753Y-11516460D02*
X11579706Y-11525984D01*
X11579706Y-11525984D02*
X11551134Y-11525984D01*
X11732087Y-11525984D02*
X11713039Y-11516460D01*
X11713039Y-11516460D02*
X11703515Y-11497412D01*
X11703515Y-11497412D02*
X11703515Y-11325984D01*
X11884468Y-11516460D02*
X11865420Y-11525984D01*
X11865420Y-11525984D02*
X11827325Y-11525984D01*
X11827325Y-11525984D02*
X11808277Y-11516460D01*
X11808277Y-11516460D02*
X11798753Y-11497412D01*
X11798753Y-11497412D02*
X11798753Y-11421222D01*
X11798753Y-11421222D02*
X11808277Y-11402174D01*
X11808277Y-11402174D02*
X11827325Y-11392650D01*
X11827325Y-11392650D02*
X11865420Y-11392650D01*
X11865420Y-11392650D02*
X11884468Y-11402174D01*
X11884468Y-11402174D02*
X11893991Y-11421222D01*
X11893991Y-11421222D02*
X11893991Y-11440269D01*
X11893991Y-11440269D02*
X11798753Y-11459317D01*
X11970182Y-11516460D02*
X11989230Y-11525984D01*
X11989230Y-11525984D02*
X12027325Y-11525984D01*
X12027325Y-11525984D02*
X12046372Y-11516460D01*
X12046372Y-11516460D02*
X12055896Y-11497412D01*
X12055896Y-11497412D02*
X12055896Y-11487888D01*
X12055896Y-11487888D02*
X12046372Y-11468841D01*
X12046372Y-11468841D02*
X12027325Y-11459317D01*
X12027325Y-11459317D02*
X11998753Y-11459317D01*
X11998753Y-11459317D02*
X11979706Y-11449793D01*
X11979706Y-11449793D02*
X11970182Y-11430746D01*
X11970182Y-11430746D02*
X11970182Y-11421222D01*
X11970182Y-11421222D02*
X11979706Y-11402174D01*
X11979706Y-11402174D02*
X11998753Y-11392650D01*
X11998753Y-11392650D02*
X12027325Y-11392650D01*
X12027325Y-11392650D02*
X12046372Y-11402174D01*
X12293992Y-11449793D02*
X12446373Y-11449793D01*
X12370182Y-11525984D02*
X12370182Y-11373603D01*
X12779706Y-11392650D02*
X12779706Y-11525984D01*
X12732087Y-11316460D02*
X12684468Y-11459317D01*
X12684468Y-11459317D02*
X12808277Y-11459317D01*
X13027325Y-11516460D02*
X13046373Y-11525984D01*
X13046373Y-11525984D02*
X13084468Y-11525984D01*
X13084468Y-11525984D02*
X13103515Y-11516460D01*
X13103515Y-11516460D02*
X13113039Y-11497412D01*
X13113039Y-11497412D02*
X13113039Y-11487888D01*
X13113039Y-11487888D02*
X13103515Y-11468841D01*
X13103515Y-11468841D02*
X13084468Y-11459317D01*
X13084468Y-11459317D02*
X13055896Y-11459317D01*
X13055896Y-11459317D02*
X13036849Y-11449793D01*
X13036849Y-11449793D02*
X13027325Y-11430746D01*
X13027325Y-11430746D02*
X13027325Y-11421222D01*
X13027325Y-11421222D02*
X13036849Y-11402174D01*
X13036849Y-11402174D02*
X13055896Y-11392650D01*
X13055896Y-11392650D02*
X13084468Y-11392650D01*
X13084468Y-11392650D02*
X13103515Y-11402174D01*
X13227325Y-11525984D02*
X13208277Y-11516460D01*
X13208277Y-11516460D02*
X13198754Y-11497412D01*
X13198754Y-11497412D02*
X13198754Y-11325984D01*
X13332087Y-11525984D02*
X13313039Y-11516460D01*
X13313039Y-11516460D02*
X13303515Y-11506936D01*
X13303515Y-11506936D02*
X13293992Y-11487888D01*
X13293992Y-11487888D02*
X13293992Y-11430746D01*
X13293992Y-11430746D02*
X13303515Y-11411698D01*
X13303515Y-11411698D02*
X13313039Y-11402174D01*
X13313039Y-11402174D02*
X13332087Y-11392650D01*
X13332087Y-11392650D02*
X13360658Y-11392650D01*
X13360658Y-11392650D02*
X13379706Y-11402174D01*
X13379706Y-11402174D02*
X13389230Y-11411698D01*
X13389230Y-11411698D02*
X13398754Y-11430746D01*
X13398754Y-11430746D02*
X13398754Y-11487888D01*
X13398754Y-11487888D02*
X13389230Y-11506936D01*
X13389230Y-11506936D02*
X13379706Y-11516460D01*
X13379706Y-11516460D02*
X13360658Y-11525984D01*
X13360658Y-11525984D02*
X13332087Y-11525984D01*
X13455896Y-11392650D02*
X13532087Y-11392650D01*
X13484468Y-11325984D02*
X13484468Y-11497412D01*
X13484468Y-11497412D02*
X13493992Y-11516460D01*
X13493992Y-11516460D02*
X13513039Y-11525984D01*
X13513039Y-11525984D02*
X13532087Y-11525984D01*
X13589230Y-11516460D02*
X13608277Y-11525984D01*
X13608277Y-11525984D02*
X13646373Y-11525984D01*
X13646373Y-11525984D02*
X13665420Y-11516460D01*
X13665420Y-11516460D02*
X13674944Y-11497412D01*
X13674944Y-11497412D02*
X13674944Y-11487888D01*
X13674944Y-11487888D02*
X13665420Y-11468841D01*
X13665420Y-11468841D02*
X13646373Y-11459317D01*
X13646373Y-11459317D02*
X13617801Y-11459317D01*
X13617801Y-11459317D02*
X13598754Y-11449793D01*
X13598754Y-11449793D02*
X13589230Y-11430746D01*
X13589230Y-11430746D02*
X13589230Y-11421222D01*
X13589230Y-11421222D02*
X13598754Y-11402174D01*
X13598754Y-11402174D02*
X13617801Y-11392650D01*
X13617801Y-11392650D02*
X13646373Y-11392650D01*
X13646373Y-11392650D02*
X13665420Y-11402174D01*
X13741611Y-11602174D02*
X13751135Y-11592650D01*
X13751135Y-11592650D02*
X13770182Y-11564079D01*
X13770182Y-11564079D02*
X13779706Y-11545031D01*
X13779706Y-11545031D02*
X13789230Y-11516460D01*
X13789230Y-11516460D02*
X13798754Y-11468841D01*
X13798754Y-11468841D02*
X13798754Y-11430746D01*
X13798754Y-11430746D02*
X13789230Y-11383127D01*
X13789230Y-11383127D02*
X13779706Y-11354555D01*
X13779706Y-11354555D02*
X13770182Y-11335508D01*
X13770182Y-11335508D02*
X13751135Y-11306936D01*
X13751135Y-11306936D02*
X13741611Y-11297412D01*
D12*
X7310000Y-11736000D02*
X7347500Y-11698500D01*
X7310000Y-11661000D01*
X7272500Y-11698500D01*
X7310000Y-11736000D01*
D11*
X7646372Y-11589984D02*
X7665420Y-11589984D01*
X7665420Y-11589984D02*
X7684467Y-11599508D01*
X7684467Y-11599508D02*
X7693991Y-11609031D01*
X7693991Y-11609031D02*
X7703515Y-11628079D01*
X7703515Y-11628079D02*
X7713039Y-11666174D01*
X7713039Y-11666174D02*
X7713039Y-11713793D01*
X7713039Y-11713793D02*
X7703515Y-11751888D01*
X7703515Y-11751888D02*
X7693991Y-11770936D01*
X7693991Y-11770936D02*
X7684467Y-11780460D01*
X7684467Y-11780460D02*
X7665420Y-11789984D01*
X7665420Y-11789984D02*
X7646372Y-11789984D01*
X7646372Y-11789984D02*
X7627324Y-11780460D01*
X7627324Y-11780460D02*
X7617801Y-11770936D01*
X7617801Y-11770936D02*
X7608277Y-11751888D01*
X7608277Y-11751888D02*
X7598753Y-11713793D01*
X7598753Y-11713793D02*
X7598753Y-11666174D01*
X7598753Y-11666174D02*
X7608277Y-11628079D01*
X7608277Y-11628079D02*
X7617801Y-11609031D01*
X7617801Y-11609031D02*
X7627324Y-11599508D01*
X7627324Y-11599508D02*
X7646372Y-11589984D01*
X7798753Y-11770936D02*
X7808277Y-11780460D01*
X7808277Y-11780460D02*
X7798753Y-11789984D01*
X7798753Y-11789984D02*
X7789229Y-11780460D01*
X7789229Y-11780460D02*
X7798753Y-11770936D01*
X7798753Y-11770936D02*
X7798753Y-11789984D01*
X7874943Y-11589984D02*
X8008277Y-11589984D01*
X8008277Y-11589984D02*
X7922562Y-11789984D01*
X8179705Y-11589984D02*
X8084467Y-11589984D01*
X8084467Y-11589984D02*
X8074943Y-11685222D01*
X8074943Y-11685222D02*
X8084467Y-11675698D01*
X8084467Y-11675698D02*
X8103515Y-11666174D01*
X8103515Y-11666174D02*
X8151134Y-11666174D01*
X8151134Y-11666174D02*
X8170182Y-11675698D01*
X8170182Y-11675698D02*
X8179705Y-11685222D01*
X8179705Y-11685222D02*
X8189229Y-11704269D01*
X8189229Y-11704269D02*
X8189229Y-11751888D01*
X8189229Y-11751888D02*
X8179705Y-11770936D01*
X8179705Y-11770936D02*
X8170182Y-11780460D01*
X8170182Y-11780460D02*
X8151134Y-11789984D01*
X8151134Y-11789984D02*
X8103515Y-11789984D01*
X8103515Y-11789984D02*
X8084467Y-11780460D01*
X8084467Y-11780460D02*
X8074943Y-11770936D01*
X8313039Y-11589984D02*
X8332086Y-11589984D01*
X8332086Y-11589984D02*
X8351134Y-11599508D01*
X8351134Y-11599508D02*
X8360658Y-11609031D01*
X8360658Y-11609031D02*
X8370182Y-11628079D01*
X8370182Y-11628079D02*
X8379705Y-11666174D01*
X8379705Y-11666174D02*
X8379705Y-11713793D01*
X8379705Y-11713793D02*
X8370182Y-11751888D01*
X8370182Y-11751888D02*
X8360658Y-11770936D01*
X8360658Y-11770936D02*
X8351134Y-11780460D01*
X8351134Y-11780460D02*
X8332086Y-11789984D01*
X8332086Y-11789984D02*
X8313039Y-11789984D01*
X8313039Y-11789984D02*
X8293991Y-11780460D01*
X8293991Y-11780460D02*
X8284467Y-11770936D01*
X8284467Y-11770936D02*
X8274943Y-11751888D01*
X8274943Y-11751888D02*
X8265420Y-11713793D01*
X8265420Y-11713793D02*
X8265420Y-11666174D01*
X8265420Y-11666174D02*
X8274943Y-11628079D01*
X8274943Y-11628079D02*
X8284467Y-11609031D01*
X8284467Y-11609031D02*
X8293991Y-11599508D01*
X8293991Y-11599508D02*
X8313039Y-11589984D01*
X8465420Y-11789984D02*
X8465420Y-11656650D01*
X8465420Y-11675698D02*
X8474944Y-11666174D01*
X8474944Y-11666174D02*
X8493991Y-11656650D01*
X8493991Y-11656650D02*
X8522563Y-11656650D01*
X8522563Y-11656650D02*
X8541610Y-11666174D01*
X8541610Y-11666174D02*
X8551134Y-11685222D01*
X8551134Y-11685222D02*
X8551134Y-11789984D01*
X8551134Y-11685222D02*
X8560658Y-11666174D01*
X8560658Y-11666174D02*
X8579705Y-11656650D01*
X8579705Y-11656650D02*
X8608277Y-11656650D01*
X8608277Y-11656650D02*
X8627325Y-11666174D01*
X8627325Y-11666174D02*
X8636848Y-11685222D01*
X8636848Y-11685222D02*
X8636848Y-11789984D01*
X8732086Y-11789984D02*
X8732086Y-11656650D01*
X8732086Y-11675698D02*
X8741610Y-11666174D01*
X8741610Y-11666174D02*
X8760658Y-11656650D01*
X8760658Y-11656650D02*
X8789229Y-11656650D01*
X8789229Y-11656650D02*
X8808277Y-11666174D01*
X8808277Y-11666174D02*
X8817801Y-11685222D01*
X8817801Y-11685222D02*
X8817801Y-11789984D01*
X8817801Y-11685222D02*
X8827325Y-11666174D01*
X8827325Y-11666174D02*
X8846372Y-11656650D01*
X8846372Y-11656650D02*
X8874944Y-11656650D01*
X8874944Y-11656650D02*
X8893991Y-11666174D01*
X8893991Y-11666174D02*
X8903515Y-11685222D01*
X8903515Y-11685222D02*
X8903515Y-11789984D01*
X9293991Y-11580460D02*
X9122563Y-11837603D01*
X9551134Y-11589984D02*
X9570182Y-11589984D01*
X9570182Y-11589984D02*
X9589229Y-11599508D01*
X9589229Y-11599508D02*
X9598753Y-11609031D01*
X9598753Y-11609031D02*
X9608277Y-11628079D01*
X9608277Y-11628079D02*
X9617801Y-11666174D01*
X9617801Y-11666174D02*
X9617801Y-11713793D01*
X9617801Y-11713793D02*
X9608277Y-11751888D01*
X9608277Y-11751888D02*
X9598753Y-11770936D01*
X9598753Y-11770936D02*
X9589229Y-11780460D01*
X9589229Y-11780460D02*
X9570182Y-11789984D01*
X9570182Y-11789984D02*
X9551134Y-11789984D01*
X9551134Y-11789984D02*
X9532087Y-11780460D01*
X9532087Y-11780460D02*
X9522563Y-11770936D01*
X9522563Y-11770936D02*
X9513039Y-11751888D01*
X9513039Y-11751888D02*
X9503515Y-11713793D01*
X9503515Y-11713793D02*
X9503515Y-11666174D01*
X9503515Y-11666174D02*
X9513039Y-11628079D01*
X9513039Y-11628079D02*
X9522563Y-11609031D01*
X9522563Y-11609031D02*
X9532087Y-11599508D01*
X9532087Y-11599508D02*
X9551134Y-11589984D01*
X9703515Y-11770936D02*
X9713039Y-11780460D01*
X9713039Y-11780460D02*
X9703515Y-11789984D01*
X9703515Y-11789984D02*
X9693991Y-11780460D01*
X9693991Y-11780460D02*
X9703515Y-11770936D01*
X9703515Y-11770936D02*
X9703515Y-11789984D01*
X9836848Y-11589984D02*
X9855896Y-11589984D01*
X9855896Y-11589984D02*
X9874944Y-11599508D01*
X9874944Y-11599508D02*
X9884468Y-11609031D01*
X9884468Y-11609031D02*
X9893991Y-11628079D01*
X9893991Y-11628079D02*
X9903515Y-11666174D01*
X9903515Y-11666174D02*
X9903515Y-11713793D01*
X9903515Y-11713793D02*
X9893991Y-11751888D01*
X9893991Y-11751888D02*
X9884468Y-11770936D01*
X9884468Y-11770936D02*
X9874944Y-11780460D01*
X9874944Y-11780460D02*
X9855896Y-11789984D01*
X9855896Y-11789984D02*
X9836848Y-11789984D01*
X9836848Y-11789984D02*
X9817801Y-11780460D01*
X9817801Y-11780460D02*
X9808277Y-11770936D01*
X9808277Y-11770936D02*
X9798753Y-11751888D01*
X9798753Y-11751888D02*
X9789229Y-11713793D01*
X9789229Y-11713793D02*
X9789229Y-11666174D01*
X9789229Y-11666174D02*
X9798753Y-11628079D01*
X9798753Y-11628079D02*
X9808277Y-11609031D01*
X9808277Y-11609031D02*
X9817801Y-11599508D01*
X9817801Y-11599508D02*
X9836848Y-11589984D01*
X9979706Y-11609031D02*
X9989229Y-11599508D01*
X9989229Y-11599508D02*
X10008277Y-11589984D01*
X10008277Y-11589984D02*
X10055896Y-11589984D01*
X10055896Y-11589984D02*
X10074944Y-11599508D01*
X10074944Y-11599508D02*
X10084468Y-11609031D01*
X10084468Y-11609031D02*
X10093991Y-11628079D01*
X10093991Y-11628079D02*
X10093991Y-11647127D01*
X10093991Y-11647127D02*
X10084468Y-11675698D01*
X10084468Y-11675698D02*
X9970182Y-11789984D01*
X9970182Y-11789984D02*
X10093991Y-11789984D01*
X10189229Y-11789984D02*
X10227325Y-11789984D01*
X10227325Y-11789984D02*
X10246372Y-11780460D01*
X10246372Y-11780460D02*
X10255896Y-11770936D01*
X10255896Y-11770936D02*
X10274944Y-11742365D01*
X10274944Y-11742365D02*
X10284468Y-11704269D01*
X10284468Y-11704269D02*
X10284468Y-11628079D01*
X10284468Y-11628079D02*
X10274944Y-11609031D01*
X10274944Y-11609031D02*
X10265420Y-11599508D01*
X10265420Y-11599508D02*
X10246372Y-11589984D01*
X10246372Y-11589984D02*
X10208277Y-11589984D01*
X10208277Y-11589984D02*
X10189229Y-11599508D01*
X10189229Y-11599508D02*
X10179706Y-11609031D01*
X10179706Y-11609031D02*
X10170182Y-11628079D01*
X10170182Y-11628079D02*
X10170182Y-11675698D01*
X10170182Y-11675698D02*
X10179706Y-11694746D01*
X10179706Y-11694746D02*
X10189229Y-11704269D01*
X10189229Y-11704269D02*
X10208277Y-11713793D01*
X10208277Y-11713793D02*
X10246372Y-11713793D01*
X10246372Y-11713793D02*
X10265420Y-11704269D01*
X10265420Y-11704269D02*
X10274944Y-11694746D01*
X10274944Y-11694746D02*
X10284468Y-11675698D01*
X10465420Y-11589984D02*
X10370182Y-11589984D01*
X10370182Y-11589984D02*
X10360658Y-11685222D01*
X10360658Y-11685222D02*
X10370182Y-11675698D01*
X10370182Y-11675698D02*
X10389229Y-11666174D01*
X10389229Y-11666174D02*
X10436849Y-11666174D01*
X10436849Y-11666174D02*
X10455896Y-11675698D01*
X10455896Y-11675698D02*
X10465420Y-11685222D01*
X10465420Y-11685222D02*
X10474944Y-11704269D01*
X10474944Y-11704269D02*
X10474944Y-11751888D01*
X10474944Y-11751888D02*
X10465420Y-11770936D01*
X10465420Y-11770936D02*
X10455896Y-11780460D01*
X10455896Y-11780460D02*
X10436849Y-11789984D01*
X10436849Y-11789984D02*
X10389229Y-11789984D01*
X10389229Y-11789984D02*
X10370182Y-11780460D01*
X10370182Y-11780460D02*
X10360658Y-11770936D01*
X10551134Y-11589984D02*
X10551134Y-11628079D01*
X10627325Y-11589984D02*
X10627325Y-11628079D01*
X10922563Y-11866174D02*
X10913039Y-11856650D01*
X10913039Y-11856650D02*
X10893991Y-11828079D01*
X10893991Y-11828079D02*
X10884468Y-11809031D01*
X10884468Y-11809031D02*
X10874944Y-11780460D01*
X10874944Y-11780460D02*
X10865420Y-11732841D01*
X10865420Y-11732841D02*
X10865420Y-11694746D01*
X10865420Y-11694746D02*
X10874944Y-11647127D01*
X10874944Y-11647127D02*
X10884468Y-11618555D01*
X10884468Y-11618555D02*
X10893991Y-11599508D01*
X10893991Y-11599508D02*
X10913039Y-11570936D01*
X10913039Y-11570936D02*
X10922563Y-11561412D01*
X10989230Y-11609031D02*
X10998753Y-11599508D01*
X10998753Y-11599508D02*
X11017801Y-11589984D01*
X11017801Y-11589984D02*
X11065420Y-11589984D01*
X11065420Y-11589984D02*
X11084468Y-11599508D01*
X11084468Y-11599508D02*
X11093991Y-11609031D01*
X11093991Y-11609031D02*
X11103515Y-11628079D01*
X11103515Y-11628079D02*
X11103515Y-11647127D01*
X11103515Y-11647127D02*
X11093991Y-11675698D01*
X11093991Y-11675698D02*
X10979706Y-11789984D01*
X10979706Y-11789984D02*
X11103515Y-11789984D01*
X11341610Y-11789984D02*
X11341610Y-11589984D01*
X11427325Y-11789984D02*
X11427325Y-11685222D01*
X11427325Y-11685222D02*
X11417801Y-11666174D01*
X11417801Y-11666174D02*
X11398753Y-11656650D01*
X11398753Y-11656650D02*
X11370182Y-11656650D01*
X11370182Y-11656650D02*
X11351134Y-11666174D01*
X11351134Y-11666174D02*
X11341610Y-11675698D01*
X11551134Y-11789984D02*
X11532087Y-11780460D01*
X11532087Y-11780460D02*
X11522563Y-11770936D01*
X11522563Y-11770936D02*
X11513039Y-11751888D01*
X11513039Y-11751888D02*
X11513039Y-11694746D01*
X11513039Y-11694746D02*
X11522563Y-11675698D01*
X11522563Y-11675698D02*
X11532087Y-11666174D01*
X11532087Y-11666174D02*
X11551134Y-11656650D01*
X11551134Y-11656650D02*
X11579706Y-11656650D01*
X11579706Y-11656650D02*
X11598753Y-11666174D01*
X11598753Y-11666174D02*
X11608277Y-11675698D01*
X11608277Y-11675698D02*
X11617801Y-11694746D01*
X11617801Y-11694746D02*
X11617801Y-11751888D01*
X11617801Y-11751888D02*
X11608277Y-11770936D01*
X11608277Y-11770936D02*
X11598753Y-11780460D01*
X11598753Y-11780460D02*
X11579706Y-11789984D01*
X11579706Y-11789984D02*
X11551134Y-11789984D01*
X11732087Y-11789984D02*
X11713039Y-11780460D01*
X11713039Y-11780460D02*
X11703515Y-11761412D01*
X11703515Y-11761412D02*
X11703515Y-11589984D01*
X11884468Y-11780460D02*
X11865420Y-11789984D01*
X11865420Y-11789984D02*
X11827325Y-11789984D01*
X11827325Y-11789984D02*
X11808277Y-11780460D01*
X11808277Y-11780460D02*
X11798753Y-11761412D01*
X11798753Y-11761412D02*
X11798753Y-11685222D01*
X11798753Y-11685222D02*
X11808277Y-11666174D01*
X11808277Y-11666174D02*
X11827325Y-11656650D01*
X11827325Y-11656650D02*
X11865420Y-11656650D01*
X11865420Y-11656650D02*
X11884468Y-11666174D01*
X11884468Y-11666174D02*
X11893991Y-11685222D01*
X11893991Y-11685222D02*
X11893991Y-11704269D01*
X11893991Y-11704269D02*
X11798753Y-11723317D01*
X11970182Y-11780460D02*
X11989230Y-11789984D01*
X11989230Y-11789984D02*
X12027325Y-11789984D01*
X12027325Y-11789984D02*
X12046372Y-11780460D01*
X12046372Y-11780460D02*
X12055896Y-11761412D01*
X12055896Y-11761412D02*
X12055896Y-11751888D01*
X12055896Y-11751888D02*
X12046372Y-11732841D01*
X12046372Y-11732841D02*
X12027325Y-11723317D01*
X12027325Y-11723317D02*
X11998753Y-11723317D01*
X11998753Y-11723317D02*
X11979706Y-11713793D01*
X11979706Y-11713793D02*
X11970182Y-11694746D01*
X11970182Y-11694746D02*
X11970182Y-11685222D01*
X11970182Y-11685222D02*
X11979706Y-11666174D01*
X11979706Y-11666174D02*
X11998753Y-11656650D01*
X11998753Y-11656650D02*
X12027325Y-11656650D01*
X12027325Y-11656650D02*
X12046372Y-11666174D01*
X12122563Y-11866174D02*
X12132087Y-11856650D01*
X12132087Y-11856650D02*
X12151134Y-11828079D01*
X12151134Y-11828079D02*
X12160658Y-11809031D01*
X12160658Y-11809031D02*
X12170182Y-11780460D01*
X12170182Y-11780460D02*
X12179706Y-11732841D01*
X12179706Y-11732841D02*
X12179706Y-11694746D01*
X12179706Y-11694746D02*
X12170182Y-11647127D01*
X12170182Y-11647127D02*
X12160658Y-11618555D01*
X12160658Y-11618555D02*
X12151134Y-11599508D01*
X12151134Y-11599508D02*
X12132087Y-11570936D01*
X12132087Y-11570936D02*
X12122563Y-11561412D01*
D12*
X7267500Y-11922500D02*
X7347500Y-12002500D01*
X7347500Y-11922500D02*
X7267500Y-12002500D01*
X7347500Y-11962500D02*
G75*
G02*
X7267500Y-11962500I-40000J0D01*
G01*
X7267500Y-11962500D02*
G75*
G02*
X7347500Y-11962500I40000J0D01*
G01*
D11*
X7646372Y-11853984D02*
X7665420Y-11853984D01*
X7665420Y-11853984D02*
X7684467Y-11863508D01*
X7684467Y-11863508D02*
X7693991Y-11873031D01*
X7693991Y-11873031D02*
X7703515Y-11892079D01*
X7703515Y-11892079D02*
X7713039Y-11930174D01*
X7713039Y-11930174D02*
X7713039Y-11977793D01*
X7713039Y-11977793D02*
X7703515Y-12015888D01*
X7703515Y-12015888D02*
X7693991Y-12034936D01*
X7693991Y-12034936D02*
X7684467Y-12044460D01*
X7684467Y-12044460D02*
X7665420Y-12053984D01*
X7665420Y-12053984D02*
X7646372Y-12053984D01*
X7646372Y-12053984D02*
X7627324Y-12044460D01*
X7627324Y-12044460D02*
X7617801Y-12034936D01*
X7617801Y-12034936D02*
X7608277Y-12015888D01*
X7608277Y-12015888D02*
X7598753Y-11977793D01*
X7598753Y-11977793D02*
X7598753Y-11930174D01*
X7598753Y-11930174D02*
X7608277Y-11892079D01*
X7608277Y-11892079D02*
X7617801Y-11873031D01*
X7617801Y-11873031D02*
X7627324Y-11863508D01*
X7627324Y-11863508D02*
X7646372Y-11853984D01*
X7798753Y-12034936D02*
X7808277Y-12044460D01*
X7808277Y-12044460D02*
X7798753Y-12053984D01*
X7798753Y-12053984D02*
X7789229Y-12044460D01*
X7789229Y-12044460D02*
X7798753Y-12034936D01*
X7798753Y-12034936D02*
X7798753Y-12053984D01*
X7922562Y-11939698D02*
X7903515Y-11930174D01*
X7903515Y-11930174D02*
X7893991Y-11920650D01*
X7893991Y-11920650D02*
X7884467Y-11901603D01*
X7884467Y-11901603D02*
X7884467Y-11892079D01*
X7884467Y-11892079D02*
X7893991Y-11873031D01*
X7893991Y-11873031D02*
X7903515Y-11863508D01*
X7903515Y-11863508D02*
X7922562Y-11853984D01*
X7922562Y-11853984D02*
X7960658Y-11853984D01*
X7960658Y-11853984D02*
X7979705Y-11863508D01*
X7979705Y-11863508D02*
X7989229Y-11873031D01*
X7989229Y-11873031D02*
X7998753Y-11892079D01*
X7998753Y-11892079D02*
X7998753Y-11901603D01*
X7998753Y-11901603D02*
X7989229Y-11920650D01*
X7989229Y-11920650D02*
X7979705Y-11930174D01*
X7979705Y-11930174D02*
X7960658Y-11939698D01*
X7960658Y-11939698D02*
X7922562Y-11939698D01*
X7922562Y-11939698D02*
X7903515Y-11949222D01*
X7903515Y-11949222D02*
X7893991Y-11958746D01*
X7893991Y-11958746D02*
X7884467Y-11977793D01*
X7884467Y-11977793D02*
X7884467Y-12015888D01*
X7884467Y-12015888D02*
X7893991Y-12034936D01*
X7893991Y-12034936D02*
X7903515Y-12044460D01*
X7903515Y-12044460D02*
X7922562Y-12053984D01*
X7922562Y-12053984D02*
X7960658Y-12053984D01*
X7960658Y-12053984D02*
X7979705Y-12044460D01*
X7979705Y-12044460D02*
X7989229Y-12034936D01*
X7989229Y-12034936D02*
X7998753Y-12015888D01*
X7998753Y-12015888D02*
X7998753Y-11977793D01*
X7998753Y-11977793D02*
X7989229Y-11958746D01*
X7989229Y-11958746D02*
X7979705Y-11949222D01*
X7979705Y-11949222D02*
X7960658Y-11939698D01*
X8122562Y-11853984D02*
X8141610Y-11853984D01*
X8141610Y-11853984D02*
X8160658Y-11863508D01*
X8160658Y-11863508D02*
X8170182Y-11873031D01*
X8170182Y-11873031D02*
X8179705Y-11892079D01*
X8179705Y-11892079D02*
X8189229Y-11930174D01*
X8189229Y-11930174D02*
X8189229Y-11977793D01*
X8189229Y-11977793D02*
X8179705Y-12015888D01*
X8179705Y-12015888D02*
X8170182Y-12034936D01*
X8170182Y-12034936D02*
X8160658Y-12044460D01*
X8160658Y-12044460D02*
X8141610Y-12053984D01*
X8141610Y-12053984D02*
X8122562Y-12053984D01*
X8122562Y-12053984D02*
X8103515Y-12044460D01*
X8103515Y-12044460D02*
X8093991Y-12034936D01*
X8093991Y-12034936D02*
X8084467Y-12015888D01*
X8084467Y-12015888D02*
X8074943Y-11977793D01*
X8074943Y-11977793D02*
X8074943Y-11930174D01*
X8074943Y-11930174D02*
X8084467Y-11892079D01*
X8084467Y-11892079D02*
X8093991Y-11873031D01*
X8093991Y-11873031D02*
X8103515Y-11863508D01*
X8103515Y-11863508D02*
X8122562Y-11853984D01*
X8313039Y-11853984D02*
X8332086Y-11853984D01*
X8332086Y-11853984D02*
X8351134Y-11863508D01*
X8351134Y-11863508D02*
X8360658Y-11873031D01*
X8360658Y-11873031D02*
X8370182Y-11892079D01*
X8370182Y-11892079D02*
X8379705Y-11930174D01*
X8379705Y-11930174D02*
X8379705Y-11977793D01*
X8379705Y-11977793D02*
X8370182Y-12015888D01*
X8370182Y-12015888D02*
X8360658Y-12034936D01*
X8360658Y-12034936D02*
X8351134Y-12044460D01*
X8351134Y-12044460D02*
X8332086Y-12053984D01*
X8332086Y-12053984D02*
X8313039Y-12053984D01*
X8313039Y-12053984D02*
X8293991Y-12044460D01*
X8293991Y-12044460D02*
X8284467Y-12034936D01*
X8284467Y-12034936D02*
X8274943Y-12015888D01*
X8274943Y-12015888D02*
X8265420Y-11977793D01*
X8265420Y-11977793D02*
X8265420Y-11930174D01*
X8265420Y-11930174D02*
X8274943Y-11892079D01*
X8274943Y-11892079D02*
X8284467Y-11873031D01*
X8284467Y-11873031D02*
X8293991Y-11863508D01*
X8293991Y-11863508D02*
X8313039Y-11853984D01*
X8465420Y-12053984D02*
X8465420Y-11920650D01*
X8465420Y-11939698D02*
X8474944Y-11930174D01*
X8474944Y-11930174D02*
X8493991Y-11920650D01*
X8493991Y-11920650D02*
X8522563Y-11920650D01*
X8522563Y-11920650D02*
X8541610Y-11930174D01*
X8541610Y-11930174D02*
X8551134Y-11949222D01*
X8551134Y-11949222D02*
X8551134Y-12053984D01*
X8551134Y-11949222D02*
X8560658Y-11930174D01*
X8560658Y-11930174D02*
X8579705Y-11920650D01*
X8579705Y-11920650D02*
X8608277Y-11920650D01*
X8608277Y-11920650D02*
X8627325Y-11930174D01*
X8627325Y-11930174D02*
X8636848Y-11949222D01*
X8636848Y-11949222D02*
X8636848Y-12053984D01*
X8732086Y-12053984D02*
X8732086Y-11920650D01*
X8732086Y-11939698D02*
X8741610Y-11930174D01*
X8741610Y-11930174D02*
X8760658Y-11920650D01*
X8760658Y-11920650D02*
X8789229Y-11920650D01*
X8789229Y-11920650D02*
X8808277Y-11930174D01*
X8808277Y-11930174D02*
X8817801Y-11949222D01*
X8817801Y-11949222D02*
X8817801Y-12053984D01*
X8817801Y-11949222D02*
X8827325Y-11930174D01*
X8827325Y-11930174D02*
X8846372Y-11920650D01*
X8846372Y-11920650D02*
X8874944Y-11920650D01*
X8874944Y-11920650D02*
X8893991Y-11930174D01*
X8893991Y-11930174D02*
X8903515Y-11949222D01*
X8903515Y-11949222D02*
X8903515Y-12053984D01*
X9293991Y-11844460D02*
X9122563Y-12101603D01*
X9551134Y-11853984D02*
X9570182Y-11853984D01*
X9570182Y-11853984D02*
X9589229Y-11863508D01*
X9589229Y-11863508D02*
X9598753Y-11873031D01*
X9598753Y-11873031D02*
X9608277Y-11892079D01*
X9608277Y-11892079D02*
X9617801Y-11930174D01*
X9617801Y-11930174D02*
X9617801Y-11977793D01*
X9617801Y-11977793D02*
X9608277Y-12015888D01*
X9608277Y-12015888D02*
X9598753Y-12034936D01*
X9598753Y-12034936D02*
X9589229Y-12044460D01*
X9589229Y-12044460D02*
X9570182Y-12053984D01*
X9570182Y-12053984D02*
X9551134Y-12053984D01*
X9551134Y-12053984D02*
X9532087Y-12044460D01*
X9532087Y-12044460D02*
X9522563Y-12034936D01*
X9522563Y-12034936D02*
X9513039Y-12015888D01*
X9513039Y-12015888D02*
X9503515Y-11977793D01*
X9503515Y-11977793D02*
X9503515Y-11930174D01*
X9503515Y-11930174D02*
X9513039Y-11892079D01*
X9513039Y-11892079D02*
X9522563Y-11873031D01*
X9522563Y-11873031D02*
X9532087Y-11863508D01*
X9532087Y-11863508D02*
X9551134Y-11853984D01*
X9703515Y-12034936D02*
X9713039Y-12044460D01*
X9713039Y-12044460D02*
X9703515Y-12053984D01*
X9703515Y-12053984D02*
X9693991Y-12044460D01*
X9693991Y-12044460D02*
X9703515Y-12034936D01*
X9703515Y-12034936D02*
X9703515Y-12053984D01*
X9836848Y-11853984D02*
X9855896Y-11853984D01*
X9855896Y-11853984D02*
X9874944Y-11863508D01*
X9874944Y-11863508D02*
X9884468Y-11873031D01*
X9884468Y-11873031D02*
X9893991Y-11892079D01*
X9893991Y-11892079D02*
X9903515Y-11930174D01*
X9903515Y-11930174D02*
X9903515Y-11977793D01*
X9903515Y-11977793D02*
X9893991Y-12015888D01*
X9893991Y-12015888D02*
X9884468Y-12034936D01*
X9884468Y-12034936D02*
X9874944Y-12044460D01*
X9874944Y-12044460D02*
X9855896Y-12053984D01*
X9855896Y-12053984D02*
X9836848Y-12053984D01*
X9836848Y-12053984D02*
X9817801Y-12044460D01*
X9817801Y-12044460D02*
X9808277Y-12034936D01*
X9808277Y-12034936D02*
X9798753Y-12015888D01*
X9798753Y-12015888D02*
X9789229Y-11977793D01*
X9789229Y-11977793D02*
X9789229Y-11930174D01*
X9789229Y-11930174D02*
X9798753Y-11892079D01*
X9798753Y-11892079D02*
X9808277Y-11873031D01*
X9808277Y-11873031D02*
X9817801Y-11863508D01*
X9817801Y-11863508D02*
X9836848Y-11853984D01*
X9970182Y-11853984D02*
X10093991Y-11853984D01*
X10093991Y-11853984D02*
X10027325Y-11930174D01*
X10027325Y-11930174D02*
X10055896Y-11930174D01*
X10055896Y-11930174D02*
X10074944Y-11939698D01*
X10074944Y-11939698D02*
X10084468Y-11949222D01*
X10084468Y-11949222D02*
X10093991Y-11968269D01*
X10093991Y-11968269D02*
X10093991Y-12015888D01*
X10093991Y-12015888D02*
X10084468Y-12034936D01*
X10084468Y-12034936D02*
X10074944Y-12044460D01*
X10074944Y-12044460D02*
X10055896Y-12053984D01*
X10055896Y-12053984D02*
X9998753Y-12053984D01*
X9998753Y-12053984D02*
X9979706Y-12044460D01*
X9979706Y-12044460D02*
X9970182Y-12034936D01*
X10284468Y-12053984D02*
X10170182Y-12053984D01*
X10227325Y-12053984D02*
X10227325Y-11853984D01*
X10227325Y-11853984D02*
X10208277Y-11882555D01*
X10208277Y-11882555D02*
X10189229Y-11901603D01*
X10189229Y-11901603D02*
X10170182Y-11911127D01*
X10465420Y-11853984D02*
X10370182Y-11853984D01*
X10370182Y-11853984D02*
X10360658Y-11949222D01*
X10360658Y-11949222D02*
X10370182Y-11939698D01*
X10370182Y-11939698D02*
X10389229Y-11930174D01*
X10389229Y-11930174D02*
X10436849Y-11930174D01*
X10436849Y-11930174D02*
X10455896Y-11939698D01*
X10455896Y-11939698D02*
X10465420Y-11949222D01*
X10465420Y-11949222D02*
X10474944Y-11968269D01*
X10474944Y-11968269D02*
X10474944Y-12015888D01*
X10474944Y-12015888D02*
X10465420Y-12034936D01*
X10465420Y-12034936D02*
X10455896Y-12044460D01*
X10455896Y-12044460D02*
X10436849Y-12053984D01*
X10436849Y-12053984D02*
X10389229Y-12053984D01*
X10389229Y-12053984D02*
X10370182Y-12044460D01*
X10370182Y-12044460D02*
X10360658Y-12034936D01*
X10551134Y-11853984D02*
X10551134Y-11892079D01*
X10627325Y-11853984D02*
X10627325Y-11892079D01*
X10922563Y-12130174D02*
X10913039Y-12120650D01*
X10913039Y-12120650D02*
X10893991Y-12092079D01*
X10893991Y-12092079D02*
X10884468Y-12073031D01*
X10884468Y-12073031D02*
X10874944Y-12044460D01*
X10874944Y-12044460D02*
X10865420Y-11996841D01*
X10865420Y-11996841D02*
X10865420Y-11958746D01*
X10865420Y-11958746D02*
X10874944Y-11911127D01*
X10874944Y-11911127D02*
X10884468Y-11882555D01*
X10884468Y-11882555D02*
X10893991Y-11863508D01*
X10893991Y-11863508D02*
X10913039Y-11834936D01*
X10913039Y-11834936D02*
X10922563Y-11825412D01*
X10989230Y-11873031D02*
X10998753Y-11863508D01*
X10998753Y-11863508D02*
X11017801Y-11853984D01*
X11017801Y-11853984D02*
X11065420Y-11853984D01*
X11065420Y-11853984D02*
X11084468Y-11863508D01*
X11084468Y-11863508D02*
X11093991Y-11873031D01*
X11093991Y-11873031D02*
X11103515Y-11892079D01*
X11103515Y-11892079D02*
X11103515Y-11911127D01*
X11103515Y-11911127D02*
X11093991Y-11939698D01*
X11093991Y-11939698D02*
X10979706Y-12053984D01*
X10979706Y-12053984D02*
X11103515Y-12053984D01*
X11341610Y-12053984D02*
X11341610Y-11853984D01*
X11427325Y-12053984D02*
X11427325Y-11949222D01*
X11427325Y-11949222D02*
X11417801Y-11930174D01*
X11417801Y-11930174D02*
X11398753Y-11920650D01*
X11398753Y-11920650D02*
X11370182Y-11920650D01*
X11370182Y-11920650D02*
X11351134Y-11930174D01*
X11351134Y-11930174D02*
X11341610Y-11939698D01*
X11551134Y-12053984D02*
X11532087Y-12044460D01*
X11532087Y-12044460D02*
X11522563Y-12034936D01*
X11522563Y-12034936D02*
X11513039Y-12015888D01*
X11513039Y-12015888D02*
X11513039Y-11958746D01*
X11513039Y-11958746D02*
X11522563Y-11939698D01*
X11522563Y-11939698D02*
X11532087Y-11930174D01*
X11532087Y-11930174D02*
X11551134Y-11920650D01*
X11551134Y-11920650D02*
X11579706Y-11920650D01*
X11579706Y-11920650D02*
X11598753Y-11930174D01*
X11598753Y-11930174D02*
X11608277Y-11939698D01*
X11608277Y-11939698D02*
X11617801Y-11958746D01*
X11617801Y-11958746D02*
X11617801Y-12015888D01*
X11617801Y-12015888D02*
X11608277Y-12034936D01*
X11608277Y-12034936D02*
X11598753Y-12044460D01*
X11598753Y-12044460D02*
X11579706Y-12053984D01*
X11579706Y-12053984D02*
X11551134Y-12053984D01*
X11732087Y-12053984D02*
X11713039Y-12044460D01*
X11713039Y-12044460D02*
X11703515Y-12025412D01*
X11703515Y-12025412D02*
X11703515Y-11853984D01*
X11884468Y-12044460D02*
X11865420Y-12053984D01*
X11865420Y-12053984D02*
X11827325Y-12053984D01*
X11827325Y-12053984D02*
X11808277Y-12044460D01*
X11808277Y-12044460D02*
X11798753Y-12025412D01*
X11798753Y-12025412D02*
X11798753Y-11949222D01*
X11798753Y-11949222D02*
X11808277Y-11930174D01*
X11808277Y-11930174D02*
X11827325Y-11920650D01*
X11827325Y-11920650D02*
X11865420Y-11920650D01*
X11865420Y-11920650D02*
X11884468Y-11930174D01*
X11884468Y-11930174D02*
X11893991Y-11949222D01*
X11893991Y-11949222D02*
X11893991Y-11968269D01*
X11893991Y-11968269D02*
X11798753Y-11987317D01*
X11970182Y-12044460D02*
X11989230Y-12053984D01*
X11989230Y-12053984D02*
X12027325Y-12053984D01*
X12027325Y-12053984D02*
X12046372Y-12044460D01*
X12046372Y-12044460D02*
X12055896Y-12025412D01*
X12055896Y-12025412D02*
X12055896Y-12015888D01*
X12055896Y-12015888D02*
X12046372Y-11996841D01*
X12046372Y-11996841D02*
X12027325Y-11987317D01*
X12027325Y-11987317D02*
X11998753Y-11987317D01*
X11998753Y-11987317D02*
X11979706Y-11977793D01*
X11979706Y-11977793D02*
X11970182Y-11958746D01*
X11970182Y-11958746D02*
X11970182Y-11949222D01*
X11970182Y-11949222D02*
X11979706Y-11930174D01*
X11979706Y-11930174D02*
X11998753Y-11920650D01*
X11998753Y-11920650D02*
X12027325Y-11920650D01*
X12027325Y-11920650D02*
X12046372Y-11930174D01*
X12122563Y-12130174D02*
X12132087Y-12120650D01*
X12132087Y-12120650D02*
X12151134Y-12092079D01*
X12151134Y-12092079D02*
X12160658Y-12073031D01*
X12160658Y-12073031D02*
X12170182Y-12044460D01*
X12170182Y-12044460D02*
X12179706Y-11996841D01*
X12179706Y-11996841D02*
X12179706Y-11958746D01*
X12179706Y-11958746D02*
X12170182Y-11911127D01*
X12170182Y-11911127D02*
X12160658Y-11882555D01*
X12160658Y-11882555D02*
X12151134Y-11863508D01*
X12151134Y-11863508D02*
X12132087Y-11834936D01*
X12132087Y-11834936D02*
X12122563Y-11825412D01*
D12*
X7247500Y-12176500D02*
X7347500Y-12276500D01*
X7347500Y-12176500D02*
X7247500Y-12276500D01*
X7297500Y-12176500D02*
X7297500Y-12276500D01*
X7247500Y-12226500D02*
X7347500Y-12226500D01*
D11*
X7713039Y-12317984D02*
X7598753Y-12317984D01*
X7655896Y-12317984D02*
X7655896Y-12117984D01*
X7655896Y-12117984D02*
X7636848Y-12146555D01*
X7636848Y-12146555D02*
X7617801Y-12165603D01*
X7617801Y-12165603D02*
X7598753Y-12175127D01*
X7798753Y-12298936D02*
X7808277Y-12308460D01*
X7808277Y-12308460D02*
X7798753Y-12317984D01*
X7798753Y-12317984D02*
X7789229Y-12308460D01*
X7789229Y-12308460D02*
X7798753Y-12298936D01*
X7798753Y-12298936D02*
X7798753Y-12317984D01*
X7932086Y-12117984D02*
X7951134Y-12117984D01*
X7951134Y-12117984D02*
X7970182Y-12127508D01*
X7970182Y-12127508D02*
X7979705Y-12137031D01*
X7979705Y-12137031D02*
X7989229Y-12156079D01*
X7989229Y-12156079D02*
X7998753Y-12194174D01*
X7998753Y-12194174D02*
X7998753Y-12241793D01*
X7998753Y-12241793D02*
X7989229Y-12279888D01*
X7989229Y-12279888D02*
X7979705Y-12298936D01*
X7979705Y-12298936D02*
X7970182Y-12308460D01*
X7970182Y-12308460D02*
X7951134Y-12317984D01*
X7951134Y-12317984D02*
X7932086Y-12317984D01*
X7932086Y-12317984D02*
X7913039Y-12308460D01*
X7913039Y-12308460D02*
X7903515Y-12298936D01*
X7903515Y-12298936D02*
X7893991Y-12279888D01*
X7893991Y-12279888D02*
X7884467Y-12241793D01*
X7884467Y-12241793D02*
X7884467Y-12194174D01*
X7884467Y-12194174D02*
X7893991Y-12156079D01*
X7893991Y-12156079D02*
X7903515Y-12137031D01*
X7903515Y-12137031D02*
X7913039Y-12127508D01*
X7913039Y-12127508D02*
X7932086Y-12117984D01*
X8122562Y-12117984D02*
X8141610Y-12117984D01*
X8141610Y-12117984D02*
X8160658Y-12127508D01*
X8160658Y-12127508D02*
X8170182Y-12137031D01*
X8170182Y-12137031D02*
X8179705Y-12156079D01*
X8179705Y-12156079D02*
X8189229Y-12194174D01*
X8189229Y-12194174D02*
X8189229Y-12241793D01*
X8189229Y-12241793D02*
X8179705Y-12279888D01*
X8179705Y-12279888D02*
X8170182Y-12298936D01*
X8170182Y-12298936D02*
X8160658Y-12308460D01*
X8160658Y-12308460D02*
X8141610Y-12317984D01*
X8141610Y-12317984D02*
X8122562Y-12317984D01*
X8122562Y-12317984D02*
X8103515Y-12308460D01*
X8103515Y-12308460D02*
X8093991Y-12298936D01*
X8093991Y-12298936D02*
X8084467Y-12279888D01*
X8084467Y-12279888D02*
X8074943Y-12241793D01*
X8074943Y-12241793D02*
X8074943Y-12194174D01*
X8074943Y-12194174D02*
X8084467Y-12156079D01*
X8084467Y-12156079D02*
X8093991Y-12137031D01*
X8093991Y-12137031D02*
X8103515Y-12127508D01*
X8103515Y-12127508D02*
X8122562Y-12117984D01*
X8313039Y-12117984D02*
X8332086Y-12117984D01*
X8332086Y-12117984D02*
X8351134Y-12127508D01*
X8351134Y-12127508D02*
X8360658Y-12137031D01*
X8360658Y-12137031D02*
X8370182Y-12156079D01*
X8370182Y-12156079D02*
X8379705Y-12194174D01*
X8379705Y-12194174D02*
X8379705Y-12241793D01*
X8379705Y-12241793D02*
X8370182Y-12279888D01*
X8370182Y-12279888D02*
X8360658Y-12298936D01*
X8360658Y-12298936D02*
X8351134Y-12308460D01*
X8351134Y-12308460D02*
X8332086Y-12317984D01*
X8332086Y-12317984D02*
X8313039Y-12317984D01*
X8313039Y-12317984D02*
X8293991Y-12308460D01*
X8293991Y-12308460D02*
X8284467Y-12298936D01*
X8284467Y-12298936D02*
X8274943Y-12279888D01*
X8274943Y-12279888D02*
X8265420Y-12241793D01*
X8265420Y-12241793D02*
X8265420Y-12194174D01*
X8265420Y-12194174D02*
X8274943Y-12156079D01*
X8274943Y-12156079D02*
X8284467Y-12137031D01*
X8284467Y-12137031D02*
X8293991Y-12127508D01*
X8293991Y-12127508D02*
X8313039Y-12117984D01*
X8465420Y-12317984D02*
X8465420Y-12184650D01*
X8465420Y-12203698D02*
X8474944Y-12194174D01*
X8474944Y-12194174D02*
X8493991Y-12184650D01*
X8493991Y-12184650D02*
X8522563Y-12184650D01*
X8522563Y-12184650D02*
X8541610Y-12194174D01*
X8541610Y-12194174D02*
X8551134Y-12213222D01*
X8551134Y-12213222D02*
X8551134Y-12317984D01*
X8551134Y-12213222D02*
X8560658Y-12194174D01*
X8560658Y-12194174D02*
X8579705Y-12184650D01*
X8579705Y-12184650D02*
X8608277Y-12184650D01*
X8608277Y-12184650D02*
X8627325Y-12194174D01*
X8627325Y-12194174D02*
X8636848Y-12213222D01*
X8636848Y-12213222D02*
X8636848Y-12317984D01*
X8732086Y-12317984D02*
X8732086Y-12184650D01*
X8732086Y-12203698D02*
X8741610Y-12194174D01*
X8741610Y-12194174D02*
X8760658Y-12184650D01*
X8760658Y-12184650D02*
X8789229Y-12184650D01*
X8789229Y-12184650D02*
X8808277Y-12194174D01*
X8808277Y-12194174D02*
X8817801Y-12213222D01*
X8817801Y-12213222D02*
X8817801Y-12317984D01*
X8817801Y-12213222D02*
X8827325Y-12194174D01*
X8827325Y-12194174D02*
X8846372Y-12184650D01*
X8846372Y-12184650D02*
X8874944Y-12184650D01*
X8874944Y-12184650D02*
X8893991Y-12194174D01*
X8893991Y-12194174D02*
X8903515Y-12213222D01*
X8903515Y-12213222D02*
X8903515Y-12317984D01*
X9293991Y-12108460D02*
X9122563Y-12365603D01*
X9551134Y-12117984D02*
X9570182Y-12117984D01*
X9570182Y-12117984D02*
X9589229Y-12127508D01*
X9589229Y-12127508D02*
X9598753Y-12137031D01*
X9598753Y-12137031D02*
X9608277Y-12156079D01*
X9608277Y-12156079D02*
X9617801Y-12194174D01*
X9617801Y-12194174D02*
X9617801Y-12241793D01*
X9617801Y-12241793D02*
X9608277Y-12279888D01*
X9608277Y-12279888D02*
X9598753Y-12298936D01*
X9598753Y-12298936D02*
X9589229Y-12308460D01*
X9589229Y-12308460D02*
X9570182Y-12317984D01*
X9570182Y-12317984D02*
X9551134Y-12317984D01*
X9551134Y-12317984D02*
X9532087Y-12308460D01*
X9532087Y-12308460D02*
X9522563Y-12298936D01*
X9522563Y-12298936D02*
X9513039Y-12279888D01*
X9513039Y-12279888D02*
X9503515Y-12241793D01*
X9503515Y-12241793D02*
X9503515Y-12194174D01*
X9503515Y-12194174D02*
X9513039Y-12156079D01*
X9513039Y-12156079D02*
X9522563Y-12137031D01*
X9522563Y-12137031D02*
X9532087Y-12127508D01*
X9532087Y-12127508D02*
X9551134Y-12117984D01*
X9703515Y-12298936D02*
X9713039Y-12308460D01*
X9713039Y-12308460D02*
X9703515Y-12317984D01*
X9703515Y-12317984D02*
X9693991Y-12308460D01*
X9693991Y-12308460D02*
X9703515Y-12298936D01*
X9703515Y-12298936D02*
X9703515Y-12317984D01*
X9836848Y-12117984D02*
X9855896Y-12117984D01*
X9855896Y-12117984D02*
X9874944Y-12127508D01*
X9874944Y-12127508D02*
X9884468Y-12137031D01*
X9884468Y-12137031D02*
X9893991Y-12156079D01*
X9893991Y-12156079D02*
X9903515Y-12194174D01*
X9903515Y-12194174D02*
X9903515Y-12241793D01*
X9903515Y-12241793D02*
X9893991Y-12279888D01*
X9893991Y-12279888D02*
X9884468Y-12298936D01*
X9884468Y-12298936D02*
X9874944Y-12308460D01*
X9874944Y-12308460D02*
X9855896Y-12317984D01*
X9855896Y-12317984D02*
X9836848Y-12317984D01*
X9836848Y-12317984D02*
X9817801Y-12308460D01*
X9817801Y-12308460D02*
X9808277Y-12298936D01*
X9808277Y-12298936D02*
X9798753Y-12279888D01*
X9798753Y-12279888D02*
X9789229Y-12241793D01*
X9789229Y-12241793D02*
X9789229Y-12194174D01*
X9789229Y-12194174D02*
X9798753Y-12156079D01*
X9798753Y-12156079D02*
X9808277Y-12137031D01*
X9808277Y-12137031D02*
X9817801Y-12127508D01*
X9817801Y-12127508D02*
X9836848Y-12117984D01*
X9970182Y-12117984D02*
X10093991Y-12117984D01*
X10093991Y-12117984D02*
X10027325Y-12194174D01*
X10027325Y-12194174D02*
X10055896Y-12194174D01*
X10055896Y-12194174D02*
X10074944Y-12203698D01*
X10074944Y-12203698D02*
X10084468Y-12213222D01*
X10084468Y-12213222D02*
X10093991Y-12232269D01*
X10093991Y-12232269D02*
X10093991Y-12279888D01*
X10093991Y-12279888D02*
X10084468Y-12298936D01*
X10084468Y-12298936D02*
X10074944Y-12308460D01*
X10074944Y-12308460D02*
X10055896Y-12317984D01*
X10055896Y-12317984D02*
X9998753Y-12317984D01*
X9998753Y-12317984D02*
X9979706Y-12308460D01*
X9979706Y-12308460D02*
X9970182Y-12298936D01*
X10189229Y-12317984D02*
X10227325Y-12317984D01*
X10227325Y-12317984D02*
X10246372Y-12308460D01*
X10246372Y-12308460D02*
X10255896Y-12298936D01*
X10255896Y-12298936D02*
X10274944Y-12270365D01*
X10274944Y-12270365D02*
X10284468Y-12232269D01*
X10284468Y-12232269D02*
X10284468Y-12156079D01*
X10284468Y-12156079D02*
X10274944Y-12137031D01*
X10274944Y-12137031D02*
X10265420Y-12127508D01*
X10265420Y-12127508D02*
X10246372Y-12117984D01*
X10246372Y-12117984D02*
X10208277Y-12117984D01*
X10208277Y-12117984D02*
X10189229Y-12127508D01*
X10189229Y-12127508D02*
X10179706Y-12137031D01*
X10179706Y-12137031D02*
X10170182Y-12156079D01*
X10170182Y-12156079D02*
X10170182Y-12203698D01*
X10170182Y-12203698D02*
X10179706Y-12222746D01*
X10179706Y-12222746D02*
X10189229Y-12232269D01*
X10189229Y-12232269D02*
X10208277Y-12241793D01*
X10208277Y-12241793D02*
X10246372Y-12241793D01*
X10246372Y-12241793D02*
X10265420Y-12232269D01*
X10265420Y-12232269D02*
X10274944Y-12222746D01*
X10274944Y-12222746D02*
X10284468Y-12203698D01*
X10455896Y-12184650D02*
X10455896Y-12317984D01*
X10408277Y-12108460D02*
X10360658Y-12251317D01*
X10360658Y-12251317D02*
X10484468Y-12251317D01*
X10551134Y-12117984D02*
X10551134Y-12156079D01*
X10627325Y-12117984D02*
X10627325Y-12156079D01*
X10922563Y-12394174D02*
X10913039Y-12384650D01*
X10913039Y-12384650D02*
X10893991Y-12356079D01*
X10893991Y-12356079D02*
X10884468Y-12337031D01*
X10884468Y-12337031D02*
X10874944Y-12308460D01*
X10874944Y-12308460D02*
X10865420Y-12260841D01*
X10865420Y-12260841D02*
X10865420Y-12222746D01*
X10865420Y-12222746D02*
X10874944Y-12175127D01*
X10874944Y-12175127D02*
X10884468Y-12146555D01*
X10884468Y-12146555D02*
X10893991Y-12127508D01*
X10893991Y-12127508D02*
X10913039Y-12098936D01*
X10913039Y-12098936D02*
X10922563Y-12089412D01*
X10989230Y-12137031D02*
X10998753Y-12127508D01*
X10998753Y-12127508D02*
X11017801Y-12117984D01*
X11017801Y-12117984D02*
X11065420Y-12117984D01*
X11065420Y-12117984D02*
X11084468Y-12127508D01*
X11084468Y-12127508D02*
X11093991Y-12137031D01*
X11093991Y-12137031D02*
X11103515Y-12156079D01*
X11103515Y-12156079D02*
X11103515Y-12175127D01*
X11103515Y-12175127D02*
X11093991Y-12203698D01*
X11093991Y-12203698D02*
X10979706Y-12317984D01*
X10979706Y-12317984D02*
X11103515Y-12317984D01*
X11284468Y-12117984D02*
X11189229Y-12117984D01*
X11189229Y-12117984D02*
X11179706Y-12213222D01*
X11179706Y-12213222D02*
X11189229Y-12203698D01*
X11189229Y-12203698D02*
X11208277Y-12194174D01*
X11208277Y-12194174D02*
X11255896Y-12194174D01*
X11255896Y-12194174D02*
X11274944Y-12203698D01*
X11274944Y-12203698D02*
X11284468Y-12213222D01*
X11284468Y-12213222D02*
X11293991Y-12232269D01*
X11293991Y-12232269D02*
X11293991Y-12279888D01*
X11293991Y-12279888D02*
X11284468Y-12298936D01*
X11284468Y-12298936D02*
X11274944Y-12308460D01*
X11274944Y-12308460D02*
X11255896Y-12317984D01*
X11255896Y-12317984D02*
X11208277Y-12317984D01*
X11208277Y-12317984D02*
X11189229Y-12308460D01*
X11189229Y-12308460D02*
X11179706Y-12298936D01*
X11532087Y-12317984D02*
X11532087Y-12117984D01*
X11617801Y-12317984D02*
X11617801Y-12213222D01*
X11617801Y-12213222D02*
X11608277Y-12194174D01*
X11608277Y-12194174D02*
X11589230Y-12184650D01*
X11589230Y-12184650D02*
X11560658Y-12184650D01*
X11560658Y-12184650D02*
X11541610Y-12194174D01*
X11541610Y-12194174D02*
X11532087Y-12203698D01*
X11741610Y-12317984D02*
X11722563Y-12308460D01*
X11722563Y-12308460D02*
X11713039Y-12298936D01*
X11713039Y-12298936D02*
X11703515Y-12279888D01*
X11703515Y-12279888D02*
X11703515Y-12222746D01*
X11703515Y-12222746D02*
X11713039Y-12203698D01*
X11713039Y-12203698D02*
X11722563Y-12194174D01*
X11722563Y-12194174D02*
X11741610Y-12184650D01*
X11741610Y-12184650D02*
X11770182Y-12184650D01*
X11770182Y-12184650D02*
X11789230Y-12194174D01*
X11789230Y-12194174D02*
X11798753Y-12203698D01*
X11798753Y-12203698D02*
X11808277Y-12222746D01*
X11808277Y-12222746D02*
X11808277Y-12279888D01*
X11808277Y-12279888D02*
X11798753Y-12298936D01*
X11798753Y-12298936D02*
X11789230Y-12308460D01*
X11789230Y-12308460D02*
X11770182Y-12317984D01*
X11770182Y-12317984D02*
X11741610Y-12317984D01*
X11922563Y-12317984D02*
X11903515Y-12308460D01*
X11903515Y-12308460D02*
X11893991Y-12289412D01*
X11893991Y-12289412D02*
X11893991Y-12117984D01*
X12074944Y-12308460D02*
X12055896Y-12317984D01*
X12055896Y-12317984D02*
X12017801Y-12317984D01*
X12017801Y-12317984D02*
X11998753Y-12308460D01*
X11998753Y-12308460D02*
X11989230Y-12289412D01*
X11989230Y-12289412D02*
X11989230Y-12213222D01*
X11989230Y-12213222D02*
X11998753Y-12194174D01*
X11998753Y-12194174D02*
X12017801Y-12184650D01*
X12017801Y-12184650D02*
X12055896Y-12184650D01*
X12055896Y-12184650D02*
X12074944Y-12194174D01*
X12074944Y-12194174D02*
X12084468Y-12213222D01*
X12084468Y-12213222D02*
X12084468Y-12232269D01*
X12084468Y-12232269D02*
X11989230Y-12251317D01*
X12160658Y-12308460D02*
X12179706Y-12317984D01*
X12179706Y-12317984D02*
X12217801Y-12317984D01*
X12217801Y-12317984D02*
X12236849Y-12308460D01*
X12236849Y-12308460D02*
X12246372Y-12289412D01*
X12246372Y-12289412D02*
X12246372Y-12279888D01*
X12246372Y-12279888D02*
X12236849Y-12260841D01*
X12236849Y-12260841D02*
X12217801Y-12251317D01*
X12217801Y-12251317D02*
X12189230Y-12251317D01*
X12189230Y-12251317D02*
X12170182Y-12241793D01*
X12170182Y-12241793D02*
X12160658Y-12222746D01*
X12160658Y-12222746D02*
X12160658Y-12213222D01*
X12160658Y-12213222D02*
X12170182Y-12194174D01*
X12170182Y-12194174D02*
X12189230Y-12184650D01*
X12189230Y-12184650D02*
X12217801Y-12184650D01*
X12217801Y-12184650D02*
X12236849Y-12194174D01*
X12313039Y-12394174D02*
X12322563Y-12384650D01*
X12322563Y-12384650D02*
X12341611Y-12356079D01*
X12341611Y-12356079D02*
X12351134Y-12337031D01*
X12351134Y-12337031D02*
X12360658Y-12308460D01*
X12360658Y-12308460D02*
X12370182Y-12260841D01*
X12370182Y-12260841D02*
X12370182Y-12222746D01*
X12370182Y-12222746D02*
X12360658Y-12175127D01*
X12360658Y-12175127D02*
X12351134Y-12146555D01*
X12351134Y-12146555D02*
X12341611Y-12127508D01*
X12341611Y-12127508D02*
X12322563Y-12098936D01*
X12322563Y-12098936D02*
X12313039Y-12089412D01*
M02*
